
<svg width="1235px" height="81px" viewBox="0 0 1235 81" version="1.1" xmlns="http://www.w3.org/2000/svg" xmlns:xlink="http://www.w3.org/1999/xlink">
    <!-- Generator: Sketch 51.1 (57501) - http://www.bohemiancoding.com/sketch -->
    <desc>Created with Sketch.</desc>
    <defs>
        <linearGradient x1="51.030165%" y1="83.1110099%" x2="51.030165%" y2="100%" id="linearGradient-1">
            <stop stop-color="#0C247C" stop-opacity="0" offset="0%"></stop>
            <stop stop-color="#0B2B7F" offset="100%"></stop>
        </linearGradient>
        <linearGradient x1="5.09315452%" y1="49.9822587%" x2="51.1061566%" y2="49.9822587%" id="linearGradient-2">
            <stop stop-color="#448FBC" stop-opacity="0" offset="0%"></stop>
            <stop stop-color="#B3DBFF" offset="31.4447571%"></stop>
            <stop stop-color="#448FBC" stop-opacity="0" offset="100%"></stop>
        </linearGradient>
    </defs>
    <g id="Page-1" stroke="none" stroke-width="1" fill="none" fill-rule="evenodd" fill-opacity="0.5" stroke-opacity="0.5">
        <g id="第一页" transform="translate(0.000000, -12.000000)">
            <g id="Group-2" transform="translate(-578.000000, -387.000000)">
                <path d="M1093.66478,418.102609 L1063.96166,477.782288 C1063.2854,479.141032 1061.89841,480 1060.38068,480 L128.338991,480 C126.835915,480 125.459715,479.157373 124.776328,477.818635 L107.661314,444.290736 L4.1327531,447.040441 C1.92439288,447.099095 0.0866149352,445.356414 0.0279611669,443.148054 C0.0270211365,443.112661 0.0265510592,443.077257 0.0265510592,443.041852 L0.0265510592,4 C0.0265510592,1.790861 1.81741206,-1.15501472e-13 4.02655106,-1.15907284e-13 L2878,-1.13686838e-13 C2880.20914,-1.1409265e-13 2882,1.790861 2882,4 L2882,366.70948 C2882,368.877253 2880.27321,370.650514 2878.1062,370.70807 L1093.66478,418.102609 Z" id="Combined-Shape" fill="url(#linearGradient-1)"></path>
                <path d="M1062.17117,476.891144 L1092.40994,416.135232 L2878.0531,368.708775 C2879.13661,368.679997 2880,367.793366 2880,366.70948 L2880,4 C2880,2.8954305 2879.10457,2 2878,2 L4.02655106,2 C2.92198156,2 2.02655106,2.8954305 2.02655106,4 L2.02655106,443.041852 C2.02666858,443.068405 2.02666858,443.068405 2.02725611,443.094953 C2.056583,444.199133 2.97547197,445.070473 4.07965208,445.041147 L108.869148,442.257951 L126.55766,476.909318 C126.899353,477.578687 127.587453,478 128.338991,478 L1060.38068,478 C1061.13954,478 1061.83304,477.570516 1062.17117,476.891144 Z" id="Combined-Shape" stroke="url(#linearGradient-2)" stroke-width="4"></path>
            </g>
        </g>
    </g>
</svg>