<?xml version="1.0" encoding="UTF-8"?>
<svg width="3223px" height="2433px" viewBox="0 0 3223 2433" version="1.1" xmlns="http://www.w3.org/2000/svg" xmlns:xlink="http://www.w3.org/1999/xlink">
    <!-- Generator: Sketch 48 (47235) - http://www.bohemiancoding.com/sketch -->
    <title>Path 20</title>
    <desc>Created with Sketch.</desc>
    <defs>
        <linearGradient x1="21.9793189%" y1="63.6988863%" x2="100%" y2="10.3396283%" id="linearGradient-1">
            <stop stop-color="#084A94" offset="0%"></stop>
            <stop stop-color="#004EB9" stop-opacity="0.2" offset="100%"></stop>
        </linearGradient>
        <linearGradient x1="21.6138284%" y1="90.2383419%" x2="98.0273459%" y2="19.4359345%" id="linearGradient-2">
            <stop stop-color="#2EB3E3" stop-opacity="0.6" offset="0%"></stop>
            <stop stop-color="#157CC2" stop-opacity="0.4" offset="100%"></stop>
        </linearGradient>
        <path d="M2681.55023,2717.93636 L2686.66543,2717.93636 C2689.20649,2717.93636 2691.52089,2719.39813 2692.61272,2721.69266 L2708.63432,2755.36265 C2710.10279,2758.44869 2713.68775,2759.89882 2716.88881,2758.70162 L2765.29729,2740.59672 C2767.33745,2739.8337 2769.6229,2740.12869 2771.40245,2741.38473 L2816.53375,2773.23928 C2819.13572,2775.0758 2820.05084,2778.51102 2818.70735,2781.39859 L2809.06942,2802.11339 C2808.05506,2804.29356 2808.30945,2806.85326 2809.73307,2808.79114 L2818.75531,2821.07242 C2820.15975,2822.98417 2820.42763,2825.50348 2819.45659,2827.66782 L2795.62421,2880.7879 C2795.08263,2881.99505 2794.91716,2883.33732 2795.14936,2884.63986 L2820.29861,3025.71227 C2820.74411,3028.21127 2819.71385,3030.74387 2817.65037,3032.22222 L2808.37249,3038.8692 C2807.74541,3039.31846 2807.20212,3039.8744 2806.7674,3040.51167 L2796.75398,3055.19068 C2795.527,3056.98934 2793.49039,3058.06539 2791.31308,3058.06539 L2775.14441,3058.06539 C2771.50691,3058.06539 2768.55814,3061.01417 2768.55814,3064.65166 L2768.55814,3096.32682 C2768.55814,3099.09981 2766.82128,3101.57579 2764.2139,3102.51974 L2609.86371,3158.39945 C2606.71949,3159.53776 2604.92728,3162.85155 2605.69575,3166.10598 L2612.25737,3193.89389 C2612.77719,3196.09526 2614.39027,3197.87589 2616.52973,3198.61001 L2637.62899,3205.84988 C2641.06957,3207.03046 2642.90166,3210.77666 2641.72108,3214.21724 C2641.262,3215.55515 2640.38439,3216.70973 2639.21812,3217.5101 L2614.77666,3234.28349 C2613.67966,3235.03632 2612.38037,3235.43927 2611.04989,3235.43927 L2601.49652,3235.43927 C2597.85902,3235.43927 2594.91024,3238.38805 2594.91024,3242.02554 C2594.91024,3242.65618 2595.00082,3243.28356 2595.17919,3243.88845 L2611.80069,3300.25392 C2612.57764,3302.88862 2611.63784,3305.72885 2609.44273,3307.38013 L2575.8374,3332.65991 C2574.78725,3333.4499 2573.99742,3334.53596 2573.56948,3335.77844 L2556.43111,3385.53869 C2555.99697,3386.79918 2555.19054,3387.89825 2554.11841,3388.69061 L2520.93152,3413.21764 C2519.58853,3414.21018 2517.91865,3414.65552 2516.25976,3414.46353 L2446.01116,3406.33355 C2444.13009,3406.11585 2442.24632,3406.71833 2440.84069,3407.9872 L2406.0658,3439.3787 C2404.85551,3440.47124 2403.28299,3441.07602 2401.65251,3441.07602 L2373.75249,3441.07602 C2372.68087,3441.07602 2371.62543,3441.3375 2370.67775,3441.83778 L2336.14237,3460.06895 C2335.51666,3460.39926 2334.94826,3460.82824 2334.45903,3461.33939 L2314.68466,3481.99962 C2312.96374,3483.79764 2310.37626,3484.47201 2307.99665,3483.74272 L2282.98016,3476.07581 C2279.58746,3475.03604 2277.62837,3471.49538 2278.54968,3468.06861 L2297.9874,3395.77032 C2298.93182,3392.25756 2296.84977,3388.64431 2293.33702,3387.69989 C2292.77938,3387.54996 2292.20444,3387.47402 2291.62699,3387.47402 L2283.48433,3387.47402 C2279.84683,3387.47402 2276.89805,3384.52525 2276.89805,3380.88775 L2276.89805,3356.23906 C2276.89805,3353.86068 2275.61577,3351.66704 2273.54335,3350.50008 L2223.53194,3322.33908 C2222.22549,3321.60343 2220.70713,3321.33554 2219.22781,3321.57971 L2147.36058,3333.44152 C2145.68661,3333.71781 2143.97058,3333.33746 2142.57012,3332.37973 L2105.64034,3307.12463 C2103.43716,3305.61795 2100.54248,3305.58992 2098.31054,3307.05365 L2078.37668,3320.12652 C2077.30616,3320.82857 2076.46346,3321.82739 2075.95163,3323.00081 L2067.22648,3343.00396 C2066.19981,3345.3577 2063.45944,3346.43349 2061.1057,3345.40682 C2060.07421,3344.95689 2059.2409,3344.14814 2058.76033,3343.13055 L2057.58201,3340.63551 C2056.02866,3337.34636 2052.10304,3335.93922 2048.81389,3337.49257 C2048.56194,3337.61156 2048.31779,3337.74641 2048.08291,3337.89633 L1991.00407,3374.32844 C1990.5091,3374.64437 1989.9741,3374.89269 1989.4133,3375.06679 L1950.56166,3387.12845 C1949.82531,3387.35706 1949.13481,3387.71318 1948.52163,3388.1806 L1932.01648,3400.76223 C1929.12363,3402.96741 1924.99086,3402.40994 1922.78569,3399.51709 C1922.43049,3399.05113 1922.13906,3398.53985 1921.91911,3397.9968 L1913.10468,3376.23451 C1912.72369,3375.29388 1912.13049,3374.45401 1911.37136,3373.78046 L1889.47733,3354.35443 C1888.06856,3353.10446 1887.2623,3351.3112 1887.2623,3349.42784 L1887.2623,3340.4583 C1887.2623,3336.8208 1884.31352,3333.87203 1880.67602,3333.87203 L1871.60181,3333.87203 C1869.26479,3333.87203 1867.10278,3332.63359 1865.92051,3330.61768 L1840.65286,3287.53352 C1839.43587,3285.45843 1839.44705,3282.88491 1840.682,3280.82046 L1866.89498,3237.0008 C1867.50627,3235.97892 1867.82909,3234.81043 1867.82909,3233.61967 L1867.82909,3180.05486 C1867.82909,3177.56301 1869.23538,3175.28452 1871.46281,3174.16746 L1945.81483,3136.87967 C1948.04226,3135.76261 1949.44855,3133.48412 1949.44855,3130.99228 L1949.44855,3117.31347 C1949.44855,3115.5701 1950.13975,3113.89786 1951.37064,3112.66327 L1961.60166,3102.40148 C1962.54599,3101.45431 1963.17957,3100.24209 1963.41814,3098.92605 L1980.03012,3007.28543 C1980.35636,3005.48569 1979.9195,3003.63133 1978.82417,3002.16649 L1964.36336,2982.82745 C1963.5119,2981.68876 1963.05179,2980.30511 1963.05179,2978.88328 L1963.05179,2910.61858 C1963.05179,2907.4064 1960.7346,2904.66274 1957.56771,2904.12519 L1905.80326,2895.33871 C1902.45343,2894.77011 1899.22083,2896.84306 1898.33998,2900.12464 L1895.31871,2911.38023 C1894.3757,2914.89336 1890.76328,2916.97686 1887.25015,2916.03385 C1886.6931,2915.88433 1886.1581,2915.66228 1885.65889,2915.37341 L1869.68841,2906.13196 C1868.48018,2905.43282 1867.08107,2905.13563 1865.69297,2905.2833 L1810.51354,2911.15326 C1806.89645,2911.53804 1803.65229,2908.91774 1803.26751,2905.30065 C1803.25831,2905.21417 1803.25082,2905.12752 1803.24505,2905.04074 L1798.25591,2829.97862 C1798.0353,2826.65944 1800.32433,2823.69679 1803.59174,2823.07255 L1835.18389,2817.03691 C1837.36514,2816.62018 1839.18953,2815.13232 1840.03644,2813.07946 L1848.83784,2791.74545 C1849.76246,2789.50423 1849.38102,2786.93625 1847.84489,2785.06055 L1829.78825,2763.01246 C1828.64103,2761.61165 1828.12109,2759.80034 1828.35066,2758.00432 L1831.90072,2730.23061 C1832.36192,2726.62247 1829.81081,2723.32362 1826.20267,2722.86242 C1825.92572,2722.82702 1825.6468,2722.80927 1825.3676,2722.80927 L1799.87882,2722.80927 C1798.5691,2722.80927 1797.28913,2723.19975 1796.20244,2723.93082 L1720.38395,2774.93758 C1718.97797,2775.88346 1717.26151,2776.25103 1715.59148,2775.96388 L1689.65548,2771.50434 C1686.49501,2770.96091 1684.1853,2768.22018 1684.1853,2765.01332 L1684.1853,2695.50345 C1684.1853,2692.28365 1686.79547,2689.67349 1690.01527,2689.67349 L1690.01527,2689.67349 C1692.44597,2689.67349 1694.41644,2687.70302 1694.41644,2685.27232 C1694.41644,2684.86454 1694.35977,2684.45875 1694.24805,2684.06657 L1685.15949,2652.16094 C1684.55151,2650.02662 1685.05925,2647.72962 1686.5102,2646.05042 L1707.84577,2621.35843 C1708.8796,2620.16197 1709.44847,2618.63351 1709.44847,2617.05227 L1709.44847,2593.49518 C1709.44847,2592.03383 1708.96246,2590.61399 1708.06696,2589.45917 L1697.82334,2576.24919 C1696.57551,2574.64001 1696.14218,2572.54412 1696.64957,2570.57204 L1701.87833,2550.24968 C1702.78471,2546.72692 1700.66371,2543.13639 1697.14094,2542.23001 C1697.01642,2542.19797 1696.89098,2542.16959 1696.76479,2542.14489 L1634.46129,2529.95156 C1630.99231,2529.27265 1628.73051,2525.91012 1629.40942,2522.44114 C1629.61295,2521.40116 1630.07153,2520.42799 1630.74399,2519.60897 L1636.04964,2513.14702 C1637.01691,2511.96895 1637.54561,2510.49186 1637.54561,2508.96757 L1637.54561,2464.2037 C1637.54561,2461.98393 1636.42746,2459.91348 1634.57125,2458.69616 L1564.73047,2412.89373 C1562.87426,2411.6764 1561.75611,2409.60595 1561.75611,2407.38618 L1561.75611,2386.49471 C1561.75611,2384.68211 1562.50313,2382.94963 1563.8212,2381.70536 L1572.01266,2373.97257 C1574.00068,2372.09587 1574.09092,2368.96289 1572.21422,2366.97487 C1571.61343,2366.33845 1570.85466,2365.87269 1570.01523,2365.62505 L1563.73096,2363.77118 C1562.44508,2363.39185 1561.30559,2362.62913 1560.46473,2361.58493 L1545.75323,2343.31594 C1543.47181,2340.48283 1539.32567,2340.0356 1536.49256,2342.31702 C1536.38393,2342.4045 1536.27811,2342.4954 1536.17525,2342.5896 L1521.95174,2355.61532 C1520.13983,2357.27465 1517.55495,2357.78752 1515.24677,2356.94566 L1500.13054,2351.43232 C1498.52447,2350.84654 1496.75355,2350.9082 1495.19211,2351.60426 L1485.30811,2356.01036 C1482.33437,2357.33599 1478.83825,2356.28988 1477.08137,2353.54874 L1458.16979,2324.04228 C1456.20697,2320.97981 1457.0984,2316.90601 1460.16087,2314.94318 C1460.49759,2314.72737 1460.85327,2314.54267 1461.2235,2314.39139 L1476.04176,2308.33616 C1478.51832,2307.32416 1480.13665,2304.91462 1480.13665,2302.23928 L1480.13665,2290.47039 C1480.13665,2286.83289 1477.18788,2283.88412 1473.55038,2283.88412 C1472.84048,2283.88412 1472.13525,2283.99889 1471.46198,2284.22398 L1463.95659,2286.7333 C1461.40451,2287.58655 1458.59005,2286.80148 1456.84811,2284.75044 L1439.65142,2264.50233 C1438.23359,2262.83291 1436.07863,2261.97753 1433.90185,2262.22012 L1391.69405,2266.92398 C1388.34363,2267.29737 1385.32489,2264.88401 1384.95151,2261.53359 C1384.92649,2261.3091 1384.91395,2261.0834 1384.91395,2260.85752 L1384.91395,2260.85752 C1384.91395,2257.8023 1382.4372,2255.32555 1379.38199,2255.32555 C1378.9979,2255.32555 1378.61486,2255.36555 1378.23906,2255.44491 L1354.27259,2260.50565 C1350.77765,2261.24364 1348.50799,2264.633 1349.15653,2268.14564 L1351.68769,2281.85501 C1352.33455,2285.35857 1350.0781,2288.74139 1346.59487,2289.49004 L1315.69673,2296.13098 C1313.42868,2296.61845 1311.07143,2295.87678 1309.4911,2294.17847 L1285.59043,2268.49362 C1285.08899,2267.95474 1284.50076,2267.50374 1283.8502,2267.15936 L1150.95685,2196.81031 C1147.74201,2195.10849 1146.51546,2191.12275 1148.21729,2187.90791 C1148.25572,2187.8353 1148.29551,2187.76342 1148.33664,2187.6923 L1199.78796,2098.71641 C1200.73065,2097.08618 1202.32609,2095.93746 1204.17114,2095.56048 L1247.81566,2086.6432 C1251.16618,2085.95863 1253.43541,2082.8237 1253.03912,2079.42699 L1243.73093,1999.64514 C1243.34362,1996.32543 1240.53126,1993.82211 1237.18903,1993.82211 L1223.403,1993.82211 C1219.7655,1993.82211 1216.81673,1990.87334 1216.81673,1987.23584 L1216.81673,1980.21868 C1216.81673,1977.30383 1214.90078,1974.73567 1212.10671,1973.9053 L1200.80954,1970.54793 C1197.32277,1969.51171 1195.3362,1965.84509 1196.37243,1962.35831 C1196.66439,1961.37588 1197.1816,1960.47514 1197.88292,1959.72775 L1204.34507,1952.84107 C1205.49078,1951.62009 1206.12846,1950.0086 1206.12846,1948.33426 L1206.12846,1908.46293 C1206.12846,1905.84886 1207.67443,1903.4822 1210.06818,1902.43179 L1234.27405,1891.80987 C1236.13396,1890.99372 1237.51327,1889.36508 1238.01207,1887.39618 L1266.46618,1775.0788 C1267.01316,1772.91969 1266.43185,1770.63041 1264.92104,1768.99383 L1246.13395,1748.64277 C1244.27842,1746.63277 1243.85849,1743.68504 1245.07892,1741.23684 L1266.52292,1698.2199 C1267.05942,1697.14365 1267.29103,1695.94106 1267.19263,1694.74254 L1260.64425,1614.9874 C1260.57632,1614.16008 1260.35261,1613.35306 1259.9849,1612.60884 L1206.53898,1504.43835 C1206.26665,1503.88716 1206.07282,1503.30055 1205.96316,1502.69561 L1191.44796,1422.62196 C1190.93299,1419.78112 1192.32823,1416.93607 1194.88967,1415.60392 L1214.72446,1405.28829 C1216.07725,1404.58474 1217.63225,1404.37236 1219.12416,1404.68739 L1251.83375,1411.59432 C1253.07782,1411.85702 1254.37134,1411.754 1255.55814,1411.29769 L1305.56377,1392.07123 C1308.95896,1390.76582 1312.76954,1392.45993 1314.07494,1395.85512 C1314.1159,1395.96164 1314.15407,1396.0692 1314.18944,1396.1777 L1327.07618,1435.71447 C1327.95972,1438.42521 1330.48711,1440.25968 1333.33821,1440.25968 L1381.23923,1440.25968 C1383.52331,1440.25968 1385.64433,1441.44307 1386.84396,1443.38676 L1392.8017,1453.03974 C1394.71216,1456.13514 1398.77021,1457.09573 1401.86562,1455.18527 C1402.44723,1454.8263 1402.96942,1454.379 1403.41345,1453.85941 L1413.06357,1442.56708 C1414.31489,1441.10281 1416.14448,1440.25968 1418.07059,1440.25968 L1468.18664,1440.25968 C1469.02023,1440.25968 1469.84624,1440.10144 1470.62081,1439.79335 L1519.49358,1420.3545 C1522.87353,1419.01015 1526.70334,1420.66032 1528.0477,1424.04028 C1528.07265,1424.10301 1528.09664,1424.16613 1528.11965,1424.2296 L1540.52919,1458.45844 C1541.05999,1459.92254 1541.05482,1461.52736 1540.51459,1462.988 L1519.91904,1518.67337 C1519.33113,1520.26294 1519.37861,1522.01796 1520.0516,1523.57341 L1539.61806,1568.79693 C1540.66864,1571.22511 1540.16428,1574.04624 1538.33745,1575.96 L1504.64665,1611.25397 C1502.13501,1613.88514 1502.23189,1618.05421 1504.86306,1620.56585 C1505.5343,1621.2066 1506.33336,1621.69828 1507.20789,1622.00866 L1621.96607,1662.73749 C1623.2518,1663.19381 1624.3641,1664.03815 1625.1493,1665.15385 L1645.2947,1693.77899 C1646.52824,1695.53176 1648.53752,1696.57468 1650.68084,1696.57468 L1708.25079,1696.57468 C1709.04275,1696.57468 1709.82822,1696.43185 1710.56948,1696.15304 L1775.78155,1671.62498 C1778.0199,1670.78308 1780.53873,1671.22061 1782.36203,1672.76805 L1853.35385,1733.01866 C1854.54411,1734.02883 1856.0545,1734.58337 1857.61564,1734.58337 L1916.56272,1734.58337 C1918.33091,1734.58337 1920.02485,1735.29434 1921.26337,1736.55631 L1978.65606,1795.03529 C1979.86461,1796.26672 1980.54168,1797.92322 1980.54168,1799.64862 L1980.54168,1819.23109 C1980.54168,1822.1933 1982.51923,1824.79107 1985.37453,1825.57968 L2037.09792,1839.86517 C2040.60414,1840.83356 2042.66147,1844.46095 2041.69308,1847.96717 C2041.40989,1848.99253 2040.88255,1849.93404 2040.15617,1850.71117 L2020.84895,1871.36746 C2019.34215,1872.97955 2018.74278,1875.23909 2019.25243,1877.38607 L2027.05049,1910.23641 C2027.70822,1913.00718 2030.07222,1915.04141 2032.91009,1915.27861 L2143.63104,1924.53309 C2144.37314,1924.59512 2145.09936,1924.78256 2145.77879,1925.08743 L2178.37104,1939.71201 C2180.42863,1940.63528 2182.81556,1940.44157 2184.69735,1939.19862 L2217.02076,1917.84847 C2219.63472,1916.1219 2223.1031,1916.47545 2225.31492,1918.69392 L2302.00276,1995.61234 C2304.32213,1997.93869 2308.00112,1998.20025 2310.6263,1996.22545 L2343.36017,1971.60123 C2346.26702,1969.41454 2350.39615,1969.99834 2352.58284,1972.90519 C2352.62659,1972.96335 2352.66937,1973.02222 2352.71117,1973.0818 L2366.26018,1992.39355 C2366.91703,1993.32977 2367.31878,1994.4209 2367.42587,1995.55954 L2371.81364,2042.2097 C2372.00706,2044.26611 2373.15397,2046.11268 2374.9116,2047.19755 L2407.60448,2067.37674 C2409.14364,2068.32676 2411.00577,2068.60199 2412.75396,2068.13785 L2440.96835,2060.64688 C2442.32208,2060.28746 2443.52599,2059.50583 2444.40521,2058.41553 L2494.51607,1996.274 C2495.76639,1994.7235 2497.65122,1993.82211 2499.64304,1993.82211 L2572.00375,1993.82211 C2573.44538,1993.82211 2574.8472,1994.29511 2575.99411,1995.16854 L2624.65804,2032.22817 C2625.9687,2033.22629 2627.60583,2033.69698 2629.24647,2033.54738 L2689.48615,2028.05458 C2690.36981,2027.97401 2691.26065,2028.07282 2692.10517,2028.34509 L2739.99929,2043.78592 C2743.03209,2044.76368 2744.92995,2047.77237 2744.50608,2050.93057 L2739.723,2086.5689 C2739.23914,2090.17407 2741.76947,2093.48888 2745.37464,2093.97274 C2746.19291,2094.08256 2747.02454,2094.03756 2747.82618,2093.84007 L2842.54017,2070.50704 C2846.07207,2069.63695 2848.22989,2066.06842 2847.3598,2062.53652 C2847.33804,2062.44817 2847.31444,2062.36028 2847.28903,2062.27291 L2843.7514,2050.10741 C2842.94941,2047.34947 2844.02711,2044.38983 2846.41471,2042.79332 L2857.66427,2035.27105 C2859.09388,2034.31512 2860.09288,2032.83793 2860.44778,2031.15519 L2870.11926,1985.29799 C2870.41958,1983.87402 2870.23982,1982.39067 2869.60806,1981.07965 L2842.91341,1925.68328 C2842.57666,1924.98446 2842.36601,1924.23165 2842.29117,1923.45955 L2835.72508,1855.71956 C2835.64423,1854.88547 2835.7233,1854.04361 2835.95804,1853.23916 L2868.62725,1741.28375 C2869.6462,1737.79188 2873.30294,1735.78719 2876.7948,1736.80613 C2876.91706,1736.84181 2877.03825,1736.88102 2877.15823,1736.92372 L2897.73784,1744.24812 C2899.61359,1744.91571 2901.69066,1744.69895 2903.38816,1743.65847 L2916.6098,1735.55429 C2917.6456,1734.9194 2918.83682,1734.58337 2920.05172,1734.58337 L2997.21676,1734.58337 C2998.284,1734.58337 2999.33525,1734.84272 3000.28004,1735.33909 L3014.43723,1742.77706 C3017.22971,1744.24419 3018.58989,1747.48527 3017.68075,1750.50584 L3006.2536,1788.4721 C3005.20523,1791.95524 3007.17902,1795.62876 3010.66216,1796.67713 C3011.27787,1796.86244 3011.9174,1796.9566 3012.5604,1796.9566 L3042.68024,1796.9566 C3045.01726,1796.9566 3047.17927,1798.19503 3048.36155,1800.21095 L3053.72299,1809.3528 C3055.17887,1811.83524 3054.85443,1814.9755 3052.92174,1817.10784 L3051.31127,1818.88469 C3049.01466,1821.41855 3049.207,1825.33442 3051.74086,1827.63103 C3051.97793,1827.8459 3052.2313,1828.04208 3052.4987,1828.21779 L3068.29582,1838.59875 C3071.3357,1840.59639 3075.41941,1839.75148 3077.41704,1836.7116 C3077.5861,1836.45433 3077.73692,1836.18552 3077.86839,1835.90715 L3090.33882,1809.50152 C3091.42692,1807.19753 3093.74634,1805.72784 3096.29435,1805.72784 L3101.08129,1805.72784 C3104.71879,1805.72784 3107.66756,1808.67661 3107.66756,1812.31411 L3107.66756,1817.65862 C3107.66756,1821.29611 3110.61634,1824.24489 3114.25383,1824.24489 L3127.94749,1824.24489 C3128.67356,1824.24489 3129.39463,1824.12483 3130.08153,1823.88958 L3204.69484,1798.33526 C3207.14502,1797.49609 3209.85957,1798.17079 3211.63176,1800.05941 L3222.4834,1811.62394 C3223.62911,1812.84491 3224.26679,1814.4564 3224.26679,1816.13075 L3224.26679,1852.5094 C3224.26679,1853.78055 3224.63463,1855.02453 3225.32593,1856.09127 L3233.93779,1869.38011 C3235.65603,1872.03151 3239.015,1873.08926 3241.94242,1871.90078 L3353.55912,1826.58676 C3356.79612,1825.2726 3358.44386,1821.65965 3357.31384,1818.35386 L3353.4976,1807.18971 C3352.53474,1804.37292 3354.03765,1801.3089 3356.85444,1800.34604 C3358.5721,1799.7589 3360.46993,1800.07577 3361.90366,1801.1891 L3371.24618,1808.44376 C3373.01527,1809.8175 3375.56303,1809.497 3376.93676,1807.72791 C3377.48923,1807.01645 3377.78911,1806.14132 3377.78911,1805.24055 L3377.78911,1799.03865 C3377.78911,1797.68366 3377.3712,1796.36165 3376.59235,1795.25287 L3353.59316,1762.5107 C3351.50233,1759.53415 3352.22035,1755.42624 3355.1969,1753.33541 C3355.97918,1752.78591 3356.87172,1752.41329 3357.8125,1752.24344 L3381.78275,1747.91582 C3385.05413,1747.3252 3387.22732,1744.19443 3386.6367,1740.92305 C3386.35003,1739.33522 3385.43788,1737.92897 3384.1049,1737.01982 L3376.14114,1731.58818 C3373.67524,1729.90633 3372.64865,1726.77641 3373.63942,1723.9608 L3376.83476,1714.88012 C3377.44327,1713.15082 3378.74498,1711.75339 3380.42683,1711.02392 L3411.57474,1697.51406 C3412.97499,1696.90672 3414.54271,1696.80456 3416.00994,1697.22503 L3428.45303,1700.79089 C3431.68999,1701.71851 3435.10536,1700.05518 3436.37087,1696.93478 L3452.58172,1656.96328 C3453.9488,1653.59245 3457.78963,1651.96808 3461.16046,1653.33516 C3462.45818,1653.86146 3463.55438,1654.7877 3464.28988,1655.97939 L3480.64048,1682.47132 C3481.92455,1684.55182 3484.25541,1685.74985 3486.69457,1685.58305 L3564.74759,1680.24525 C3566.92821,1680.09612 3568.89279,1678.87493 3569.99164,1676.98553 L3584.69791,1651.69898 C3586.52663,1648.5546 3590.55813,1647.48805 3593.70252,1649.31677 C3594.03175,1649.50825 3594.34375,1649.72792 3594.63501,1649.97331 L3635.15708,1684.1142 C3636.48049,1685.2292 3638.18956,1685.77857 3639.91479,1685.64351 L3833.06761,1670.52284 C3835.1692,1670.35832 3837.06506,1669.19778 3838.16746,1667.40099 L3850.83486,1646.75457 C3851.56552,1645.56368 3852.65595,1644.636 3853.94854,1644.10563 L3891.26704,1628.79306 C3893.40488,1627.91586 3894.92663,1625.98244 3895.27698,1623.69835 L3899.68525,1594.9584 C3900.17828,1591.74408 3902.94347,1589.37069 3906.19539,1589.37069 L3977.00728,1589.37069 C3980.0351,1589.37069 3982.67287,1591.43504 3983.40052,1594.37413 L4017.95925,1733.96149 C4018.06165,1734.3751 4018.12367,1734.79767 4018.14444,1735.22326 L4024.33431,1862.05355 C4024.51162,1865.68672 4027.60063,1868.48825 4031.2338,1868.31094 C4032.47086,1868.25056 4033.66583,1867.84261 4034.68154,1867.1339 L4062.76903,1847.53602 C4065.75215,1845.45458 4069.85779,1846.18552 4071.93923,1849.16863 C4072.23388,1849.59092 4072.47799,1850.0463 4072.66656,1850.52545 L4081.6446,1873.3382 C4082.9767,1876.72301 4081.31266,1880.54681 4077.92786,1881.87892 C4077.82104,1881.92095 4077.71314,1881.96019 4077.60427,1881.99659 L4073.13274,1883.49158 C4070.94678,1884.22243 4069.30191,1886.04281 4068.79568,1888.29143 L4063.15471,1913.348 C4062.92781,1914.35585 4062.94118,1915.40294 4063.19373,1916.40468 L4083.98627,1998.87695 C4084.11899,1999.40337 4084.18611,1999.94417 4084.18611,2000.48707 L4084.18611,2047.65991 C4084.18611,2051.29741 4081.23733,2054.24618 4077.59984,2054.24618 L4069.39586,2054.24618 C4065.75836,2054.24618 4062.80958,2057.19496 4062.80958,2060.83246 L4062.80958,2073.182 C4062.80958,2075.87267 4061.17291,2078.29278 4058.67573,2079.29466 L4047.51023,2083.77429 C4045.01305,2084.77616 4043.37638,2087.19628 4043.37638,2089.88695 L4043.37638,2143.95365 C4043.37638,2145.78843 4042.61102,2147.54005 4041.26468,2148.78657 L4019.12134,2169.28803 C4018.45641,2169.90366 4017.92567,2170.64988 4017.56232,2171.48 L4001.52438,2208.12069 C4000.94021,2209.4553 3999.93003,2210.55857 3998.65193,2211.2578 L3939.91887,2243.39034 C3937.80704,2244.54572 3936.49375,2246.76119 3936.49375,2249.16841 L3936.49375,2259.86419 C3936.49375,2263.50169 3939.44253,2266.45047 3943.08002,2266.45047 C3943.45408,2266.45047 3943.82746,2266.4186 3944.19612,2266.35521 L3964.36369,2262.88752 C3967.80777,2262.29533 3971.11479,2264.49612 3971.89835,2267.90177 L3990.08162,2346.93285 C3990.59439,2349.16151 3992.22652,2350.96466 3994.39323,2351.69624 L4086.13764,2382.67336 C4087.98043,2383.29557 4089.45397,2384.70047 4090.16331,2386.5115 L4098.00765,2406.53894 C4099.03852,2409.17086 4098.27508,2412.16709 4096.11044,2413.98479 L4061.55304,2443.00356 C4059.39836,2444.8129 4056.33225,2445.05371 4053.92152,2443.60292 L4049.3895,2440.87554 C4046.27286,2438.99993 4042.22584,2440.00599 4040.35023,2443.12263 C4040.27839,2443.242 4040.21036,2443.36362 4040.14624,2443.4873 L4019.51748,2483.27726 C4018.62677,2484.99533 4017.02552,2486.23472 4015.13902,2486.66627 L3912.46151,2510.15435 C3909.4672,2510.83932 3907.34394,2513.50313 3907.34394,2516.57478 L3907.34394,2539.81164 C3907.34394,2542.09565 3906.16063,2544.21661 3904.21704,2545.41626 L3897.1663,2549.76822 C3895.60202,2550.73375 3894.51244,2552.30907 3894.16093,2554.11341 L3878.45629,2634.72585 C3878.28337,2635.61343 3878.29508,2636.52711 3878.49069,2637.40997 L3882.08078,2653.61396 C3882.58599,2655.89424 3884.84407,2657.33322 3887.12435,2656.82801 C3888.69022,2656.48108 3889.92508,2655.2782 3890.31297,2653.72197 L3893.46776,2641.06487 C3894.19911,2638.13068 3896.83455,2636.07149 3899.85851,2636.07149 L3901.02815,2636.07149 C3904.1766,2636.07149 3906.72891,2638.62381 3906.72891,2641.77225 C3906.72891,2641.96664 3906.71897,2642.16091 3906.69913,2642.35428 L3901.43971,2693.59939 C3901.06833,2697.21788 3897.83391,2699.85019 3894.21542,2699.47882 C3893.59269,2699.4149 3892.98226,2699.26254 3892.40254,2699.02632 L3873.55015,2691.34451 C3871.07038,2690.33407 3869.44919,2687.92289 3869.44919,2685.24515 L3869.44919,2676.5527 C3869.44919,2673.41458 3867.23515,2670.71229 3864.15833,2670.09508 L3794.91244,2656.20426 C3791.34599,2655.48883 3789.03479,2652.01768 3789.75022,2648.45123 C3790.03044,2647.05435 3790.75605,2645.78599 3791.8182,2644.83644 L3823.54801,2616.47049 C3825.46654,2614.75536 3826.21042,2612.07993 3825.45256,2609.62065 L3812.64271,2568.05241 C3811.57148,2564.57623 3807.88506,2562.62664 3804.40888,2563.69787 C3803.91034,2563.85151 3803.43181,2564.06383 3802.98337,2564.33037 L3761.88281,2588.75949 C3759.40067,2590.23481 3758.16891,2593.15486 3758.84452,2595.9622 L3762.55401,2611.3763 C3763.40509,2614.91283 3761.22811,2618.4697 3757.69158,2619.32078 C3757.1869,2619.44224 3756.66964,2619.5036 3756.15055,2619.5036 L3741.4979,2619.5036 C3738.939,2619.5036 3736.61171,2618.02146 3735.52956,2615.70264 L3717.98583,2578.11015 C3716.76221,2575.48819 3717.3931,2572.37469 3719.54087,2570.43588 L3720.78518,2569.31264 C3721.9414,2568.26891 3722.03259,2566.4855 3720.98886,2565.32927 C3720.50619,2564.79457 3719.83721,2564.46482 3719.11914,2564.40766 L3665.99232,2560.17857 C3664.9644,2560.09674 3663.97005,2559.7747 3663.08933,2559.23837 L3638.33793,2544.16555 C3637.60141,2543.71703 3636.78399,2543.41752 3635.93205,2543.284 L3618.74049,2540.58974 C3615.14686,2540.02655 3612.6902,2536.65678 3613.25339,2533.06314 C3613.4652,2531.71167 3614.09256,2530.45968 3615.04837,2529.48102 L3650.89456,2492.77801 C3652.09623,2491.54762 3652.76896,2489.89599 3652.76896,2488.17614 L3652.76896,2458.85278 C3652.76896,2456.90151 3653.63417,2455.05069 3655.13134,2453.7993 L3662.06651,2448.00261 C3663.56367,2446.75123 3664.42888,2444.9004 3664.42888,2442.94913 L3664.42888,2416.2642 C3664.42888,2413.16004 3662.26144,2410.47726 3659.22659,2409.82498 L3646.12771,2407.00963 C3642.57142,2406.24528 3640.30812,2402.74271 3641.07247,2399.18643 C3641.21981,2398.50091 3641.47567,2397.84332 3641.83038,2397.23849 L3643.38113,2394.59429 C3645.2213,2391.45659 3644.16945,2387.42122 3641.03175,2385.58105 C3640.90758,2385.50823 3640.78105,2385.43949 3640.65237,2385.37496 L3612.03976,2371.02564 C3608.78825,2369.39499 3607.47427,2365.43722 3609.10492,2362.1857 C3609.10877,2362.17801 3609.11264,2362.17034 3609.11652,2362.16267 L3634.39674,2312.2426 C3635.98037,2309.11544 3634.83724,2305.29581 3631.79605,2303.55277 L3586.51522,2277.60021 C3584.26096,2276.30819 3581.45778,2276.46221 3579.35865,2277.99344 L3544.04867,2303.75064 C3541.68305,2305.47626 3538.46223,2305.43291 3536.14391,2303.64423 L3528.07157,2297.41606 C3527.64203,2297.08465 3527.17318,2296.80758 3526.67569,2296.59116 L3450.73584,2263.55435 C3448.33182,2262.50851 3446.77699,2260.1365 3446.77699,2257.51485 L3446.77699,2247.0403 C3446.77699,2243.40281 3443.82821,2240.45403 3440.19072,2240.45403 C3439.87061,2240.45403 3439.55093,2240.47737 3439.23422,2240.52386 L3415.56925,2243.99743 C3411.97031,2244.52569 3409.48104,2247.87144 3410.0093,2251.47038 C3410.09786,2252.07374 3410.26979,2252.66189 3410.52016,2253.21795 L3419.07255,2272.21232 C3419.98899,2274.24768 3419.81216,2276.6087 3418.60278,2278.48484 L3351.99247,2381.81855 C3350.02167,2384.87589 3345.94555,2385.7567 3342.88821,2383.78589 C3342.53538,2383.55845 3342.20509,2383.29779 3341.90187,2383.00748 L3333.97673,2375.41983 C3331.41891,2372.97093 3327.36016,2373.05923 3324.91126,2375.61706 C3324.18916,2376.37127 3323.66219,2377.29042 3323.37614,2378.29462 L3321.98756,2383.16924 C3321.10645,2386.2624 3318.12021,2388.26684 3314.92378,2387.91061 L3278.26802,2383.8255 C3277.26057,2383.71323 3276.29264,2383.36993 3275.43959,2382.82234 L3255.47329,2370.00548 C3253.58605,2368.79402 3252.44494,2366.70552 3252.44494,2364.4629 L3252.44494,2352.62977 C3252.44494,2348.99227 3249.49616,2346.0435 3245.85867,2346.0435 C3244.23253,2346.0435 3242.66387,2346.64507 3241.45472,2347.7324 L3226.14492,2361.4997 C3224.93577,2362.58702 3223.36711,2363.1886 3221.74097,2363.1886 L3199.52373,2363.1886 C3197.37126,2363.1886 3195.3546,2362.13681 3194.12272,2360.3717 L3183.592,2345.28258 C3182.86951,2344.24735 3181.86473,2343.44156 3180.69729,2342.96117 L3155.57944,2332.62543 C3152.2156,2331.24125 3148.36657,2332.84607 3146.98238,2336.20991 C3146.51268,2337.35137 3146.37319,2338.60184 3146.57982,2339.81874 L3180.64599,2540.44978 C3181.25491,2544.03595 3178.84137,2547.43674 3175.2552,2548.04565 C3174.18743,2548.22695 3173.09143,2548.14214 3172.06426,2547.79872 L3147.03726,2539.4313 C3145.46436,2538.90543 3143.75097,2538.99231 3142.23934,2539.67459 L3089.60067,2563.43321 C3087.54043,2564.36311 3085.14726,2564.17154 3083.26117,2562.92575 L3049.79591,2540.82139 C3047.74233,2539.46496 3045.10381,2539.36665 3042.95498,2540.5665 L2957.53691,2588.26181 C2954.52799,2589.94192 2950.73261,2589.01843 2948.83195,2586.14374 L2892.5823,2501.06781 C2891.56582,2499.53042 2889.95167,2498.48926 2888.13191,2498.19722 L2844.07183,2491.12641 C2842.97785,2490.95085 2841.85726,2491.05411 2840.81378,2491.42663 L2788.48676,2510.10751 C2786.36307,2510.86567 2783.99913,2510.48466 2782.22119,2509.09766 L2761.4243,2492.87367 C2759.79751,2491.60458 2757.67,2491.17117 2755.67639,2491.70271 L2687.71588,2509.82248 C2684.49889,2510.6802 2682.42791,2513.80379 2682.89017,2517.10091 L2690.12716,2568.71865 C2690.5394,2571.65892 2688.93342,2574.51151 2686.20573,2575.68404 L2656.98768,2588.24371 C2653.64585,2589.68022 2652.1013,2593.55384 2653.53781,2596.89566 C2653.66032,2597.18065 2653.8028,2597.45662 2653.9642,2597.72153 L2681.11863,2642.28965 C2681.74764,2643.32204 2682.08038,2644.50763 2682.08038,2645.71655 L2682.08038,2666.92072 C2682.08038,2669.50078 2680.5739,2671.84325 2678.22631,2672.91355 L2669.32724,2676.97075 C2666.01749,2678.4797 2664.55765,2682.38603 2666.06661,2685.69578 C2666.39182,2686.40909 2666.84176,2687.05861 2667.39526,2687.61378 L2678.39189,2698.64347 C2680.55233,2700.81041 2680.93581,2704.17987 2679.31755,2706.77686 L2677.22207,2710.1397 C2675.73257,2712.53008 2676.46287,2715.67534 2678.85324,2717.16484 C2679.66244,2717.66907 2680.59678,2717.93636 2681.55023,2717.93636 Z" id="path-3"></path>
        <filter x="-10.5%" y="-8.3%" width="121.0%" height="132.6%" filterUnits="objectBoundingBox" id="filter-4">
            <feMorphology radius="24.086272" operator="dilate" in="SourceAlpha" result="shadowSpreadOuter1"></feMorphology>
            <feOffset dx="0" dy="198" in="shadowSpreadOuter1" result="shadowOffsetOuter1"></feOffset>
            <feGaussianBlur stdDeviation="50.5" in="shadowOffsetOuter1" result="shadowBlurOuter1"></feGaussianBlur>
            <feComposite in="shadowBlurOuter1" in2="SourceAlpha" operator="out" result="shadowBlurOuter1"></feComposite>
            <feColorMatrix values="0 0 0 0 0.0526711003   0 0 0 0 0.176845097   0 0 0 0 0.41533801  0 0 0 1 0" type="matrix" in="shadowBlurOuter1"></feColorMatrix>
        </filter>
        <filter x="-7.1%" y="-3.5%" width="114.2%" height="123.0%" filterUnits="objectBoundingBox" id="filter-5">
            <feGaussianBlur stdDeviation="66" in="SourceAlpha" result="shadowBlurInner1"></feGaussianBlur>
            <feOffset dx="0" dy="3" in="shadowBlurInner1" result="shadowOffsetInner1"></feOffset>
            <feComposite in="shadowOffsetInner1" in2="SourceAlpha" operator="arithmetic" k2="-1" k3="1" result="shadowInnerInner1"></feComposite>
            <feColorMatrix values="0 0 0 0 0.435294118   0 0 0 0 0.760784314   0 0 0 0 0.941176471  0 0 0 0.3 0" type="matrix" in="shadowInnerInner1"></feColorMatrix>
        </filter>
    </defs>
    <g id="宽屏-风格1" stroke="none" stroke-width="1" fill="none" fill-rule="evenodd" transform="translate(-1647.000000, -572.000000)" opacity="0.600000024">
        <g id="地图-整块-copy" transform="translate(636.000000, -813.000000)">
            <g id="Path-20">
                <use fill="black" fill-opacity="1" filter="url(#filter-4)" xlink:href="#path-3"></use>
                <use fill-opacity="0.8" fill="url(#linearGradient-1)" fill-rule="evenodd" xlink:href="#path-3"></use>
                <use fill="black" fill-opacity="1" filter="url(#filter-5)" xlink:href="#path-3"></use>
                <path stroke="url(#linearGradient-2)" stroke-width="6.586272" d="M3717.76411,2567.60335 L3665.73101,2563.46132 C3664.18912,2563.33858 3662.6976,2562.85552 3661.37652,2562.05102 L3636.62511,2546.9782 C3636.25685,2546.75394 3635.84814,2546.60418 3635.42217,2546.53743 L3618.23062,2543.84317 C3612.84017,2542.99838 3609.15518,2537.94372 3609.99997,2532.55327 C3610.31767,2530.52605 3611.25872,2528.64807 3612.69244,2527.18008 L3648.53862,2490.47708 C3649.13946,2489.86188 3649.47582,2489.03606 3649.47582,2488.17614 L3649.47582,2458.85278 C3649.47582,2455.92588 3650.77365,2453.14964 3653.01939,2451.27256 L3659.95456,2445.47587 C3660.70314,2444.85018 3661.13575,2443.92477 3661.13575,2442.94913 L3661.13575,2416.2642 C3661.13575,2414.71212 3660.05203,2413.37073 3658.5346,2413.04459 L3645.43572,2410.22924 C3640.10129,2409.08272 3636.70633,2403.82887 3637.85286,2398.49444 C3638.07386,2397.46616 3638.45765,2396.47977 3638.98973,2395.57252 L3640.54048,2392.92832 C3641.46056,2391.35947 3640.93464,2389.34179 3639.36579,2388.42171 C3639.3037,2388.38529 3639.24044,2388.35093 3639.1761,2388.31866 L3610.56349,2373.96934 C3605.68621,2371.52337 3603.71525,2365.5867 3606.16122,2360.70942 C3606.1699,2360.69214 3606.1699,2360.69214 3606.17863,2360.67487 L3631.45884,2310.75481 C3632.25066,2309.19123 3631.67909,2307.28142 3630.1585,2306.40989 L3584.87767,2280.45733 C3583.75054,2279.81132 3582.34894,2279.88834 3581.29938,2280.65395 L3545.9894,2306.41115 C3542.44097,2308.99959 3537.60974,2308.93455 3534.13227,2306.25153 L3526.05992,2300.02336 C3525.84515,2299.85766 3525.61073,2299.71912 3525.36198,2299.61091 L3449.42213,2266.57411 C3445.81611,2265.00534 3443.48385,2261.44733 3443.48385,2257.51485 L3443.48385,2247.0403 C3443.48385,2245.22155 3442.00946,2243.74717 3440.19072,2243.74717 C3440.03066,2243.74717 3439.87082,2243.75884 3439.71247,2243.78208 L3416.0475,2247.25566 C3414.24803,2247.51979 3413.00339,2249.19266 3413.26752,2250.99213 C3413.3118,2251.29381 3413.39777,2251.58788 3413.52295,2251.86592 L3422.07534,2270.86029 C3423.45,2273.91333 3423.18476,2277.45485 3421.37068,2280.26907 L3354.76037,2383.60277 C3351.80417,2388.18878 3345.69,2389.51 3341.10399,2386.5538 C3340.57473,2386.21263 3340.0793,2385.82165 3339.62447,2385.38618 L3331.69933,2377.79853 C3330.45523,2376.6074 3328.48108,2376.65035 3327.28995,2377.89446 C3326.93873,2378.2613 3326.68242,2378.70837 3326.54328,2379.1968 L3325.15471,2384.07142 C3323.83304,2388.71117 3319.35367,2391.71783 3314.55904,2391.18349 L3277.90327,2387.09838 C3276.39211,2386.92997 3274.94021,2386.41501 3273.66063,2385.59363 L3253.69434,2372.77677 C3250.86348,2370.95958 3249.1518,2367.82682 3249.1518,2364.4629 L3249.1518,2352.62977 C3249.1518,2350.81102 3247.67742,2349.33663 3245.85867,2349.33663 C3245.0456,2349.33663 3244.26127,2349.63742 3243.65669,2350.18109 L3228.34689,2363.94838 C3226.53317,2365.57937 3224.18018,2366.48174 3221.74097,2366.48174 L3199.52373,2366.48174 C3196.29502,2366.48174 3193.27003,2364.90405 3191.42222,2362.25638 L3180.8915,2347.16726 C3180.53026,2346.64965 3180.02786,2346.24675 3179.44414,2346.00656 L3154.3263,2335.67082 C3152.64438,2334.97873 3150.71986,2335.78114 3150.02777,2337.46306 C3149.79292,2338.03379 3149.72317,2338.65902 3149.82648,2339.26747 L3183.89266,2539.89851 C3184.80603,2545.27777 3181.18572,2550.37895 3175.80646,2551.29232 C3174.20481,2551.56427 3172.56081,2551.43705 3171.02007,2550.92192 L3145.99306,2542.55451 C3145.20661,2542.29157 3144.34992,2542.33501 3143.5941,2542.67615 L3090.95544,2566.43477 C3087.86507,2567.82961 3084.27531,2567.54226 3081.44619,2565.67358 L3047.98093,2543.56922 C3046.95413,2542.891 3045.63487,2542.84185 3044.56046,2543.44177 L2959.14239,2591.13708 C2954.629,2593.65724 2948.93593,2592.27202 2946.08494,2587.95998 L2889.8353,2502.88405 C2889.32706,2502.11535 2888.51998,2501.59477 2887.6101,2501.44876 L2843.55002,2494.37795 C2843.00303,2494.29016 2842.44274,2494.34179 2841.921,2494.52806 L2789.59398,2513.20893 C2786.40844,2514.34617 2782.86253,2513.77466 2780.19562,2511.69416 L2759.39873,2495.47017 C2758.58533,2494.83562 2757.52158,2494.61892 2756.52477,2494.88469 L2688.56427,2513.00446 C2686.95577,2513.43331 2685.92028,2514.99511 2686.15141,2516.64367 L2693.3884,2568.26141 C2694.00675,2572.67182 2691.59779,2576.9507 2687.50625,2578.70949 L2658.2882,2591.26916 C2656.61729,2591.98742 2655.84501,2593.92423 2656.56327,2595.59514 C2656.62452,2595.73763 2656.69576,2595.87562 2656.77646,2596.00807 L2683.93089,2640.57619 C2684.87441,2642.12478 2685.37351,2643.90318 2685.37351,2645.71655 L2685.37351,2666.92072 C2685.37351,2670.79081 2683.1138,2674.30452 2679.59241,2675.90997 L2670.69334,2679.96716 C2669.03846,2680.72164 2668.30855,2682.67481 2669.06303,2684.32968 C2669.22563,2684.68634 2669.4506,2685.0111 2669.72735,2685.28868 L2680.72398,2696.31837 C2683.96464,2699.56878 2684.53986,2704.62296 2682.11248,2708.51845 L2680.017,2711.8813 C2679.48935,2712.72807 2679.74805,2713.84227 2680.59483,2714.36992 C2680.88149,2714.54854 2681.21247,2714.64322 2681.55023,2714.64322 L2686.66543,2714.64322 C2690.47702,2714.64322 2693.94862,2716.83588 2695.58637,2720.27768 L2711.60796,2753.94766 C2712.3422,2755.49068 2714.13468,2756.21575 2715.73521,2755.61715 L2764.14369,2737.51225 C2767.20392,2736.36772 2770.63211,2736.8102 2773.30144,2738.69427 L2818.43273,2770.54882 C2822.33569,2773.3036 2823.70837,2778.45642 2821.69313,2782.78778 L2812.0552,2803.50258 C2811.54802,2804.59267 2811.67522,2805.87252 2812.38703,2806.84145 L2821.40927,2819.12273 C2823.51592,2821.99037 2823.91774,2825.76933 2822.46119,2829.01583 L2798.62881,2882.13592 C2798.35802,2882.73949 2798.27528,2883.41063 2798.39138,2884.06189 L2823.54063,3025.13431 C2824.20889,3028.88281 2822.6635,3032.68171 2819.56827,3034.89923 L2810.2904,3041.54621 C2809.97685,3041.77084 2809.70521,3042.04881 2809.48785,3042.36744 L2799.47442,3057.04646 C2797.63396,3059.74445 2794.57905,3061.35853 2791.31308,3061.35853 L2775.14441,3061.35853 C2773.32566,3061.35853 2771.85127,3062.83291 2771.85127,3064.65166 L2771.85127,3096.32682 C2771.85127,3100.48631 2769.24599,3104.20027 2765.33492,3105.6162 L2610.98473,3161.49591 C2609.41262,3162.06507 2608.51651,3163.72196 2608.90075,3165.34917 L2615.46237,3193.13709 C2615.72227,3194.23777 2616.52881,3195.12809 2617.59855,3195.49515 L2638.6978,3202.73502 C2643.85868,3204.50589 2646.60682,3210.12518 2644.83595,3215.28606 C2644.14732,3217.29293 2642.8309,3219.02478 2641.08151,3220.22534 L2616.64004,3236.99873 C2614.99454,3238.12798 2613.04561,3238.73241 2611.04989,3238.73241 L2601.49652,3238.73241 C2599.67777,3238.73241 2598.20338,3240.20679 2598.20338,3242.02554 C2598.20338,3242.34086 2598.24867,3242.65455 2598.33785,3242.95699 L2614.95936,3299.32247 C2616.12477,3303.27452 2614.71508,3307.53486 2611.4224,3310.01179 L2577.81707,3335.29157 C2577.292,3335.68656 2576.89708,3336.22959 2576.68312,3336.85083 L2559.54474,3386.61109 C2558.89354,3388.50182 2557.68389,3390.15042 2556.0757,3391.33896 L2522.88881,3415.86599 C2520.87432,3417.35481 2518.3695,3418.02281 2515.88117,3417.73483 L2445.63257,3409.60485 C2444.69203,3409.496 2443.75015,3409.79724 2443.04733,3410.43168 L2408.27245,3441.82318 C2406.45701,3443.46199 2404.09823,3444.36916 2401.65251,3444.36916 L2373.75249,3444.36916 C2373.21668,3444.36916 2372.68896,3444.4999 2372.21512,3444.75004 L2337.67974,3462.98121 C2337.36689,3463.14636 2337.08269,3463.36085 2336.83807,3463.61642 L2317.0637,3484.27666 C2314.48232,3486.97368 2310.60111,3487.98524 2307.03169,3486.89131 L2282.0152,3479.2244 C2276.92615,3477.66474 2273.98752,3472.35375 2275.36947,3467.2136 L2294.8072,3394.91531 C2295.27941,3393.15893 2294.23838,3391.3523 2292.48201,3390.88009 C2292.20318,3390.80513 2291.91572,3390.76716 2291.62699,3390.76716 L2283.48433,3390.76716 C2278.02808,3390.76716 2273.60492,3386.344 2273.60492,3380.88775 L2273.60492,3356.23906 C2273.60492,3355.04987 2272.96378,3353.95305 2271.92757,3353.36957 L2221.91616,3325.20857 C2221.26293,3324.84074 2220.50375,3324.7068 2219.76409,3324.82889 L2147.89686,3336.6907 C2145.3859,3337.10514 2142.81186,3336.53461 2140.71117,3335.09802 L2103.7814,3309.84291 C2102.67981,3309.08957 2101.23247,3309.07556 2100.11649,3309.80742 L2080.18263,3322.88029 C2079.64738,3323.23132 2079.22602,3323.73073 2078.97011,3324.31744 L2070.24497,3344.32058 C2068.49114,3348.34138 2063.80988,3350.17913 2059.78908,3348.4253 C2058.02701,3347.65671 2056.6035,3346.27514 2055.78256,3344.53685 L2054.60424,3342.0418 C2053.82757,3340.39723 2051.86476,3339.69366 2050.22019,3340.47033 C2050.09421,3340.52983 2049.97213,3340.59726 2049.8547,3340.67221 L1992.77586,3377.10432 C1992.0334,3377.57822 1991.2309,3377.95069 1990.3897,3378.21185 L1951.53806,3390.27351 C1951.16988,3390.38782 1950.82463,3390.56588 1950.51804,3390.79959 L1934.01289,3403.38122 C1929.67362,3406.68898 1923.47447,3405.85278 1920.1667,3401.5135 C1919.63391,3400.81456 1919.19676,3400.04765 1918.86683,3399.23307 L1910.0524,3377.47078 C1909.86191,3377.00046 1909.56531,3376.58053 1909.18575,3376.24375 L1887.29171,3356.81772 C1885.17856,3354.94277 1883.96916,3352.25288 1883.96916,3349.42784 L1883.96916,3340.4583 C1883.96916,3338.63955 1882.49477,3337.16516 1880.67602,3337.16516 L1871.60181,3337.16516 C1868.09628,3337.16516 1864.85327,3335.30751 1863.07985,3332.28365 L1837.8122,3289.19948 C1835.98673,3286.08685 1836.00349,3282.22656 1837.85592,3279.1299 L1864.0689,3235.31024 C1864.37454,3234.7993 1864.53595,3234.21505 1864.53595,3233.61967 L1864.53595,3180.05486 C1864.53595,3176.31709 1866.64539,3172.89936 1869.98654,3171.22376 L1944.33855,3133.93598 C1945.45227,3133.37744 1946.15541,3132.2382 1946.15541,3130.99228 L1946.15541,3117.31347 C1946.15541,3114.69842 1947.19221,3112.19005 1949.03855,3110.33816 L1959.26957,3100.07638 C1959.74174,3099.60279 1960.05853,3098.99668 1960.17781,3098.33866 L1976.78979,3006.69805 C1976.95291,3005.79818 1976.73448,3004.871 1976.18682,3004.13858 L1961.72601,2984.79953 C1960.44882,2983.0915 1959.75866,2981.01602 1959.75866,2978.88328 L1959.75866,2910.61858 C1959.75866,2909.01249 1958.60006,2907.64066 1957.01662,2907.37189 L1905.25217,2898.58541 C1903.57725,2898.30111 1901.96095,2899.33758 1901.52053,2900.97837 L1898.49926,2912.23396 C1897.08475,2917.50367 1891.66612,2920.62892 1886.39641,2919.2144 C1885.56084,2918.99011 1884.75835,2918.65704 1884.00953,2918.22373 L1868.03905,2908.98229 C1867.43493,2908.63271 1866.73538,2908.48412 1866.04133,2908.55795 L1810.8619,2914.42791 C1805.43626,2915.00509 1800.57002,2911.07464 1799.99285,2905.64901 C1799.97905,2905.51929 1799.96782,2905.38931 1799.95917,2905.25914 L1794.97003,2830.19703 C1794.63911,2825.21826 1798.07265,2820.77427 1802.97377,2819.83792 L1834.56592,2813.80227 C1835.65654,2813.59391 1836.56874,2812.84998 1836.99219,2811.82355 L1845.7936,2790.48953 C1846.25591,2789.36893 1846.06519,2788.08494 1845.29712,2787.14709 L1827.24048,2765.099 C1825.51966,2762.99778 1824.73975,2760.28081 1825.0841,2757.58679 L1828.63416,2729.81307 C1828.86476,2728.009 1827.58921,2726.35958 1825.78514,2726.12898 C1825.64666,2726.11128 1825.5072,2726.1024 1825.3676,2726.1024 L1799.87882,2726.1024 C1799.22396,2726.1024 1798.58397,2726.29764 1798.04063,2726.66318 L1722.22215,2777.66994 C1720.11317,2779.08875 1717.53848,2779.64012 1715.03343,2779.20939 L1689.09744,2774.74985 C1684.35672,2773.93471 1680.89217,2769.8236 1680.89217,2765.01332 L1680.89217,2695.50345 C1680.89217,2690.4649 1684.97672,2686.38035 1690.01527,2686.38035 C1690.62722,2686.38035 1691.1233,2685.88427 1691.1233,2685.27232 C1691.1233,2685.16966 1691.10903,2685.06749 1691.08091,2684.96876 L1681.99234,2653.06313 C1681.08037,2649.86164 1681.84199,2646.41615 1684.01841,2643.89734 L1705.35399,2619.20535 C1705.8709,2618.60712 1706.15533,2617.84289 1706.15533,2617.05227 L1706.15533,2593.49518 C1706.15533,2592.76451 1705.91233,2592.05458 1705.46458,2591.47717 L1695.22096,2578.2672 C1693.34921,2575.85343 1692.69921,2572.7096 1693.46031,2569.75147 L1698.68907,2549.42911 C1699.14226,2547.66773 1698.08175,2545.87247 1696.32037,2545.41928 C1696.25811,2545.40326 1696.19539,2545.38907 1696.1323,2545.37672 L1633.8288,2533.18339 C1628.57493,2532.15516 1625.14937,2527.06251 1626.1776,2521.80864 C1626.48585,2520.23356 1627.18038,2518.75967 1628.19884,2517.51925 L1633.50449,2511.0573 C1633.98812,2510.46826 1634.25248,2509.72972 1634.25248,2508.96757 L1634.25248,2464.2037 C1634.25248,2463.09381 1633.6934,2462.05859 1632.7653,2461.44993 L1562.92451,2415.6475 C1560.1402,2413.82151 1558.46298,2410.71584 1558.46298,2407.38618 L1558.46298,2386.49471 C1558.46298,2383.77581 1559.5835,2381.17709 1561.56061,2379.31068 L1569.75207,2371.57789 C1570.41755,2370.94968 1570.44775,2369.90094 1569.81954,2369.23546 C1569.61843,2369.02242 1569.36444,2368.86651 1569.08344,2368.78362 L1562.79918,2366.92975 C1560.87036,2366.36074 1559.16112,2365.21666 1557.89983,2363.65037 L1543.18834,2345.38138 C1542.04763,2343.96482 1539.97455,2343.74121 1538.558,2344.88192 C1538.50368,2344.92566 1538.45077,2344.97111 1538.39934,2345.01821 L1524.17584,2358.04393 C1521.45796,2360.53293 1517.58065,2361.30223 1514.11838,2360.03944 L1499.00215,2354.5261 C1498.19911,2354.23321 1497.31366,2354.26404 1496.53293,2354.61207 L1486.64893,2359.01817 C1482.18833,2361.00662 1476.94414,2359.43745 1474.30883,2355.32575 L1455.39725,2325.81929 C1452.45301,2321.22559 1453.79016,2315.11488 1458.38386,2312.17064 C1458.88894,2311.84692 1459.42246,2311.56988 1459.9778,2311.34294 L1474.79607,2305.28772 C1476.03435,2304.78172 1476.84352,2303.57695 1476.84352,2302.23928 L1476.84352,2290.47039 C1476.84352,2288.65164 1475.36913,2287.17725 1473.55038,2287.17725 C1473.19543,2287.17725 1472.84282,2287.23464 1472.50618,2287.34719 L1465.00078,2289.85651 C1461.17268,2291.13638 1456.95098,2289.95877 1454.33807,2286.88221 L1437.14138,2266.6341 C1436.43247,2265.79939 1435.35499,2265.3717 1434.2666,2265.493 L1392.05879,2270.19685 C1386.90082,2270.77168 1382.25346,2267.05631 1381.67863,2261.89834 C1381.64012,2261.55274 1381.62081,2261.20526 1381.62081,2260.85752 C1381.62081,2259.62105 1380.61846,2258.61869 1379.38199,2258.61869 C1379.22654,2258.61869 1379.07153,2258.63488 1378.91944,2258.66699 L1354.95296,2263.72774 C1353.20549,2264.09673 1352.07066,2265.79141 1352.39493,2267.54773 L1354.92609,2281.2571 C1355.89639,2286.51245 1352.51171,2291.58667 1347.28686,2292.70965 L1316.38872,2299.35059 C1312.98665,2300.0818 1309.45077,2298.96929 1307.08027,2296.42183 L1283.1796,2270.73698 C1282.92888,2270.46754 1282.63477,2270.24204 1282.30949,2270.06985 L1149.41614,2199.7208 C1144.59388,2197.16807 1142.75406,2191.18946 1145.3068,2186.3672 C1145.36445,2186.25829 1145.42414,2186.15046 1145.48583,2186.04379 L1196.93714,2097.06789 C1198.35119,2094.62255 1200.74434,2092.89946 1203.51192,2092.334 L1247.15644,2083.41672 C1248.8317,2083.07444 1249.96631,2081.50697 1249.76817,2079.80862 L1240.45998,2000.02676 C1240.26632,1998.36691 1238.86014,1997.11525 1237.18903,1997.11525 L1223.403,1997.11525 C1217.94675,1997.11525 1213.52359,1992.69209 1213.52359,1987.23584 L1213.52359,1980.21868 C1213.52359,1978.76125 1212.56562,1977.47717 1211.16858,1977.06199 L1199.87142,1973.70462 C1194.64125,1972.15028 1191.6614,1966.65035 1193.21574,1961.42018 C1193.65369,1959.94653 1194.42951,1958.59542 1195.48148,1957.47435 L1201.94363,1950.58766 C1202.51649,1949.97718 1202.83533,1949.17143 1202.83533,1948.33426 L1202.83533,1908.46293 C1202.83533,1904.54182 1205.15428,1900.99183 1208.7449,1899.41621 L1232.95077,1888.7943 C1233.88073,1888.38622 1234.57038,1887.57191 1234.81978,1886.58745 L1263.27389,1774.27008 C1263.54738,1773.19052 1263.25672,1772.04588 1262.50132,1771.22759 L1243.71423,1750.87653 C1240.93093,1747.86153 1240.30104,1743.43994 1242.13169,1739.76764 L1263.57568,1696.7507 C1263.84394,1696.21257 1263.95974,1695.61128 1263.91054,1695.01202 L1257.36216,1615.25688 C1257.32819,1614.84322 1257.21634,1614.43971 1257.03248,1614.0676 L1203.58657,1505.89711 C1203.17806,1505.07032 1202.88733,1504.19041 1202.72284,1503.28299 L1188.20763,1423.20934 C1187.43518,1418.94809 1189.52804,1414.68051 1193.37019,1412.68229 L1213.20498,1402.36666 C1215.23417,1401.31133 1217.56667,1400.99276 1219.80453,1401.4653 L1252.51413,1408.37224 C1253.13616,1408.50359 1253.78292,1408.45207 1254.37632,1408.22392 L1304.38195,1388.99746 C1309.47473,1387.03936 1315.19061,1389.58052 1317.14871,1394.6733 C1317.21014,1394.83307 1317.26741,1394.99442 1317.32045,1395.15716 L1330.20719,1434.69394 C1330.64896,1436.04931 1331.91266,1436.96654 1333.33821,1436.96654 L1381.23923,1436.96654 C1384.66535,1436.96654 1387.84688,1438.74163 1389.64632,1441.65716 L1395.60406,1451.31014 C1396.55929,1452.85784 1398.58832,1453.33814 1400.13602,1452.38291 C1400.42683,1452.20342 1400.68792,1451.97977 1400.90993,1451.71998 L1410.56006,1440.42765 C1412.43705,1438.23125 1415.18143,1436.96654 1418.07059,1436.96654 L1468.18664,1436.96654 C1468.60343,1436.96654 1469.01644,1436.88742 1469.40372,1436.73338 L1518.27649,1417.29453 C1523.34642,1415.27799 1529.09114,1417.75326 1531.10768,1422.82319 C1531.1451,1422.91729 1531.18108,1423.01197 1531.2156,1423.10718 L1543.62514,1457.33602 C1544.42134,1459.53216 1544.41359,1461.93939 1543.60325,1464.13036 L1523.0077,1519.81573 C1522.71374,1520.61051 1522.73748,1521.48802 1523.07397,1522.26575 L1542.64044,1567.48927 C1544.21631,1571.13153 1543.45977,1575.36323 1540.71953,1578.23387 L1507.02872,1613.52784 C1505.7729,1614.84342 1505.82134,1616.92796 1507.13693,1618.18378 C1507.47255,1618.50416 1507.87208,1618.75 1508.30934,1618.90518 L1623.06752,1659.63402 C1624.99612,1660.3185 1626.66457,1661.585 1627.84236,1663.25856 L1647.98777,1691.8837 C1648.60454,1692.76008 1649.60918,1693.28154 1650.68084,1693.28154 L1708.25079,1693.28154 C1708.64677,1693.28154 1709.0395,1693.21013 1709.41013,1693.07072 L1774.62221,1668.54267 C1777.97973,1667.27981 1781.75797,1667.93611 1784.49293,1670.25726 L1855.48475,1730.50788 C1856.07988,1731.01296 1856.83507,1731.29023 1857.61564,1731.29023 L1916.56272,1731.29023 C1919.21501,1731.29023 1921.75591,1732.35669 1923.6137,1734.24964 L1981.00639,1792.72862 C1982.81921,1794.57576 1983.83481,1797.06052 1983.83481,1799.64862 L1983.83481,1819.23109 C1983.83481,1820.7122 1984.82359,1822.01108 1986.25124,1822.40539 L2037.97462,1836.69088 C2043.23396,1838.14346 2046.31995,1843.58454 2044.86737,1848.84388 C2044.44258,1850.38192 2043.65158,1851.79418 2042.56201,1852.95988 L2023.25479,1873.61617 C2022.50139,1874.42221 2022.2017,1875.55199 2022.45653,1876.62548 L2030.25459,1909.47581 C2030.58345,1910.8612 2031.76545,1911.87831 2033.18439,1911.99691 L2143.90533,1921.2514 C2145.01849,1921.34444 2146.10781,1921.6256 2147.12696,1922.0829 L2179.71921,1936.70748 C2180.748,1937.16912 2181.94147,1937.07227 2182.88237,1936.45079 L2215.20578,1915.10064 C2219.12671,1912.51079 2224.32928,1913.04111 2227.64701,1916.36882 L2304.33485,1993.28724 C2305.49454,1994.45041 2307.33403,1994.5812 2308.64662,1993.5938 L2341.3805,1968.96957 C2345.74077,1965.68954 2351.93446,1966.56524 2355.2145,1970.92551 C2355.28012,1971.01275 2355.3443,1971.10106 2355.40699,1971.19043 L2368.95601,1990.50218 C2369.94128,1991.90651 2370.54389,1993.5432 2370.70454,1995.25116 L2375.0923,2041.90132 C2375.18901,2042.92952 2375.76247,2043.85281 2376.64129,2044.39524 L2409.33416,2064.57443 C2410.10374,2065.04944 2411.03481,2065.18706 2411.9089,2064.95498 L2440.12329,2057.46401 C2440.80016,2057.2843 2441.40211,2056.89349 2441.84172,2056.34834 L2491.95258,1994.20681 C2493.82807,1991.88106 2496.65531,1990.52898 2499.64304,1990.52898 L2572.00375,1990.52898 C2574.1662,1990.52898 2576.26892,1991.23848 2577.9893,1992.54862 L2626.65322,2029.60825 C2627.30855,2030.10731 2628.12712,2030.34265 2628.94744,2030.26785 L2689.18711,2024.77505 C2690.51261,2024.65419 2691.84886,2024.80241 2693.11565,2025.21082 L2741.00976,2040.65164 C2745.55896,2042.11828 2748.40576,2046.63132 2747.76995,2051.36862 L2742.98687,2087.00695 C2742.74494,2088.80953 2744.0101,2090.46694 2745.81269,2090.70887 C2746.22183,2090.76378 2746.63764,2090.74128 2747.03846,2090.64253 L2841.75245,2067.3095 C2843.5184,2066.87446 2844.59731,2065.09019 2844.16226,2063.32424 C2844.15138,2063.28007 2844.13958,2063.23612 2844.12688,2063.19244 L2840.58925,2051.02694 C2839.38626,2046.89002 2841.00281,2042.45057 2844.58421,2040.0558 L2855.83377,2032.53353 C2856.54858,2032.05557 2857.04808,2031.31697 2857.22553,2030.4756 L2866.89701,1984.61841 C2867.04717,1983.90642 2866.95729,1983.16475 2866.64141,1982.50924 L2839.94676,1927.11286 C2839.44163,1926.06464 2839.12566,1924.93542 2839.0134,1923.77726 L2832.44731,1856.03728 C2832.32603,1854.78614 2832.44464,1853.52335 2832.79675,1852.31668 L2865.46596,1740.36127 C2866.99438,1735.12347 2872.47949,1732.11642 2877.71729,1733.64484 C2877.90067,1733.69835 2878.08246,1733.75717 2878.26243,1733.82122 L2898.84204,1741.14562 C2899.77991,1741.47942 2900.81845,1741.37104 2901.6672,1740.8508 L2914.88884,1732.74661 C2916.44254,1731.79428 2918.22937,1731.29023 2920.05172,1731.29023 L2997.21676,1731.29023 C2998.81762,1731.29023 3000.3945,1731.67926 3001.81167,1732.42382 L3015.96887,1739.86179 C3020.15759,1742.06248 3022.19786,1746.9241 3020.83415,1751.45496 L3009.407,1789.42121 C3008.88281,1791.16279 3009.86971,1792.99954 3011.61128,1793.52373 C3011.91913,1793.61639 3012.2389,1793.66346 3012.5604,1793.66346 L3042.68024,1793.66346 C3046.18578,1793.66346 3049.42879,1795.52112 3051.2022,1798.54498 L3056.56364,1807.68683 C3058.74747,1811.4105 3058.2608,1816.12089 3055.36177,1819.3194 L3053.7513,1821.09625 C3052.6761,1822.28252 3052.76615,1824.1158 3053.95242,1825.191 C3054.06341,1825.29159 3054.18203,1825.38344 3054.30721,1825.4657 L3070.10434,1835.84666 C3071.62428,1836.84548 3073.66613,1836.42302 3074.66495,1834.90309 C3074.74948,1834.77445 3074.82489,1834.64005 3074.89062,1834.50086 L3087.36106,1808.09523 C3088.9932,1804.63924 3092.47234,1802.4347 3096.29435,1802.4347 L3101.08129,1802.4347 C3106.53754,1802.4347 3110.9607,1806.85786 3110.9607,1812.31411 L3110.9607,1817.65862 C3110.9607,1819.47737 3112.43509,1820.95175 3114.25383,1820.95175 L3127.94749,1820.95175 C3128.31052,1820.95175 3128.67106,1820.89172 3129.01451,1820.7741 L3203.62782,1795.21978 C3207.30309,1793.96103 3211.37491,1794.97307 3214.0332,1797.806 L3224.88484,1809.37054 C3226.6034,1811.202 3227.55993,1813.61923 3227.55993,1816.13075 L3227.55993,1852.5094 C3227.55993,1853.14497 3227.74385,1853.76697 3228.0895,1854.30033 L3236.70135,1867.58918 C3237.56048,1868.91488 3239.23996,1869.44375 3240.70367,1868.84951 L3352.32037,1823.53549 C3353.93887,1822.87841 3354.76274,1821.07193 3354.19773,1819.41904 L3350.38149,1808.25489 C3348.83035,1803.71712 3351.25149,1798.78108 3355.78926,1797.22993 C3358.55636,1796.28406 3361.61371,1796.79454 3363.92341,1798.58807 L3373.26593,1805.84274 C3373.59851,1806.10099 3374.07748,1806.04074 3374.33574,1805.70816 C3374.4396,1805.57441 3374.49597,1805.40989 3374.49597,1805.24055 L3374.49597,1799.03865 C3374.49597,1798.36115 3374.28702,1797.70015 3373.8976,1797.14576 L3350.8984,1764.40359 C3347.76216,1759.93877 3348.83919,1753.77689 3353.30401,1750.64065 C3354.47744,1749.8164 3355.81624,1749.25747 3357.22741,1749.00269 L3381.19766,1744.67508 C3382.67923,1744.40759 3383.66344,1742.98971 3383.39596,1741.50814 C3383.26613,1740.78903 3382.85302,1740.15216 3382.24934,1739.74041 L3374.28557,1734.30877 C3370.58672,1731.78599 3369.04684,1727.09112 3370.53299,1722.8677 L3373.72833,1713.78702 C3374.6411,1711.19308 3376.59367,1709.09694 3379.11644,1708.00273 L3410.26435,1694.49286 C3412.36473,1693.58186 3414.7163,1693.42862 3416.91715,1694.05932 L3429.36024,1697.62518 C3430.97872,1698.08899 3432.6864,1697.25732 3433.31916,1695.69712 L3449.53001,1655.72562 C3451.58062,1650.66938 3457.34187,1648.23283 3462.39811,1650.28344 C3464.3447,1651.0729 3465.98899,1652.46226 3467.09224,1654.2498 L3483.44284,1680.74172 C3484.08488,1681.78197 3485.25031,1682.38099 3486.46989,1682.29759 L3564.52291,1676.95979 C3565.61322,1676.88522 3566.59551,1676.27463 3567.14493,1675.32992 L3581.8512,1650.04338 C3584.59429,1645.32681 3590.64154,1643.72698 3595.35812,1646.47007 C3595.85196,1646.75728 3596.31996,1647.08678 3596.75685,1647.45488 L3637.27892,1681.59576 C3637.94063,1682.15327 3638.79517,1682.42795 3639.65778,1682.36042 L3832.8106,1667.23975 C3833.86139,1667.15749 3834.80932,1666.57722 3835.36052,1665.67882 L3848.02793,1645.0324 C3849.12391,1643.24607 3850.75956,1641.85455 3852.69844,1641.05899 L3890.01694,1625.74643 C3891.08586,1625.30783 3891.84673,1624.34112 3892.02191,1623.19907 L3896.43018,1594.45912 C3897.16973,1589.63763 3901.31751,1586.07755 3906.19539,1586.07755 L3977.00728,1586.07755 C3981.54902,1586.07755 3985.50567,1589.17408 3986.59715,1593.58272 L4021.15587,1733.17008 C4021.30947,1733.79049 4021.40251,1734.42435 4021.43366,1735.06273 L4027.62353,1861.89302 C4027.71218,1863.70961 4029.25669,1865.11037 4031.07328,1865.02172 C4031.6918,1864.99153 4032.28929,1864.78755 4032.79715,1864.4332 L4060.88464,1844.83532 C4065.35931,1841.71315 4071.51776,1842.80957 4074.63994,1847.28423 C4075.0819,1847.91766 4075.44807,1848.60073 4075.73092,1849.31945 L4084.70897,1872.13221 C4086.70712,1877.20942 4084.21105,1882.94513 4079.13385,1884.94328 C4078.97362,1885.00634 4078.81177,1885.0652 4078.64847,1885.1198 L4074.17693,1886.61479 C4073.08395,1886.98021 4072.26152,1887.8904 4072.00841,1889.01471 L4066.36743,1914.07128 C4066.25398,1914.5752 4066.26067,1915.09875 4066.38694,1915.59962 L4087.17948,1998.07189 C4087.37856,1998.86152 4087.47924,1999.67273 4087.47924,2000.48707 L4087.47924,2047.65991 C4087.47924,2053.11616 4083.05608,2057.53932 4077.59984,2057.53932 L4069.39586,2057.53932 C4067.57711,2057.53932 4066.10272,2059.01371 4066.10272,2060.83246 L4066.10272,2073.182 C4066.10272,2077.218 4063.64771,2080.84817 4059.90194,2082.35099 L4048.73644,2086.83062 C4047.48785,2087.33156 4046.66951,2088.54161 4046.66951,2089.88695 L4046.66951,2143.95365 C4046.66951,2146.70583 4045.52148,2149.33326 4043.50197,2151.20303 L4021.35863,2171.70449 C4021.02616,2172.01231 4020.76079,2172.38542 4020.57912,2172.80048 L4004.54118,2209.44117 C4003.66493,2211.44309 4002.14965,2213.09798 4000.23251,2214.14684 L3941.49945,2246.27938 C3940.44353,2246.85706 3939.78689,2247.9648 3939.78689,2249.16841 L3939.78689,2259.86419 C3939.78689,2261.68294 3941.26127,2263.15733 3943.08002,2263.15733 C3943.26705,2263.15733 3943.45374,2263.1414 3943.63807,2263.1097 L3963.80564,2259.64201 C3968.97177,2258.75372 3973.9323,2262.05491 3975.10764,2267.16338 L3993.29091,2346.19446 C3993.54729,2347.30879 3994.36336,2348.21037 3995.44672,2348.57616 L4087.19112,2379.55328 C4089.9553,2380.48659 4092.16562,2382.59394 4093.22963,2385.31048 L4101.07397,2405.33793 C4102.62027,2409.28581 4101.47511,2413.78014 4098.22816,2416.5067 L4063.67076,2445.52547 C4060.43873,2448.23949 4055.83957,2448.6007 4052.22347,2446.42451 L4047.69146,2443.69713 C4046.13314,2442.75932 4044.10963,2443.26235 4043.17182,2444.82068 C4043.1359,2444.88036 4043.10189,2444.94117 4043.06982,2445.00301 L4022.44107,2484.79297 C4021.105,2487.37007 4018.70313,2489.22916 4015.87337,2489.87648 L3913.19586,2513.36457 C3911.69871,2513.70705 3910.63708,2515.03896 3910.63708,2516.57478 L3910.63708,2539.81164 C3910.63708,2543.23766 3908.86211,2546.41909 3905.94672,2548.21857 L3898.89598,2552.57053 C3898.11384,2553.0533 3897.56905,2553.84096 3897.39329,2554.74313 L3881.68866,2635.35557 C3881.6022,2635.79936 3881.60805,2636.2562 3881.70585,2636.69763 L3885.29595,2652.90162 C3885.40774,2653.40621 3885.90742,2653.72463 3886.41201,2653.61284 C3886.75851,2653.53607 3887.03176,2653.26989 3887.11759,2652.92552 L3890.27239,2640.26842 C3891.36941,2635.86713 3895.32257,2632.77836 3899.85851,2632.77836 L3901.02815,2632.77836 C3905.99535,2632.77836 3910.02205,2636.80506 3910.02205,2641.77225 C3910.02205,2642.07894 3910.00636,2642.38542 3909.97505,2642.6905 L3904.71563,2693.93561 C3904.15857,2699.36335 3899.30694,2703.31181 3893.8792,2702.75474 C3892.94511,2702.65888 3892.02946,2702.43033 3891.15988,2702.076 L3872.30749,2694.39419 C3868.58783,2692.87854 3866.15606,2689.26175 3866.15606,2685.24515 L3866.15606,2676.5527 C3866.15606,2674.98364 3865.04904,2673.6325 3863.51063,2673.32389 L3794.26473,2659.43307 C3788.91506,2658.35992 3785.44826,2653.1532 3786.52141,2647.80353 C3786.94173,2645.7082 3788.03016,2643.80566 3789.62338,2642.38134 L3821.35319,2614.01539 C3822.31246,2613.15783 3822.6844,2611.82011 3822.30547,2610.59047 L3809.49562,2569.02224 C3808.96,2567.28415 3807.1168,2566.30935 3805.3787,2566.84497 C3805.12943,2566.92178 3804.89017,2567.02794 3804.66595,2567.16122 L3763.56539,2591.59033 C3762.32432,2592.32799 3761.70844,2593.78802 3762.04624,2595.19169 L3765.75573,2610.60579 C3767.03236,2615.91058 3763.76689,2621.24588 3758.4621,2622.52251 C3757.70508,2622.70469 3756.92918,2622.79674 3756.15055,2622.79674 L3741.4979,2622.79674 C3737.65955,2622.79674 3734.16862,2620.57353 3732.5454,2617.0953 L3715.00166,2579.50281 C3713.16623,2575.56987 3714.11257,2570.89962 3717.33423,2567.99141 L3717.76411,2567.60335 Z"></path>
            </g>
        </g>
    </g>
</svg>