<?xml version="1.0" encoding="UTF-8"?>
<svg width="215px" height="296px" viewBox="0 0 215 296" version="1.1" xmlns="http://www.w3.org/2000/svg" xmlns:xlink="http://www.w3.org/1999/xlink">
    <!-- Generator: Sketch 50 (54983) - http://www.bohemiancoding.com/sketch -->
    <title>东湖街道</title>
    <desc>Created with Sketch.</desc>
    <defs></defs>
    <g id="Page-1" stroke="none" stroke-width="1" fill="none" fill-rule="evenodd">
        <g id="余杭地图" transform="translate(-3000.000000, -747.000000)" stroke="#74E5F0" stroke-width="10">
            <path d="M3006,871.570456 L3017.82273,853.179547 L3033.58636,849.238638 L3038.18409,826.250001 L3055.91818,835.445456 C3061.08818,827.909362 3064.81015,823.311635 3067.08409,821.652274 C3069.35803,819.992912 3073.73682,818.679276 3080.22046,817.711365 L3092.04318,849.238638 L3103.86591,849.238638 L3109.12046,871.570456 L3128.16818,866.972729 L3128.16818,842.013638 L3141.30455,835.445456 C3143.91942,827.284209 3146.54669,821.372846 3149.18637,817.711365 C3151.82604,814.049884 3155.98589,810.546853 3161.66591,807.202274 L3141.30455,799.977273 L3149.18637,787.497728 L3171.51818,759.911364 L3183.99773,754 L3191.22273,763.852273 L3199.76137,780.272728 L3199.76137,787.497728 L3208.3,796.036364 L3199.76137,807.202274 L3191.22273,799.977273 L3180.71364,799.977273 L3183.99773,821.652274 L3191.22273,826.250001 L3180.71364,835.445456 L3183.99773,866.972729 L3195.82046,874.854547 C3195.82046,884.487881 3195.82046,890.837123 3195.82046,893.902275 C3195.82046,896.967426 3194.28788,900.689396 3191.22273,905.068184 L3199.76137,914.784619 C3197.95794,919.661541 3196.64431,922.771971 3195.82046,924.115912 C3194.99661,925.459852 3193.46403,926.992428 3191.22273,928.713639 C3195.78332,943.677499 3197.3159,952.872954 3195.82046,956.300003 C3194.32502,959.727052 3187.97578,961.478567 3176.77273,961.554549 L3176.77273,970.750003 C3154.01188,968.774146 3137.81037,968.774146 3128.16818,970.750003 C3118.526,972.72586 3107.79797,980.079241 3095.98409,992.810145 C3075.92058,1009.12605 3061.0327,1020.16358 3051.32046,1025.92273 C3041.60821,1031.68189 3031.97488,1035.18492 3022.42045,1036.43182 L3033.58636,982.572731 L3006,871.570456 Z" id="东湖街道"></path>
        </g>
    </g>
</svg>