<?xml version="1.0" encoding="UTF-8"?>
<svg width="562px" height="485px" viewBox="0 0 562 485" version="1.1" xmlns="http://www.w3.org/2000/svg" xmlns:xlink="http://www.w3.org/1999/xlink">
    <!-- Generator: Sketch 48 (47235) - http://www.bohemiancoding.com/sketch -->
    <title>中泰街道</title>
    <desc>Created with Sketch.</desc>
    <defs></defs>
    <g id="余杭地图" stroke="none" stroke-width="1" fill="none" fill-rule="evenodd" transform="translate(-940.000000, -1801.000000)" fill-opacity="0.3">
        <path d="M1477.14657,2069.68313 L1484.29787,2072.28395 L1479.74704,2080.08642 L1481.6974,2104.79424 L1475.19622,2116.49794 L1475.19622,2126.25103 L1466.09456,2132.75309 L1460.2435,2128.20165 L1447.89125,2124.30041 L1455.69267,2132.75309 L1457.64303,2139.25514 L1449.84161,2139.25514 L1440.08983,2139.25514 L1442.69031,2146.40741 L1447.89125,2150.30864 L1449.84161,2158.11111 L1455.69267,2154.20988 L1460.2435,2158.11111 L1455.69267,2160.71193 L1445.9409,2170.46502 L1452.44208,2179.5679 L1449.84161,2182.16872 L1440.08983,2177.61728 L1425.78723,2184.11934 L1416.03546,2184.11934 L1408.88416,2196.47325 L1401.08274,2193.22222 L1388.08038,2196.47325 L1377.67849,2199.72428 L1377.67849,2208.17695 L1370.52719,2208.17695 L1365.97636,2217.93004 L1365.97636,2215.32922 L1355.57447,2215.32922 L1343.87234,2208.17695 L1332.17021,2208.17695 L1323.71868,2199.72428 L1310.71631,2205.57613 C1304.63896,2203.58483 1300.08813,2202.71789 1297.06383,2202.97531 C1294.03953,2203.23273 1288.40517,2204.96661 1280.16076,2208.17695 L1244.40426,2220.53086 C1240.41673,2214.70631 1237.16614,2210.58834 1234.65248,2208.17695 C1232.13883,2205.76557 1224.77082,2199.69699 1212.54846,2189.97119 L1189.79433,2202.97531 L1180.04255,2199.72428 L1166.39007,2222.48148 L1154.03783,2208.17695 L1119.58156,2230.28395 L1108.52955,2250.44033 L1097.47754,2250.44033 L1088.37589,2262.79424 L1071.47281,2255.64198 L1051.96927,2262.79424 L1037.01655,2281 L1024.01418,2281 L1015.56265,2262.79424 L1018.16312,2242.63786 L1009.06147,2242.63786 L998.659574,2230.28395 C994.321593,2227.79632 992.371238,2226.27917 992.808511,2225.73251 C993.245783,2225.18585 997.796611,2223.45196 1006.46099,2220.53086 L1003.86052,2212.07819 L992.808511,2202.97531 L985.007092,2208.17695 C977.561799,2208.09792 972.577559,2206.36404 970.054374,2202.97531 C967.531188,2199.58657 964.930715,2191.1339 962.252955,2177.61728 C956.017187,2177.0834 952.116478,2175.78299 950.550827,2173.71605 C948.985177,2171.64911 947.468234,2165.79726 946,2156.16049 L962.252955,2141.85597 C971.363387,2132.30206 977.214451,2124.93306 979.806147,2119.74897 C982.397842,2114.56488 982.397842,2110.44691 979.806147,2107.39506 L982.406619,2088.53909 C987.062624,2079.9133 989.012978,2073.62798 988.257683,2069.68313 C987.124741,2063.76585 977.167496,2063.24789 979.806147,2058.62963 C982.444797,2054.01137 992.593764,2054.64256 998.659574,2051.47737 C1002.70345,2049.36723 1006.17075,2046.11621 1009.06147,2041.72428 C1013.0683,2043.57963 1016.10218,2044.22984 1018.16312,2043.6749 C1020.22406,2043.11995 1022.82453,2040.9526 1025.96454,2037.17284 L1056.52009,2015.71605 C1051.3009,2014.77609 1048.48372,2013.47567 1048.06856,2011.81481 C1047.6534,2010.15396 1047.6534,2003.6519 1048.06856,1992.30864 L1059.77069,1988.40741 L1056.52009,1981.25514 L1059.77069,1978.00412 L1067.5721,1978.00412 L1071.47281,1957.84774 L1076.67376,1946.79424 L1076.67376,1920.78601 C1080.8405,1917.58561 1083.44097,1914.11785 1084.47518,1910.38272 C1085.50938,1906.64758 1086.80962,1896.67776 1088.37589,1880.47325 L1099.4279,1882.42387 C1102.16356,1880.45784 1104.00556,1878.72396 1104.9539,1877.22222 C1105.90224,1875.72048 1106.66071,1873.3364 1107.22931,1870.06996 C1104.27186,1867.09918 1102.53821,1864.49836 1102.02837,1862.26749 C1101.51852,1860.03662 1101.51852,1855.05171 1102.02837,1847.31276 L1108.52955,1843.41152 L1116.33097,1847.31276 C1121.35688,1847.91725 1125.04088,1847.91725 1127.38298,1847.31276 C1129.72508,1846.70826 1132.75896,1844.97438 1136.48463,1842.11111 C1139.93687,1835.90306 1142.75405,1832.43529 1144.93617,1831.70782 C1147.11829,1830.98035 1150.8023,1831.84729 1155.98818,1834.30864 L1168.99054,1831.70782 L1176.79196,1826.50617 L1191.74468,1826.50617 L1204.09693,1820.65432 L1228.80142,1818.0535 L1252.85579,1812.85185 L1280.16076,1807 L1284.71158,1810.90123 L1252.85579,1835.60905 L1247.00473,1840.8107 L1254.15603,1870.06996 L1260.65721,1872.02058 L1267.80851,1866.16872 L1276.91017,1875.92181 L1300.96454,1875.92181 L1303.56501,1870.06996 L1302.26478,1843.41152 C1293.68374,1837.94822 1289.78303,1834.04698 1290.56265,1831.70782 C1291.34226,1829.36866 1297.41003,1826.76783 1308.76596,1823.90535 C1319.72727,1826.5267 1327.52869,1827.39364 1332.17021,1826.50617 C1336.81173,1825.6187 1343.74633,1821.9342 1352.974,1815.45267 C1360.69641,1812.33019 1366.54747,1810.37957 1370.52719,1809.60082 C1374.5069,1808.82208 1378.62432,1808.82208 1382.87943,1809.60082 L1385.47991,1846.01235 L1373.77778,1850.56379 L1364.026,1888.92593 C1347.55634,1887.48102 1339.32151,1887.48102 1339.32151,1888.92593 C1339.32151,1889.59802 1337.70844,1897.22536 1341.27187,1898.67901 C1344.00347,1899.79334 1351.58819,1899.79334 1364.026,1898.67901 C1373.28667,1896.60295 1379.57115,1896.60295 1382.87943,1898.67901 C1386.18772,1900.75508 1387.92136,1905.52325 1388.08038,1912.98354 L1397.83215,1920.78601 C1407.61664,1914.39523 1414.76794,1911.7944 1419.28605,1912.98354 C1423.80416,1914.17268 1429.00511,1920.02453 1434.88889,1930.53909 C1442.83478,1938.34156 1448.68584,1942.2428 1452.44208,1942.2428 C1456.19832,1942.2428 1462.91621,1938.34156 1472.59574,1930.53909 C1478.06792,1925.88705 1481.96863,1924.36991 1484.29787,1925.98765 C1485.86849,1927.07851 1485.84903,1932.41486 1488.8487,1938.34156 C1489.81461,1940.25 1492.19838,1943.06756 1496,1946.79424 L1488.8487,1970.85185 C1479.64949,1976.08789 1474.23183,1980.20586 1472.59574,1983.20576 C1470.95965,1986.20566 1472.4766,1989.23996 1477.14657,1992.30864 L1460.2435,2030.67078 C1458.76121,2037.15548 1458.76121,2041.49018 1460.2435,2043.6749 C1461.72578,2045.85961 1465.8432,2047.59349 1472.59574,2048.87654 C1477.47786,2050.56558 1480.51174,2052.29947 1481.6974,2054.07819 C1482.48784,2055.264 1482.48784,2058.08156 1481.6974,2062.53086 L1477.14657,2069.68313 Z" id="中泰街道" stroke="#74E5F0" stroke-width="10" fill="#8BCEFF"></path>
    </g>
</svg>