<?xml version="1.0" encoding="UTF-8"?>
<svg width="376px" height="400px" viewBox="0 0 376 400" version="1.1" xmlns="http://www.w3.org/2000/svg" xmlns:xlink="http://www.w3.org/1999/xlink">
    <!-- Generator: Sketch 50 (54983) - http://www.bohemiancoding.com/sketch -->
    <title>临平街道</title>
    <desc>Created with Sketch.</desc>
    <defs></defs>
    <g id="Page-1" stroke="none" stroke-width="1" fill="none" fill-rule="evenodd">
        <g id="余杭地图" transform="translate(-2664.000000, -741.000000)" stroke="#74E5F0" stroke-width="10">
            <path d="M2673.59286,1066.6054 L2671,1056.57224 L2671,1050.33221 L2673.59286,1026.89882 L2678.77857,1024.94604 L2682.01964,1020.1203 L2682.01964,1006.06914 L2685.26071,996.305228 L2676.18571,996.305228 L2673.59286,992.130423 L2685.26071,992.130423 L2689.15,986.541315 L2673.59286,974.173693 C2679.21738,970.645934 2683.10667,967.391296 2685.26071,964.409781 C2687.41476,961.428265 2691.52012,953.617136 2697.57679,940.976391 C2703.86633,935.153427 2709.05205,931.030886 2713.13393,928.608769 C2717.21581,926.186652 2721.53724,924.667821 2726.09821,924.052277 C2733.11955,932.614632 2737.44098,935.86927 2739.0625,933.816189 C2740.68402,931.763108 2741.33223,922.216171 2741.00714,905.175379 C2747.4466,905.726303 2751.55196,905.075375 2753.32321,903.222597 C2755.09447,901.369819 2756.17482,896.596351 2756.56429,888.902192 C2759.17894,889.351718 2760.69144,889.351718 2761.10179,888.902192 C2761.51213,888.452666 2762.37642,885.848956 2763.69464,881.091062 C2768.30588,878.699809 2770.89874,876.747026 2771.47321,875.232715 C2772.04769,873.718404 2771.1834,871.114694 2768.88036,867.421585 C2763.53463,868.680154 2760.07749,868.680154 2758.50893,867.421585 C2754.23432,863.99176 2753.46105,854.997865 2753.32321,853.752108 C2753.1095,851.820659 2757.647,850.518804 2766.93571,849.846543 C2772.6818,843.958883 2775.92287,839.402391 2776.65893,836.177066 C2777.39498,832.951741 2776.5307,827.093393 2774.06607,818.602024 C2782.03239,819.003064 2787.43418,818.135161 2790.27143,815.998314 C2793.10868,813.861467 2795.48547,808.871023 2797.40179,801.026981 C2813.19143,800.014623 2823.34679,797.193938 2827.86786,792.564924 C2832.38893,787.935911 2832.82107,780.124781 2829.16429,769.131535 C2840.56942,768.620347 2847.69978,767.318492 2850.55536,765.22597 C2852.45908,763.830955 2853.10729,759.274462 2852.5,751.556492 L2888.1735,747 L2891.41457,761.320405 L2919.28778,761.320405 L2923.82528,773.688027 L2919.28778,792.564924 L2927.71457,801.026981 L2932.90028,815.998314 L2932.90028,849.846543 L2967.25564,909.080944 L2987.9985,909.080944 L2987.9985,881.091062 L3006.1485,871.978078 L3034,981.984823 L3022.35385,1035.36088 L2977.62707,1065.0343 C2966.03697,1078.78127 2956.96197,1087.76703 2950.40207,1091.99157 C2943.84217,1096.21611 2930.87788,1101.42353 2911.50921,1107.61383 L2852.5,1133 L2850.55536,1111.51939 L2846.03957,1100.45363 L2852.5,1095.24621 L2865.486,1100.45363 L2888.1735,1091.99157 C2891.18074,1087.43689 2892.26109,1084.30948 2891.41457,1082.60934 C2890.56804,1080.9092 2886.24661,1077.52734 2878.45028,1072.46374 C2873.22188,1066.85253 2868.90045,1062.51302 2865.486,1059.44519 C2862.07155,1056.37737 2854.0769,1049.65112 2841.50207,1039.26644 C2830.10728,1036.20022 2821.03228,1034.89837 2814.27707,1035.36088 C2807.52185,1035.82339 2797.58257,1038.4271 2784.45921,1043.17201 L2763.69464,1056.57224 L2756.56429,1050.33221 L2750.10385,1061.39798 L2714.45207,1073.7656 L2706.6735,1082.60934 L2701.48778,1076.36931 C2699.47559,1077.51215 2698.17192,1078.81401 2697.57679,1080.27487 C2696.98165,1081.73574 2696.34067,1085.20735 2695.65385,1090.68971 L2707.96992,1105.66105 L2703.43242,1114.77403 L2697.57679,1114.1231 L2682.68957,1119.98145 C2680.6018,1119.48437 2679.0893,1118.83344 2678.15207,1118.02867 C2677.21484,1117.22389 2675.6951,1115.27111 2673.59286,1112.17032 C2678.5838,1105.32916 2681.39273,1100.12174 2682.01964,1096.54806 C2682.64655,1092.97438 2681.5662,1088.32814 2678.77857,1082.60934 C2681.78043,1079.66689 2683.08409,1077.58688 2682.68957,1076.36931 C2682.29504,1075.15174 2679.26281,1071.8971 2673.59286,1066.6054 Z" id="临平街道"></path>
        </g>
    </g>
</svg>