<?xml version="1.0" encoding="UTF-8"?>
<svg width="337px" height="455px" viewBox="0 0 337 455" version="1.1" xmlns="http://www.w3.org/2000/svg" xmlns:xlink="http://www.w3.org/1999/xlink">
    <!-- Generator: Sketch 48 (47235) - http://www.bohemiancoding.com/sketch -->
    <title>乔司街道</title>
    <desc>Created with Sketch.</desc>
    <defs></defs>
    <g id="余杭地图" stroke="none" stroke-width="1" fill="none" fill-rule="evenodd" transform="translate(-2704.000000, -1122.000000)" fill-opacity="0.3">
        <path d="M3021.71756,1400.95259 L3021.71756,1414.61037 L3013.82637,1425.0163 C3006.31479,1444.70265 3001.58757,1458.14364 2999.64471,1465.33926 C2997.70185,1472.53488 2994.20585,1487.4934 2989.15671,1510.21481 L2989.15671,1555.74074 L2995.1003,1559.64296 L2999.64471,1555.74074 L2997.0479,1519.97037 L3021.71756,1519.97037 L3021.71756,1567.44741 C3010.84591,1570.48247 3003.48829,1572 2999.64471,1572 C2995.80113,1572 2988.62632,1570.48247 2978.12028,1567.44741 L2978.12028,1555.74074 L2909.3049,1547.28593 C2900.33602,1545.59056 2895.57521,1544.28982 2895.02247,1543.3837 C2894.46973,1542.47759 2896.63373,1538.79216 2901.51448,1532.32741 L2915.79692,1523.87259 L2930.07936,1501.10963 L2939.81738,1501.10963 L2934.62377,1493.30519 L2921.63973,1457.53481 L2921.63973,1448.42963 L2915.79692,1444.52741 L2867.756,1486.15111 L2873.59881,1498.50815 L2857.36877,1510.21481 L2829.4531,1465.33926 C2838.36779,1462.4645 2844.2106,1459.86302 2846.98155,1457.53481 C2849.75249,1455.20661 2850.61809,1452.17155 2849.57835,1448.42963 C2843.86495,1451.53006 2839.75334,1453.04759 2837.24352,1452.98222 C2830.79293,1452.81423 2825.35281,1447.79068 2821.66268,1448.42963 C2815.8189,1449.44148 2807.59568,1452.47655 2796.99302,1457.53481 C2793.05119,1452.11027 2790.02158,1449.07521 2787.9042,1448.42963 C2785.78681,1447.78405 2778.86199,1447.78405 2767.12974,1448.42963 C2766.3604,1442.81207 2765.2784,1438.90985 2763.88374,1436.72296 C2762.48907,1434.53608 2758.59386,1430.63386 2752.19811,1425.0163 L2728.17765,1436.72296 C2721.43473,1438.89232 2716.89032,1438.89232 2714.54441,1436.72296 C2712.1985,1434.55361 2710.6837,1430.65139 2710,1425.0163 L2752.19811,1400.95259 L2767.12974,1383.77395 L2763.88374,1355.80803 L2780.11378,1340.84951 C2785.73293,1340.71822 2789.84454,1340.06785 2792.44861,1338.8984 C2795.05268,1337.72894 2798.94789,1334.78355 2804.13424,1330.06222 C2808.76003,1324.36771 2811.78963,1319.72545 2813.22306,1316.13543 C2814.65649,1312.54542 2815.52209,1307.43213 2815.81987,1300.79556 C2822.58121,1299.37596 2827.12562,1297.64164 2829.4531,1295.59259 C2831.78058,1293.54355 2834.37739,1288.99095 2837.24352,1281.93481 L2897.61927,1198.68741 C2907.83817,1183.53225 2915.84499,1172.38628 2921.63973,1165.24951 C2927.43448,1158.11274 2937.2061,1147.3629 2950.95459,1133 L2954.20059,1148.99025 L2946.41017,1154.19321 L2948.35778,1165.24951 L2954.20059,1165.24951 L2964.58782,1189.31321 C2982.47041,1185.34619 2994.15604,1183.82866 2999.64471,1184.76062 C3005.13337,1185.69258 3006.21538,1189.37801 3002.89072,1195.81692 C2999.6633,1203.58383 2997.7157,1210.08753 2997.0479,1215.32803 C2996.3801,1220.56852 2995.7309,1234.44309 2995.1003,1256.95173 L2992.50349,1316.13543 C2992.85694,1327.86016 2993.72254,1335.44781 2995.1003,1338.8984 C2996.47805,1342.34898 2999.07486,1343.43293 3002.89072,1342.15025 L3017.17315,1338.8984 L3021.71756,1340.84951 L3024.96357,1355.80803 L3029.50798,1373.36803 L3034.7016,1379.22136 C3035.5672,1386.59223 3036,1391.36161 3036,1393.52951 C3036,1394.97478 3031.23919,1397.44914 3021.71756,1400.95259 Z" id="乔司街道" stroke="#74E5F0" stroke-width="10" fill="#8BCEFF"></path>
    </g>
</svg>