<?xml version="1.0" encoding="UTF-8"?>
<svg width="232px" height="424px" viewBox="0 0 232 424" version="1.1" xmlns="http://www.w3.org/2000/svg" xmlns:xlink="http://www.w3.org/1999/xlink">
    <!-- Generator: Sketch 48 (47235) - http://www.bohemiancoding.com/sketch -->
    <title>五常街道</title>
    <desc>Created with Sketch.</desc>
    <defs></defs>
    <g id="余杭地图" stroke="none" stroke-width="1" fill="none" fill-rule="evenodd" transform="translate(-1707.000000, -1621.000000)" fill-opacity="0.3">
        <path d="M1731.54599,2037 C1736.36173,2032.48986 1736.4673,2031.7232 1737.71684,2029.30255 C1738.96638,2026.8819 1738.96638,2023.4165 1737.71684,2018.90635 L1735.76729,2005.91111 L1745.51506,1994.86515 L1759.16195,1990.31681 C1760.44071,1986.717 1761.74042,1984.33454 1763.06106,1983.16943 C1764.3817,1982.00432 1766.76449,1981.13797 1770.20942,1980.57038 L1778.00764,1976.02204 L1778.00764,1968.87466 L1783.85631,1965.62585 L1781.2569,1955.22965 L1781.2569,1950.03155 L1776.70794,1935.08702 L1776.70794,1929.23916 L1772.15898,1921.44201 L1772.15898,1912.9951 L1782.55661,1911.69558 L1781.2569,1896.75104 L1775.40824,1894.80176 L1774.10853,1871.41032 L1774.10853,1864.91269 L1797.50319,1853.21697 L1797.50319,1838.9222 L1804.00171,1838.9222 L1806.60112,1834.37387 L1810.50023,1835.67339 L1813.09963,1831.77482 L1806.60112,1815.53076 C1807.26698,1811.36503 1807.26698,1808.98257 1806.60112,1808.38337 C1805.93525,1807.78418 1803.76908,1808.21735 1800.1026,1809.6829 L1797.50319,1803.83504 L1808.55067,1796.68765 L1814.39934,1801.88575 L1826.09667,1799.93646 L1829.99577,1794.0886 L1833.89488,1795.38813 L1837.14414,1794.0886 L1833.89488,1777.84455 L1804.00171,1789.54027 L1792.95423,1790.83979 L1779.9572,1781.09336 C1778.22426,1779.79383 1776.70794,1779.14407 1775.40824,1779.14407 C1774.10853,1779.14407 1771.29251,1779.79383 1766.96017,1781.09336 C1763.40706,1778.47583 1760.80766,1777.39289 1759.16195,1777.84455 C1755.65784,1778.80623 1752.00544,1784.95841 1750.71388,1786.29146 C1748.51243,1788.5636 1747.21273,1793.7617 1746.81477,1801.88575 L1731.54599,1805.13456 L1714,1749.15531 L1837.14414,1701.0729 L1833.89488,1693.27575 L1823.17507,1697.17433 L1813.09963,1690.6767 L1813.09963,1683.52932 L1826.09667,1680.28051 L1813.09963,1649.09192 L1848.51929,1630.89857 L1860.86647,1632.84786 L1870.61424,1637.3962 L1875.81306,1637.3962 L1875.81306,1627 L1889.45994,1628.94929 L1905.70623,1649.09192 L1925.20178,1658.83835 L1913.50445,1680.28051 L1910.90504,1677.68146 L1905.70623,1686.12837 L1907.65579,1699.12361 L1913.50445,1699.12361 L1921.95252,1703.02219 L1929.10089,1703.02219 L1929.10089,1710.16957 L1918.70326,1725.1141 L1913.50445,1730.3122 L1907.65579,1745.25674 L1897.90801,1772.54675 L1901.15727,1801.88575 L1921.95252,1794.0886 L1929.10089,1795.38813 L1929.10089,1805.13456 L1933,1823.87797 L1915.45401,1826.47702 L1913.50445,1838.9222 L1918.70326,1845.96989 L1918.70326,1859.6149 L1921.95252,1864.91269 L1918.70326,1884.95563 L1925.20178,1911.69558 L1925.20178,1916.79398 L1918.70326,1918.74326 L1910.90504,1918.74326 L1907.65579,1923.94136 L1910.90504,1931.73851 L1907.65579,1938.23613 L1882.31157,1942.78447 L1882.31157,1950.03155 L1875.81306,1950.03155 L1882.31157,1959.67829 L1879.71217,1965.62585 L1870.61424,1970.72425 L1860.86647,1972.67353 C1860.18832,1979.22766 1859.53847,1983.55941 1858.91691,1985.66878 C1858.29536,1987.77815 1856.77904,1990.16061 1854.36795,1992.81616 C1850.85182,1992.43529 1848.25241,1992.43529 1846.56973,1992.81616 C1844.88705,1993.19704 1841.74519,1995.14632 1837.14414,1998.66403 L1826.09667,2005.91111 L1813.09963,2005.91111 L1797.50319,2018.90635 C1785.94662,2018.38539 1777.49855,2019.00192 1772.15898,2020.75594 C1766.81941,2022.50997 1760.86335,2026.62513 1754.2908,2033.10143 L1731.54599,2037 Z" id="五常街道" stroke="#74E5F0" stroke-width="10" fill="#8BCEFF"></path>
    </g>
</svg>