<?xml version="1.0" encoding="UTF-8"?>
<svg width="417px" height="623px" viewBox="0 0 417 623" version="1.1" xmlns="http://www.w3.org/2000/svg" xmlns:xlink="http://www.w3.org/1999/xlink">
    <!-- Generator: Sketch 48 (47235) - http://www.bohemiancoding.com/sketch -->
    <title>仁和街道</title>
    <desc>Created with Sketch.</desc>
    <defs></defs>
    <g id="余杭地图" stroke="none" stroke-width="1" fill="none" fill-rule="evenodd" transform="translate(-1937.000000, -621.000000)" fill-opacity="0.3">
        <path d="M2247.87106,1173.32299 L2247.87106,1162.91871 L2247.87106,1146.01176 L2250.47181,1131.70588 L2252.42238,1117.39999 L2255.02313,1114.79892 L2256.32351,1088.13796 L2252.42238,1086.18716 L2244.62012,1082.93582 L2244.62012,1076.43315 L2240.719,1076.43315 L2237.46806,1076.43315 L2234.21712,1082.93582 L2224.4643,1082.93582 L2217.31223,1079.68448 L2217.31223,1067.97967 L2214.71148,1066.67914 L2203.65829,1065.3786 L2197.15641,1056.92513 L2191.30472,1054.32406 L2192.60509,1038.71764 L2199.10697,1038.71764 L2199.10697,1036.11657 C2199.10697,1029.61389 2199.10697,1026.36256 2199.10697,1026.36256 C2199.10697,1026.36256 2200.03523,1022.54347 2204.95866,1017.90908 C2205.69189,1017.2189 2207.42572,1016.56864 2210.16016,1015.95828 L2217.31223,1019.20962 L2229.01561,1020.51015 L2234.21712,1019.20962 L2227.06505,1014.65774 L2223.16392,1014.65774 L2223.16392,1004.25347 L2229.01561,1004.25347 L2230.96618,1001.6524 L2227.06505,999.051326 L2214.71148,999.051326 L2216.01186,989.297315 L2224.4643,992.548652 L2232.26655,994.499454 L2237.46806,987.99678 C2244.16971,985.470599 2249.15449,983.953309 2252.42238,983.444908 C2255.69027,982.936507 2260.45831,982.936507 2266.72651,983.444908 L2269.32726,992.548652 L2282.33102,999.051326 L2298.58572,977.592501 C2307.58475,967.462985 2314.73682,959.659776 2320.04192,954.182875 C2325.34702,948.705973 2331.63217,942.636811 2338.89737,935.975387 C2340.79069,929.125405 2342.09107,923.70651 2342.7985,919.718702 C2343.50592,915.730894 2344.58957,907.710929 2346.04944,895.658808 C2346.19814,884.192832 2346.19814,875.522599 2346.04944,869.648111 C2345.90073,863.773623 2345.46727,855.320147 2344.74906,844.287682 L2348,785.763616 C2343.98031,782.799026 2341.37956,780.414712 2340.19775,778.610674 C2339.01593,776.806636 2336.84864,772.905031 2333.69587,766.905861 L2330.44493,702.529387 L2309.63891,703.829922 L2312.23967,712.933666 C2306.28714,716.948916 2301.73582,719.33323 2298.58572,720.086607 C2295.43562,720.839985 2290.01738,720.839985 2282.33102,720.086607 L2275.82914,715.534735 L2255.02313,716.83527 L2252.42238,726.589281 L2240.719,731.141153 L2235.51749,725.288747 L2201.70772,735.693025 L2188.05378,749.998908 L2180.25152,749.998908 L2167.89795,737.643827 L2146.44175,733.091955 L2143.19081,726.589281 L2148.39231,723.337944 L2148.39231,716.83527 L2131.48743,714.234201 L2120.43423,702.529387 L2108.08066,699.928318 L2104.17954,675.868423 L2120.43423,643.355053 L2111.3316,643.355053 L2108.08066,632.950774 C2086.17864,632.064748 2070.79086,631.41448 2061.91732,630.999972 C2052.79741,630.573955 2045.252,626.960099 2037.86037,627.748635 C2030.03747,628.58318 2026.71723,625.705763 2022.25586,627.748635 C2019.56143,628.982424 2019.06449,635.036361 2016.40417,639.453448 C2015.58591,640.81205 2013.63535,642.112585 2010.55248,643.355053 C1997.23017,633.836814 1988.561,630.368721 1984.54496,632.950774 C1980.52893,635.532828 1977.06126,646.804129 1974.14196,666.76468 C1975.47631,682.423612 1975.47631,693.478158 1974.14196,699.928318 C1972.8076,706.378477 1968.90648,714.181686 1962.43857,723.337944 C1950.80801,734.574712 1944.30613,743.4617 1942.93294,749.998908 C1941.55974,756.536116 1942.64339,773.443069 1946.18388,800.719766 C1942.07751,820.403261 1940.99386,833.842121 1942.93294,841.036345 C1944.87201,848.23057 1952.67427,859.718627 1966.3397,875.500518 C1976.77015,886.710946 1982.83857,895.81469 1984.54496,902.811749 C1986.25135,909.808808 1984.51752,918.479041 1979.34346,928.822446 L1974.14196,951.581805 L1974.14196,973.690897 L1979.34346,992.548652 L1974.14196,999.051326 L1974.14196,1011.40641 L1984.54496,1014.65774 L1984.54496,1017.90908 L1974.14196,1021.81069 L1984.54496,1063.4278 L1989.09628,1114.79892 C1988.19608,1123.21471 1988.19608,1128.85036 1989.09628,1131.70588 C1989.99648,1134.56139 1992.3805,1136.48805 1996.24835,1137.48584 L1996.24835,1140.80962 L2010.55248,1137.48584 L2013.80342,1146.01176 C2000.78803,1148.69183 1993.20251,1151.07615 1991.04684,1153.1647 C1988.89118,1155.25326 1989.54137,1159.58837 1992.99741,1166.17005 L2013.80342,1157.06631 L2019.00492,1166.17005 C2011.63613,1171.22769 2007.95173,1175.12929 2007.95173,1177.87486 C2007.95173,1180.62044 2011.63613,1187.55662 2019.00492,1198.68342 L2016.40417,1213.63957 L2022.25586,1213.63957 L2022.25586,1229.89626 L2019.00492,1239 L2035.25962,1239 L2026.80718,1196.66018 C2030.1386,1192.88744 2032.95608,1190.96079 2035.25962,1190.88021 C2037.09904,1190.81587 2046.48218,1188.90686 2056.71582,1190.88021 C2058.43726,1191.21216 2060.17109,1192.72945 2061.91732,1195.43208 L2097.02747,1196.66018 L2104.17954,1181.77647 L2124.98555,1181.77647 L2134.08818,1189.57968 L2143.19081,1192.18075 L2146.44175,1204.46339 L2152.94363,1204.46339 L2154.89419,1189.57968 L2177.65077,1186.32834 L2180.25152,1173.32299 L2203.65829,1166.17005 L2208.85979,1177.87486 L2229.01561,1179.82567 L2247.87106,1179.82567 L2247.87106,1173.32299 Z" id="仁和街道" stroke="#74E5F0" stroke-width="10" fill="#8BCEFF"></path>
    </g>
</svg>