<?xml version="1.0" encoding="UTF-8"?>
<svg width="402px" height="543px" viewBox="0 0 402 543" version="1.1" xmlns="http://www.w3.org/2000/svg" xmlns:xlink="http://www.w3.org/1999/xlink">
    <!-- Generator: Sketch 48 (47235) - http://www.bohemiancoding.com/sketch -->
    <title>仓前街道</title>
    <desc>Created with Sketch.</desc>
    <defs></defs>
    <g id="余杭地图" stroke="none" stroke-width="1" fill="none" fill-rule="evenodd" transform="translate(-1447.000000, -1385.000000)" fill-opacity="0.3">
        <path d="M1582.33333,1897.91667 C1570.97208,1899.96684 1563.17309,1902.13187 1558.93635,1904.41176 C1554.69961,1906.69166 1551.45003,1911.88774 1549.1876,1920 L1534.88945,1912.20588 C1537.09728,1901.16611 1537.96384,1893.15549 1537.48911,1888.17402 C1537.01439,1883.19255 1534.848,1877.56346 1530.98995,1871.28676 C1536.83635,1867.62719 1541.81904,1865.67866 1545.93802,1865.44118 C1550.05701,1865.20369 1555.47298,1866.50271 1562.18593,1869.33824 L1574.53434,1869.33824 L1582.33333,1871.28676 L1584.933,1855.69853 L1587.53266,1849.85294 L1574.53434,1834.91422 L1574.53434,1831.01716 L1584.933,1840.11029 L1592.08208,1840.11029 L1592.08208,1834.91422 L1587.53266,1831.01716 L1595.33166,1825.82108 L1597.93132,1823.22304 L1601.83082,1817.37745 L1612.8794,1814.77941 L1610.92965,1808.93382 L1601.83082,1804.38725 L1595.33166,1796.59314 L1587.53266,1796.59314 L1584.933,1793.9951 L1582.33333,1788.14951 L1569.98492,1788.14951 C1566.87647,1790.37084 1564.92673,1791.02035 1564.13568,1790.09804 C1563.34463,1789.17573 1562.69472,1785.49517 1562.18593,1779.05637 L1571.93467,1769.31373 L1567.38526,1766.06618 C1561.75265,1765.48883 1558.93635,1764.62282 1558.93635,1763.46814 C1558.93635,1762.31345 1561.75265,1759.0659 1567.38526,1753.72549 L1564.13568,1751.77696 L1491.34506,1781.65441 L1475.09715,1781.65441 L1454.94975,1769.31373 L1469.24791,1748.52941 L1462.74874,1736.83824 L1465.34841,1714.10539 C1461.30652,1711.30765 1459.14014,1708.70961 1458.84925,1706.31127 C1458.55836,1703.91294 1459.85819,1699.36637 1462.74874,1692.67157 C1464.48185,1690.07353 1465.34841,1687.69199 1465.34841,1685.52696 C1465.34841,1683.36193 1464.48185,1677.51634 1462.74874,1667.9902 L1458.84925,1629.01961 C1459.28285,1622.08199 1459.28285,1616.61505 1458.84925,1612.6188 C1458.41565,1608.62255 1456.4659,1596.11971 1453,1575.11029 C1453.10556,1557.82282 1453.75548,1544.83263 1454.94975,1536.13971 C1456.14402,1527.44678 1458.74369,1516.78377 1462.74874,1504.15066 L1471.84757,1473.6237 C1466.75308,1470.0359 1463.72013,1466.4097 1462.74874,1462.7451 C1461.77735,1459.0805 1462.64391,1454.53393 1465.34841,1449.10539 C1466.99339,1445.7345 1467.64331,1442.27045 1467.29816,1438.71324 C1466.95301,1435.15602 1465.43654,1429.68909 1462.74874,1422.31243 C1466.14919,1413.90739 1468.31557,1407.89965 1469.24791,1404.28922 C1470.18024,1400.67878 1470.18024,1398.29725 1469.24791,1397.14461 L1475.09715,1397.14461 L1478.99665,1390 L1485.49581,1390 L1505.64322,1395.19608 L1528.39028,1400.39216 L1534.88945,1404.28922 L1562.18593,1410.1348 L1569.98492,1424.42402 L1576.48409,1430.26961 L1574.53434,1449.10539 L1576.48409,1467.94118 L1569.98492,1471.83824 L1569.98492,1484.82843 L1584.933,1488.07598 L1587.53266,1494.57108 L1579.73367,1501.71569 L1579.73367,1506.26225 L1587.53266,1506.26225 L1587.53266,1514.05637 L1592.08208,1516.0049 L1595.33166,1519.25245 L1601.83082,1519.25245 L1601.83082,1511.45833 L1608.32998,1501.71569 L1616.77889,1494.57108 L1629.77722,1491.32353 L1636.27638,1491.32353 L1644.07538,1506.26225 L1655.77387,1523.79902 L1659.02345,1533.54167 L1664.8727,1536.13971 L1664.8727,1546.53186 L1655.77387,1551.72794 L1652.52429,1558.22304 L1659.02345,1569.26471 L1659.02345,1579.00735 L1655.77387,1582.90441 L1664.8727,1586.80147 L1680.47069,1586.80147 L1683.72027,1579.00735 L1677.22111,1571.86275 L1680.47069,1563.41912 L1683.72027,1551.72794 L1691.51926,1549.77941 L1696.71859,1553.67647 L1699.96817,1565.36765 L1713.61642,1571.86275 L1725.31491,1571.86275 L1727.26466,1563.41912 L1729.21441,1553.67647 L1738.96315,1553.67647 L1738.96315,1549.77941 L1734.41374,1546.53186 L1737.0134,1541.33578 L1744.16248,1536.13971 L1744.16248,1527.69608 L1740.9129,1523.79902 L1737.0134,1521.20098 L1734.41374,1504.15066 L1734.41374,1497.81863 L1752.61139,1494.57108 L1766.25963,1494.57108 L1775.35846,1499.76716 L1775.35846,1511.45833 L1779.25796,1527.69608 L1789.0067,1533.54167 L1783.15745,1541.33578 L1786.40704,1563.41912 L1781.20771,1565.36765 L1768.8593,1563.41912 L1768.8593,1569.26471 L1779.25796,1575.11029 L1786.40704,1582.90441 L1777.30821,1586.80147 L1775.35846,1599.79167 L1786.40704,1599.79167 L1796.15578,1602.38971 L1796.15578,1610.83333 L1802.65494,1621.22549 L1809.1541,1632.91667 L1815.65327,1645.25735 L1815.65327,1647.85539 L1828.65159,1679.03186 L1815.65327,1682.92892 L1815.65327,1689.42402 L1825.40201,1696.56863 L1835.80067,1692.67157 L1841,1699.81618 L1716.866,1748.52941 L1734.41374,1804.38725 L1705.81742,1808.93382 L1672.67169,1814.77941 L1655.77387,1831.01716 L1652.52429,1834.91422 L1636.27638,1825.82108 L1629.77722,1817.37745 L1616.77889,1817.37745 L1623.92797,1831.01716 L1636.27638,1834.91422 L1649.27471,1840.11029 L1644.07538,1851.15196 L1636.27638,1842.70833 L1632.37688,1851.15196 L1621.32831,1860.89461 L1621.32831,1865.44118 L1631.07705,1873.23529 L1629.77722,1876.48284 L1616.77889,1875.18382 L1610.92965,1873.23529 L1604.43049,1873.23529 L1595.33166,1866.7402 L1592.08208,1879.08088 L1583.63317,1888.17402 L1582.33333,1897.91667 Z" id="仓前街道" stroke="#74E5F0" stroke-width="10" fill="#8BCEFF"></path>
    </g>
</svg>