<?xml version="1.0" encoding="UTF-8"?>
<svg width="720px" height="700px" viewBox="0 0 720 700" version="1.1" xmlns="http://www.w3.org/2000/svg" xmlns:xlink="http://www.w3.org/1999/xlink">
    <!-- Generator: Sketch 48 (47235) - http://www.bohemiancoding.com/sketch -->
    <title>余杭街道</title>
    <desc>Created with Sketch.</desc>
    <defs></defs>
    <g id="余杭地图" stroke="none" stroke-width="1" fill="none" fill-rule="evenodd" transform="translate(-897.000000, -1372.000000)" fill-opacity="0.3">
        <path d="M1306.53585,1413.24093 C1301.04479,1415.70751 1296.92929,1417.00766 1294.18934,1417.14137 C1291.44939,1417.27508 1286.68407,1416.40831 1279.89338,1414.54108 C1273.86981,1412.72789 1269.75431,1412.29451 1267.54688,1413.24093 C1265.33944,1414.18735 1263.38999,1417.22102 1261.69853,1422.34196 C1260.82876,1434.20044 1259.52913,1441.78463 1257.79963,1445.09454 C1256.07014,1448.40445 1252.38785,1450.35468 1246.75276,1450.94521 C1242.7375,1452.27567 1240.35484,1453.57581 1239.60478,1454.84565 C1238.85472,1456.11549 1238.42151,1459.58255 1238.30515,1465.24683 C1239.19875,1470.35933 1239.19875,1473.17632 1238.30515,1473.69779 C1237.41155,1474.21926 1232.86283,1474.21926 1224.65901,1473.69779 C1221.62653,1477.30931 1220.11029,1479.90961 1220.11029,1481.49868 C1220.11029,1483.08775 1221.62653,1485.25466 1224.65901,1487.99942 C1232.3925,1493.64756 1235.85819,1496.89793 1235.05607,1497.75052 C1234.25395,1498.60311 1227.32257,1499.03649 1214.26195,1499.05067 L1207.11397,1499.05067 L1198.66636,1487.99942 L1194.11765,1487.99942 L1191.51838,1499.05067 L1176.57261,1514.00237 C1174.32289,1515.26066 1172.80665,1515.69405 1172.0239,1515.30252 C1171.24115,1514.91099 1170.59133,1513.39415 1170.07445,1510.752 C1171.24842,1506.41817 1171.24842,1504.25126 1170.07445,1504.25126 C1168.90048,1504.25126 1163.70195,1506.41817 1154.47886,1510.752 C1149.22785,1509.65113 1145.97877,1509.65113 1144.73162,1510.752 C1143.48447,1511.85286 1143.05125,1515.10323 1143.43199,1520.50311 C1140.14507,1525.00019 1138.19563,1528.25056 1137.58364,1530.25421 C1136.97165,1532.25787 1136.53844,1536.80839 1136.28401,1543.90576 C1137.67401,1548.8619 1138.10722,1551.67888 1137.58364,1552.35672 C1137.06006,1553.03456 1132.72795,1554.98478 1124.58732,1558.20739 C1120.57801,1558.91297 1117.76214,1559.77973 1116.13971,1560.80768 C1114.51727,1561.83563 1110.83498,1565.51938 1105.09283,1571.85894 C1098.18213,1574.70843 1093.85002,1576.87534 1092.09651,1578.35968 C1090.34299,1579.84401 1089.04336,1582.4443 1088.19761,1586.16056 C1088.12289,1599.09423 1087.03987,1606.24504 1084.94853,1607.613 C1082.85719,1608.98095 1078.30848,1605.51389 1071.30239,1597.21182 L1062.85478,1589.41093 L1059.6057,1593.31137 L1066.75368,1599.81211 L1065.45404,1602.41241 L1058.30607,1602.41241 L1058.30607,1605.66278 L1066.75368,1605.66278 L1071.30239,1612.81359 L1058.30607,1614.11373 L1044.65993,1605.66278 C1038.41254,1605.53731 1033.86382,1605.10393 1031.01379,1604.36263 C1028.16375,1603.62132 1021.88219,1601.23772 1012.16912,1597.21182 L994.624081,1586.16056 L969.931066,1612.81359 C966.354987,1613.44635 963.539117,1613.44635 961.483456,1612.81359 C959.427795,1612.18083 956.611925,1610.4473 953.035846,1607.613 L945.887868,1611.51344 L938.090074,1643.53026 C938.705888,1645.94312 939.57231,1647.45996 940.689338,1648.08078 C941.806367,1648.7016 944.838842,1649.35167 949.786765,1650.031 C950.722037,1655.15926 951.805064,1658.62632 953.035846,1660.43218 C954.266627,1662.23804 956.432681,1663.53819 959.534007,1664.33262 C962.689329,1666.67549 963.988961,1668.62571 963.432904,1670.18329 C962.876847,1671.74086 959.411161,1675.858 953.035846,1682.53469 C952.106106,1689.54862 951.023079,1694.09913 949.786765,1696.18624 C948.55045,1698.27335 946.384397,1700.00688 943.288603,1701.38683 L923.794118,1703.98713 C920.573727,1707.59439 917.974462,1709.54462 915.996324,1709.83779 C914.018185,1710.13096 910.769104,1709.04751 906.249081,1706.58742 L903,1719.5889 L919.245404,1737.14089 C915.50775,1741.54464 913.558302,1744.79501 913.397059,1746.892 C913.235816,1748.98899 914.752054,1751.37259 917.945772,1754.04281 C918.356577,1757.40099 918.356577,1759.78459 917.945772,1761.19362 C917.534967,1762.60265 916.01873,1765.41964 913.397059,1769.64458 C914.878731,1773.75825 915.745152,1777.00862 915.996324,1779.39569 C916.247495,1781.78276 916.247495,1786.76666 915.996324,1794.34739 C918.211481,1795.94616 920.16093,1796.81293 921.844669,1796.94768 C923.528408,1797.08243 926.994095,1796.64905 932.241728,1795.64753 C937.367028,1793.46597 941.04932,1792.5992 943.288603,1793.04724 C945.527886,1793.49527 948.343756,1795.66218 951.736213,1799.54798 L975.129596,1788.49672 L999.82261,1802.79834 L1005.02114,1802.79834 L1006.97059,1778.09554 L1014.11857,1779.39569 L1026.46507,1774.84517 L1037.51195,1781.99598 L1046.60938,1779.39569 L1051.15809,1781.99598 L1062.85478,1779.39569 L1072.60202,1781.99598 L1075.20129,1793.04724 L1081.69945,1795.64753 L1080.39982,1804.74857 L1079.10018,1809.29908 L1080.39982,1817.75004 L1079.10018,1822.30056 L1066.75368,1835.30204 L1070.00276,1841.80277 L1066.75368,1847.00336 L1070.00276,1853.5041 L1070.00276,1871.70617 L1084.94853,1880.15713 L1099.24449,1882.10735 C1101.97888,1880.14172 1103.82003,1878.40819 1104.76792,1876.90676 C1105.71582,1875.40533 1106.47394,1873.02172 1107.04228,1869.75595 C1104.0862,1866.78577 1102.35336,1864.18548 1101.84375,1861.95506 C1101.33414,1859.72465 1101.33414,1854.74075 1101.84375,1847.00336 L1108.34191,1843.10292 L1116.13971,1847.00336 C1121.16328,1847.60774 1124.84557,1847.60774 1127.18658,1847.00336 C1129.52759,1846.39899 1132.56007,1844.66546 1136.28401,1841.80277 C1139.73464,1835.59598 1142.55051,1832.12892 1144.73162,1831.40159 C1146.91273,1830.67427 1150.59502,1831.54103 1155.77849,1834.00189 L1168.77482,1831.40159 L1176.57261,1826.201 L1191.51838,1826.201 L1203.86489,1820.35034 L1228.5579,1817.75004 L1252.6011,1812.54945 L1279.89338,1806.69879 L1284.4421,1810.59923 L1252.6011,1835.30204 L1246.75276,1840.50263 L1253.90074,1869.75595 L1260.3989,1871.70617 L1267.54688,1865.8555 L1276.6443,1875.60661 L1300.6875,1875.60661 L1303.28676,1869.75595 L1301.98713,1843.10292 C1293.41008,1837.64072 1289.51119,1833.74028 1290.29044,1831.40159 C1291.06969,1829.0629 1297.13465,1826.46261 1308.48529,1823.60071 C1319.44152,1826.22153 1327.23931,1827.08829 1331.87868,1826.201 C1336.51804,1825.31371 1343.44941,1821.62996 1352.67279,1815.14975 C1360.39162,1812.02789 1366.23996,1810.07767 1370.21783,1809.29908 C1374.1957,1808.5205 1378.3112,1808.5205 1382.56434,1809.29908 L1385.1636,1845.70322 L1373.46691,1850.25373 L1363.71967,1888.60809 C1347.25766,1887.16348 1339.02665,1887.16348 1339.02665,1888.60809 C1339.02665,1889.28004 1337.41434,1896.90584 1340.9761,1898.35919 C1343.70644,1899.47329 1351.28763,1899.47329 1363.71967,1898.35919 C1372.97604,1896.28355 1379.25759,1896.28355 1382.56434,1898.35919 C1385.87108,1900.43484 1387.60393,1905.20205 1387.76287,1912.66082 L1397.51011,1920.4617 C1407.29005,1914.07222 1414.43803,1911.47192 1418.95404,1912.66082 C1423.47006,1913.84971 1428.66859,1919.70038 1434.54963,1930.21281 C1442.49183,1938.0137 1448.34018,1941.91414 1452.09467,1941.91414 C1455.84916,1941.91414 1462.56393,1938.0137 1472.23897,1930.21281 C1477.70861,1925.56171 1481.6075,1924.04488 1483.93566,1925.66229 C1485.50555,1926.75293 1485.4861,1932.0882 1488.48438,1938.0137 C1489.44984,1939.92174 1491.8325,1942.73873 1495.63235,1946.46466 L1488.48438,1970.51739 C1479.28944,1975.75236 1473.8743,1979.8695 1472.23897,1982.86879 C1470.60364,1985.86808 1472.11988,1988.90176 1476.78768,1991.96982 L1459.89246,2030.32418 C1458.41087,2036.80756 1458.41087,2041.14138 1459.89246,2043.32565 C1461.37406,2045.50992 1465.48956,2047.24345 1472.23897,2048.52624 C1477.11882,2050.21494 1480.15129,2051.94847 1481.3364,2053.72683 C1482.5215,2055.5052 1482.5215,2058.32218 1481.3364,2062.17779 C1494.4443,2066.15567 1503.97494,2067.67251 1509.92831,2066.72831 C1515.88168,2065.78411 1524.11269,2061.45028 1534.62132,2053.72683 L1567.11213,2016.67263 C1576.03568,2014.54723 1581.0176,2012.16363 1582.0579,2009.52182 C1583.09821,2006.88 1580.93215,2002.1128 1575.55974,1995.22019 C1573.77023,1988.60565 1573.77023,1984.48851 1575.55974,1982.86879 C1577.34926,1981.24906 1581.89797,1981.24906 1589.20588,1982.86879 C1587.84138,1979.77021 1586.32514,1977.38661 1584.65717,1975.71798 C1582.9892,1974.04935 1578.65709,1970.58229 1571.66085,1965.3168 C1563.2524,1973.24562 1558.05387,1976.71268 1556.06526,1975.71798 C1554.07664,1974.72328 1554.07664,1968.65592 1556.06526,1957.51591 L1579.45864,1949.71503 L1579.45864,1930.21281 C1578.95329,1927.64012 1579.81971,1926.12328 1582.0579,1925.66229 C1584.2961,1925.20131 1590.79426,1925.20131 1601.55239,1925.66229 L1579.45864,1898.35919 C1568.09914,1900.41114 1560.30135,1902.57806 1556.06526,1904.85993 C1551.82917,1907.14181 1548.58009,1912.3424 1546.31801,1920.4617 L1532.02206,1912.66082 C1534.22955,1901.61146 1535.09597,1893.59389 1534.62132,1888.60809 C1534.14667,1883.62229 1531.98062,1877.98832 1528.12316,1871.70617 C1533.96866,1868.04342 1538.95058,1866.0932 1543.06893,1865.8555 C1547.18728,1865.61781 1552.60242,1866.91796 1559.31434,1869.75595 L1571.66085,1869.75595 L1579.45864,1871.70617 L1582.0579,1856.1044 L1584.65717,1850.25373 L1571.66085,1835.30204 L1571.66085,1831.40159 L1582.0579,1840.50263 L1589.20588,1840.50263 L1589.20588,1835.30204 L1584.65717,1831.40159 L1592.45496,1826.201 L1595.05423,1823.60071 L1598.95312,1817.75004 L1610,1815.14975 L1608.05055,1809.29908 L1598.95312,1804.74857 L1592.45496,1796.94768 L1584.65717,1796.94768 L1582.0579,1794.34739 L1579.45864,1788.49672 L1567.11213,1788.49672 C1564.00416,1790.71998 1562.05471,1791.37005 1561.26379,1790.44694 C1560.47286,1789.52383 1559.82305,1785.84008 1559.31434,1779.39569 L1569.06158,1769.64458 L1564.51287,1766.39421 C1558.88113,1765.81637 1556.06526,1764.9496 1556.06526,1763.79392 C1556.06526,1762.63823 1558.88113,1759.38786 1564.51287,1754.04281 L1561.26379,1752.09259 L1488.48438,1781.99598 L1472.23897,1781.99598 L1452.09467,1769.64458 L1466.39062,1748.84222 L1459.89246,1737.14089 L1462.49173,1714.38831 C1458.45046,1711.58813 1456.28441,1708.98784 1455.99357,1706.58742 C1455.70272,1704.18701 1457.00235,1699.63649 1459.89246,1692.93587 C1461.62531,1690.33558 1462.49173,1687.95197 1462.49173,1685.78506 C1462.49173,1683.61815 1461.62531,1677.76748 1459.89246,1668.23307 L1455.99357,1629.22864 C1456.4271,1622.28499 1456.4271,1616.81331 1455.99357,1612.81359 C1455.56003,1608.81386 1453.61058,1596.30017 1450.14522,1575.27251 C1450.25077,1557.97003 1450.90058,1544.96855 1452.09467,1536.26808 C1453.28876,1527.56761 1455.88802,1516.89534 1459.89246,1504.25126 L1468.98989,1473.69779 C1463.89618,1470.10688 1460.8637,1466.47753 1459.89246,1462.80974 C1458.92122,1459.14196 1459.78764,1454.59144 1462.49173,1449.15819 C1464.13646,1445.78437 1464.78627,1442.31731 1464.44118,1438.75701 C1464.09608,1435.19671 1462.57984,1429.72503 1459.89246,1422.34196 C1463.29238,1413.92962 1465.45844,1407.91667 1466.39062,1404.3031 C1467.32281,1400.68953 1467.32281,1398.30593 1466.39062,1397.15229 L1459.89246,1388.05125 L1455.99357,1377 L1450.14522,1377 L1447.54596,1388.05125 L1431.30055,1393.90192 C1428.99009,1388.26795 1426.60743,1385.45096 1424.15257,1385.45096 C1421.69771,1385.45096 1415.63276,1388.26795 1405.95772,1393.90192 L1412.45588,1408.85362 L1405.95772,1410.80384 L1387.76287,1393.90192 C1381.00853,1395.92353 1376.24321,1397.87375 1373.46691,1399.75258 C1370.69061,1401.63142 1368.09134,1404.66509 1365.66912,1408.85362 L1400.10938,1431.6062 C1397.22997,1435.14068 1394.6307,1437.52429 1392.31158,1438.75701 C1384.78461,1442.75795 1375.09525,1444.2648 1370.21783,1443.30753 C1356.5553,1440.62604 1335.32797,1430.60384 1306.53585,1413.24093 Z" id="余杭街道" stroke="#74E5F0" stroke-width="10" fill="#8BCEFF"></path>
    </g>
</svg>