<?xml version="1.0" encoding="UTF-8"?>
<svg width="330px" height="435px" viewBox="0 0 330 435" version="1.1" xmlns="http://www.w3.org/2000/svg" xmlns:xlink="http://www.w3.org/1999/xlink">
    <!-- Generator: Sketch 48 (47235) - http://www.bohemiancoding.com/sketch -->
    <title>南苑街道</title>
    <desc>Created with Sketch.</desc>
    <defs></defs>
    <g id="余杭地图" stroke="none" stroke-width="1" fill="none" fill-rule="evenodd" transform="translate(-2892.000000, -964.000000)" fill-opacity="0.3">
        <path d="M2902.95088,1141.63963 C2905.44357,1146.0991 2910.64356,1149.35117 2918.55084,1151.39583 L2951.70074,1132.80287 L2954.95074,1148.79417 L2947.15076,1153.99748 L2949.10075,1165.05451 L2954.95074,1165.05451 L2965.35071,1189.1198 C2983.25524,1185.15252 2994.95521,1183.63489 3000.45061,1184.56691 C3005.946,1185.49892 3007.02933,1189.1846 3003.7006,1195.62393 C3000.46922,1203.39136 2998.51923,1209.89549 2997.85061,1215.13633 C2997.182,1220.37717 2996.532,1234.25266 2995.90062,1256.76279 L2993.30063,1315.9504 C2993.65451,1327.6759 2994.52117,1335.26405 2995.90062,1338.71487 C2997.28006,1342.16568 2999.88006,1343.2497 3003.7006,1341.96693 L3018.00056,1338.71487 L3022.55054,1340.66611 L3025.80053,1355.62561 L3030.35052,1373.18677 L3035.55051,1379.04049 C3036.41717,1386.41184 3036.8505,1391.18154 3036.8505,1393.34959 C3036.8505,1395.51763 3040.31716,1392.26556 3047.25047,1383.59339 L3053.10046,1392.04876 C3062.16269,1386.94008 3068.87934,1383.47121 3073.2504,1381.64215 C3077.62146,1379.81308 3082.82145,1378.07864 3088.85035,1376.43884 C3103.21395,1376.35228 3113.61392,1375.91867 3120.05026,1375.13801 C3126.48661,1374.35735 3130.81993,1372.62292 3133.05023,1369.93471 C3135.11638,1359.55667 3137.28305,1352.61892 3139.55021,1349.12148 C3141.81737,1345.62404 3144.8507,1344.54001 3148.65018,1345.86941 L3150.60018,1341.96693 L3157.10016,1340.66611 L3155.80016,1325.7066 L3170.10012,1337.41404 C3181.39199,1325.17235 3190.49196,1316.06656 3197.40004,1310.09668 C3204.30813,1304.1268 3209.50811,1300.87473 3213,1300.34048 C3210.78306,1297.00337 3209.48307,1294.18492 3209.10001,1291.88511 C3208.71695,1289.5853 3208.71695,1284.59879 3209.10001,1276.9256 C3205.45627,1274.10768 3202.63961,1272.37325 3200.65004,1271.72229 C3187.72207,1267.4925 3177.64457,1266.5013 3172.70011,1264.56775 C3166.61425,1262.18784 3159.8976,1258.93578 3152.55017,1254.81155 C3139.41371,1247.0395 3131.1804,1242.92021 3127.85024,1242.45369 C3124.52009,1241.98717 3121.92009,1244.58883 3120.05026,1250.25865 L3109.0003,1248.30741 L3107.7003,1242.45369 L3102.50031,1241.15287 L3099.90032,1232.69749 L3099.90032,1215.13633 L3096.00033,1200.17683 L3097.95033,1187.16856 L3081.05038,1157.24955 L3055.05045,1165.05451 L3051.80046,1161.80244 L3045.30048,1161.80244 C3043.40609,1153.63869 3042.75609,1148.21858 3043.35048,1145.54211 C3043.94488,1142.86563 3046.76153,1140.26398 3051.80046,1137.73715 C3059.41499,1134.63903 3063.53164,1132.03738 3064.15042,1129.93219 C3064.7692,1127.82699 3062.81921,1123.05729 3058.30044,1115.62309 L3064.15042,1113.02144 L3073.2504,1134.48508 C3078.32266,1133.65736 3082.00599,1132.13973 3084.30037,1129.93219 C3086.59475,1127.72464 3088.54474,1123.82216 3090.15035,1118.22474 L3102.50031,1113.02144 C3109.00608,1111.81082 3112.6894,1109.94926 3113.55028,1107.43675 C3114.41117,1104.92423 3113.32784,1099.19764 3110.30029,1090.25697 L3124.60025,1072.31443 L3131.10023,1074.64705 L3135.00022,1066.84209 L3142.8002,1062.93961 C3141.70797,1057.52841 3141.70797,1054.27634 3142.8002,1053.18341 C3143.89243,1052.09048 3148.65909,1050.57285 3157.10016,1048.63052 L3157.10016,1031.06936 C3161.15851,1030.54779 3163.54184,1029.24697 3164.25014,1027.16688 C3164.95844,1025.08679 3164.09178,1022.05153 3161.65015,1018.06109 C3162.60214,1013.30072 3162.60214,1009.83185 3161.65015,1007.65448 C3160.69815,1005.4771 3157.66483,1002.00823 3152.55017,997.247864 C3156.13688,988.153901 3159.1702,982.733789 3161.65015,980.987531 C3164.13009,979.241272 3166.94675,980.542099 3170.10012,984.890011 L3179.2001,977.735464 L3175.30011,969.930504 C3151.7031,968.218487 3134.36981,968.868901 3123.30026,971.881744 C3116.31431,973.783135 3106.56434,980.504073 3094.05034,992.044558 C3074.19516,1008.20136 3059.46186,1019.13126 3049.85046,1024.83425 C3040.23907,1030.53725 3030.70576,1034.00612 3021.25055,1035.24087 L2976.40067,1064.89085 C2964.77868,1078.62697 2955.6787,1087.60562 2949.10075,1091.82683 C2942.5228,1096.04803 2929.52284,1101.25133 2910.10086,1107.43675 C2904.74056,1109.55828 2900.40724,1111.41984 2897.1009,1113.02144 C2896.4271,1113.34783 2899.21185,1134.95041 2902.95088,1141.63963 Z" id="南苑街道" stroke="#74E5F0" stroke-width="10" fill="#8BCEFF"></path>
    </g>
</svg>