<?xml version="1.0" encoding="UTF-8"?>
<svg width="574px" height="580px" viewBox="0 0 574 580" version="1.1" xmlns="http://www.w3.org/2000/svg" xmlns:xlink="http://www.w3.org/1999/xlink">
    <!-- Generator: Sketch 48 (47235) - http://www.bohemiancoding.com/sketch -->
    <title>塘栖镇</title>
    <desc>Created with Sketch.</desc>
    <defs></defs>
    <g id="余杭地图" stroke="none" stroke-width="1" fill="none" fill-rule="evenodd" transform="translate(-2285.000000, -538.000000)" fill-opacity="0.3">
        <path d="M2669.80326,1049.30985 L2672.40119,1025.93252 L2677.59705,1023.98441 L2680.84447,1019.17023 L2680.84447,1005.15268 L2684.09188,995.412132 L2674.99912,995.412132 L2672.40119,991.247316 L2684.09188,991.247316 L2687.98878,985.671581 L2672.40119,973.33355 C2678.03673,969.814231 2681.93362,966.567381 2684.09188,963.592999 C2686.25014,960.618618 2690.36354,952.826177 2696.43206,940.215678 C2702.73392,934.406646 2707.92978,930.293969 2712.01965,927.877647 C2716.10953,925.461325 2720.43941,923.946128 2725.00932,923.332056 C2732.0444,931.873925 2736.37428,935.120776 2737.99898,933.072607 C2739.62367,931.024438 2740.27315,921.500344 2739.94742,904.500325 C2746.39949,905.04993 2750.51288,904.40056 2752.2876,902.552215 C2754.06232,900.70387 2755.14479,895.941823 2755.53502,888.266074 C2758.15479,888.714524 2759.67025,888.714524 2760.0814,888.266074 C2760.49255,887.817623 2761.35853,885.220143 2762.67933,880.473633 C2767.29959,878.088101 2769.89753,876.139991 2770.47313,874.629303 C2771.04873,873.118615 2770.18275,870.521134 2767.87519,866.836862 C2762.51901,868.09242 2759.0551,868.09242 2757.48347,866.836862 C2753.20049,863.415243 2752.42571,854.442867 2752.2876,853.200091 C2752.07347,851.273263 2756.61985,849.974523 2765.92675,849.303871 C2771.68408,843.430298 2774.93149,838.884708 2775.66899,835.6671 C2776.40649,832.449492 2775.54051,826.605161 2773.07106,818.134109 C2781.05297,818.534189 2786.46533,817.668363 2789.30813,815.536628 C2792.15094,813.404894 2794.53238,808.426391 2796.45245,800.601117 C2812.273,799.591182 2822.44823,796.777245 2826.97815,792.159307 C2831.50807,787.541369 2831.94106,779.748928 2828.27712,768.781985 C2839.70458,768.272021 2846.84889,766.973281 2849.71006,764.885765 C2852.57122,762.798249 2853.22071,758.252659 2851.65851,751.248994 C2853.44716,739.681752 2853.44716,733.188051 2851.65851,731.767892 C2849.86985,730.347733 2843.15852,730.347733 2831.52453,731.767892 L2831.52453,714.884271 C2832.71879,710.03253 2832.71879,707.218593 2831.52453,706.442461 C2830.33027,705.666328 2826.00039,705.666328 2818.53487,706.442461 L2810.74107,711.637421 L2800.99883,716.832381 L2802.94728,711.637421 L2806.19469,704.49435 L2802.94728,695.40317 L2810.74107,691.506949 L2816.58642,688.909469 L2818.53487,675.272698 L2818.53487,666.181518 L2810.74107,666.181518 L2812.68952,649.947266 L2802.94728,644.752306 L2798.4009,637.609236 L2765.92675,631.115535 L2739.94742,627.219315 C2741.67938,617.550916 2742.54536,610.407846 2742.54536,605.790103 C2742.54536,601.172361 2741.67938,597.92551 2739.94742,596.049553 L2744.49381,585.659632 L2736.05053,575.919081 L2725.00932,572.022861 L2725.00932,560.98357 L2707.47327,560.98357 L2702.27741,549.944279 L2696.43206,549.944279 L2702.27741,565.52916 L2687.98878,575.919081 L2631.48376,575.919081 L2624.98893,572.022861 L2608.75185,572.022861 L2608.75185,585.659632 L2584.0715,592.153332 C2582.40492,556.247039 2577.64205,540.012788 2569.78287,543.450579 C2561.9237,546.888369 2554.77938,568.750494 2548.34993,609.036953 L2526.26751,596.049553 L2487.29853,619.426874 L2495.74181,633.713015 L2507.75724,649.947266 L2495.74181,653.843487 L2476.9068,660.986557 L2467.16455,649.947266 L2457.42231,653.843487 L2467.16455,671.376478 L2476.9068,675.272698 L2467.16455,683.065139 L2476.9068,695.40317 L2487.29853,691.506949 L2495.74181,706.442461 L2487.29853,716.832381 L2457.42231,691.506949 L2448.97903,699.94876 L2476.9068,731.767892 L2419.10281,758.392064 L2419.10281,751.248994 L2396.3709,758.392064 L2396.3709,768.781985 L2347.01019,784.366866 C2344.38368,812.353168 2343.08471,831.83427 2343.11329,842.81017 C2343.16274,861.795226 2347.70541,875.861331 2347.01019,888.266074 C2345.71209,911.428217 2342.89766,927.013099 2338.56691,935.020717 L2297,979.17788 L2304.14431,979.17788 L2306.09276,991.247316 C2315.91267,992.110364 2323.05699,993.498636 2327.5257,995.412132 C2331.99442,997.325627 2335.67482,1000.57248 2338.56691,1005.15268 L2347.01019,1005.15268 C2351.49631,1001.82879 2354.96021,1000.22406 2357.40192,1000.3385 C2366.6313,1000.77105 2376.11185,1005.20196 2379.48434,1008.39953 C2382.94825,1011.68378 2383.81423,1014.84109 2382.08228,1017.87149 L2389.87607,1019.17023 C2397.05077,1013.25266 2402.89612,1009.66242 2407.41211,1008.39953 C2411.92811,1007.13664 2415.82501,1008.00247 2419.10281,1010.99701 L2461.96869,1010.99701 C2465.07026,1012.19275 2466.80222,1013.40196 2467.16455,1014.62464 C2467.52689,1015.84731 2467.52689,1020.48243 2467.16455,1028.53 C2468.08832,1030.34585 2469.38729,1031.42813 2471.06145,1031.77685 C2472.73562,1032.12558 2476.63252,1032.12558 2482.75215,1031.77685 L2482.75215,1047.36174 L2534.06131,1045.41363 L2541.8551,1049.30985 L2541.8551,1058.40103 L2541.8551,1111 L2561.33959,1104.5063 L2561.33959,1096.06449 L2581.47357,1093.46701 C2582.34778,1088.97602 2583.21376,1086.07255 2584.0715,1084.7566 C2584.92924,1083.44066 2586.87769,1082.35837 2589.91685,1081.50975 L2606.8034,1081.50975 C2605.53714,1072.28789 2606.18662,1066.44356 2608.75185,1063.97676 C2611.31709,1061.50996 2618.89439,1059.65139 2631.48376,1058.40103 L2658.11256,1060.34914 L2660.06101,1055.53495 L2669.80326,1055.53495 L2669.80326,1049.30985 Z" id="塘栖镇" stroke="#74E5F0" stroke-width="10" fill="#8BCEFF"></path>
    </g>
</svg>