<?xml version="1.0" encoding="UTF-8"?>
<svg width="544px" height="310px" viewBox="0 0 544 310" version="1.1" xmlns="http://www.w3.org/2000/svg" xmlns:xlink="http://www.w3.org/1999/xlink">
    <!-- Generator: Sketch 48 (47235) - http://www.bohemiancoding.com/sketch -->
    <title>崇贤街道</title>
    <desc>Created with Sketch.</desc>
    <defs></defs>
    <g id="余杭地图" stroke="none" stroke-width="1" fill="none" fill-rule="evenodd" transform="translate(-2185.000000, -975.000000)" fill-opacity="0.3">
        <path d="M2247.51282,1179.04209 L2247.51282,1172.54989 L2247.51282,1162.16237 L2247.51282,1145.28264 L2250.11111,1130.99979 L2252.05983,1116.71695 L2254.65812,1114.12006 L2255.95726,1087.50203 L2252.05983,1085.55437 L2244.26496,1082.30827 L2244.26496,1075.81607 L2240.36752,1075.81607 L2237.11966,1075.81607 L2233.87179,1082.30827 L2224.12821,1082.30827 L2216.98291,1079.06217 L2216.98291,1067.3762 L2214.38462,1066.07776 L2203.34188,1064.77932 L2196.84615,1056.33946 L2191,1053.74258 L2192.29915,1038.16129 L2198.79487,1038.16129 L2198.79487,1035.56441 C2198.79487,1029.07221 2198.79487,1025.82611 2198.79487,1025.82611 C2198.79487,1025.82611 2199.72225,1022.01316 2204.64103,1017.38624 C2205.37356,1016.69718 2207.10575,1016.04796 2209.83761,1015.43858 L2216.98291,1018.68468 L2228.67521,1019.98312 L2233.87179,1018.68468 L2226.7265,1014.14014 L2222.82906,1014.14014 L2222.82906,1003.75262 L2228.67521,1003.75262 L2230.62393,1001.15574 L2226.7265,998.558854 L2214.38462,998.558854 L2215.68376,988.82055 L2224.12821,992.066652 L2231.92308,994.014312 L2237.11966,987.52211 C2243.81497,984.999997 2248.79503,983.48515 2252.05983,982.977568 C2255.32463,982.469986 2260.08816,982.469986 2266.35043,982.977568 L2268.94872,992.066652 L2281.94017,998.558854 L2296.88034,980 L2304.02564,980 L2305.97436,992.066652 C2315.79562,992.929501 2322.94092,994.317453 2327.41026,996.230507 C2331.87959,998.143561 2335.5605,1001.38966 2338.45299,1005.96881 L2346.89744,1005.96881 C2351.38417,1002.64568 2354.84855,1001.04133 2357.2906,1001.15574 C2366.52125,1001.58819 2376.00311,1006.01808 2379.37607,1009.21491 C2382.84046,1012.4984 2383.70655,1015.65499 2381.97436,1018.68468 L2389.76923,1019.98312 C2396.94492,1014.06692 2402.79107,1010.47751 2407.30769,1009.21491 C2411.82431,1007.95231 2415.72175,1008.81794 2419,1011.81179 L2461.87179,1011.81179 C2464.9738,1013.00726 2466.70599,1014.21619 2467.06838,1015.43858 C2467.43076,1016.66097 2467.43076,1021.29503 2467.06838,1029.34074 C2467.99227,1031.15617 2469.29142,1032.2382 2470.96581,1032.58684 C2472.64021,1032.93549 2476.53764,1032.93549 2482.65812,1032.58684 L2482.65812,1048.16813 L2533.97436,1046.22047 L2541.76923,1050.11579 L2541.76923,1059.20487 L2541.76923,1111.79172 L2561.25641,1105.29951 L2561.25641,1096.85965 L2581.39316,1094.26277 C2582.2675,1089.77281 2583.1336,1086.87001 2583.99145,1085.55437 C2584.84931,1084.23873 2586.79803,1083.1567 2589.83761,1082.30827 L2606.7265,1082.30827 C2605.46005,1073.08853 2606.10963,1067.24555 2608.67521,1064.77932 C2611.2408,1062.3131 2618.81915,1060.45495 2631.41026,1059.20487 L2658.04274,1061.15254 L2659.99145,1056.33946 L2669.73504,1056.33946 L2672.33333,1066.07776 C2677.29654,1070.48852 2680.11135,1073.73462 2680.77778,1075.81607 C2681.4442,1077.89752 2680.36158,1080.06159 2677.52991,1082.30827 C2680.23222,1088.96209 2681.31484,1093.81255 2680.77778,1096.85965 C2680.24071,1099.90675 2677.4259,1104.88411 2672.33333,1111.79172 C2675.75145,1116.77124 2678.56627,1119.36812 2680.77778,1119.58236 C2682.98929,1119.7966 2688.18587,1117.97584 2696.36752,1114.12006 C2699.50281,1114.95359 2701.45153,1114.95359 2702.21368,1114.12006 C2705.88658,1110.10317 2706.25135,1104.16314 2707.41026,1105.29951 C2708.58135,1106.44783 2715.48631,1108.89397 2718.45299,1119.58236 C2718.77694,1120.7495 2714.33211,1123.95721 2713.90598,1126.72378 C2713.67388,1128.23064 2714.53998,1130.61112 2716.50427,1133.86521 L2716.50427,1142.95429 L2723,1147.49883 L2718.45299,1178.01219 C2711.99254,1178.91336 2707.66206,1179.25666 2705.46154,1179.04209 C2703.26102,1178.82752 2698.71401,1177.61859 2691.82051,1175.4153 C2687.14908,1180.32362 2683.46817,1183.78613 2680.77778,1185.80283 C2678.08739,1187.81953 2670.50904,1192.79688 2658.04274,1200.7349 C2654.23257,1206.17181 2651.20123,1209.41791 2648.94872,1210.4732 C2646.6962,1211.52849 2642.79877,1211.52849 2637.25641,1210.4732 L2639.8547,1191.64581 L2637.25641,1189.69815 C2631.89528,1191.17565 2628.4309,1191.82487 2626.86325,1191.64581 C2625.2956,1191.46675 2621.18164,1189.9519 2614.52137,1187.10127 C2610.06238,1189.07937 2606.59799,1189.945 2604.12821,1189.69815 C2601.65842,1189.45131 2596.46184,1187.72005 2588.53846,1184.50439 C2587.12268,1181.51254 2585.60701,1179.34848 2583.99145,1178.01219 C2582.37589,1176.6759 2577.61236,1173.6462 2569.70085,1168.9231 L2572.29915,1165.02778 L2565.15385,1159.83402 L2556.05983,1155.9387 L2552.81197,1133.86521 L2522.93162,1135.81287 C2527.28135,1147.57355 2530.09616,1156.35671 2531.37607,1162.16237 C2532.65597,1167.96802 2532.65597,1171.95285 2531.37607,1174.11686 C2525.38376,1178.49715 2521.2698,1181.95966 2519.03419,1184.50439 C2516.79858,1187.04912 2513.11766,1192.45929 2507.99145,1200.7349 L2500.84615,1222.80839 L2479.41026,1237.74045 L2457,1274.74601 C2453.68387,1276.25686 2451.62688,1276.25686 2450.82906,1274.74601 C2450.03123,1273.23516 2450.03123,1269.33984 2450.82906,1263.06004 C2443.76269,1257.56842 2439.86526,1254.97154 2439.13675,1255.2694 C2438.61789,1255.48155 2428.75247,1258.53951 2428.09402,1263.06004 C2427.91665,1264.27772 2431.59756,1266.22538 2439.13675,1268.90302 C2438.47547,1273.29404 2437.60938,1275.89092 2436.53846,1276.69367 C2435.46755,1277.49642 2432.00316,1278.14564 2426.1453,1278.64133 C2422.23852,1279.73782 2419.20718,1280.17063 2417.05128,1279.93977 C2414.89539,1279.70891 2404.71875,1277.97765 2386.52137,1274.74601 L2386.52137,1261.11238 C2383.28568,1259.14924 2380.90392,1258.0672 2379.37607,1257.86628 C2377.84822,1257.66536 2372.00207,1257.66536 2361.83761,1257.86628 L2361.83761,1233.19591 L2345.59829,1233.19591 L2345.59829,1237.74045 L2346.89744,1241.63577 L2342.35043,1244.23265 L2327.41026,1247.47876 L2327.41026,1257.86628 L2298.17949,1257.86628 L2296.88034,1236.44201 L2281.94017,1233.19591 L2270.89744,1233.19591 L2262.45299,1222.80839 L2254.65812,1222.80839 L2250.11111,1189.69815 L2247.51282,1179.04209 Z" id="崇贤街道" stroke="#74E5F0" stroke-width="10" fill="#8BCEFF"></path>
    </g>
</svg>