<?xml version="1.0" encoding="UTF-8"?>
<svg width="755px" height="818px" viewBox="0 0 755 818" version="1.1" xmlns="http://www.w3.org/2000/svg" xmlns:xlink="http://www.w3.org/1999/xlink">
    <!-- Generator: Sketch 48 (47235) - http://www.bohemiancoding.com/sketch -->
    <title>径山镇</title>
    <desc>Created with Sketch.</desc>
    <defs></defs>
    <g id="余杭地图" stroke="none" stroke-width="1" fill="none" fill-rule="evenodd" transform="translate(-557.000000, -853.000000)" fill-opacity="0.3">
        <path d="M592.938704,1186.12116 L596.187391,1187.42165 L601.385289,1186.12116 L606.583187,1186.12116 L608.532399,1182.86995 L604.907993,1177.01777 L611.781086,1173.11632 L626.075306,1168.56462 L628.024518,1165.96365 L624.400112,1162.0622 L628.024518,1149.05735 C631.489784,1144.7224 633.655575,1142.55493 634.521891,1142.55493 C635.388208,1142.55493 637.770578,1144.28891 641.669002,1147.75687 C645.986612,1147.66646 648.585561,1146.36598 649.465849,1143.85541 C650.346138,1141.34484 650.004319,1137.44339 648.440392,1132.15105 L641.669002,1111.3433 C639.280968,1107.00025 637.331756,1103.74904 635.821366,1101.58966 C634.310976,1099.43028 631.712027,1096.17907 628.024518,1091.83603 C625.969668,1089.83902 624.761533,1088.32179 624.400112,1087.28433 C624.038692,1086.24687 624.59709,1084.29614 626.075306,1081.43215 L642.968476,1061.27464 L649.465849,1053.47173 L649.465849,1046.96931 L650.765324,1043.71809 C655.038582,1040.91244 657.85411,1038.52822 659.211909,1036.56543 C660.569708,1034.60264 661.652603,1031.35143 662.460595,1026.81179 L662.460595,1018.35864 L663.76007,1009.25525 L662.460595,1006.65428 L658.186452,1007.95477 L665.983299,994.299677 L673.13041,987.147011 L673.13041,974.792407 L678.704028,965.689015 L669.607706,965.689015 L669.607706,959.836834 L673.13041,954.634895 L678.704028,954.634895 L689.749562,939.679321 L683.252189,926.674475 L689.749562,921.472536 L678.704028,917.571082 C673.838391,916.190838 670.806284,914.673606 669.607706,913.019386 C668.409128,911.365166 667.200993,907.030217 665.983299,900.01454 L678.704028,885.709208 L713.789842,861 L725.485114,881.157512 L728.084063,890.911147 L736.530648,893.512116 C721.370111,906.516963 713.789842,913.019386 713.789842,913.019386 C713.789842,913.019386 714.656159,914.536618 716.388792,917.571082 L725.485114,917.571082 C727.217747,921.906031 729.816696,924.073506 733.281961,924.073506 C736.747227,924.073506 742.378284,923.206516 750.175131,921.472536 C761.25505,925.150085 769.051898,928.618044 773.565674,931.876414 C778.079451,935.134783 783.493928,941.203711 789.809107,950.083199 L786.56042,972.191438 L796.956217,974.792407 L802.803853,994.299677 L811.250438,994.299677 L817.098074,991.048465 L824.894921,991.048465 L828.143608,997.550889 L828.143608,1001.45234 L820.34676,997.550889 L817.098074,997.550889 L817.098074,1001.45234 L820.34676,1007.95477 L828.143608,1007.95477 L837.889667,1006.65428 L847.635727,1007.95477 L847.635727,1013.1567 L853.483363,1013.1567 L858.031524,1013.1567 L866.478109,1013.1567 L869.726795,1018.35864 L876.873905,1018.35864 L881.422067,1018.35864 L881.422067,1013.1567 L876.873905,1007.95477 L884.021016,1006.65428 L894.416813,1006.65428 L902.863398,1013.1567 L908.711033,1018.35864 L917.157618,1024.21082 L922.355517,1018.35864 L924.954466,1007.95477 L940.548161,968.940226 C942.906966,965.375685 944.856178,963.208211 946.395797,962.437803 C947.935416,961.667395 950.317786,961.667395 953.542907,962.437803 L974.334501,965.689015 L993.176883,968.940226 L1002.2732,978.043619 L1021.76532,979.994346 L1033.4606,987.147011 C1033.02899,997.774078 1031.29635,1003.62626 1028.2627,1004.70355 C1026.19726,1005.43702 1026.3809,1001.03127 1023.71454,997.550889 C1022.88126,996.463216 1020.71547,995.379479 1017.21716,994.299677 C1013.83975,994.777702 1011.67395,995.861439 1010.71979,997.550889 C1009.76563,999.240338 1009.11589,1003.14179 1008.77058,1009.25525 L1014.61821,1020.30937 L1010.71979,1026.81179 L1012.669,1032.01373 C1018.49696,1032.56737 1022.82854,1032.56737 1025.66375,1032.01373 C1028.49895,1031.46009 1033.69685,1028.85912 1041.25744,1024.21082 L1053.60245,1034.6147 L1053.60245,1046.96931 L1051.0035,1051.521 L1055.55166,1053.47173 L1063.34851,1041.11712 C1067.63406,1040.47928 1070.44959,1040.47928 1071.7951,1041.11712 C1073.14061,1041.75497 1074.44008,1043.70569 1075.69352,1046.96931 L1071.7951,1053.47173 L1080.89142,1053.47173 L1085.43958,1061.27464 C1088.86001,1067.13207 1091.89211,1071.03352 1094.5359,1072.979 C1097.17969,1074.92447 1101.51127,1076.4417 1107.53065,1077.53069 C1118.43241,1077.45992 1125.36294,1077.45992 1128.32224,1077.53069 C1134.86968,1077.68729 1137.90897,1077.89067 1140.66725,1079.48142 C1143.4955,1081.11253 1143.25026,1084.57934 1143.91594,1089.23506 C1144.19839,1091.2105 1144.84812,1094.67846 1145.86515,1099.63893 L1151.71278,1122.39742 L1156.26095,1128.89984 L1151.71278,1132.15105 L1156.26095,1138.00323 C1158.7994,1141.25485 1161.18177,1143.20557 1163.40806,1143.85541 C1165.63434,1144.50525 1168.66645,1143.20477 1172.50438,1139.95396 C1174.66718,1137.12531 1176.39982,1135.60807 1177.70228,1135.40226 C1179.00474,1135.19645 1180.95395,1136.06344 1183.54991,1138.00323 L1183.54991,1149.05735 L1156.26095,1177.01777 L1158.85989,1186.12116 L1166.00701,1191.97334 L1169.25569,1191.97334 L1169.25569,1195.22456 L1183.54991,1197.17528 L1185.49912,1210.83037 L1191.34676,1210.83037 L1193.29597,1204.97819 L1201.74256,1207.57916 L1208.88967,1204.97819 L1213.43783,1220.58401 L1219.28546,1224.48546 L1226.43257,1226.43619 L1223.18389,1231.63813 L1223.18389,1241.39176 L1230.98074,1254.39661 L1265.41681,1288.20921 L1288.15762,1296.66236 L1298.55342,1296.66236 L1305.05079,1303.16478 L1307,1321.37157 L1307,1413.70598 C1301.50961,1416.1732 1297.39461,1417.47369 1294.65499,1417.60743 C1291.91537,1417.74118 1287.15063,1416.87419 1280.36077,1415.00646 C1274.33793,1413.19281 1270.22293,1412.75931 1268.01576,1413.70598 C1265.80859,1414.65264 1263.85938,1417.68711 1262.16813,1422.80937 C1261.29846,1434.67092 1259.99899,1442.25708 1258.2697,1445.56785 C1256.54042,1448.87862 1252.85857,1450.82935 1247.22417,1451.42003 C1243.2094,1452.75084 1240.82703,1454.05132 1240.07706,1455.32149 C1239.32709,1456.59165 1238.89393,1460.05961 1238.77758,1465.72536 C1239.67107,1470.83919 1239.67107,1473.65691 1238.77758,1474.17851 C1237.88409,1474.70012 1233.33593,1474.70012 1225.1331,1474.17851 C1222.10099,1477.79097 1220.58494,1480.39194 1220.58494,1481.98142 C1220.58494,1483.5709 1222.10099,1485.73838 1225.1331,1488.48384 C1232.86565,1494.13346 1236.33092,1497.38467 1235.5289,1498.23748 C1234.72687,1499.09029 1227.79634,1499.52379 1214.7373,1499.53796 L1207.59019,1499.53796 L1199.14361,1488.48384 L1194.59545,1488.48384 L1191.9965,1499.53796 L1177.05254,1514.49354 C1174.80309,1515.75216 1173.28703,1516.18565 1172.50438,1515.79402 C1171.72172,1515.40239 1171.07199,1513.88516 1170.55517,1511.24233 C1171.729,1506.90738 1171.729,1504.7399 1170.55517,1504.7399 C1169.38134,1504.7399 1164.18344,1506.90738 1154.96147,1511.24233 C1149.7111,1510.14118 1146.46241,1510.14118 1145.21541,1511.24233 C1143.96841,1512.34348 1143.53525,1515.59469 1143.91594,1520.99596 C1140.62943,1525.49421 1138.68021,1528.74542 1138.0683,1530.7496 C1137.45639,1532.75377 1137.02323,1537.30547 1136.76883,1544.40468 C1138.15866,1549.3621 1138.59182,1552.17982 1138.0683,1552.85784 C1137.54479,1553.53585 1133.2132,1555.48658 1125.07356,1558.71002 C1121.06474,1559.41578 1118.24921,1560.28277 1116.62697,1561.31099 C1115.00473,1562.3392 1111.32289,1566.02391 1105.58144,1572.36511 C1098.67157,1575.21534 1094.33999,1577.38281 1092.58669,1578.86753 C1090.83339,1580.35224 1089.53391,1582.95321 1088.68827,1586.67044 C1088.61356,1599.60746 1087.53066,1606.76012 1085.43958,1608.12843 C1083.3485,1609.49674 1078.80033,1606.02878 1071.7951,1597.72456 L1063.34851,1589.92165 L1060.09982,1593.8231 L1067.24694,1600.32553 L1065.94746,1602.92649 L1058.80035,1602.92649 L1058.80035,1606.17771 L1067.24694,1606.17771 L1071.7951,1613.33037 L1058.80035,1614.63086 L1045.15587,1606.17771 C1038.90924,1606.05221 1034.36108,1605.61872 1031.51138,1604.87722 C1028.66169,1604.13573 1022.3809,1601.7515 1012.669,1597.72456 L995.126095,1586.67044 L970.436077,1613.33037 C966.860432,1613.9633 964.044904,1613.9633 961.989492,1613.33037 C959.934081,1612.69745 957.118552,1610.96347 953.542907,1608.12843 L946.395797,1612.02989 L940.548161,1606.17771 L917.157618,1606.17771 L902.863398,1608.12843 C896.570034,1615.00123 891.588715,1619.76967 887.91944,1622.43376 C884.250164,1625.09786 878.185949,1628.34907 869.726795,1632.1874 C860.879111,1637.71725 854.598317,1642.0522 850.884413,1645.19225 C847.17051,1648.33229 840.889716,1654.61797 832.042032,1664.04927 C827.854836,1665.34976 824.822728,1666 822.945709,1666 C821.06869,1666 817.170267,1665.34976 811.250438,1664.04927 C807.440412,1665.44009 804.624884,1665.44009 802.803853,1664.04927 C800.982822,1662.65846 795.568344,1656.37278 786.56042,1645.19225 L789.809107,1626.33522 L793.057793,1615.93134 L800.204904,1597.72456 L801.504378,1592.52262 L793.057793,1575.61632 L793.057793,1572.36511 L801.504378,1572.36511 L806.702277,1572.36511 C802.593761,1569.05382 799.994812,1566.01935 798.905429,1563.26171 C797.816046,1560.50407 796.733151,1554.2184 795.656743,1544.40468 L795.656743,1532.70032 L802.803853,1532.70032 L806.702277,1528.14863 L802.803853,1518.39499 L815.798599,1504.7399 L822.945709,1504.7399 C819.047285,1497.65949 817.098074,1492.2408 817.098074,1488.48384 C817.098074,1484.72689 819.047285,1480.39194 822.945709,1475.479 C816.563018,1471.95958 812.014857,1470.44235 809.301226,1470.9273 C806.587595,1471.41226 799.440485,1474.66347 787.859895,1480.68094 L759.271454,1480.68094 L759.271454,1485.88288 L744.327496,1485.88288 C742.141717,1483.77541 741.2754,1482.04143 741.728546,1480.68094 C742.181692,1479.32044 744.347483,1477.15297 748.225919,1474.17851 L762.52014,1469.62682 C763.150129,1467.97157 763.150129,1466.67108 762.52014,1465.72536 C761.927583,1464.83584 761.398678,1463.04127 757.322242,1459.22294 C757.210863,1459.11861 755.956243,1457.32084 759.271454,1456.62197 C760.467794,1456.36978 763.71648,1456.36978 769.017513,1456.62197 L769.017513,1474.17851 C771.235134,1475.24928 772.751188,1475.68278 773.565674,1475.479 C774.380161,1475.27522 775.463056,1474.19148 776.814361,1472.22779 C777.11089,1468.0443 777.544048,1464.79309 778.113835,1462.47415 C778.683622,1460.15522 781.499151,1450.18483 786.56042,1432.563 C789.178921,1432.37072 790.911553,1432.80421 791.758319,1433.86349 C792.605084,1434.92277 792.605084,1436.65675 791.758319,1439.06543 L781.362522,1462.47415 C782.667794,1464.44289 783.750689,1465.52663 784.611208,1465.72536 C785.471728,1465.9241 787.204361,1465.27386 789.809107,1463.77464 L795.656743,1465.72536 L808.001751,1460.52342 L814.499124,1429.96204 C810.041334,1426.17195 806.576068,1423.78772 804.103327,1422.80937 C801.630587,1421.83102 795.782951,1420.53053 786.56042,1418.90792 C782.371684,1420.4263 779.556155,1421.72679 778.113835,1422.80937 C776.671515,1423.89195 775.155462,1425.84268 773.565674,1428.66155 L750.175131,1429.96204 L736.530648,1422.80937 L737.830123,1416.30695 L744.327496,1417.60743 L746.926445,1415.00646 L746.926445,1406.55331 L751.474606,1398.7504 L751.474606,1374.69144 L757.322242,1366.88853 L754.723292,1360.38611 L751.474606,1344.13005 L744.327496,1342.82956 L733.281961,1329.17447 L713.789842,1327.22375 L704.043783,1308.36672 L698.196147,1303.16478 L684.551664,1303.16478 L678.704028,1304.46527 L674.805604,1289.50969 L671.556918,1278.45557 L671.556918,1274.55412 L680.003503,1273.25363 L688.450088,1269.35218 L694.297723,1263.5 L696.246935,1260.24879 C695.83944,1257.51188 695.189702,1255.99465 694.297723,1255.69709 C693.405744,1255.39953 691.456532,1256.04978 688.450088,1257.64782 C685.608663,1258.84778 683.87603,1259.28128 683.252189,1258.9483 C682.628349,1258.61533 681.112295,1256.44786 678.704028,1252.44588 C672.083887,1252.95399 667.843645,1252.30375 665.983299,1250.49515 C664.122954,1248.68656 660.56635,1241.75064 655.313485,1229.6874 L642.968476,1236.84006 C642.737713,1241.46343 642.304555,1244.4979 641.669002,1245.94346 C641.033449,1247.38902 638.651079,1249.55649 634.521891,1252.44588 C629.99883,1251.26851 627.183302,1249.96802 626.075306,1248.54443 C624.967311,1247.12083 624.408913,1244.73661 624.400112,1241.39176 C621.3831,1241.23746 619.12597,1241.23746 617.628722,1241.39176 C616.131473,1241.54606 614.182261,1241.97956 611.781086,1242.69225 C607.449504,1252.66263 604.417396,1257.64782 602.684764,1257.64782 C600.952131,1257.64782 598.78634,1252.66263 596.187391,1242.69225 C595.973058,1239.00979 595.323321,1236.62557 594.238179,1235.53958 C593.153036,1234.45359 590.987245,1234.0201 587.740806,1234.2391 L575.395797,1235.53958 C576.122778,1231.19857 576.122778,1228.16411 575.395797,1226.43619 C574.668816,1224.70827 571.20355,1219.50633 565,1210.83037 L592.938704,1197.17528 L592.938704,1186.12116 Z" id="径山镇" stroke="#74E5F0" stroke-width="10" fill="#8BCEFF"></path>
    </g>
</svg>