<?xml version="1.0" encoding="UTF-8"?>
<svg width="270px" height="317px" viewBox="0 0 270 317" version="1.1" xmlns="http://www.w3.org/2000/svg" xmlns:xlink="http://www.w3.org/1999/xlink">
    <!-- Generator: Sketch 48 (47235) - http://www.bohemiancoding.com/sketch -->
    <title>星桥街道</title>
    <desc>Created with Sketch.</desc>
    <defs></defs>
    <g id="余杭地图" stroke="none" stroke-width="1" fill="none" fill-rule="evenodd" transform="translate(-2689.000000, -1030.000000)" fill-opacity="0.3">
        <path d="M2713.8184,1126.10849 L2717.69013,1133.91 L2717.69013,1143.66189 L2723.53032,1147.56265 L2719.63686,1178.76871 L2732.61506,1187.5 L2735.2107,1191.77123 L2738.45525,1191.77123 L2746.24218,1191.77123 L2749.50846,1201.52312 L2713.8184,1256.13372 L2723.53032,1267.18587 L2732.61506,1261.98486 C2737.57631,1269.45549 2741.25347,1274.22308 2743.64654,1276.28763 C2746.0396,1278.35219 2750.14936,1280.30257 2755.97583,1282.13877 L2752.08237,1299.69218 C2762.46493,1299.69218 2769.81925,1299.69218 2774.14532,1299.69218 C2778.47139,1299.69218 2778.47139,1306.41015 2774.14532,1319.84609 C2777.72196,1323.58636 2779.88499,1326.62028 2780.63442,1328.94785 C2781.38385,1331.27543 2781.38385,1334.95948 2780.63442,1340 C2793.06174,1337.1627 2801.28127,1333.47865 2805.29301,1328.94785 C2809.30475,1324.41706 2812.98191,1314.66516 2816.32449,1299.69218 C2823.7024,1298.61257 2828.46108,1297.09561 2830.60051,1295.14129 C2832.73995,1293.18698 2835.33559,1287.98597 2838.38743,1279.53826 C2874.28947,1229.70091 2901.5437,1192.64372 2920.15013,1168.36669 C2938.75655,1144.08966 2948.70651,1132.6041 2950,1133.91 L2917.55449,1150.81328 C2909.33884,1148.2983 2904.58016,1145.9145 2903.27846,1143.66189 C2901.97676,1141.40928 2899.59742,1131.44068 2896.14045,1113.75609 L2852.01455,1132.60975 L2850.06782,1111.15558 L2845.54718,1100.10344 L2852.01455,1094.90243 L2865.01449,1100.10344 L2887.72635,1091.6518 C2890.73682,1087.10273 2891.81834,1083.97917 2890.9709,1082.28112 C2890.12346,1080.58308 2885.7974,1077.20537 2877.99269,1072.14801 C2872.75867,1066.54371 2868.43261,1062.20953 2865.01449,1059.14549 C2861.59637,1056.08144 2853.59315,1049.36347 2841.00481,1038.99158 C2829.59779,1035.92913 2820.51305,1034.62888 2813.75058,1035.09082 C2806.98811,1035.55276 2797.03815,1038.15327 2783.90071,1042.89233 L2763.11384,1056.27608 L2755.97583,1050.04372 L2749.50846,1061.09587 L2713.8184,1073.44826 L2706.03147,1082.28112 L2700.84019,1076.04877 C2698.82584,1077.19021 2697.52077,1078.49046 2696.925,1079.94953 C2696.32922,1081.40859 2695.68756,1084.87593 2695,1090.35155 C2706.8999,1102.85714 2714.46327,1112.17561 2717.69013,1118.30697 C2718.64514,1120.1216 2717.35456,1122.72211 2713.8184,1126.10849 Z" id="星桥街道" stroke="#74E5F0" stroke-width="10" fill="#8BCEFF"></path>
    </g>
</svg>