<?xml version="1.0" encoding="UTF-8"?>
<svg width="819px" height="680px" viewBox="0 0 819 680" version="1.1" xmlns="http://www.w3.org/2000/svg" xmlns:xlink="http://www.w3.org/1999/xlink">
    <!-- Generator: Sketch 48 (47235) - http://www.bohemiancoding.com/sketch -->
    <title>瓶窑镇</title>
    <desc>Created with Sketch.</desc>
    <defs></defs>
    <g id="余杭地图" stroke="none" stroke-width="1" fill="none" fill-rule="evenodd" transform="translate(-983.000000, -768.000000)" fill-opacity="0.3">
        <path d="M1001.80141,976.807697 L1021.30495,978.757989 L1033.00707,985.909061 C1032.57521,996.53376 1030.84156,1002.38464 1027.80613,1003.46169 C1025.73948,1004.195 1025.92323,999.790228 1023.2553,996.310621 C1022.42153,995.223191 1020.25447,994.139695 1016.75412,993.060133 C1013.37473,993.538052 1011.20767,994.621548 1010.25294,996.310621 C1009.29822,997.999694 1008.6481,1001.90028 1008.30259,1008.01238 L1014.15365,1019.06403 L1010.25294,1025.56501 L1012.2033,1030.76579 C1018.03467,1031.3193 1022.36879,1031.3193 1025.20565,1030.76579 C1028.04252,1030.21227 1033.24346,1027.61188 1040.80848,1022.96462 L1053.16072,1033.36618 L1053.16072,1045.71803 L1050.56025,1050.26871 L1055.11107,1052.219 L1062.91249,1039.86715 C1067.20054,1039.22945 1070.01772,1039.22945 1071.36402,1039.86715 C1072.71032,1040.50485 1074.01055,1042.45514 1075.26472,1045.71803 L1071.36402,1052.219 L1080.46567,1052.219 L1085.01649,1060.02017 C1088.43892,1065.8763 1091.4728,1069.77689 1094.11814,1071.72193 C1096.76348,1073.66697 1101.0976,1075.18386 1107.1205,1076.27261 C1118.02864,1076.20185 1124.96323,1076.20185 1127.92427,1076.27261 C1134.47553,1076.42917 1137.51661,1076.6325 1140.2765,1078.2229 C1143.10641,1079.85364 1142.86103,1083.31969 1143.52709,1087.97436 C1143.80971,1089.94936 1144.45983,1093.41655 1145.47745,1098.37592 L1151.32851,1121.12933 L1155.87933,1127.63031 L1151.32851,1130.8808 L1155.87933,1136.73167 C1158.41927,1139.98256 1160.80304,1141.93286 1163.03063,1142.58255 C1165.25822,1143.23224 1168.2921,1141.93205 1172.13228,1138.68197 C1174.29635,1135.85394 1176.03,1134.33705 1177.33322,1134.13128 C1178.63644,1133.92552 1180.58679,1134.79231 1183.18428,1136.73167 L1183.18428,1147.78333 L1155.87933,1175.73752 L1158.4798,1184.83889 L1165.6311,1190.68976 L1168.88169,1190.68976 L1168.88169,1193.94025 L1183.18428,1195.89054 L1185.13463,1209.54259 L1190.98569,1209.54259 L1192.93605,1203.69171 L1201.38758,1206.2921 L1208.53887,1203.69171 L1213.0897,1219.29405 L1218.94076,1223.19464 L1226.09205,1225.14493 L1222.84146,1230.34571 L1222.84146,1240.09717 L1230.64288,1253.09912 L1265.09912,1286.90419 L1287.85324,1295.35546 L1298.25513,1295.35546 L1304.75631,1301.85643 L1306.70666,1320.05916 L1308.65701,1410.49513 C1305.57835,1411.87748 1325.41758,1425.37854 1359.3662,1439.74951 C1363.65745,1441.56606 1369.2918,1442.64956 1376.26927,1443 C1383.35069,1442.35089 1388.55163,1441.26739 1391.87209,1439.74951 C1395.19256,1438.23163 1398.00973,1435.41454 1400.32362,1431.29825 L1366.5175,1407.89474 C1368.70626,1403.78302 1370.87332,1400.96593 1373.01868,1399.44347 C1375.16403,1397.92101 1379.71486,1395.97071 1386.67115,1393.59259 L1404.22433,1410.49513 L1412.67586,1407.89474 L1406.8248,1393.59259 C1414.91516,1387.95841 1420.54951,1385.14133 1423.72786,1385.14133 C1426.90622,1385.14133 1429.28998,1387.95841 1430.87916,1393.59259 L1447.78222,1387.09162 L1449.73258,1376.69006 L1456.88387,1376.69006 L1460.13446,1387.09162 L1464.68529,1393.59259 L1467.28576,1397.49318 L1473.78694,1397.49318 L1475.73729,1389.69201 L1482.88858,1389.69201 L1493.94059,1393.59259 L1510.19353,1395.54288 L1525.14624,1399.44347 L1532.29754,1405.29435 L1537.49848,1405.29435 L1560.2526,1410.49513 L1566.10366,1407.89474 L1571.95472,1410.49513 L1578.4559,1410.49513 L1589.5079,1407.89474 L1609.01144,1405.29435 L1616.81285,1399.44347 L1621.36368,1395.54288 L1623.96415,1389.69201 L1625.9145,1385.14133 L1623.96415,1366.9386 L1623.96415,1363.68811 L1640.21709,1360.43762 L1649.31874,1357.83723 L1659.07051,1343.53509 L1671.42275,1337.68421 L1676.62369,1335.73392 L1688.97593,1346.13548 L1702.6284,1335.73392 L1707.82934,1335.73392 L1714.33052,1340.2846 L1718.23123,1340.2846 L1722.13193,1333.78363 L1726.03264,1318.83138 L1729.28323,1314.9308 C1732.31711,1313.6306 1733.83405,1312.98051 1733.83405,1312.98051 C1733.83405,1312.98051 1734.70088,1312.98051 1736.43453,1312.98051 L1736.43453,1298.67836 L1740.33523,1292.17739 L1736.43453,1283.72612 C1724.29899,1280.25893 1717.79782,1277.44185 1716.93099,1275.27485 C1716.06417,1273.10786 1721.0484,1267.69038 1731.8837,1259.02242 C1735.52345,1258.71556 1738.34063,1258.71556 1740.33523,1259.02242 C1742.32984,1259.32927 1745.14702,1260.19607 1748.78676,1261.62281 L1770.24065,1264.2232 L1773.49124,1264.2232 L1763.73947,1246.67057 L1755.93806,1238.2193 L1755.93806,1234.31871 L1763.73947,1230.34571 L1773.49124,1225.14493 L1781.29265,1219.29405 L1781.29265,1203.69171 L1781.29265,1195.89054 C1787.44292,1190.12943 1791.34363,1185.60289 1792.99477,1182.31092 C1794.64592,1179.01895 1794.64592,1174.90166 1792.99477,1169.95906 C1796.09627,1165.46211 1797.3965,1162.21162 1796.89548,1160.2076 C1796.39446,1158.20359 1793.36058,1155.3865 1787.79383,1151.75634 L1776.74183,1142.58255 L1773.49124,1129.00292 L1760.48888,1127.63031 C1760.42763,1139.82311 1759.77751,1147.86512 1758.53853,1151.75634 C1757.29955,1155.64755 1754.91579,1158.46464 1751.38723,1160.2076 L1745.53617,1160.2076 C1745.19089,1148.89131 1744.10736,1143.01629 1742.28559,1142.58255 C1740.46381,1142.14881 1737.64663,1146.29023 1733.83405,1155.00682 L1718.23123,1169.95906 C1711.90377,1172.33995 1707.35295,1173.20675 1704.57875,1172.55945 C1701.80456,1171.91216 1699.8542,1169.52847 1698.72769,1165.40838 L1695.4771,1145.25536 L1687.67569,1136.73167 C1691.07926,1128.9908 1692.16279,1124.24756 1690.92628,1122.50195 C1689.68977,1120.75634 1684.92224,1120.2988 1676.62369,1121.12933 L1662.97121,1121.12933 C1660.81432,1120.7563 1659.51408,1120.13035 1659.07051,1119.25146 C1658.62693,1118.37258 1659.49376,1116.63899 1661.67098,1114.05068 C1669.56117,1106.59297 1673.24517,1101.36805 1672.72298,1098.37592 C1672.2008,1095.38379 1666.99985,1091.91661 1657.12015,1087.97436 L1623.96415,1084.1462 L1616.81285,1087.97436 L1613.56226,1093.24756 L1613.56226,1108.19981 L1609.01144,1114.05068 L1600.55991,1114.05068 L1592.75849,1108.19981 L1597.30932,1102.99903 L1604.46061,1095.19786 C1608.19952,1090.84619 1610.36658,1087.59571 1610.96179,1085.44639 C1611.557,1083.29708 1611.557,1078.72226 1610.96179,1071.72193 C1608.48542,1066.42505 1606.31836,1063.4154 1604.46061,1062.69298 C1602.60287,1061.97057 1599.56898,1063.27076 1595.35896,1066.59357 C1591.04233,1069.52315 1588.44186,1070.17325 1587.55755,1068.54386 C1586.67324,1066.91447 1586.67324,1061.47285 1587.55755,1052.219 C1580.94839,1047.05207 1577.91451,1043.82572 1578.4559,1042.53996 C1578.99729,1041.2542 1583.76482,1040.36326 1592.75849,1039.86715 L1583.00673,1017.18616 L1564.80343,1013.93567 C1564.58612,1008.59737 1563.7193,1005.10605 1562.20296,1003.46169 C1560.68662,1001.81734 1556.3525,1000.10789 1549.2006,998.333333 L1546.60013,982.730994 L1542.0493,967.706332 L1532.29754,967.706332 C1526.03364,975.427672 1521.69952,979.111557 1519.29518,978.757989 C1516.89084,978.404421 1513.85696,973.63704 1510.19353,964.455845 C1504.21272,963.541025 1500.09531,962.457529 1497.84129,961.205358 C1495.58728,959.953186 1492.33669,956.943538 1488.08953,952.176413 C1480.77842,954.11681 1476.01089,954.550209 1473.78694,953.476608 C1471.56298,952.403008 1470.47945,949.15252 1470.53635,943.725146 L1470.53635,925.522417 C1466.63564,922.633095 1464.68529,919.599307 1464.68529,916.421053 C1464.68529,913.242798 1466.63564,905.00823 1470.53635,891.717349 C1463.60773,891.196051 1459.0569,889.679157 1456.88387,887.166667 C1454.71084,884.654177 1452.32707,878.153202 1449.73258,867.663743 C1436.95505,883.714595 1428.28681,893.899456 1423.72786,898.218324 C1419.16892,902.537192 1415.48492,904.054086 1412.67586,902.769006 C1402.73162,899.910599 1395.79703,896.226713 1391.87209,891.717349 C1387.94715,887.207985 1384.69656,879.190116 1382.12033,867.663743 C1375.84006,867.6048 1372.80618,866.087906 1373.01868,863.11306 C1373.17928,860.864717 1379.29404,855.675296 1383.42056,848.160819 C1384.30949,846.54206 1384.5262,843.941671 1384.07068,840.359649 L1365.21726,830.608187 C1361.29824,835.808647 1358.26436,839.059135 1356.11561,840.359649 C1353.96687,841.660164 1348.76593,843.393757 1340.51279,845.560429 C1338.01669,842.537994 1337.14987,839.937604 1337.91232,837.759259 C1338.67476,835.580915 1343.00888,829.730038 1350.91467,820.206628 C1350.72605,815.932833 1349.85922,813.332443 1348.3142,812.405458 C1346.76918,811.478473 1344.16871,811.911872 1340.51279,813.705653 L1325.56008,811.105263 L1298.25513,830.608187 L1293.7043,837.759259 C1289.8036,841.659844 1286.1196,843.610136 1282.6523,843.610136 C1279.18501,843.610136 1274.41748,841.659844 1268.34971,837.759259 C1261.0943,830.801608 1255.45994,826.684324 1251.44665,825.407407 C1247.43336,824.13049 1243.53265,825.213986 1239.74453,828.657895 L1228.04241,835.158869 L1226.09205,843.610136 C1224.27698,847.550967 1222.76004,849.717959 1221.54123,850.111111 C1220.32242,850.504264 1215.12148,850.504264 1205.9384,850.111111 L1173.43251,823.457115 L1133.77533,825.407407 C1128.20869,825.908523 1124.52469,825.258425 1122.72332,823.457115 C1120.92196,821.655805 1119.83843,817.538521 1119.47274,811.105263 L1114.27179,800.053606 C1117.15822,797.316972 1118.89186,795.149981 1119.47274,793.552632 C1120.05361,791.955283 1120.05361,789.354893 1119.47274,785.751462 L1094.11814,783.151072 L1088.26708,781.850877 L1083.71626,776 L1061.61225,802.653996 L1071.36402,804.604288 C1069.85307,809.331728 1068.33612,812.365516 1066.81319,813.705653 C1065.29026,815.04579 1061.38956,816.779383 1055.11107,818.906433 C1052.46446,819.876614 1050.51411,820.526711 1049.26001,820.856725 C1048.00592,821.186739 1045.83886,821.620138 1042.75883,822.15692 L1025.20565,817.606238 C1023.03859,817.750704 1021.95507,818.184102 1021.95507,818.906433 C1021.95507,819.628763 1023.03859,822.445852 1025.20565,827.3577 L1037.55789,832.55848 C1035.89138,835.771742 1034.59115,837.938733 1033.65719,839.059454 C1032.72322,840.180175 1027.52228,845.814353 1018.05436,855.961988 L1021.30495,860.512671 L1021.30495,870.264133 C1023.24021,875.720061 1024.10703,879.187248 1023.90542,880.665692 C1023.70381,882.144136 1022.18686,883.444331 1019.35459,884.566277 C1015.68078,884.991944 1013.94713,885.858741 1014.15365,887.166667 C1014.36017,888.474592 1016.52723,891.72508 1020.65483,896.918129 C1025.49534,895.767608 1028.52922,895.767608 1029.75648,896.918129 C1030.98374,898.06865 1031.41715,901.319137 1031.05671,906.669591 C1034.15854,911.820947 1035.67549,915.721532 1035.60754,918.371345 C1035.56303,920.107263 1037.26779,929.20302 1035.60754,939.824561 C1035.02483,943.552454 1033.07448,949.620031 1029.75648,958.02729 L1008.30259,948.275828 C1014.7447,954.352581 1017.56188,958.253165 1016.75412,959.977583 C1016.50188,960.51608 1015.03016,963.095848 1009.60283,965.178363 C1007.20019,966.100275 1001.99925,967.40047 994,969.078947 L1001.80141,976.807697 Z" id="瓶窑镇" stroke="#74E5F0" stroke-width="10" fill="#8BCEFF"></path>
    </g>
</svg>