<?xml version="1.0" encoding="UTF-8"?>
<svg width="461px" height="497px" viewBox="0 0 461 497" version="1.1" xmlns="http://www.w3.org/2000/svg" xmlns:xlink="http://www.w3.org/1999/xlink">
    <!-- Generator: Sketch 48 (47235) - http://www.bohemiancoding.com/sketch -->
    <title>百丈镇</title>
    <desc>Created with Sketch.</desc>
    <defs></defs>
    <g id="余杭地图" stroke="none" stroke-width="1" fill="none" fill-rule="evenodd" transform="translate(-303.000000, -288.000000)" fill-opacity="0.3">
        <path d="M365.231548,730.838916 L375.628075,723.693177 L380.826339,715.897825 L375.628075,700.307122 L388.623734,679.519518 L365.231548,647.688499 L372.379161,639.893147 L376.927641,632.097795 L380.826339,626.900894 L380.826339,617.806317 L380.826339,611.310191 L388.623734,602.865227 L386.024602,593.121037 L380.826339,585.975298 L386.024602,576.880721 L386.024602,566.486919 L386.024602,561.290018 L376.927641,552.845054 L376.927641,545.049702 L380.826339,534.006288 L380.826339,526.860549 L386.024602,522.31326 L372.379161,512.569071 L376.927641,500.226431 L372.379161,486.584565 C376.277858,481.820739 372.595755,478.572676 361.332851,476.840376 C361.332851,465.580423 358.300531,459.950447 352.23589,459.950447 L352.23589,449.556645 L336.6411,428.769041 L336.6411,419.024851 L336.6411,409.930274 L328.843705,405.382986 L326.244573,402.134923 L328.843705,388.493057 L326.244573,380.048093 L328.843705,373.551967 L323.645441,367.05584 L320.396527,354.7132 L312.599132,348.217074 L310,330.02792 C311.299566,328.151261 311.949349,326.635499 311.949349,325.480632 C311.949349,324.325765 311.299566,322.376927 310,319.634118 L317.797395,315.08683 L320.396527,309.889929 L326.244573,309.889929 L336.6411,309.889929 L342.489146,306.641865 L346.387844,309.889929 C350.864126,313.354529 353.896446,315.08683 355.484805,315.08683 C357.073163,315.08683 360.322078,313.354529 365.231548,309.889929 L367.83068,315.08683 L376.927641,315.08683 L386.024602,317.68528 L393.172214,312.488379 L401.619392,309.889929 L401.619392,299.496126 L408.117221,300.795352 L417.214182,299.496126 L426.311143,298.196901 L430.209841,296.248063 L436.057887,293 L438.007236,293 L447.75398,302.094577 L453.602026,312.488379 L452.30246,316.386055 L446.454414,319.634118 L441.905933,321.582956 L439.956585,325.480632 L445.154848,328.728695 L449.053546,333.275983 L447.75398,336.524047 L449.053546,341.071335 L452.30246,344.319398 L452.30246,348.217074 L459.450072,348.217074 L467.247467,346.268236 L475.044863,344.319398 L478.94356,346.268236 L483.492041,350.165912 L486.091172,351.465137 L491.289436,348.217074 L495.837916,346.268236 L500.386397,348.217074 L502.335745,351.465137 L504.934877,354.7132 L508.183792,357.961263 L512.732272,361.209327 L515.981187,362.508552 L519.230101,362.508552 L522.479016,365.756615 L522.479016,369.654291 L524.428365,372.252741 L530.276411,370.953516 L530.276411,368.355066 L530.276411,362.508552 L531.575977,357.961263 L538.723589,353.413975 L542.622287,351.465137 L547.170767,353.413975 L550.419682,353.413975 L554.968162,353.413975 L560.166425,351.465137 L562.765557,350.165912 L571.212735,351.465137 L575.761216,353.413975 L580.959479,353.413975 L586.157742,351.465137 C587.457308,349.299762 588.323685,348.217074 588.756874,348.217074 C589.190063,348.217074 591.356006,348.866687 595.254703,350.165912 C600.452967,341.50441 603.701881,336.957122 605.001447,336.524047 C606.301013,336.090971 609.549928,336.524047 614.748191,337.823272 C619.946454,338.689422 623.195369,339.122497 624.494935,339.122497 C626.444284,339.122497 634.891462,335.874434 635.541245,334.575209 C635.974433,333.709058 638.140376,331.327145 642.039074,327.42947 L644.638205,324.181406 L646.587554,324.181406 L650.486252,328.728695 L654.384949,334.575209 L655.684515,341.071335 L660.232996,344.319398 L662.832127,344.319398 L662.832127,354.7132 L662.832127,362.508552 L662.832127,380.048093 L660.232996,388.493057 L655.684515,398.237247 L644.638205,405.382986 L644.638205,409.930274 L646.587554,419.024851 L646.587554,424.871365 L642.039074,428.769041 L644.638205,444.359744 L650.486252,449.556645 L654.384949,452.804708 L654.384949,459.950447 L662.832127,459.950447 C661.099373,464.281198 660.232996,467.312724 660.232996,469.045024 C660.232996,470.777324 661.099373,472.509625 662.832127,474.241925 L662.832127,484.635727 C660.707732,486.264464 659.191572,487.780227 658.283647,489.183016 C657.375722,490.585805 656.509345,492.75118 655.684515,495.679142 L650.486252,495.679142 C650.397756,499.084024 649.747973,501.249399 648.536903,502.175268 C647.325833,503.101138 644.293513,503.75075 639.439942,504.124106 L635.541245,509.321007 L624.494935,514.842715 L617.997106,519.71481 L620.596237,534.006288 L629.693198,535.955125 L639.439942,535.955125 L646.587554,538.553576 L650.486252,541.801639 L655.684515,541.801639 L662.832127,545.049702 L666.081042,548.947378 L675.827786,550.896216 L679.726483,552.845054 L688.823444,555.443504 L705.7178,558.041955 L714.164978,558.041955 L721.31259,561.290018 L727.160637,566.486919 L730.409551,572.983046 L733.008683,576.880721 L733.008683,581.42801 L736.907381,585.975298 L746.004342,591.172199 L756.400868,583.376848 C756.400868,594.203725 756.400868,601.782539 756.400868,606.11329 C756.400868,610.444041 757.267246,612.176341 759,611.310191 L759,617.806317 L756.400868,624.302444 L749.253256,626.900894 L746.004342,632.097795 L743.40521,642.491598 L743.40521,647.688499 L733.008683,660.680751 L727.160637,666.527265 C724.128316,674.322617 723.478534,679.736055 725.211288,682.767581 C726.254062,684.591956 727.797922,692.008855 730.409551,694.460608 C731.561591,695.542123 733.727534,695.542123 736.907381,694.460608 L740.806078,702.25596 L740.806078,713.948987 L740.806078,727.590853 L740.806078,736.68543 L740.806078,741.232718 L746.004342,747.728844 L740.806078,750.976908 L733.008683,774.362962 C729.938304,777.240714 727.339172,778.973015 725.211288,779.559864 C723.083404,780.146712 719.401301,780.146712 714.164978,779.559864 L708.966715,779.559864 L699.219971,772.414125 L692.722142,769.815674 L673.228654,769.815674 L666.081042,763.319548 L658.283647,765.268386 L655.684515,758.772259 L654.384949,754.874583 L648.536903,741.232718 L644.638205,736.68543 L639.439942,736.68543 C635.170003,737.760681 631.921088,737.760681 629.693198,736.68543 C627.465308,735.610178 625.732554,731.92904 624.494935,725.642015 L624.494935,715.897825 C623.142749,714.889478 621.843183,714.239865 620.596237,713.948987 C619.349291,713.65811 614.151028,713.008497 605.001447,712.000149 L573.162084,713.948987 L554.968162,717.846663 L547.170767,719.795501 C544.422063,720.526009 542.256119,720.526009 540.672938,719.795501 C539.089756,719.064993 537.03211,717.116155 534.5,713.948987 C530.183191,710.909933 526.825979,708.961095 524.428365,708.102474 C522.030751,707.243852 518.132053,706.594239 512.732272,706.153636 C508.992432,706.61407 506.393301,706.61407 504.934877,706.153636 C503.476453,705.693202 501.960293,704.393976 500.386397,702.25596 C496.740554,698.964279 493.708233,696.365828 491.289436,694.460608 C488.870638,692.555388 484.755346,689.523863 478.94356,685.366031 C473.963922,683.946733 470.065224,683.080583 467.247467,682.767581 C464.429711,682.454579 460.531013,682.454579 455.551375,682.767581 L447.75398,685.366031 L439.956585,679.519518 L434.108538,679.519518 L428.260492,685.366031 L426.311143,702.25596 L424.361795,708.102474 L424.361795,719.795501 L419.813314,723.693177 L404.218524,715.897825 L396.421129,717.846663 L396.421129,723.693177 L396.421129,730.838916 L393.172214,736.68543 L390.573082,743.181556 L386.024602,743.181556 L380.826339,741.232718 L372.379161,741.232718 C367.017591,739.223573 363.985271,737.707811 363.2822,736.68543 C362.579129,735.663049 363.228912,733.714211 365.231548,730.838916 Z" id="百丈镇" stroke="#74E5F0" stroke-width="10" fill="#8BCEFF"></path>
    </g>
</svg>