<?xml version="1.0" encoding="UTF-8"?>
<svg width="758px" height="704px" viewBox="0 0 758 704" version="1.1" xmlns="http://www.w3.org/2000/svg" xmlns:xlink="http://www.w3.org/1999/xlink">
    <!-- Generator: Sketch 48 (47235) - http://www.bohemiancoding.com/sketch -->
    <title>良渚街道</title>
    <desc>Created with Sketch.</desc>
    <defs></defs>
    <g id="余杭地图" stroke="none" stroke-width="1" fill="none" fill-rule="evenodd" transform="translate(-1535.000000, -889.000000)" fill-opacity="0.3">
        <path d="M1560.18657,1411.17448 L1566.03226,1408.57411 L1571.87794,1411.17448 L1578.37315,1411.17448 L1589.415,1408.57411 L1608.90061,1405.97373 L1616.69486,1400.12289 L1621.2415,1396.22233 L1623.83958,1390.37148 L1625.78814,1385.82083 L1623.83958,1367.6182 L1623.83958,1364.36773 L1640.07759,1361.11726 L1649.17088,1358.51689 L1658.91369,1344.21482 L1671.25458,1338.36398 L1676.45074,1336.4137 L1688.79163,1346.8152 L1702.43156,1336.4137 L1707.62772,1336.4137 L1714.12293,1340.96435 L1718.02005,1340.96435 L1721.91718,1334.46341 L1725.8143,1319.51126 L1729.0619,1315.61069 C1732.093,1314.31051 1733.60854,1313.66041 1733.60854,1313.66041 C1733.60854,1313.66041 1734.47457,1313.66041 1736.20663,1313.66041 L1736.20663,1299.35835 L1740.10375,1292.85741 L1736.20663,1284.40619 C1724.08224,1280.93902 1717.58704,1278.12195 1716.72101,1275.95497 C1715.85498,1273.78799 1720.83464,1268.37054 1731.65998,1259.70263 C1735.29639,1259.39578 1738.11097,1259.39578 1740.10375,1259.70263 C1742.09652,1260.00948 1744.91111,1260.87627 1748.54752,1262.303 L1769.98169,1264.90338 L1773.22929,1264.90338 L1763.48649,1247.35084 L1755.69224,1238.89962 L1755.69224,1234.99906 L1763.48649,1231.02608 L1773.22929,1225.82533 L1781.02354,1219.97448 L1781.02354,1204.37223 L1781.02354,1196.57111 C1787.16816,1190.81003 1791.06528,1186.28351 1792.71491,1182.99156 C1794.36454,1179.69961 1794.36454,1175.58235 1792.71491,1170.63977 C1795.81355,1166.14284 1797.11259,1162.89237 1796.61203,1160.88837 C1796.11147,1158.88436 1793.08038,1156.06729 1787.51874,1152.43715 L1776.4769,1143.26342 L1773.22929,1129.68386 L1760.23888,1128.31126 C1760.17768,1140.50399 1759.52816,1148.54596 1758.29032,1152.43715 C1757.05248,1156.32834 1754.67091,1159.14541 1751.1456,1160.88837 L1745.29991,1160.88837 C1744.95495,1149.57214 1743.87241,1143.69716 1742.05231,1143.26342 C1740.23221,1142.82967 1737.41762,1146.97108 1733.60854,1155.68762 L1718.02005,1170.63977 C1711.69841,1173.02065 1707.15177,1173.88744 1704.38012,1173.24015 C1701.60848,1172.59286 1699.65991,1170.20918 1698.53444,1166.08912 L1695.28684,1145.93621 L1687.49259,1137.41257 C1690.89304,1129.67174 1691.97557,1124.92853 1690.74019,1123.18293 C1689.50481,1121.43732 1684.74166,1120.97979 1676.45074,1121.81032 L1662.81081,1121.81032 C1660.65589,1121.43729 1659.35685,1120.81134 1658.91369,1119.93246 C1658.47052,1119.05358 1659.33655,1117.32 1661.51177,1114.73171 C1669.39471,1107.27404 1673.07532,1102.04915 1672.55362,1099.05704 C1672.03191,1096.06492 1666.83575,1092.59776 1656.96513,1088.65554 L1623.83958,1084.82739 L1616.69486,1088.65554 L1613.44725,1093.92871 L1613.44725,1108.88086 L1608.90061,1114.73171 L1600.45684,1114.73171 L1592.6626,1108.88086 L1597.20924,1103.68011 L1604.35397,1095.87899 C1608.08944,1091.52735 1610.25451,1088.27688 1610.84917,1086.12758 C1611.44383,1083.97828 1611.44383,1079.40348 1610.84917,1072.40319 C1608.37507,1067.10634 1606.21001,1064.09671 1604.35397,1063.3743 C1602.49793,1062.65189 1599.46683,1063.95207 1595.26068,1067.27486 C1590.94801,1070.20443 1588.34993,1070.85452 1587.46643,1069.22514 C1586.58294,1067.59576 1586.58294,1062.15417 1587.46643,1052.90038 C1580.86335,1047.73347 1577.83226,1044.50714 1578.37315,1043.22139 C1578.91404,1041.93564 1583.67719,1041.0447 1592.6626,1040.54859 L1582.91979,1017.86773 L1564.73322,1014.61726 C1564.51611,1009.27899 1563.65008,1005.78768 1562.13514,1004.14334 C1560.62019,1002.499 1556.29005,1000.78955 1549.14473,999.015009 L1546.54664,983.412758 L1542,968.388181 L1554.34089,963.25985 L1556.93897,946.357411 C1560.29551,939.074258 1563.32661,933.873508 1566.03226,930.755159 C1568.73791,927.636811 1572.85154,924.60304 1578.37315,921.653846 C1584.44606,920.299844 1588.7762,918.782958 1591.36356,917.103189 C1593.95092,915.423421 1597.63153,911.739556 1602.40541,906.051595 L1602.40541,895 L1638.77855,896.950281 L1647.87184,902.151032 L1666.05841,902.151032 L1669.30602,904.101313 L1672.55362,904.101313 L1679.04882,898.900563 L1687.49259,898.900563 L1695.28684,904.101313 L1716.72101,928.804878 L1719.96861,937.906191 L1721.91718,941.806754 L1729.0619,941.806754 L1737.50567,946.357411 L1751.1456,946.357411 L1779.7245,950.257974 L1819.99477,951.558161 L1839.48038,951.558161 C1848.49725,952.399422 1853.2604,954.349704 1853.76983,957.409006 C1854.1065,959.430789 1856.71488,971.31598 1853.76983,976.91182 C1852.7623,978.826232 1849.51469,979.476326 1844.02703,978.862101 L1836.8823,986.663227 L1836.8823,999.015009 L1844.02703,1000.96529 L1869.35833,992.514071 C1896.63819,989.913696 1911.14414,988.613508 1912.8762,988.613508 C1913.94649,988.613508 1917.50945,985.233119 1926.51613,983.412758 C1930.2287,982.662401 1937.80644,982.012307 1949.24935,981.462477 L1966.13688,976.91182 L1962.23976,963.25985 L1954.44551,951.558161 L1966.13688,941.806754 L1979.12729,928.804878 L1973.93112,951.558161 L1973.93112,973.661351 L1979.12729,992.514071 L1973.93112,999.015009 L1973.93112,1011.36679 L1984.32345,1014.61726 L1984.32345,1017.86773 L1973.93112,1021.76829 L1984.32345,1063.3743 L1988.8701,1114.73171 C1987.97082,1123.14525 1987.97082,1128.77939 1988.8701,1131.63415 C1989.76937,1134.4889 1992.15095,1136.41504 1996.01482,1137.41257 L1996.01482,1140.73546 L2010.30427,1137.41257 L2013.55187,1145.93621 C2000.54985,1148.61557 1992.97211,1150.99925 1990.81866,1153.08724 C1988.66521,1155.17524 1989.31473,1159.5092 1992.76722,1166.08912 L2013.55187,1156.9878 L2018.74804,1166.08912 C2011.38681,1171.1454 2007.70619,1175.04597 2007.70619,1177.79081 C2007.70619,1180.53565 2011.38681,1187.46998 2018.74804,1198.59381 L2016.14996,1213.54597 L2021.99564,1213.54597 L2021.99564,1229.79831 L2018.74804,1238.89962 L2034.98605,1238.89962 L2026.54228,1196.57111 C2029.87029,1192.79938 2032.68487,1190.87324 2034.98605,1190.79268 C2036.82358,1190.72836 2046.19709,1188.81986 2056.42023,1190.79268 C2058.1399,1191.12454 2059.87195,1192.64143 2061.61639,1195.34334 L2096.6905,1196.57111 L2103.83522,1181.69137 L2124.61988,1181.69137 L2133.71316,1189.4925 L2142.80645,1192.09287 L2146.05405,1204.37223 L2152.54926,1204.37223 L2154.49782,1189.4925 L2177.23104,1186.24203 L2179.82912,1173.24015 L2203.21186,1166.08912 L2208.40802,1177.79081 L2228.54316,1179.74109 L2247.37925,1179.74109 L2254.52398,1219.97448 L2251.27637,1259.70263 L2254.52398,1299.35835 L2260.36966,1338.36398 L2274.65911,1367.6182 L2287,1439.12852 L2270.76199,1442.37899 C2260.48655,1437.47235 2252.6923,1435.30537 2247.37925,1435.87805 C2242.0662,1436.45073 2236.65353,1440.78469 2231.14124,1448.87992 L2228.54316,1463.83208 L2223.99651,1461.8818 L2223.99651,1448.87992 L2217.50131,1448.87992 L2215.55275,1454.73077 L2186.32432,1456.68105 L2182.4272,1448.87992 L2177.23104,1448.87992 L2172.68439,1444.32927 L2162.94159,1444.32927 L2159.69398,1439.12852 L2156.44638,1425.47655 L2152.54926,1425.47655 L2142.80645,1431.32739 L2142.80645,1439.12852 L2138.90933,1439.12852 L2136.96077,1435.87805 L2111.62947,1439.12852 L2119.42371,1452.13039 L2105.78378,1458.63133 L2105.78378,1463.83208 L2086.94769,1476.18386 L2077.8544,1469.68293 L2059.01831,1482.6848 L2040.18221,1461.8818 L2050.57454,1456.68105 L2045.37838,1446.92964 L2036.28509,1448.87992 L2031.08893,1450.18011 L2033.03749,1432.62758 L2026.54228,1430.0272 L2026.54228,1422.87617 L2018.74804,1418.32552 L2010.30427,1417.02533 L2018.74804,1398.17261 L2006.40715,1396.22233 L2003.80907,1383.87054 L1999.26242,1385.82083 L1999.26242,1390.37148 L1984.32345,1390.37148 L1981.72537,1383.87054 L1973.93112,1383.87054 L1971.98256,1375.41932 L1960.29119,1379.31989 L1949.24935,1372.81895 L1946.00174,1383.87054 L1933.66085,1383.87054 L1919.3714,1383.87054 C1915.15877,1387.27639 1911.91116,1389.44337 1909.6286,1390.37148 C1907.34603,1391.29959 1903.66541,1391.94969 1898.58675,1392.32176 L1900.53531,1398.17261 L1882.99826,1400.12289 L1877.80209,1390.37148 C1873.75744,1391.23053 1870.94286,1391.23053 1869.35833,1390.37148 C1867.7738,1389.51244 1865.39222,1386.69536 1862.2136,1381.92026 C1856.69739,1384.17424 1852.58376,1385.47443 1849.87271,1385.82083 C1847.16166,1386.16722 1841.09947,1386.16722 1831.68614,1385.82083 L1821.94333,1383.87054 L1788.81779,1398.17261 L1782.32258,1400.12289 L1788.81779,1407.27392 L1792.71491,1413.77486 L1790.76635,1432.62758 L1796.61203,1454.73077 C1796.96527,1458.67702 1796.96527,1461.71079 1796.61203,1463.83208 C1796.25879,1465.95338 1794.95975,1470.72073 1792.71491,1478.13415 L1755.69224,1478.13415 C1754.65284,1483.16056 1754.21983,1486.19433 1754.3932,1487.23546 C1754.56657,1488.27659 1755.86561,1490.44357 1758.29032,1493.7364 L1731.65998,1498.28705 L1733.60854,1522.34053 L1742.05231,1529.49156 L1740.10375,1537.94278 L1733.60854,1545.09381 L1737.50567,1553.54503 L1725.8143,1553.54503 L1721.91718,1572.39775 L1707.62772,1572.39775 L1698.53444,1567.84709 C1697.6178,1561.86173 1696.53527,1557.74447 1695.28684,1555.49531 C1694.0384,1553.24615 1691.87333,1551.51256 1688.79163,1550.29456 L1679.04882,1553.54503 L1672.55362,1572.39775 L1676.45074,1575.64822 L1681.6469,1580.19887 L1676.45074,1588 L1661.51177,1588 L1652.41848,1582.79925 C1655.44958,1578.46529 1656.96513,1574.99812 1656.96513,1572.39775 C1656.96513,1569.79737 1654.36704,1565.24672 1649.17088,1558.74578 C1650.09761,1556.38758 1651.18014,1554.654 1652.41848,1553.54503 C1653.65682,1552.43606 1656.68792,1550.48578 1661.51177,1547.69418 L1662.81081,1537.94278 L1656.96513,1533.39212 L1634.88143,1490.48593 C1622.68626,1493.44666 1614.67551,1496.04703 1610.84917,1498.28705 C1607.02284,1500.52707 1603.55873,1504.64433 1600.45684,1510.63884 L1600.45684,1519.09006 C1596.57639,1519.49084 1593.97831,1519.49084 1592.6626,1519.09006 C1591.34689,1518.68927 1588.96531,1517.17238 1585.51787,1514.5394 L1585.51787,1506.73827 C1580.75472,1508.05893 1578.37315,1508.05893 1578.37315,1506.73827 C1578.37315,1505.41762 1577.72363,1503.90073 1576.42459,1502.18762 L1585.51787,1493.7364 L1582.91979,1487.23546 L1566.03226,1485.28518 L1566.03226,1472.9334 L1571.87794,1467.08255 L1573.8265,1431.32739 L1560.18657,1411.17448 Z" id="良渚街道" stroke="#74E5F0" stroke-width="10" fill="#8BCEFF"></path>
    </g>
</svg>