<?xml version="1.0" encoding="UTF-8"?>
<svg width="440px" height="411px" viewBox="0 0 440 411" version="1.1" xmlns="http://www.w3.org/2000/svg" xmlns:xlink="http://www.w3.org/1999/xlink">
    <!-- Generator: Sketch 48 (47235) - http://www.bohemiancoding.com/sketch -->
    <title>运河街道</title>
    <desc>Created with Sketch.</desc>
    <defs></defs>
    <g id="余杭地图" stroke="none" stroke-width="1" fill="none" fill-rule="evenodd" transform="translate(-2733.000000, -502.000000)" fill-opacity="0.3">
        <path d="M2852.82083,750.816206 L2888.59926,746.269567 L2891.84987,760.559003 L2919.80507,760.559003 L2924.35592,772.899879 L2919.80507,791.735954 L2928.25665,800.179711 L2933.45762,815.118667 L2933.45762,848.893697 L2967.91404,908 L2988.71791,908 L2988.71791,880.070648 L3006.9213,870.977371 L3018.62348,852.790816 L3034.22639,848.893697 L3038.77723,826.160504 L3056.3305,835.253781 C3061.44779,827.801427 3065.13181,823.254788 3067.38256,821.613865 C3069.63332,819.972942 3073.96746,818.673903 3080.38498,817.716746 L3092.08716,848.893697 L3103.78934,848.893697 L3108.99031,870.977371 L3127.84382,866.430732 L3127.84382,841.748979 L3140.84625,835.253781 C3143.43446,827.18322 3146.03494,821.337542 3148.6477,817.716746 C3151.26046,814.095951 3155.37789,810.631845 3161,807.324429 L3140.84625,800.179711 L3148.6477,787.838835 L3140.84625,787.838835 L3148.6477,772.899879 L3140.84625,769.65228 C3142.12576,760.374178 3142.12576,754.095487 3140.84625,750.816206 C3139.56674,747.536925 3136.52558,746.021378 3131.72278,746.269567 L3131.72278,718.989735 C3134.88299,716.982999 3136.61665,715.250946 3136.92375,713.793576 C3137.23084,712.336206 3137.23084,705.841008 3136.92375,694.307982 C3136.92375,685.359042 3136.92375,678.863844 3136.92375,674.822388 C3136.92375,670.780931 3135.19009,662.120667 3131.72278,648.841595 L3131.72278,637.150239 L3127.84382,633.90264 L3127.84382,609.870406 C3125.78259,609.856964 3124.47509,609.207444 3123.92132,607.921847 C3120.50279,599.985583 3119.00269,590.401963 3116.76999,587.786733 C3113.99478,584.536041 3111.40155,584.536041 3108.99031,587.786733 L3103.78934,578.693456 C3108.40377,578.158077 3111.2137,576.859037 3112.21914,574.796337 C3113.22458,572.733636 3113.22458,565.372411 3112.21914,552.712663 L3108.99031,535.175628 L3103.78934,535.175628 C3102.79905,519.969615 3099.9746,511.309351 3095.316,509.194836 C3091.53092,507.476809 3080.18106,505.262589 3067.38256,509.194836 C3065.41346,509.799828 3063.23913,511.964895 3060.85958,515.690034 C3055.90693,513.809585 3052.0062,512.727052 3049.1574,512.442435 C3046.30859,512.157818 3038.94055,513.240351 3027.05328,515.690034 L3012.1005,518.937633 C3015.69938,524.05002 3016.78292,527.297619 3015.3511,528.68043 C3014.60737,529.398707 3006.02012,530.179791 2998.44795,535.175628 C2993.77755,538.256984 2985.54269,546.051221 2973.74335,558.558341 C2969.23331,554.234284 2966.19941,552.285724 2964.64166,552.712663 C2959.80014,554.039597 2957.57156,561.827018 2956.19008,563.10498 C2954.14187,564.999715 2954.14187,568.896834 2956.19008,574.796337 C2953.44513,580.858522 2950.84464,583.889614 2948.38863,583.889614 C2945.93262,583.889614 2939.86482,581.291535 2930.18524,576.095376 L2926.28451,583.889614 L2921.73366,583.889614 L2919.80507,591.034332 L2912.63197,591.034332 L2910.68161,591.034332 L2909.38136,597.52953 L2890.52785,585.188654 L2852.82083,587.786733 L2846.31962,594.931451 L2819.01453,597.52953 L2811.21308,587.786733 C2804.31767,589.398649 2799.1167,590.481182 2795.61017,591.034332 C2792.10365,591.587482 2784.95231,592.453508 2774.15618,593.632411 C2766.35472,595.364464 2760.28693,596.23049 2755.95279,596.23049 C2751.61864,596.23049 2746.63438,595.797477 2741,594.931451 C2743.37467,601.43404 2744.4582,606.413692 2744.25061,609.870406 C2744.04301,613.327121 2742.95948,619.172799 2741,627.407441 L2799.5109,638.449278 L2803.41162,644.294956 L2813.81356,650.790155 L2811.8632,666.37863 L2819.66465,666.37863 L2819.66465,676.121427 L2817.71429,688.462304 L2804.06175,694.957502 L2807.31235,704.700299 L2801.46126,717.041175 L2819.01453,706.648858 C2825.63503,705.479779 2829.96917,705.479779 2832.01695,706.648858 C2834.06474,707.817938 2834.28144,710.416017 2832.66707,714.443096 L2832.66707,731.980131 C2845.29729,729.565492 2852.0152,729.565492 2852.82083,731.980131 C2856.07143,741.722928 2853.12855,754.707066 2852.82083,750.816206 Z" id="运河街道" stroke="#74E5F0" stroke-width="10" fill="#8BCEFF"></path>
    </g>
</svg>