<?xml version="1.0" encoding="UTF-8"?>
<svg width="482px" height="604px" viewBox="0 0 482 604" version="1.1" xmlns="http://www.w3.org/2000/svg" xmlns:xlink="http://www.w3.org/1999/xlink">
    <!-- Generator: Sketch 48 (47235) - http://www.bohemiancoding.com/sketch -->
    <title>闲林街道</title>
    <desc>Created with Sketch.</desc>
    <defs></defs>
    <g id="余杭地图" stroke="none" stroke-width="1" fill="none" fill-rule="evenodd" transform="translate(-1361.000000, -1770.000000)" fill-opacity="0.3">
        <path d="M1731.3665,1804.40206 L1702.76346,1808.95245 L1669.60993,1814.80295 L1652.70814,1831.05433 L1649.45779,1834.95466 L1633.20606,1825.85389 L1626.70537,1817.40317 L1613.70399,1817.40317 L1620.85475,1831.05433 L1633.20606,1834.95466 L1646.20745,1840.15511 L1641.00689,1851.20605 L1633.20606,1842.75533 L1629.30565,1851.20605 L1618.25447,1860.95688 L1618.25447,1865.50726 L1628.00551,1873.30793 L1626.70537,1876.5582 L1613.70399,1875.25809 L1607.85336,1873.30793 L1601.35267,1873.30793 L1592.25171,1866.80737 L1589.00136,1879.15842 L1580.55046,1888.2592 L1579.25032,1898.01003 L1601.35267,1925.9624 C1589.56091,1923.76393 1582.62684,1923.76393 1580.55046,1925.9624 C1578.47408,1928.16087 1578.0407,1935.96154 1579.25032,1949.36439 L1556.82019,1957.16506 C1554.65092,1968.31829 1554.43423,1974.38547 1556.17012,1975.36661 C1557.90602,1976.34774 1563.10657,1972.88078 1571.77178,1964.96572 L1584.77317,1975.36661 L1589.97372,1982.51721 C1582.01182,1981.08774 1577.24465,1981.08774 1575.6722,1982.51721 C1574.09975,1983.94668 1574.09975,1987.84702 1575.6722,1994.21821 C1580.84459,2001.99253 1583.01148,2006.97628 1582.17289,2009.16948 C1581.3343,2011.36268 1576.35043,2013.74621 1567.2213,2016.32009 L1534.71784,2053.37324 C1525.78349,2059.28805 1519.2828,2062.9717 1515.21577,2064.42418 C1511.14874,2065.87666 1505.51481,2066.52671 1498.31397,2066.37435 L1482.06224,2061.82396 L1477.51176,2068.32451 L1484.01245,2071.57479 L1480.11203,2078.7254 L1482.06224,2104.07755 L1474.91148,2115.12849 L1474.91148,2125.52938 L1465.81051,2132.02993 L1459.30982,2126.82949 L1446.30844,2122.92916 L1455.40941,2132.02993 L1457.35961,2137.88043 L1439.80775,2138.53048 L1442.40802,2145.68109 L1447.60858,2148.93137 L1449.55878,2157.38209 L1456.05947,2153.48175 L1459.95989,2157.38209 L1445.65837,2169.73314 L1452.15906,2178.83391 L1449.55878,2181.43413 L1439.80775,2176.88375 L1425.50622,2182.73424 L1415.75519,2182.73424 L1408.60443,2195.08529 L1401.45367,2192.48507 L1378.05118,2198.98563 L1378.05118,2207.43634 L1370.25035,2207.43634 L1367,2214.58695 C1367.76085,2220.51292 1368.8443,2224.41325 1370.25035,2226.28795 C1371.6564,2228.16264 1374.47336,2229.46275 1378.70124,2230.18828 L1379.35131,2237.33889 C1375.48442,2240.49669 1373.31752,2243.09691 1372.85062,2245.13955 C1372.38372,2247.18219 1372.38372,2251.94926 1372.85062,2259.44077 L1396.25311,2258.79071 L1401.45367,2264.64121 L1400.8036,2267.24143 L1394.95297,2267.89149 L1393.00277,2269.84165 L1393.00277,2273.09193 L1389.75242,2276.99226 L1389.75242,2280.89259 L1392.3527,2286.74309 L1391.70263,2288.69325 L1382.60166,2294.54375 L1383.25173,2314.69547 L1380.65145,2322.49613 L1379.35131,2334.19713 L1380.00138,2341.34773 L1383.9018,2355.64895 L1391.70263,2365.39978 C1395.91283,2365.40369 1399.16318,2365.62038 1401.45367,2366.04983 C1403.74415,2366.47929 1407.21119,2367.12935 1411.85477,2368 C1416.36656,2364.60609 1419.40022,2361.78918 1420.95574,2359.54928 C1422.51126,2357.30938 1424.89485,2352.32562 1428.1065,2344.59801 C1430.12608,2340.28004 1431.8596,2337.46313 1433.30705,2336.14729 C1434.75451,2334.83145 1437.78816,2333.74803 1442.40802,2332.89701 C1448.81502,2332.45128 1453.3655,2331.36785 1456.05947,2329.64674 C1458.75345,2327.92562 1462.00379,2324.02529 1465.81051,2317.94574 C1470.86724,2315.26395 1474.76765,2313.74716 1477.51176,2313.39536 C1480.25586,2313.04356 1484.80634,2313.47693 1491.16321,2314.69547 C1499.66556,2317.55368 1505.29949,2318.63711 1508.06501,2317.94574 C1510.83053,2317.25438 1512.13066,2314.43747 1511.96542,2309.49502 C1512.28196,2302.50973 1513.36541,2298.17603 1515.21577,2296.49392 C1517.06613,2294.81181 1520.74985,2295.02849 1526.26694,2297.14397 C1528.97238,2297.71437 1530.92258,2297.49768 1532.11757,2296.49392 C1533.31255,2295.49016 1536.77958,2291.15645 1542.51867,2283.49281 L1573.07192,2283.49281 L1593.22407,2293.24364 L1602.32503,2286.74309 L1609.4758,2291.94353 L1615.97649,2291.94353 L1635.47856,2279.59248 C1636.66429,2275.47074 1637.96443,2272.65383 1639.37898,2271.14176 C1640.79352,2269.62969 1645.77739,2265.72936 1654.33057,2259.44077 C1659.31061,2254.82819 1662.77764,2250.92786 1664.73167,2247.73977 C1666.68571,2244.55168 1671.45288,2235.01754 1679.0332,2219.13734 C1685.55749,2211.52723 1689.6746,2206.97684 1691.38451,2205.48618 C1693.09442,2203.99552 1697.42822,2200.52855 1704.38589,2195.08529 C1713.10739,2192.22382 1718.30794,2188.97354 1719.98755,2185.33446 C1721.66716,2181.69538 1720.36702,2176.49494 1716.08714,2169.73314 C1713.804,2166.90928 1712.28717,2164.30906 1711.53665,2161.93247 C1710.78614,2159.55589 1709.70269,2154.13876 1708.28631,2145.68109 C1707.76352,2141.6683 1707.11345,2138.63471 1706.3361,2136.58032 C1705.55875,2134.52593 1703.82523,2132.35908 1701.13555,2130.07976 C1700.12496,2124.68629 1700.12496,2121.6527 1701.13555,2120.97899 C1702.14613,2120.30528 1706.04654,2120.73865 1712.83679,2122.2791 C1716.49967,2123.15128 1718.66656,2123.15128 1719.33748,2122.2791 C1720.0084,2121.40692 1720.0084,2118.59002 1719.33748,2113.82838 C1721.98099,2110.72887 1724.14788,2108.99539 1725.83817,2108.62794 C1727.52846,2108.26049 1730.34543,2108.91055 1734.28907,2110.57811 L1737.53942,2106.02772 L1746.64039,2099.52717 L1750.5408,2100.17722 L1754.44122,2099.52717 L1756.39142,2094.97678 L1757.04149,2088.47623 L1751.19087,2085.22595 L1746.64039,2089.77634 C1742.95506,2090.37159 1740.35478,2090.37159 1738.83956,2089.77634 C1737.32433,2089.18108 1733.85729,2086.79755 1728.43845,2082.62573 L1725.18811,2078.7254 L1720.63762,2078.7254 L1717.38728,2072.8749 L1708.93638,2058.24866 L1708.28631,2049.47291 L1716.08714,2046.87269 L1728.43845,2039.07202 C1733.2558,2034.55985 1736.28946,2031.09289 1737.53942,2028.67114 C1738.78938,2026.24939 1738.78938,2022.78243 1737.53942,2018.27025 L1735.58921,2005.26915 L1745.34025,1994.21821 L1758.9917,1989.66782 C1760.2709,1986.06639 1761.57103,1983.68285 1762.89212,1982.51721 C1764.2132,1981.35158 1766.59679,1980.48484 1770.04288,1979.91699 L1777.84371,1975.36661 L1777.84371,1968.216 L1783.69433,1964.96572 L1781.09405,1954.56484 L1781.09405,1949.36439 L1776.54357,1934.41312 L1776.54357,1928.56263 L1771.99308,1920.76196 L1771.99308,1912.31124 L1782.39419,1911.01113 L1781.09405,1896.05986 L1775.24343,1894.10969 L1773.94329,1870.7077 L1773.94329,1864.20715 L1797.34578,1852.50616 L1797.34578,1838.20494 L1803.84647,1838.20494 L1806.44675,1833.65455 L1810.34716,1834.95466 L1812.94744,1831.05433 L1806.44675,1814.80295 C1807.11284,1810.63534 1807.11284,1808.25181 1806.44675,1807.65234 C1805.78066,1807.05287 1803.61376,1807.48624 1799.94606,1808.95245 L1797.34578,1803.10195 L1808.39696,1795.95135 L1814.24758,1801.15179 L1825.94882,1799.20162 L1829.84924,1793.35113 L1833.74965,1794.65124 L1837,1793.35113 L1833.74965,1777.09974 L1803.84647,1788.80074 L1792.7953,1790.10085 L1779.79391,1780.35002 C1778.0604,1779.04991 1776.54357,1778.39985 1775.24343,1778.39985 C1773.94329,1778.39985 1771.12633,1779.04991 1766.79253,1780.35002 C1763.23824,1777.73131 1760.63796,1776.64788 1758.9917,1777.09974 C1755.48643,1778.06186 1751.8328,1784.21681 1750.5408,1785.55046 C1748.33862,1787.82363 1747.03848,1793.02408 1746.64039,1801.15179 L1731.3665,1804.40206 Z" id="闲林街道" stroke="#74E5F0" stroke-width="10" fill="#8BCEFF"></path>
    </g>
</svg>