<?xml version="1.0" encoding="UTF-8"?>
<svg width="475px" height="519px" viewBox="0 0 475 519" version="1.1" xmlns="http://www.w3.org/2000/svg" xmlns:xlink="http://www.w3.org/1999/xlink">
    <!-- Generator: Sketch 48 (47235) - http://www.bohemiancoding.com/sketch -->
    <title>鸬鸟镇</title>
    <desc>Created with Sketch.</desc>
    <defs></defs>
    <g id="余杭地图" stroke="none" stroke-width="1" fill="none" fill-rule="evenodd" transform="translate(-255.000000, -675.000000)" fill-opacity="0.3">
        <path d="M361.505036,742.443022 L358.253237,746.345711 L358.253237,752.199744 L358.253237,761.306018 L356.302158,765.859155 L353.700719,773.014085 L351.74964,780.169014 L351.74964,791.226633 L346.546763,791.226633 L337.441727,791.226633 L327.035971,797.080666 L322.483453,799.682458 L322.483453,807.487836 L322.483453,815.943662 L328.98705,827.651729 L325.084892,836.107554 L325.084892,845.864277 L322.483453,849.116517 L319.231655,854.970551 L310.126619,861.475032 C311.384267,868.128432 312.684986,872.031121 314.028777,873.183099 C315.372568,874.335076 317.10686,873.03418 319.231655,869.28041 C324.202975,870.034148 327.454774,870.901412 328.98705,871.882202 C330.519327,872.862993 332.687193,875.464785 335.490647,879.68758 C333.938032,884.34457 333.287672,887.596811 333.539568,889.444302 C333.917413,892.215539 334.98491,893.997439 337.441727,893.997439 C339.079605,893.997439 340.813897,892.479727 342.644604,889.444302 L344.595683,892.046095 L358.253237,889.444302 L353.700719,898.550576 L353.700719,905.705506 L363.080035,905.705506 L364.106475,923.918054 L360.854676,927.170294 L360.854676,934 L364.106475,936.927017 L368.658993,957.741357 L368.658993,977.90525 L366.057554,979.856594 L356.302158,986.361076 L351.74964,984.409731 L339.392806,986.361076 L333.539568,991.564661 L325.084892,996.117798 C321.088345,991.699867 318.053333,990.182155 315.979856,991.564661 C313.906379,992.947167 313.039233,997.066672 313.378417,1003.92318 L307.52518,1012.379 L307.52518,1018.88348 L291.916547,1029.9411 L279.559712,1037.09603 L280.860432,1041.64917 L278.258993,1047.5032 L274.356835,1054.00768 L272.405755,1058.56082 L268.503597,1065.0653 L264.601439,1076.77337 L262,1085.87964 C267.705562,1087.27354 271.824507,1088.57444 274.356835,1089.78233 C276.889162,1090.99022 286.861345,1096.41062 304.273381,1106.04353 C311.21017,1108.21148 316.196261,1110.16282 319.231655,1111.89757 C322.267048,1113.63231 323.350981,1115.15003 322.483453,1116.4507 L322.483453,1119.70294 L325.084892,1124.90653 L339.392806,1135.3137 L351.74964,1139.86684 L353.700719,1137.26504 C355.602905,1134.44205 357.120411,1132.92434 358.253237,1132.71191 C359.386064,1132.49947 361.337143,1133.36674 364.106475,1135.3137 L377.764029,1144.41997 L394.023022,1157.42894 L399.225899,1157.42894 L404.052697,1160.03073 L420.68777,1183.44686 L425.240288,1186.6991 L429.792806,1186.6991 L436.296403,1183.44686 L441.499281,1181.49552 L444.751079,1180.19462 L447.626798,1174.99104 L450.604317,1172.38924 L453.856115,1173.69014 L457.758273,1177.59283 L468.814388,1178.89373 L470.115108,1176.94238 L466.21295,1169.78745 L463.611511,1162.63252 L468.814388,1160.03073 L480.520863,1153.52625 L492.877698,1151.5749 L500.305935,1149.62356 L504.858453,1153.52625 L502.633094,1154.82714 L503.933813,1160.03073 L507.835971,1160.03073 L518.892086,1162.63252 L527.346763,1169.137 L531.899281,1166.53521 L534.44982,1166.53521 L537.102158,1162.63252 L539.703597,1161.33163 L551.410072,1161.33163 L568.969784,1180.19462 L573.146222,1183.44686 L578.07482,1180.19462 L581.326619,1177.59283 L587.830216,1177.59283 L590.431655,1181.49552 L593.033094,1186.6991 L596.284892,1188 L601.48777,1186.6991 L606.690647,1186.6991 L608.641727,1183.44686 L605.013848,1177.59283 L611.893525,1173.69014 L626.201439,1169.137 L628.152518,1166.53521 L624.52464,1162.63252 L628.152518,1149.62356 C631.621103,1145.28724 633.788969,1143.11908 634.656115,1143.11908 C635.523261,1143.11908 637.907914,1144.85361 641.810072,1148.32266 C646.131818,1148.23223 648.733257,1146.93134 649.614388,1144.41997 C650.49552,1141.90861 650.153374,1138.00592 648.587949,1132.71191 L641.810072,1111.89757 C639.41975,1107.55315 637.468671,1104.30091 635.956835,1102.14085 C634.444998,1099.98078 631.843559,1096.72854 628.152518,1092.38412 C626.095699,1090.38649 624.886407,1088.86877 624.52464,1087.83099 C624.162873,1086.7932 624.721806,1084.84185 626.201439,1081.97695 L643.110791,1061.81306 L649.614388,1054.00768 L649.614388,1047.5032 L650.915108,1044.25096 C655.192459,1041.44442 658.010684,1039.05944 659.369784,1037.09603 C660.728884,1035.13262 661.812817,1031.88038 662.621583,1027.33931 L662.621583,1018.88348 L663.922302,1009.77721 L662.621583,1007.17542 L658.343345,1008.47631 L657.418705,1007.17542 L666.147661,994.816901 L673.301618,987.661972 L673.301618,975.303457 L678.880576,966.197183 L669.77554,966.197183 L669.77554,960.34315 L673.301618,955.139565 L678.880576,955.139565 L689.936691,940.179257 L683.433094,927.170294 L689.936691,921.966709 L678.880576,918.06402 C674.010278,916.683339 670.975266,915.165627 669.77554,913.510883 C668.575814,911.85614 667.366521,907.519819 666.147661,900.501921 L678.880576,886.192061 L714,861.475032 L709.071402,861.475032 L699.316007,845.864277 L692.81241,831.554417 L692.81241,815.943662 L699.316007,807.487836 L705.545324,795.129321 L709.071402,780.169014 L699.316007,773.014085 L692.81241,770.412292 L673.301618,770.412292 L666.147661,763.90781 L658.343345,765.859155 L655.741906,759.354673 L654.441186,755.451985 L648.587949,741.792574 L644.685791,737.239437 L639.482913,737.239437 C635.209183,738.316071 631.957385,738.316071 629.727517,737.239437 C627.49765,736.162803 625.763357,732.47693 624.52464,726.181818 L624.52464,716.425096 C623.171254,715.415452 621.870534,714.765004 620.622481,714.473752 C619.374429,714.1825 614.171551,713.532052 605.013848,712.522407 L573.146222,714.473752 L554.936151,718.37644 L547.131834,720.327785 C544.38069,721.059232 542.212824,721.059232 540.628237,720.327785 C539.04365,719.596338 536.984177,717.644993 534.44982,714.473752 C530.129178,711.430789 526.768986,709.479444 524.369244,708.619718 C521.969502,707.759992 518.067343,707.109544 512.662769,706.668374 C508.91961,707.1294 506.318171,707.1294 504.858453,706.668374 C503.398734,706.207348 501.881228,704.906451 500.305935,702.765685 C496.656856,699.46977 493.621844,696.867978 491.200899,694.960307 C488.779954,693.052637 484.661009,690.017212 478.844064,685.854033 C473.860006,684.43291 469.957847,683.565645 467.137589,683.252241 C464.317331,682.938836 460.415173,682.938836 455.431115,683.252241 L447.626798,685.854033 L439.822481,680 L433.969244,680 L428.116007,685.854033 L426.164928,702.765685 L424.213848,708.619718 L424.213848,720.327785 L419.66133,724.230474 L404.052697,716.425096 L396.248381,718.37644 L396.248381,724.230474 L396.248381,731.385403 L392.996582,737.239437 L390.395143,743.743918 L385.842625,743.743918 L380.639748,741.792574 L372.185071,741.792574 C370.591987,741.195358 363.574827,738.609679 363.080035,737.889885 C362.610905,737.207421 362.085905,738.725133 361.505036,742.443022 Z" id="鸬鸟镇" stroke="#74E5F0" stroke-width="10" fill="#8BCEFF"></path>
    </g>
</svg>