<?xml version="1.0" encoding="UTF-8"?>
<svg width="465px" height="477px" viewBox="0 0 465 477" version="1.1" xmlns="http://www.w3.org/2000/svg" xmlns:xlink="http://www.w3.org/1999/xlink">
    <!-- Generator: Sketch 48 (47235) - http://www.bohemiancoding.com/sketch -->
    <title>黄湖镇</title>
    <desc>Created with Sketch.</desc>
    <defs></defs>
    <g id="余杭地图" stroke="none" stroke-width="1" fill="none" fill-rule="evenodd" transform="translate(-688.000000, -554.000000)" fill-opacity="0.3">
        <path d="M713.813754,860.885154 L725.52149,881.030812 L728.123209,890.778711 L736.578797,893.378151 C721.402101,906.37535 713.813754,912.87395 713.813754,912.87395 C713.813754,912.87395 714.680993,914.390289 716.415473,917.422969 L725.52149,917.422969 C727.255969,921.755369 729.857689,923.921569 733.326648,923.921569 C736.795606,923.921569 742.432665,923.055089 750.237822,921.322129 C761.32955,924.997515 769.134708,928.463435 773.653295,931.719888 C778.171882,934.976341 783.592131,941.041701 789.91404,949.915966 L786.661891,972.011204 L797.068768,974.610644 L802.922636,994.106443 L811.378223,994.106443 L817.232092,990.857143 L825.037249,990.857143 L828.289398,997.355742 L828.289398,1001.2549 L820.484241,997.355742 L817.232092,997.355742 L817.232092,1001.2549 L820.484241,1007.7535 L828.289398,1007.7535 L838.045845,1006.45378 L847.802292,1007.7535 L847.802292,1012.95238 L853.65616,1012.95238 L858.209169,1012.95238 L866.664756,1012.95238 L869.916905,1018.15126 L877.071633,1018.15126 L881.624642,1018.15126 L881.624642,1012.95238 L877.071633,1007.7535 L884.226361,1006.45378 L894.633238,1006.45378 L903.088825,1012.95238 L908.942693,1018.15126 L917.398281,1024 L922.601719,1018.15126 L925.203438,1007.7535 L940.813754,968.761905 C943.175072,965.19946 945.126362,963.03326 946.667622,962.263305 C948.208882,961.49335 950.593791,961.49335 953.82235,962.263305 L974.636103,965.512605 L993.498567,968.761905 L1011.06017,965.512605 C1015.39637,962.624339 1017.56447,960.241519 1017.56447,958.364146 C1017.56447,956.486772 1015.39637,953.670713 1011.06017,949.915966 L1029.92264,958.364146 C1033.10301,949.984741 1035.0543,943.269522 1035.7765,938.218487 C1036.49871,933.167453 1036.49871,926.235613 1035.7765,917.422969 L1031.87393,906.37535 L1031.87393,900.526611 L1029.92264,896.627451 L1020.81662,896.627451 C1017.34766,892.006225 1015.61318,888.973545 1015.61318,887.529412 C1015.61318,886.085279 1017.34766,885.218799 1020.81662,884.929972 C1023.66029,883.798719 1025.17796,882.498999 1025.36963,881.030812 C1025.5613,879.562626 1024.47725,876.313326 1022.11748,871.282913 L1022.11748,860.885154 L1018.86533,856.336134 L1037.72779,836.840336 C1038.6687,834.933587 1038.6687,833.633867 1037.72779,832.941176 C1036.78689,832.248486 1032.6675,830.515526 1025.36963,827.742297 C1023.21344,822.481826 1022.77982,819.449146 1024.06877,818.644258 C1025.35772,817.839369 1029.2603,818.705849 1035.7765,821.243697 C1040.39814,822.24631 1043.8671,822.67955 1046.18338,822.543417 C1048.49966,822.407285 1052.61905,821.107565 1058.54155,818.644258 C1062.43454,817.179861 1065.25307,815.663521 1066.99713,814.095238 C1068.7412,812.526956 1070.69249,809.494276 1072.851,804.997199 L1061.7937,803.697479 L1083.90831,777.053221 L1088.46132,781.602241 L1095.61605,784.201681 L1100.81948,784.201681 L1115.77937,785.501401 L1119.68195,785.501401 L1115.77937,770.554622 C1120.44399,769.501398 1123.69614,767.985058 1125.53582,766.005602 C1127.37549,764.026147 1129.7604,760.343607 1132.69054,754.957983 L1145.04871,756.257703 L1147,748.459384 L1141.14613,741.310924 L1132.69054,739.361345 L1123.58453,734.162465 L1123.58453,731.563025 L1119.68195,731.563025 L1100.81948,741.310924 C1097.92363,735.877413 1095.1051,732.628114 1092.3639,731.563025 C1089.6227,730.497937 1085.06969,730.064697 1078.70487,730.263305 L1074.80229,724.414566 C1078.58192,721.740935 1081.18364,719.358115 1082.60745,717.266106 C1084.03126,715.174098 1085.11531,712.141418 1085.8596,708.168067 C1084.03673,703.747351 1082.30225,700.714671 1080.65616,699.070028 C1079.01008,697.425385 1075.32431,695.042565 1069.59885,691.921569 C1067.50099,687.479026 1065.5497,684.446346 1063.74499,682.823529 C1061.94028,681.200713 1057.17046,679.034513 1049.43553,676.32493 L1038.6479,654.441954 L1029.92264,636.033613 C1026.56696,634.27722 1024.61567,632.11102 1024.06877,629.535014 C1023.52186,626.959008 1023.95548,621.976748 1025.36963,614.588235 L1011.06017,612.638655 C1009.92173,617.634653 1008.62087,620.883953 1007.15759,622.386555 C1005.69432,623.889156 999.840452,628.438176 989.595989,636.033613 C986.867449,635.727661 984.699349,635.727661 983.091691,636.033613 C981.484032,636.339566 979.099122,637.206046 975.936963,638.633053 C973.564815,636.19502 971.613525,634.67868 970.083095,634.084034 C968.552664,633.489388 966.601374,633.489388 964.229226,634.084034 L955.123209,629.535014 L947.968481,634.084034 L938.862464,619.787115 L926.504298,609.389356 L925.203438,598.991597 C920.072827,593.244392 915.953438,589.128612 912.845272,586.644258 C909.737106,584.159903 904.100048,580.477364 895.934097,575.596639 C891.668208,576.100127 888.849679,575.666887 887.47851,574.296919 C886.107341,572.926951 885.023291,569.461031 884.226361,563.89916 L865.363897,560 C862.289539,564.522274 859.90463,567.338333 858.209169,568.448179 C856.513708,569.558025 852.61113,570.857745 846.501433,572.347339 L838.045845,582.095238 L825.037249,574.296919 L808.126074,589.893557 L795.117479,593.792717 C793.71616,589.655808 791.98168,587.272988 789.91404,586.644258 C787.8464,586.015527 785.895111,587.531867 784.060172,591.193277 L759.34384,584.044818 L756.74212,584.044818 L756.74212,609.389356 L759.34384,617.187675 L756.74212,624.336134 L750.237822,626.935574 C746.939593,630.9882 744.988304,634.020879 744.383954,636.033613 C743.779604,638.046348 743.779604,641.512267 744.383954,646.431373 L733.326648,661.378151 C728.963544,664.854748 726.361825,667.887427 725.52149,670.47619 C724.681155,673.064953 724.681155,678.047213 725.52149,685.422969 C727.321395,690.471804 728.839065,693.504484 730.074499,694.521008 C731.309932,695.537533 733.478032,695.537533 736.578797,694.521008 L741.131805,701.669468 L741.131805,741.310924 L746.985673,748.459384 L741.131805,751.058824 L733.326648,773.803922 C730.13033,776.836249 727.528611,778.569209 725.52149,779.002801 C723.514369,779.436393 718.094121,779.436393 709.260745,779.002801 L704.057307,798.498599 L693,814.095238 L693,830.991597 L709.260745,860.885154 L713.813754,860.885154 Z" id="黄湖镇" stroke="#74E5F0" stroke-width="10" fill="#8BCEFF"></path>
    </g>
</svg>