<?xml version="1.0" encoding="UTF-8"?>
<svg width="8652px" height="457px" viewBox="0 0 8652 457" version="1.1" xmlns="http://www.w3.org/2000/svg" xmlns:xlink="http://www.w3.org/1999/xlink">
    <!-- Generator: Sketch 48 (47235) - http://www.bohemiancoding.com/sketch -->
    <title>Combined Shape Copy 33</title>
    <desc>Created with Sketch.</desc>
    <defs>
        <linearGradient x1="51.030165%" y1="83.1110099%" x2="51.030165%" y2="100%" id="linearGradient-1">
            <stop stop-color="#0C247C" stop-opacity="0" offset="0%"></stop>
            <stop stop-color="#0B2B7F" offset="100%"></stop>
        </linearGradient>
        <linearGradient x1="29.9178956%" y1="50%" x2="78.9686433%" y2="50%" id="linearGradient-2">
            <stop stop-color="#448FBC" stop-opacity="0" offset="0%"></stop>
            <stop stop-color="#3BA1F8" offset="40.9003664%"></stop>
            <stop stop-color="#448FBC" stop-opacity="0" offset="100%"></stop>
        </linearGradient>
        <path d="M7597.94379,5835.97246 C4154.75995,5745.4762 1559,5342.91398 1559,4860 C1559,4310.47667 4920.22224,3865 9066.5,3865 C13212.7778,3865 16574,4310.47667 16574,4860 C16574,5342.92471 13978.1248,5745.49408 10534.8268,5835.97849 L10489.2081,5927.56673 C10487.8552,5930.28303 10485.0818,5932 10482.0472,5932 L7651.8966,5932 C7648.89133,5932 7646.13958,5930.31572 7644.77239,5927.63945 L7597.94379,5835.97246 Z" id="path-3"></path>
    </defs>
    <g id="Artboard-2" stroke="none" stroke-width="1" fill="none" fill-rule="evenodd" transform="translate(-5531.000000, -3865.000000)">
        <g id="Combined-Shape-Copy-32" transform="translate(9066.500000, 4898.500000) scale(1, -1) translate(-9066.500000, -4898.500000) ">
            <use fill="url(#linearGradient-1)" fill-rule="evenodd" xlink:href="#path-3"></use>
            <path stroke="url(#linearGradient-2)" stroke-width="10" d="M7598.07515,5830.97419 L7601.04492,5831.05224 L7649.22502,5925.36479 C7649.73772,5926.3684 7650.76962,5927 7651.8966,5927 L10482.0472,5927 C10483.1852,5927 10484.2252,5926.35614 10484.7326,5925.33752 L10531.6912,5831.05916 L10534.6955,5830.98021 C12229.1536,5786.45254 13747.6714,5665.37856 14844.8619,5490.21688 C15951.7941,5313.49997 16569,5091.1259 16569,4860 C16569,4728.41925 16368.0668,4598.27923 15982.5284,4477.47235 C15605.6814,4359.38889 15058.5142,4252.04763 14374.4472,4161.38541 C12975.8406,3976.0223 11084.5175,3870 9066.5,3870 C7048.48245,3870 5157.15937,3976.0223 3758.55277,4161.38541 C3074.48579,4252.04763 2527.31863,4359.38889 2150.47162,4477.47235 C1764.93316,4598.27923 1564,4728.41925 1564,4860 C1564,5091.12075 2181.17849,5313.49024 3288.06622,5490.20541 C4385.21081,5665.36508 5903.67029,5786.44061 7598.07515,5830.97419 Z"></path>
        </g>
    </g>
</svg>