<?xml version="1.0" encoding="UTF-8"?>
<svg width="1778px" height="561px" viewBox="0 0 1778 561" version="1.1" xmlns="http://www.w3.org/2000/svg" xmlns:xlink="http://www.w3.org/1999/xlink">
    <!-- Generator: Sketch 48 (47235) - http://www.bohemiancoding.com/sketch -->
    <title>Group 41</title>
    <desc>Created with Sketch.</desc>
    <defs>
        <linearGradient x1="24.5473014%" y1="11.9988256%" x2="76.4717555%" y2="88.2675194%" id="linearGradient-1">
            <stop stop-color="#2E8FFF" offset="0%"></stop>
            <stop stop-color="#3EBAEC" offset="100%"></stop>
        </linearGradient>
        <linearGradient x1="50%" y1="0%" x2="84.5121265%" y2="100%" id="linearGradient-2">
            <stop stop-color="#00BBFF" offset="0%"></stop>
            <stop stop-color="#008CFF" offset="100%"></stop>
        </linearGradient>
        <linearGradient x1="0%" y1="85.7724472%" x2="100%" y2="-5.55111512e-15%" id="linearGradient-3">
            <stop stop-color="#007EFF" offset="0%"></stop>
            <stop stop-color="#00D4FF" offset="100%"></stop>
        </linearGradient>
    </defs>
    <g id="宽屏-风格1" stroke="none" stroke-width="1" fill="none" fill-rule="evenodd" transform="translate(-7561.000000, -2547.000000)">
        <g id="Group-41" transform="translate(7561.000000, 2547.000000)">
            <path d="M803.987991,433.728122 L679.010291,361.490486 C678.385074,361.129108 678,360.461763 678,359.739619 L678,215.260381 C678,214.538237 678.385074,213.870892 679.010291,213.509514 L803.987991,141.271878 C804.614129,140.909967 805.385871,140.909967 806.012009,141.271878 L930.989709,213.509514 C931.614926,213.870892 932,214.538237 932,215.260381 L932,359.739619 C932,360.461763 931.614926,361.129108 930.989709,361.490486 L806.012009,433.728122 C805.385871,434.090033 804.614129,434.090033 803.987991,433.728122 Z" id="Star" stroke="url(#linearGradient-1)" stroke-width="2.0223" opacity="0.800000012"></path>
            <path d="M803.987829,456.728147 L660.010129,373.49064 C659.385003,373.129237 659,372.461943 659,371.739866 L659,205.260134 C659,204.538057 659.385003,203.870763 660.010129,203.50936 L803.987829,120.271853 C804.61405,119.909817 805.38595,119.909817 806.012171,120.271853 L949.989871,203.50936 C950.614997,203.870763 951,204.538057 951,205.260134 L951,371.739866 C951,372.461943 950.614997,373.129237 949.989871,373.49064 L806.012171,456.728147 C805.38595,457.090183 804.61405,457.090183 803.987829,456.728147 Z" id="Star" stroke="url(#linearGradient-1)" stroke-width="2.0223" opacity="0.200000003"></path>
            <path d="M804.489242,479.729213 L639.011542,384.239949 C638.385619,383.878759 638,383.21102 638,382.48836 L638,191.51164 C638,190.78898 638.385619,190.121241 639.011542,189.760051 L804.489242,94.2707865 C805.114744,93.9098388 805.885256,93.9098388 806.510758,94.2707865 L971.988458,189.760051 C972.614381,190.121241 973,190.78898 973,191.51164 L973,382.48836 C973,383.21102 972.614381,383.878759 971.988458,384.239949 L806.510758,479.729213 C805.885256,480.090161 805.114744,480.090161 804.489242,479.729213 Z" id="Star" stroke="url(#linearGradient-1)" stroke-width="2.0223" opacity="0.100000001"></path>
            <path d="M803.988017,415.727646 L695.010317,352.740226 C694.385085,352.378851 694,351.711499 694,350.989344 L694,225.010656 C694,224.288501 694.385085,223.621149 695.010317,223.259774 L803.988017,160.272354 C804.614142,159.910463 805.385858,159.910463 806.011983,160.272354 L914.989683,223.259774 C915.614915,223.621149 916,224.288501 916,225.010656 L916,350.989344 C916,351.711499 915.614915,352.378851 914.989683,352.740226 L806.011983,415.727646 C805.385858,416.089537 804.614142,416.089537 803.988017,415.727646 Z" id="Star" fill="url(#linearGradient-2)"></path>
            <path d="M328.987627,285.727562 L230.009927,228.490522 C229.384914,228.129089 229,227.461859 229,226.739866 L229,112.260134 C229,111.538141 229.384914,110.870911 230.009927,110.509478 L328.987627,53.272438 C329.61395,52.9102464 330.38605,52.9102464 331.012373,53.272438 L429.990073,110.509478 C430.615086,110.870911 431,111.538141 431,112.260134 L431,226.739866 C431,227.461859 430.615086,228.129089 429.990073,228.490522 L331.012373,285.727562 C330.38605,286.089754 329.61395,286.089754 328.987627,285.727562 Z" id="Star-Copy-12" fill="url(#linearGradient-2)"></path>
            <path d="M329.490892,303.731324 L214.013192,237.239576 C213.38634,236.878636 213,236.210376 213,235.487035 L213,102.512965 C213,101.789624 213.38634,101.121364 214.013192,100.760424 L329.490892,34.2686764 C330.115555,33.908997 330.884445,33.908997 331.509108,34.2686764 L446.986808,100.760424 C447.61366,101.121364 448,101.789624 448,102.512965 L448,235.487035 C448,236.210376 447.61366,236.878636 446.986808,237.239576 L331.509108,303.731324 C330.884445,304.091003 330.115555,304.091003 329.490892,303.731324 Z" id="Star-Copy-12" stroke="url(#linearGradient-1)" stroke-width="2.0223" opacity="0.5"></path>
            <path d="M328.989201,323.729202 L196.011501,246.989979 C195.385601,246.628783 195,245.961056 195,245.238413 L195,91.7615866 C195,91.0389437 195.385601,90.3712172 196.011501,90.010021 L328.989201,13.270798 C329.614724,12.9098188 330.385276,12.9098188 331.010799,13.270798 L463.988499,90.010021 C464.614399,90.3712172 465,91.0389437 465,91.7615866 L465,245.238413 C465,245.961056 464.614399,246.628783 463.988499,246.989979 L331.010799,323.729202 C330.385276,324.090181 329.614724,324.090181 328.989201,323.729202 Z" id="Star-Copy-12" stroke="url(#linearGradient-1)" stroke-width="2.0223" opacity="0.200000003"></path>
            <path d="M1414.98763,442.727562 L1316.00993,385.490522 C1315.38491,385.129089 1315,384.461859 1315,383.739866 L1315,269.260134 C1315,268.538141 1315.38491,267.870911 1316.00993,267.509478 L1414.98763,210.272438 C1415.61395,209.910246 1416.38605,209.910246 1417.01237,210.272438 L1515.99007,267.509478 C1516.61509,267.870911 1517,268.538141 1517,269.260134 L1517,383.739866 C1517,384.461859 1516.61509,385.129089 1515.99007,385.490522 L1417.01237,442.727562 C1416.38605,443.089754 1415.61395,443.089754 1414.98763,442.727562 Z" id="Star-Copy-2" fill="url(#linearGradient-2)" opacity="0.900000036"></path>
            <path d="M1415.48792,465.727894 L1297.01022,397.240438 C1296.38504,396.879048 1296,396.211727 1296,395.489615 L1296,258.510385 C1296,257.788273 1296.38504,257.120952 1297.01022,256.759562 L1415.48792,188.272106 C1416.11409,187.910137 1416.88591,187.910137 1417.51208,188.272106 L1535.98978,256.759562 C1536.61496,257.120952 1537,257.788273 1537,258.510385 L1537,395.489615 C1537,396.211727 1536.61496,396.879048 1535.98978,397.240438 L1417.51208,465.727894 C1416.88591,466.089863 1416.11409,466.089863 1415.48792,465.727894 Z" id="Star-Copy-2" stroke="url(#linearGradient-1)" stroke-width="2.0223" opacity="0.600000024"></path>
            <path d="M1414.98885,488.728867 L1276.01115,408.490114 C1275.38545,408.128865 1275,407.461249 1275,406.738751 L1275,246.261249 C1275,245.538751 1275.38545,244.871135 1276.01115,244.509886 L1414.98885,164.271133 C1415.61455,163.909885 1416.38545,163.909885 1417.01115,164.271133 L1555.98885,244.509886 C1556.61455,244.871135 1557,245.538751 1557,246.261249 L1557,406.738751 C1557,407.461249 1556.61455,408.128865 1555.98885,408.490114 L1417.01115,488.728867 C1416.38545,489.090115 1415.61455,489.090115 1414.98885,488.728867 Z" id="Star-Copy-2" stroke="url(#linearGradient-1)" stroke-width="2.0223" opacity="0.200000003"></path>
            <path d="M1044.99043,512.731505 L976.012729,472.990067 C975.386138,472.629057 975,471.960943 975,471.237793 L975,391.762207 C975,391.039057 975.386138,390.370943 976.012729,390.009933 L1044.99043,350.268495 C1045.61533,349.90846 1046.38467,349.90846 1047.00957,350.268495 L1115.98727,390.009933 C1116.61386,390.370943 1117,391.039057 1117,391.762207 L1117,471.237793 C1117,471.960943 1116.61386,472.629057 1115.98727,472.990067 L1047.00957,512.731505 C1046.38467,513.09154 1045.61533,513.09154 1044.99043,512.731505 Z" id="Star-Copy" fill="url(#linearGradient-2)" opacity="0.600000024"></path>
            <path d="M1694.99043,541.731505 L1626.01273,501.990067 C1625.38614,501.629057 1625,500.960943 1625,500.237793 L1625,420.762207 C1625,420.039057 1625.38614,419.370943 1626.01273,419.009933 L1694.99043,379.268495 C1695.61533,378.90846 1696.38467,378.90846 1697.00957,379.268495 L1765.98727,419.009933 C1766.61386,419.370943 1767,420.039057 1767,420.762207 L1767,500.237793 C1767,500.960943 1766.61386,501.629057 1765.98727,501.990067 L1697.00957,541.731505 C1696.38467,542.09154 1695.61533,542.09154 1694.99043,541.731505 Z" id="Star-Copy-16" fill="url(#linearGradient-2)" opacity="0.600000024"></path>
            <path d="M1286.99043,206.731505 L1218.01273,166.990067 C1217.38614,166.629057 1217,165.960943 1217,165.237793 L1217,85.7622069 C1217,85.0390574 1217.38614,84.3709431 1218.01273,84.009933 L1286.99043,44.2684952 C1287.61533,43.9084604 1288.38467,43.9084604 1289.00957,44.2684952 L1357.98727,84.009933 C1358.61386,84.3709431 1359,85.0390574 1359,85.7622069 L1359,165.237793 C1359,165.960943 1358.61386,166.629057 1357.98727,166.990067 L1289.00957,206.731505 C1288.38467,207.09154 1287.61533,207.09154 1286.99043,206.731505 Z" id="Star-Copy-4" fill="url(#linearGradient-2)" opacity="0.600000024"></path>
            <path d="M1520.99062,188.731132 L1442.01292,143.239715 C1441.38622,142.878734 1441,142.210559 1441,141.48733 L1441,50.5126697 C1441,49.7894412 1441.38622,49.1212664 1442.01292,48.7602854 L1520.99062,3.26886803 C1521.61542,2.9089805 1522.38458,2.9089805 1523.00938,3.26886803 L1601.98708,48.7602854 C1602.61378,49.1212664 1603,49.7894412 1603,50.5126697 L1603,141.48733 C1603,142.210559 1602.61378,142.878734 1601.98708,143.239715 L1523.00938,188.731132 C1522.38458,189.091019 1521.61542,189.091019 1520.99062,188.731132 Z" id="Star-Copy-5" fill="url(#linearGradient-2)" opacity="0.800000012"></path>
            <path d="M1013.48616,261.725905 L960.008462,230.740963 C959.384275,230.37931 959,229.712544 959,228.991155 L959,167.008845 C959,166.287456 959.384275,165.62069 960.008462,165.259037 L1013.48616,134.274095 C1014.11323,133.910773 1014.88677,133.910773 1015.51384,134.274095 L1068.99154,165.259037 C1069.61572,165.62069 1070,166.287456 1070,167.008845 L1070,228.991155 C1070,229.712544 1069.61572,230.37931 1068.99154,230.740963 L1015.51384,261.725905 C1014.88677,262.089227 1014.11323,262.089227 1013.48616,261.725905 Z" id="Star-Copy-3" fill="url(#linearGradient-2)" opacity="0.600000024"></path>
            <path d="M931.488848,131.728706 L883.011148,103.740036 C882.385448,103.378787 882,102.711171 882,101.988674 L882,46.0113264 C882,45.2888288 882.385448,44.6212135 883.011148,44.2599641 L931.488848,16.2712941 C932.114551,15.9100438 932.885449,15.9100438 933.511152,16.2712941 L981.988852,44.2599641 C982.614552,44.6212135 983,45.2888288 983,46.0113264 L983,101.988674 C983,102.711171 982.614552,103.378787 981.988852,103.740036 L933.511152,131.728706 C932.885449,132.089956 932.114551,132.089956 931.488848,131.728706 Z" id="Star-Copy-7" fill="url(#linearGradient-2)" opacity="0.800000012"></path>
            <path d="M1726.48885,232.728706 L1678.01115,204.740036 C1677.38545,204.378787 1677,203.711171 1677,202.988674 L1677,147.011326 C1677,146.288829 1677.38545,145.621213 1678.01115,145.259964 L1726.48885,117.271294 C1727.11455,116.910044 1727.88545,116.910044 1728.51115,117.271294 L1776.98885,145.259964 C1777.61455,145.621213 1778,146.288829 1778,147.011326 L1778,202.988674 C1778,203.711171 1777.61455,204.378787 1776.98885,204.740036 L1728.51115,232.728706 C1727.88545,233.089956 1727.11455,233.089956 1726.48885,232.728706 Z" id="Star-Copy-19" fill="url(#linearGradient-2)" opacity="0.800000012"></path>
            <path d="M1233.48885,549.728706 L1185.01115,521.740036 C1184.38545,521.378787 1184,520.711171 1184,519.988674 L1184,464.011326 C1184,463.288829 1184.38545,462.621213 1185.01115,462.259964 L1233.48885,434.271294 C1234.11455,433.910044 1234.88545,433.910044 1235.51115,434.271294 L1283.98885,462.259964 C1284.61455,462.621213 1285,463.288829 1285,464.011326 L1285,519.988674 C1285,520.711171 1284.61455,521.378787 1283.98885,521.740036 L1235.51115,549.728706 C1234.88545,550.089956 1234.11455,550.089956 1233.48885,549.728706 Z" id="Star-Copy-22" fill="url(#linearGradient-2)" opacity="0.800000012"></path>
            <path d="M1106.02217,103.103361 L1063.01115,78.2709368 C1062.38545,77.9096877 1062,77.2420719 1062,76.5195737 L1062,26.8547246 C1062,26.1322263 1062.38545,25.4646105 1063.01115,25.1033614 L1106.02217,0.270936826 C1106.64787,-0.0903122753 1107.41877,-0.0903122753 1108.04447,0.270936826 L1151.05549,25.1033614 C1151.68119,25.4646105 1152.06664,26.1322263 1152.06664,26.8547246 L1152.06664,76.5195737 C1152.06664,77.2420719 1151.68119,77.9096877 1151.05549,78.2709368 L1108.04447,103.103361 C1107.41877,103.46461 1106.64787,103.46461 1106.02217,103.103361 Z" id="Star-Copy-24" fill="url(#linearGradient-2)" opacity="0.699999988"></path>
            <path d="M70.022171,527.103361 L27.01115,502.270937 C26.3854482,501.909688 26,501.242072 26,500.519574 L26,450.854725 C26,450.132226 26.3854482,449.46461 27.01115,449.103361 L70.022171,424.270937 C70.6478728,423.909688 71.4187692,423.909688 72.044471,424.270937 L115.055492,449.103361 C115.681194,449.46461 116.066642,450.132226 116.066642,450.854725 L116.066642,500.519574 C116.066642,501.242072 115.681194,501.909688 115.055492,502.270937 L72.044471,527.103361 C71.4187692,527.46461 70.6478728,527.46461 70.022171,527.103361 Z" id="Star-Copy-28" fill="url(#linearGradient-2)" opacity="0.699999988"></path>
            <path d="M300.488848,527.728706 L252.011148,499.740036 C251.385448,499.378787 251,498.711171 251,497.988674 L251,442.011326 C251,441.288829 251.385448,440.621213 252.011148,440.259964 L300.488848,412.271294 C301.114551,411.910044 301.885449,411.910044 302.511152,412.271294 L350.988852,440.259964 C351.614552,440.621213 352,441.288829 352,442.011326 L352,497.988674 C352,498.711171 351.614552,499.378787 350.988852,499.740036 L302.511152,527.728706 C301.885449,528.089956 301.114551,528.089956 300.488848,527.728706 Z" id="Star-Copy-15" fill="url(#linearGradient-2)" opacity="0.800000012"></path>
            <path d="M581.488848,178.728706 L533.011148,150.740036 C532.385448,150.378787 532,149.711171 532,148.988674 L532,93.0113264 C532,92.2888288 532.385448,91.6212135 533.011148,91.2599641 L581.488848,63.2712941 C582.114551,62.9100438 582.885449,62.9100438 583.511152,63.2712941 L631.988852,91.2599641 C632.614552,91.6212135 633,92.2888288 633,93.0113264 L633,148.988674 C633,149.711171 632.614552,150.378787 631.988852,150.740036 L583.511152,178.728706 C582.885449,179.089956 582.114551,179.089956 581.488848,178.728706 Z" id="Star-Copy-9" fill="url(#linearGradient-2)" opacity="0.800000012"></path>
            <path d="M49.4888485,132.728706 L1.01114846,104.740036 C0.38544753,104.378787 -3.48165941e-13,103.711171 -3.53495011e-13,102.988674 L-3.78364007e-13,47.0113264 C-3.75699472e-13,46.2888288 0.38544753,45.6212135 1.01114846,45.2599641 L49.4888485,17.2712941 C50.114551,16.9100438 50.885449,16.9100438 51.5111515,17.2712941 L99.9888515,45.2599641 C100.614552,45.6212135 101,46.2888288 101,47.0113264 L101,102.988674 C101,103.711171 100.614552,104.378787 99.9888515,104.740036 L51.5111515,132.728706 C50.885449,133.089956 50.114551,133.089956 49.4888485,132.728706 Z" id="Star-Copy-17" fill="url(#linearGradient-2)" opacity="0.800000012"></path>
            <path d="M527.990621,417.731132 L449.012921,372.239715 C448.386221,371.878734 448,371.210559 448,370.48733 L448,279.51267 C448,278.789441 448.386221,278.121266 449.012921,277.760285 L527.990621,232.268868 C528.615422,231.908981 529.384578,231.908981 530.009379,232.268868 L608.987079,277.760285 C609.613779,278.121266 610,278.789441 610,279.51267 L610,370.48733 C610,371.210559 609.613779,371.878734 608.987079,372.239715 L530.009379,417.731132 C529.384578,418.091019 528.615422,418.091019 527.990621,417.731132 Z" id="Star-Copy-10" fill="url(#linearGradient-2)" opacity="0.800000012"></path>
            <path d="M103.492175,261.733126 L70.0144748,242.489367 C69.3869001,242.128623 69,241.459958 69,240.736089 L69,202.263911 C69,201.540042 69.3869001,200.871377 70.0144748,200.510633 L103.492175,181.266874 C104.116185,180.908179 104.883815,180.908179 105.507825,181.266874 L138.985525,200.510633 C139.6131,200.871377 140,201.540042 140,202.263911 L140,240.736089 C140,241.459958 139.6131,242.128623 138.985525,242.489367 L105.507825,261.733126 C104.883815,262.091821 104.116185,262.091821 103.492175,261.733126 Z" id="Star-Copy-11" fill="url(#linearGradient-2)" opacity="0.800000012"></path>
            <path d="M1637.49217,308.733126 L1604.01447,289.489367 C1603.3869,289.128623 1603,288.459958 1603,287.736089 L1603,249.263911 C1603,248.540042 1603.3869,247.871377 1604.01447,247.510633 L1637.49217,228.266874 C1638.11618,227.908179 1638.88382,227.908179 1639.50783,228.266874 L1672.98553,247.510633 C1673.6131,247.871377 1674,248.540042 1674,249.263911 L1674,287.736089 C1674,288.459958 1673.6131,289.128623 1672.98553,289.489367 L1639.50783,308.733126 C1638.88382,309.091821 1638.11618,309.091821 1637.49217,308.733126 Z" id="Star-Copy-26" fill="url(#linearGradient-2)" opacity="0.800000012"></path>
            <path d="M191.489367,415.728675 L133.011667,381.989572 C132.385674,381.628401 132,380.960621 132,380.23791 L132,312.76209 C132,312.039379 132.385674,311.371599 133.011667,311.010428 L191.489367,277.271325 C192.114806,276.910474 192.885194,276.910474 193.510633,277.271325 L251.988333,311.010428 C252.614326,311.371599 253,312.039379 253,312.76209 L253,380.23791 C253,380.960621 252.614326,381.628401 251.988333,381.989572 L193.510633,415.728675 C192.885194,416.089526 192.114806,416.089526 191.489367,415.728675 Z" id="Star-Copy-14" fill="url(#linearGradient-2)" opacity="0.699999988"></path>
            <path d="M1139.98793,184.724751 L1124.01023,175.488852 C1123.38505,175.127464 1123,174.460138 1123,173.738019 L1123,155.261981 C1123,154.539862 1123.38505,153.872536 1124.01023,153.511148 L1139.98793,144.275249 C1140.6141,143.913293 1141.3859,143.913293 1142.01207,144.275249 L1157.98977,153.511148 C1158.61495,153.872536 1159,154.539862 1159,155.261981 L1159,173.738019 C1159,174.460138 1158.61495,175.127464 1157.98977,175.488852 L1142.01207,184.724751 C1141.3859,185.086707 1140.6141,185.086707 1139.98793,184.724751 Z" id="Star-Copy-8" fill="url(#linearGradient-3)" opacity="0.600000024"></path>
            <path d="M1702.98793,72.7247506 L1687.01023,63.4888519 C1686.38505,63.1274644 1686,62.4601385 1686,61.7380189 L1686,43.2619811 C1686,42.5398615 1686.38505,41.8725356 1687.01023,41.5111481 L1702.98793,32.2752494 C1703.6141,31.9132934 1704.3859,31.9132934 1705.01207,32.2752494 L1720.98977,41.5111481 C1721.61495,41.8725356 1722,42.5398615 1722,43.2619811 L1722,61.7380189 C1722,62.4601385 1721.61495,63.1274644 1720.98977,63.4888519 L1705.01207,72.7247506 C1704.3859,73.0867066 1703.6141,73.0867066 1702.98793,72.7247506 Z" id="Star-Copy-23" fill="url(#linearGradient-3)" opacity="0.600000024"></path>
            <path d="M1551.98793,532.724751 L1536.01023,523.488852 C1535.38505,523.127464 1535,522.460138 1535,521.738019 L1535,503.261981 C1535,502.539862 1535.38505,501.872536 1536.01023,501.511148 L1551.98793,492.275249 C1552.6141,491.913293 1553.3859,491.913293 1554.01207,492.275249 L1569.98977,501.511148 C1570.61495,501.872536 1571,502.539862 1571,503.261981 L1571,521.738019 C1571,522.460138 1570.61495,523.127464 1569.98977,523.488852 L1554.01207,532.724751 C1553.3859,533.086707 1552.6141,533.086707 1551.98793,532.724751 Z" id="Star-Copy-27" fill="url(#linearGradient-3)" opacity="0.600000024"></path>
            <path d="M463.741083,515.657753 L444.222886,504.169182 C443.465183,503.723191 443,502.909596 443,502.030379 L443,478.969621 C443,478.090404 443.465183,477.276809 444.222886,476.830818 L463.741083,465.342247 C464.518059,464.884913 465.481941,464.884913 466.258917,465.342247 L485.777114,476.830818 C486.534817,477.276809 487,478.090404 487,478.969621 L487,502.030379 C487,502.909596 486.534817,503.723191 485.777114,504.169182 L466.258917,515.657753 C465.481941,516.115087 464.518059,516.115087 463.741083,515.657753 Z" id="Star-Copy-29" fill="url(#linearGradient-3)" opacity="0.600000024"></path>
            <path d="M378.987932,372.724751 L363.010232,363.488852 C362.385048,363.127464 362,362.460138 362,361.738019 L362,343.261981 C362,342.539862 362.385048,341.872536 363.010232,341.511148 L378.987932,332.275249 C379.6141,331.913293 380.3859,331.913293 381.012068,332.275249 L396.989768,341.511148 C397.614952,341.872536 398,342.539862 398,343.261981 L398,361.738019 C398,362.460138 397.614952,363.127464 396.989768,363.488852 L381.012068,372.724751 C380.3859,373.086707 379.6141,373.086707 378.987932,372.724751 Z" id="Star-Copy-13" fill="url(#linearGradient-3)" opacity="0.600000024"></path>
            <path d="M881.987932,532.724751 L866.010232,523.488852 C865.385048,523.127464 865,522.460138 865,521.738019 L865,503.261981 C865,502.539862 865.385048,501.872536 866.010232,501.511148 L881.987932,492.275249 C882.6141,491.913293 883.3859,491.913293 884.012068,492.275249 L899.989768,501.511148 C900.614952,501.872536 901,502.539862 901,503.261981 L901,521.738019 C901,522.460138 900.614952,523.127464 899.989768,523.488852 L884.012068,532.724751 C883.3859,533.086707 882.6141,533.086707 881.987932,532.724751 Z" id="Star-Copy-25" fill="url(#linearGradient-3)" opacity="0.600000024"></path>
            <path d="M727.987932,71.7247506 L712.010232,62.4888519 C711.385048,62.1274644 711,61.4601385 711,60.7380189 L711,42.2619811 C711,41.5398615 711.385048,40.8725356 712.010232,40.5111481 L727.987932,31.2752494 C728.6141,30.9132934 729.3859,30.9132934 730.012068,31.2752494 L745.989768,40.5111481 C746.614952,40.8725356 747,41.5398615 747,42.2619811 L747,60.7380189 C747,61.4601385 746.614952,62.1274644 745.989768,62.4888519 L730.012068,71.7247506 C729.3859,72.0867066 728.6141,72.0867066 727.987932,71.7247506 Z" id="Star-Copy-30" fill="url(#linearGradient-3)" opacity="0.600000024"></path>
            <path d="M1182.48937,359.728675 L1124.01167,325.989572 C1123.38567,325.628401 1123,324.960621 1123,324.23791 L1123,256.76209 C1123,256.039379 1123.38567,255.371599 1124.01167,255.010428 L1182.48937,221.271325 C1183.11481,220.910474 1183.88519,220.910474 1184.51063,221.271325 L1242.98833,255.010428 C1243.61433,255.371599 1244,256.039379 1244,256.76209 L1244,324.23791 C1244,324.960621 1243.61433,325.628401 1242.98833,325.989572 L1184.51063,359.728675 C1183.88519,360.089526 1183.11481,360.089526 1182.48937,359.728675 Z" id="Star-Copy-6" fill="url(#linearGradient-2)" opacity="0.300000012"></path>
            <path d="M683.489367,560.728675 L625.011667,526.989572 C624.385674,526.628401 624,525.960621 624,525.23791 L624,457.76209 C624,457.039379 624.385674,456.371599 625.011667,456.010428 L683.489367,422.271325 C684.114806,421.910474 684.885194,421.910474 685.510633,422.271325 L743.988333,456.010428 C744.614326,456.371599 745,457.039379 745,457.76209 L745,525.23791 C745,525.960621 744.614326,526.628401 743.988333,526.989572 L685.510633,560.728675 C684.885194,561.089526 684.114806,561.089526 683.489367,560.728675 Z" id="Star-Copy-21" fill="url(#linearGradient-2)" opacity="0.300000012"></path>
        </g>
    </g>
</svg>