<?xml version="1.0" encoding="UTF-8"?>
<svg width="102px" height="109px" viewBox="0 0 102 109" version="1.1" xmlns="http://www.w3.org/2000/svg" xmlns:xlink="http://www.w3.org/1999/xlink">
    <!-- Generator: Sketch 48 (47235) - http://www.bohemiancoding.com/sketch -->
    <title>Group 27 Copy 8</title>
    <desc>Created with Sketch.</desc>
    <defs>
        <path d="M6.56,0 L52.532437,-4.4408921e-16 C53.9462859,3.06344135e-15 55.092437,1.14615104 55.092437,2.56 L55.092437,89.5151515 L4,89.5151515 L4,2.56 C4,1.14615104 5.14615104,2.03607668e-15 6.56,1.77635684e-15 Z M12.942521,11.5090909 C12.5890588,11.5090909 12.302521,11.7956287 12.302521,12.1490909 L12.302521,19.8206061 C12.302521,20.1740683 12.5890588,20.4606061 12.942521,20.4606061 L26.3515966,20.4606061 C26.7050589,20.4606061 26.9915966,20.1740683 26.9915966,19.8206061 L26.9915966,12.1490909 C26.9915966,11.7956287 26.7050589,11.5090909 26.3515966,11.5090909 L12.942521,11.5090909 Z M12.942521,26.2151515 C12.5890588,26.2151515 12.302521,26.5016893 12.302521,26.8551515 L12.302521,34.5266667 C12.302521,34.8801289 12.5890588,35.1666667 12.942521,35.1666667 L26.3515966,35.1666667 C26.7050589,35.1666667 26.9915966,34.8801289 26.9915966,34.5266667 L26.9915966,26.8551515 C26.9915966,26.5016893 26.7050589,26.2151515 26.3515966,26.2151515 L12.942521,26.2151515 Z M12.942521,40.2818182 C12.5890588,40.2818182 12.302521,40.5683559 12.302521,40.9218182 L12.302521,48.5933333 C12.302521,48.9467956 12.5890588,49.2333333 12.942521,49.2333333 L26.3515966,49.2333333 C26.7050589,49.2333333 26.9915966,48.9467956 26.9915966,48.5933333 L26.9915966,40.9218182 C26.9915966,40.5683559 26.7050589,40.2818182 26.3515966,40.2818182 L12.942521,40.2818182 Z M12.942521,54.9878788 C12.5890588,54.9878788 12.302521,55.2744165 12.302521,55.6278788 L12.302521,63.2993939 C12.302521,63.6528562 12.5890588,63.9393939 12.942521,63.9393939 L26.3515966,63.9393939 C26.7050589,63.9393939 26.9915966,63.6528562 26.9915966,63.2993939 L26.9915966,55.6278788 C26.9915966,55.2744165 26.7050589,54.9878788 26.3515966,54.9878788 L12.942521,54.9878788 Z M12.942521,69.0545455 C12.5890588,69.0545455 12.302521,69.3410832 12.302521,69.6945455 L12.302521,77.3660606 C12.302521,77.7195228 12.5890588,78.0060606 12.942521,78.0060606 L26.3515966,78.0060606 C26.7050589,78.0060606 26.9915966,77.7195228 26.9915966,77.3660606 L26.9915966,69.6945455 C26.9915966,69.3410832 26.7050589,69.0545455 26.3515966,69.0545455 L12.942521,69.0545455 Z M32.1021849,11.5090909 C31.7487226,11.5090909 31.4621849,11.7956287 31.4621849,12.1490909 L31.4621849,19.8206061 C31.4621849,20.1740683 31.7487226,20.4606061 32.1021849,20.4606061 L45.5112605,20.4606061 C45.8647227,20.4606061 46.1512605,20.1740683 46.1512605,19.8206061 L46.1512605,12.1490909 C46.1512605,11.7956287 45.8647227,11.5090909 45.5112605,11.5090909 L32.1021849,11.5090909 Z M32.1021849,26.2151515 C31.7487226,26.2151515 31.4621849,26.5016893 31.4621849,26.8551515 L31.4621849,34.5266667 C31.4621849,34.8801289 31.7487226,35.1666667 32.1021849,35.1666667 L45.5112605,35.1666667 C45.8647227,35.1666667 46.1512605,34.8801289 46.1512605,34.5266667 L46.1512605,26.8551515 C46.1512605,26.5016893 45.8647227,26.2151515 45.5112605,26.2151515 L32.1021849,26.2151515 Z M32.1021849,40.2818182 C31.7487226,40.2818182 31.4621849,40.5683559 31.4621849,40.9218182 L31.4621849,48.5933333 C31.4621849,48.9467956 31.7487226,49.2333333 32.1021849,49.2333333 L45.5112605,49.2333333 C45.8647227,49.2333333 46.1512605,48.9467956 46.1512605,48.5933333 L46.1512605,40.9218182 C46.1512605,40.5683559 45.8647227,40.2818182 45.5112605,40.2818182 L32.1021849,40.2818182 Z M32.1021849,54.9878788 C31.7487226,54.9878788 31.4621849,55.2744165 31.4621849,55.6278788 L31.4621849,63.2993939 C31.4621849,63.6528562 31.7487226,63.9393939 32.1021849,63.9393939 L45.5112605,63.9393939 C45.8647227,63.9393939 46.1512605,63.6528562 46.1512605,63.2993939 L46.1512605,55.6278788 C46.1512605,55.2744165 45.8647227,54.9878788 45.5112605,54.9878788 L32.1021849,54.9878788 Z M32.1021849,69.0545455 C31.7487226,69.0545455 31.4621849,69.3410832 31.4621849,69.6945455 L31.4621849,77.3660606 C31.4621849,77.7195228 31.7487226,78.0060606 32.1021849,78.0060606 L45.5112605,78.0060606 C45.8647227,78.0060606 46.1512605,77.7195228 46.1512605,77.3660606 L46.1512605,69.6945455 C46.1512605,69.3410832 45.8647227,69.0545455 45.5112605,69.0545455 L32.1021849,69.0545455 Z" id="path-1"></path>
        <filter x="-23.5%" y="-13.4%" width="147.0%" height="126.8%" filterUnits="objectBoundingBox" id="filter-2">
            <feOffset dx="0" dy="0" in="SourceAlpha" result="shadowOffsetOuter1"></feOffset>
            <feGaussianBlur stdDeviation="4" in="shadowOffsetOuter1" result="shadowBlurOuter1"></feGaussianBlur>
            <feColorMatrix values="0 0 0 0 0.2   0 0 0 0 0.733333333   0 0 0 0 1  0 0 0 1 0" type="matrix" in="shadowBlurOuter1"></feColorMatrix>
        </filter>
        <path d="M60,42 L79.1542857,42 C80.5681347,42 81.7142857,43.146151 81.7142857,44.56 L81.7142857,89.3151515 L60,89.3151515 L60,42 Z" id="path-3"></path>
        <filter x="-55.3%" y="-25.4%" width="210.5%" height="150.7%" filterUnits="objectBoundingBox" id="filter-4">
            <feOffset dx="0" dy="0" in="SourceAlpha" result="shadowOffsetOuter1"></feOffset>
            <feGaussianBlur stdDeviation="4" in="shadowOffsetOuter1" result="shadowBlurOuter1"></feGaussianBlur>
            <feColorMatrix values="0 0 0 0 0.2   0 0 0 0 0.733333333   0 0 0 0 1  0 0 0 1 0" type="matrix" in="shadowBlurOuter1"></feColorMatrix>
        </filter>
        <rect id="path-5" x="0" y="89" width="86" height="4" rx="1"></rect>
        <filter x="-14.0%" y="-300.0%" width="127.9%" height="700.0%" filterUnits="objectBoundingBox" id="filter-6">
            <feOffset dx="0" dy="0" in="SourceAlpha" result="shadowOffsetOuter1"></feOffset>
            <feGaussianBlur stdDeviation="4" in="shadowOffsetOuter1" result="shadowBlurOuter1"></feGaussianBlur>
            <feColorMatrix values="0 0 0 0 0.2   0 0 0 0 0.733333333   0 0 0 0 1  0 0 0 1 0" type="matrix" in="shadowBlurOuter1"></feColorMatrix>
        </filter>
    </defs>
    <g id="宽屏-风格1" stroke="none" stroke-width="1" fill="none" fill-rule="evenodd" transform="translate(-319.000000, -1051.000000)">
        <g id="Group-27-Copy-8" transform="translate(327.000000, 1059.000000)">
            <g id="Combined-Shape">
                <use fill="black" fill-opacity="1" filter="url(#filter-2)" xlink:href="#path-1"></use>
                <use fill="#CCE8FF" fill-rule="evenodd" xlink:href="#path-1"></use>
            </g>
            <g id="Rectangle-34-Copy">
                <use fill="black" fill-opacity="1" filter="url(#filter-4)" xlink:href="#path-3"></use>
                <use fill="#CCE8FF" fill-rule="evenodd" xlink:href="#path-3"></use>
            </g>
            <g id="Rectangle-36">
                <use fill="black" fill-opacity="1" filter="url(#filter-6)" xlink:href="#path-5"></use>
                <use fill="#CCE8FF" fill-rule="evenodd" xlink:href="#path-5"></use>
            </g>
        </g>
    </g>
</svg>