<?xml version="1.0" encoding="UTF-8"?>
<svg width="200px" height="108px" viewBox="0 0 200 108" version="1.1" xmlns="http://www.w3.org/2000/svg" xmlns:xlink="http://www.w3.org/1999/xlink">
    <!-- Generator: Sketch 49.2 (51160) - http://www.bohemiancoding.com/sketch -->
    <title>Path 5</title>
    <desc>Created with Sketch.</desc>
    <defs>
        <linearGradient x1="50%" y1="0%" x2="50%" y2="100%" id="linearGradient-1">
            <stop stop-color="#0053A8" offset="0%"></stop>
            <stop stop-color="#00296F" stop-opacity="0.8" offset="100%"></stop>
        </linearGradient>
        <linearGradient x1="1.76683182%" y1="3.71035307%" x2="129.301469%" y2="76.5511118%" id="linearGradient-2">
            <stop stop-color="#65CCF8" offset="0%"></stop>
            <stop stop-color="#65CCF8" stop-opacity="0" offset="100%"></stop>
        </linearGradient>
        <path d="M705.660245,1950.90512 L702.425109,1922.07397 C702.385756,1921.72325 702.164454,1921.41925 701.842795,1921.27404 L688.342426,1915.17955 C688.088816,1915.06506 687.798972,1915.06142 687.542565,1915.1695 L667.402382,1923.65871 C667.279445,1923.71053 667.147382,1923.73722 667.01397,1923.73722 L654.655049,1923.73722 C654.322444,1923.73722 654.011606,1923.90259 653.825747,1924.17842 L649.093335,1931.2017 C648.907476,1931.47753 648.596638,1931.6429 648.264033,1931.6429 L635.848158,1931.6429 C635.799463,1931.6429 635.750833,1931.63934 635.702656,1931.63226 L613.706767,1928.3974 C613.26201,1928.33199 612.828271,1928.5714 612.646581,1928.98259 L608.243344,1938.94767 C608.113654,1939.24117 607.850995,1939.45461 607.537166,1939.52152 L597.228477,1941.71926 C596.876699,1941.79425 596.592298,1942.05239 596.483674,1942.39528 L593.253169,1952.59297 C593.106717,1953.05528 593.313072,1953.55603 593.742716,1953.78093 L607.078107,1960.76144 C607.567409,1961.01757 607.756433,1961.62186 607.500305,1962.11116 C607.488111,1962.13446 607.475003,1962.15726 607.461012,1962.17952 L603.973552,1967.72847 C603.790555,1968.01963 603.470783,1968.19634 603.126884,1968.19634 L595.980963,1968.19634 C595.428679,1968.19634 594.980963,1968.64406 594.980963,1969.19634 C594.980963,1969.50975 595.127898,1969.80504 595.377904,1969.99404 L621.93426,1990.07066 C622.217877,1990.28507 622.594013,1990.33277 622.922173,1990.19594 L632.551484,1986.1808 C632.886517,1986.0411 633.270943,1986.09392 633.555878,1986.31881 L668.76135,2014.10502 C668.937821,2014.2443 669.156077,2014.32005 669.38089,2014.32005 L693.808427,2014.32005 C693.981003,2014.32005 694.150642,2014.27539 694.300846,2014.19041 L705.166252,2008.04314 C705.511464,2007.84783 705.939479,2007.875 706.257217,2008.11241 L725.189537,2022.25797 C725.362371,2022.38711 725.572334,2022.45688 725.788083,2022.45688 L742.394071,2022.45688 C742.646991,2022.45688 742.890516,2022.36105 743.0756,2022.18868 L758.072364,2008.22195 C758.392009,2007.92426 758.867882,2007.86848 759.247707,2008.08418 L769.743011,2014.0443 C770.044795,2014.21568 770.413857,2014.21834 770.718076,2014.05132 L792.481251,2002.10316 C792.801172,2001.92752 793,2001.59154 793,2001.22658 L793,1977.45967 C793,1977.24939 792.933709,1977.04445 792.810552,1976.87401 L782.088605,1962.03503 C781.776314,1961.60283 781.179838,1961.49168 780.73284,1961.7824 L767.099712,1970.64913 C766.775743,1970.85984 766.359362,1970.86501 766.030262,1970.66241 L751.003441,1961.41173 C750.845801,1961.31469 750.664319,1961.2633 750.479203,1961.2633 L738.84746,1961.2633 C738.751937,1961.2633 738.656906,1961.24962 738.565265,1961.22266 L706.371814,1951.75296 C705.985579,1951.63935 705.705139,1951.3052 705.660245,1950.90512 Z" id="path-3"></path>
    </defs>
    <g id="Page-1" stroke="none" stroke-width="1" fill="none" fill-rule="evenodd">
        <g id="左侧图" transform="translate(-593.000000, -1915.000000)">
            <g id="Path-5">
                <use fill="url(#linearGradient-1)" fill-rule="evenodd" xlink:href="#path-3"></use>
                <path stroke="url(#linearGradient-2)" stroke-width="5" d="M700.035917,1923.2013 L687.910408,1917.72746 L668.373412,1925.96242 C667.943132,1926.14379 667.480911,1926.23722 667.01397,1926.23722 L655.45307,1926.23722 L651.166593,1932.5987 C650.516084,1933.56411 649.428151,1934.1429 648.264033,1934.1429 L635.848158,1934.1429 C635.677725,1934.1429 635.507521,1934.13045 635.338902,1934.10565 L614.472059,1931.03684 L610.530055,1939.95809 C610.07614,1940.98536 609.156832,1941.7324 608.058433,1941.96657 L598.603363,1943.98232 L596.016196,1952.1492 L608.237513,1958.54654 C609.95007,1959.44299 610.611655,1961.55801 609.715204,1963.27057 C609.649587,1963.39201 609.649587,1963.39201 609.57768,1963.50983 L606.09022,1969.05877 C605.449732,1970.07786 604.33053,1970.69634 603.126884,1970.69634 L600.452408,1970.69634 L622.754919,1987.55705 L631.589348,1983.87335 C632.761962,1983.38441 634.107455,1983.56929 635.104729,1984.3564 L669.901522,2011.82005 L693.413514,2011.82005 L703.935205,2005.86724 C705.143447,2005.18366 706.641499,2005.27878 707.753581,2006.10969 L726.286569,2019.95688 L741.803761,2019.95688 L756.368542,2006.39247 C757.487299,2005.35056 759.152856,2005.15532 760.482243,2005.91026 L770.249186,2011.45676 L790.5,2000.3389 L790.5,1977.94488 L780.89865,1964.6568 L768.462745,1972.74488 C767.32885,1973.48234 765.871519,1973.50043 764.719669,1972.79134 L750.054507,1963.7633 L738.84746,1963.7633 C738.513128,1963.7633 738.180522,1963.7154 737.859778,1963.62105 L705.666327,1954.15136 C704.314504,1953.75372 703.332964,1952.58419 703.175837,1951.18389 L700.035917,1923.2013 Z"></path>
            </g>
        </g>
    </g>
</svg>