<?xml version="1.0" encoding="UTF-8"?>
<svg width="1126px" height="699px" viewBox="0 0 1126 699" version="1.1" xmlns="http://www.w3.org/2000/svg" xmlns:xlink="http://www.w3.org/1999/xlink">
    <!-- Generator: Sketch 48 (47235) - http://www.bohemiancoding.com/sketch -->
    <title>Group 18</title>
    <desc>Created with Sketch.</desc>
    <defs>
        <linearGradient x1="50%" y1="0%" x2="50%" y2="100%" id="linearGradient-1">
            <stop stop-color="#0053A8" stop-opacity="0.6" offset="0%"></stop>
            <stop stop-color="#00296F" stop-opacity="0.6" offset="100%"></stop>
        </linearGradient>
        <linearGradient x1="1.76683182%" y1="3.71035307%" x2="42.6219807%" y2="73.6888807%" id="linearGradient-2">
            <stop stop-color="#65CCF8" offset="0%"></stop>
            <stop stop-color="#65CCF8" stop-opacity="0" offset="100%"></stop>
        </linearGradient>
        <path d="M40.5563492,307.863593 L40.5563492,42.1404006 L82.4067498,0.29 L1080.69275,0.29 L1123.85225,43.4494999 L1124.00635,43.2954006 L1124.00635,652.109099 L1123.85225,651.955 L1079.96225,695.845 L83.1372499,695.845 L40.5563492,653.264099 L40.5563492,388.716407 L0.837049096,348.997107 C0.446524804,348.606582 0.446524804,347.973418 0.837049096,347.582893 L40.5563492,307.863593 Z" id="path-3"></path>
        <linearGradient x1="98.3974534%" y1="95.7569046%" x2="64.2999597%" y2="50%" id="linearGradient-4">
            <stop stop-color="#69D2FF" offset="0%"></stop>
            <stop stop-color="#65CCF8" stop-opacity="0" offset="100%"></stop>
        </linearGradient>
        <path d="M42.5,306.279386 L42.5,44.8167498 L84.7167498,2.6 L1083.00275,2.6 L1125.95,45.5472499 L1125.95,654.47725 L1082.27225,698.155 L85.4472499,698.155 L42.5,655.20775 L42.5,390.300614 C42.2631718,390.28733 42.0301675,390.190225 41.8492424,390.0093 L0.837049096,348.997107 C0.446524804,348.606582 0.446524804,347.973418 0.837049096,347.582893 L41.8492424,306.5707 C42.0301675,306.389775 42.2631718,306.29267 42.5,306.279386 Z" id="path-5"></path>
    </defs>
    <g id="宽屏-风格1" stroke="none" stroke-width="1" fill="none" fill-rule="evenodd" transform="translate(-8294.000000, -305.000000)">
        <g id="Group-18" transform="translate(8294.000000, 305.000000)">
            <g id="Combined-Shape-Copy-30">
                <use fill-opacity="0.5" fill="url(#linearGradient-1)" fill-rule="evenodd" xlink:href="#path-3"></use>
                <path stroke="url(#linearGradient-2)" stroke-width="4.62" d="M42.8663492,43.097234 L42.8663492,42.1404006 L42.1897659,43.7738173 L42.8663492,43.097234 Z M83.3635832,2.6 L84.0401665,1.92341666 L82.4067498,2.6 L83.3635832,2.6 Z M1079.73592,2.6 L1080.69275,2.6 L1079.05933,1.92341666 L1079.73592,2.6 Z M1121.69635,44.5604325 L1123.85225,46.7163332 L1125.63977,44.9288173 L1124.00635,43.2954006 L1121.69635,43.2954006 L1121.69635,44.5604325 Z M1121.69635,650.844067 L1121.69635,652.109099 L1124.00635,652.109099 L1125.63977,650.475683 L1123.85225,648.688167 L1121.69635,650.844067 Z M1079.00542,693.535 L1078.32883,694.211583 L1079.96225,693.535 L1079.00542,693.535 Z M84.0940833,693.535 L83.1372499,693.535 L84.7706666,694.211583 L84.0940833,693.535 Z M42.8663492,652.307266 L42.1897659,651.630683 L42.8663492,653.264099 L42.8663492,652.307266 Z M3.39677564,348.29 L2.47046576,347.36369 C2.98205258,347.875277 2.98205258,348.704723 2.47046576,349.21631 L3.39677564,348.29 Z"></path>
            </g>
            <g id="Combined-Shape">
                <use fill-opacity="0.5" fill="url(#linearGradient-1)" fill-rule="evenodd" xlink:href="#path-5"></use>
                <path stroke="url(#linearGradient-4)" stroke-width="4.62" d="M43.1290436,308.557732 L3.39677564,348.29 L43.1290436,388.022268 L44.81,388.116558 L44.81,654.250917 L86.4040833,695.845 L1081.31542,695.845 L1123.64,653.520417 L1123.64,46.5040833 L1082.04592,4.91 L85.6735832,4.91 L44.81,45.7735832 L44.81,308.463442 L43.1290436,308.557732 Z"></path>
            </g>
        </g>
    </g>
</svg>