<?xml version="1.0" encoding="UTF-8"?>
<svg width="636px" height="19px" viewBox="0 0 636 19" version="1.1" xmlns="http://www.w3.org/2000/svg" xmlns:xlink="http://www.w3.org/1999/xlink">
    <!-- Generator: Sketch 48 (47235) - http://www.bohemiancoding.com/sketch -->
    <title>Combined Shape</title>
    <desc>Created with Sketch.</desc>
    <defs></defs>
    <g id="宽屏-风格1" stroke="none" stroke-width="1" fill="none" fill-rule="evenodd" transform="translate(-8577.000000, -905.000000)" opacity="0.200000003">
        <g id="Group-3" transform="translate(8407.000000, 372.000000)" fill="#66CCFF">
            <g id="Group-19-Copy-6" transform="translate(0.830500, 512.832500)">
                <path d="M500.9575,20.223 L568.3675,20.223 L550.3915,38.199 L482.9815,38.199 L500.9575,20.223 Z M343.6675,20.223 L411.0775,20.223 L393.1015,38.199 L325.6915,38.199 L343.6675,20.223 Z M266.146,20.223 L333.556,20.223 L315.58,38.199 L248.17,38.199 L266.146,20.223 Z M187.146,20.223 L254.556,20.223 L236.58,38.199 L169.17,38.199 L187.146,20.223 Z M736.8925,20.223 L804.3025,20.223 L786.3265,38.199 L718.9165,38.199 L736.8925,20.223 Z M579.6025,20.223 L647.0125,20.223 L629.0365,38.199 L561.6265,38.199 L579.6025,20.223 Z M422.3125,20.223 L489.7225,20.223 L471.7465,38.199 L404.3365,38.199 L422.3125,20.223 Z M658.2475,20.223 L725.6575,20.223 L707.6815,38.199 L640.2715,38.199 L658.2475,20.223 Z" id="Combined-Shape"></path>
            </g>
        </g>
    </g>
</svg>