<?xml version="1.0" encoding="UTF-8"?>
<svg width="576px" height="18px" viewBox="0 0 576 18" version="1.1" xmlns="http://www.w3.org/2000/svg" xmlns:xlink="http://www.w3.org/1999/xlink">
    <!-- Generator: Sketch 48 (47235) - http://www.bohemiancoding.com/sketch -->
    <title>Combined Shape</title>
    <desc>Created with Sketch.</desc>
    <defs></defs>
    <g id="宽屏-风格1" stroke="none" stroke-width="1" fill="none" fill-rule="evenodd" transform="translate(-8878.000000, -45.000000)">
        <path d="M8897,45 L8908,45 L8889,63 L8878,63 L8897,45 Z M9209,45 L9220,45 L9201,63 L9190,63 L9209,45 Z M9053,45 L9064,45 L9045,63 L9034,63 L9053,45 Z M9287,45 L9298,45 L9279,63 L9268,63 L9287,45 Z M8975,45 L8986,45 L8967,63 L8956,63 L8975,45 Z M9131,45 L9142,45 L9123,63 L9112,63 L9131,45 Z M9365,45 L9376,45 L9357,63 L9346,63 L9365,45 Z M9443,45 L9454,45 L9435,63 L9424,63 L9443,45 Z" id="Combined-Shape" fill="#063985"></path>
    </g>
</svg>