<?xml version="1.0" encoding="UTF-8"?>
<svg width="240px" height="240px" viewBox="0 0 240 240" version="1.1" xmlns="http://www.w3.org/2000/svg" xmlns:xlink="http://www.w3.org/1999/xlink">
    <!-- Generator: Sketch 49.2 (51160) - http://www.bohemiancoding.com/sketch -->
    <title>信息科技</title>
    <desc>Created with Sketch.</desc>
    <defs>
        <linearGradient x1="84.658082%" y1="89.7318498%" x2="22.0129226%" y2="9.95633083%" id="linearGradient-1">
            <stop stop-color="#0097FF" offset="0%"></stop>
            <stop stop-color="#00FFFF" offset="100%"></stop>
        </linearGradient>
    </defs>
    <g id="Page-1" stroke="none" stroke-width="1" fill="none" fill-rule="evenodd">
        <g id="7大产业icon" transform="translate(-829.000000, -984.000000)" fill="url(#linearGradient-1)" fill-rule="nonzero">
            <path d="M905.880233,1027.32067 C901.024044,1033.81042 897.599039,1041.4296 896.070545,1049.7051 C891.709706,1048.85053 887.518643,1047.33032 883.612263,1045.18277 C889.997462,1038.09155 897.516221,1032.04279 905.880233,1027.32067 Z M877.076439,1053.36406 C882.677464,1056.69279 888.787297,1058.94594 895.173532,1060.05931 L895.173532,1098.82393 L861.16313,1098.82393 C862.146066,1081.96806 867.892021,1066.37101 877.076439,1053.36406 Z M877.075922,1154.6349 C867.892021,1141.62847 862.146066,1126.03194 861.16313,1109.17607 L895.173532,1109.17607 L895.173532,1147.94069 C888.787815,1149.05355 882.676947,1151.30669 877.075922,1154.6349 Z M883.611745,1162.81672 C887.518125,1160.66865 891.709706,1159.14895 896.070545,1158.29438 C897.599039,1166.56988 901.024044,1174.18906 905.880233,1180.67933 C897.515704,1175.95721 889.996945,1169.90793 883.611745,1162.81672 Z M943.82393,1191.65053 C925.270308,1189.43776 910.267469,1175.50378 906.464611,1157.47967 L943.82393,1157.47967 L943.82393,1191.65053 Z M943.82393,1147.12753 L905.525672,1147.12753 L905.525672,1109.17607 L943.82393,1109.17607 L943.82393,1147.12753 Z M943.82393,1098.82393 L905.525672,1098.82393 L905.525672,1060.87247 L943.82393,1060.87247 L943.82393,1098.82393 Z M943.82393,1050.51981 L906.464611,1050.51981 C910.267469,1032.4957 925.270308,1018.56172 943.82393,1016.34895 L943.82393,1050.51981 Z M1020.92408,1053.36458 C1030.10798,1066.37153 1035.85393,1081.96806 1036.83687,1098.82393 L1002.82647,1098.82393 L1002.82647,1060.05931 C1009.2127,1058.94645 1015.32305,1056.69331 1020.92408,1053.36458 Z M1014.38825,1045.18328 C1010.48187,1047.33135 1006.29029,1048.85105 1001.92945,1049.70562 C1000.40096,1041.43012 996.975956,1033.81094 992.119767,1027.32067 C1000.4843,1032.04279 1008.00306,1038.09207 1014.38825,1045.18328 Z M954.17607,1016.34895 C972.729692,1018.56172 987.732531,1032.4957 991.535389,1050.51981 L954.17607,1050.51981 L954.17607,1016.34895 Z M954.17607,1060.87247 L992.474328,1060.87247 L992.474328,1098.82393 L954.17607,1098.82393 L954.17607,1060.87247 Z M954.17607,1109.17607 L992.474328,1109.17607 L992.474328,1147.12753 L954.17607,1147.12753 L954.17607,1109.17607 Z M954.17607,1191.65105 L954.17607,1157.48019 L991.535389,1157.48019 C987.732531,1175.5043 972.729692,1189.43828 954.17607,1191.65105 Z M992.119767,1180.67933 C996.975956,1174.18958 1000.40096,1166.5704 1001.92945,1158.2949 C1006.29029,1159.14947 1010.48136,1160.66968 1014.38774,1162.81723 C1008.00254,1169.90845 1000.48378,1175.95721 992.119767,1180.67933 Z M1020.92356,1154.63594 C1015.32254,1151.30721 1009.2127,1149.05406 1002.82647,1147.94069 L1002.82647,1109.17607 L1036.83687,1109.17607 C1035.85393,1126.03194 1030.10798,1141.62899 1020.92356,1154.63594 Z M1019.31203,1195.515 C1020.80641,1197.62859 1020.30391,1200.55406 1018.19031,1202.04844 C997.877031,1216.40953 973.951562,1224 949,1224 C935.19625,1224 921.661094,1221.67359 908.77,1217.08547 C906.331094,1216.21734 905.0575,1213.53656 905.925625,1211.09766 C906.793281,1208.65828 909.473594,1207.38469 911.913437,1208.25328 C923.7925,1212.48141 936.270625,1214.625 949,1214.625 C972.0025,1214.625 994.056719,1207.62891 1012.77812,1194.39328 C1014.89219,1192.89797 1017.81719,1193.40141 1019.31203,1195.515 Z M993.905781,992.690156 C996.30625,993.659531 997.466406,996.391406 996.496562,998.791875 C995.527187,1001.19281 992.795312,1002.35344 990.394844,1001.38266 C977.240781,996.069375 963.313281,993.375 949,993.375 C925.406406,993.375 902.889063,1000.70344 883.882188,1014.56859 C883.04875,1015.17656 882.081719,1015.46953 881.123594,1015.46953 C879.677031,1015.46953 878.250625,1014.80203 877.332344,1013.54437 C875.807031,1011.45281 876.265938,1008.52031 878.357031,1006.995 C898.979219,991.951406 923.406719,984 949,984 C964.522187,984 979.630937,986.923594 993.905781,992.690156 Z M1045.30984,1032.42141 C1060.81891,1053.21797 1069,1077.87937 1069,1104 C1069,1119.61641 1066.04172,1134.81 1060.20766,1149.15891 C1059.4675,1150.97859 1057.71438,1152.08203 1055.86375,1152.08203 C1055.27594,1152.08203 1054.67828,1151.97047 1054.09984,1151.73562 C1051.70172,1150.76062 1050.54813,1148.02594 1051.52312,1145.62781 C1056.89922,1132.40578 1059.625,1118.4 1059.625,1104 C1059.625,1080.14578 1052.22625,1057.61156 1038.19047,1038.55594 C1035.83031,1039.68047 1033.23016,1040.27437 1030.53813,1040.27437 C1025.78031,1040.27437 1021.30703,1038.42187 1017.94281,1035.05719 C1014.57859,1031.69297 1012.72563,1027.21969 1012.72563,1022.46187 C1012.72563,1017.70406 1014.57812,1013.23078 1017.94281,1009.86656 C1021.30703,1006.50234 1025.78031,1004.64937 1030.53813,1004.64937 C1035.29594,1004.64937 1039.76922,1006.50187 1043.13344,1009.86656 C1046.49766,1013.23078 1048.35063,1017.70406 1048.35063,1022.46187 C1048.35063,1026.06469 1047.28656,1029.50297 1045.30984,1032.42141 Z M1036.50437,1028.42766 C1038.09812,1026.83391 1038.97563,1024.71516 1038.97563,1022.46141 C1038.97563,1020.20766 1038.09812,1018.08844 1036.50437,1016.49516 C1034.91062,1014.90141 1032.79187,1014.02391 1030.53813,1014.02391 C1028.28437,1014.02391 1026.16516,1014.90141 1024.57188,1016.49516 C1022.97812,1018.08891 1022.10063,1020.20766 1022.10063,1022.46141 C1022.10063,1024.71516 1022.97812,1026.83437 1024.57188,1028.42766 C1026.16563,1030.02187 1028.28437,1030.89891 1030.53813,1030.89891 C1032.79187,1030.89891 1034.91109,1030.02141 1036.50437,1028.42766 Z M877.405469,1175.59406 C882.888438,1181.0775 882.888438,1189.99875 877.405469,1195.48172 C874.664219,1198.22297 871.062812,1199.59359 867.461875,1199.59359 C863.860937,1199.59359 860.26,1198.22297 857.518281,1195.48172 C852.99625,1190.95969 852.207812,1184.10047 855.144531,1178.75859 C855.116875,1178.72578 855.085938,1178.69672 855.05875,1178.66297 C838.010781,1157.24109 829,1131.42281 829,1104 C829,1091.26828 830.985625,1078.73109 834.9025,1066.73672 C835.705938,1064.27578 838.3525,1062.93141 840.813437,1063.73578 C843.274375,1064.53922 844.617813,1067.18578 843.814375,1069.64672 C840.205,1080.69984 838.375,1092.25828 838.375,1104 C838.375,1129.14937 846.597813,1152.83156 862.15375,1172.51625 C867.235937,1170.45281 873.289375,1171.47891 877.405469,1175.59406 Z M870.776406,1188.85266 C871.661875,1187.96719 872.149375,1186.79016 872.149375,1185.53813 C872.149375,1184.28609 871.661875,1183.10906 870.776406,1182.22359 C869.890937,1181.33812 868.713906,1180.85063 867.461875,1180.85063 C866.209844,1180.85063 865.032812,1181.33812 864.147344,1182.22359 C863.261875,1183.10906 862.774375,1184.28609 862.774375,1185.53813 C862.774375,1186.79016 863.261875,1187.96719 864.147344,1188.85266 C865.032812,1189.73813 866.209844,1190.22563 867.461875,1190.22563 C868.713906,1190.22563 869.890937,1189.73813 870.776406,1188.85266 Z" id="信息科技"></path>
        </g>
    </g>
</svg>