<?xml version="1.0" encoding="UTF-8"?>
<svg width="212px" height="244px" viewBox="0 0 212 244" version="1.1" xmlns="http://www.w3.org/2000/svg" xmlns:xlink="http://www.w3.org/1999/xlink">
    <!-- Generator: Sketch 49.2 (51160) - http://www.bohemiancoding.com/sketch -->
    <title>文化创意</title>
    <desc>Created with Sketch.</desc>
    <defs>
        <linearGradient x1="100%" y1="1.11022302e-14%" x2="1.11022302e-14%" y2="100%" id="linearGradient-1">
            <stop stop-color="#0097FF" offset="0%"></stop>
            <stop stop-color="#00FFFF" offset="100%"></stop>
        </linearGradient>
        <linearGradient x1="1.11022302e-14%" y1="100%" x2="100%" y2="-5.55111512e-15%" id="linearGradient-2">
            <stop stop-color="#0097FF" offset="0%"></stop>
            <stop stop-color="#00FFFF" offset="100%"></stop>
        </linearGradient>
    </defs>
    <g id="Page-1" stroke="none" stroke-width="1" fill="none" fill-rule="evenodd">
        <g id="7大产业icon" transform="translate(-823.000000, -2249.000000)" fill-rule="nonzero">
            <g id="文化创意" transform="translate(823.000000, 2249.000000)">
                <path d="M70.7559503,136.339306 L70.7559503,98.3783002 L70.9286815,95.0423959 C89.7793123,85.9040941 101.096178,66.7272783 101.096178,45.312471 C101.096178,33.305897 97.2414966,22.1851312 90.701326,13.1116396 C101.990439,7.36216457 114.780684,4.11888548 128.331721,4.11888548 C174.031062,4.11888548 211.077077,41.0043565 211.077077,86.5044796 L211.077077,166.143624 L189.563337,166.143624 C189.258721,166.143624 189.011649,166.389622 189.011649,166.692914 L189.011649,193.605489 C189.011649,208.772197 176.662801,221.067354 161.429863,221.067354 L106.266292,221.067354 L106.266292,243.736527 L45.5863642,243.736527 L45.5863642,136.324052 L70.7559503,136.339306 Z" id="Combined-Shape" fill="url(#linearGradient-1)"></path>
                <path d="M45.5863642,0 C70.6800082,0 91.0961783,20.3274042 91.0961783,45.312471 C91.0961783,64.9844068 78.4337393,82.2331596 59.9286815,88.3258091 L59.9286815,104.355086 L29.5889814,104.355086 L29.5889814,87.7328915 C21.5887062,84.7283548 14.4558226,79.4415056 9.27047858,72.6182217 C3.25575407,64.7037171 0.0765500794,55.2611879 0.0765500794,45.3119454 C0.0765500794,20.3274042 20.4921923,0 45.5863642,0 Z M13.8671789,45.3119454 L22.1414506,45.3119454 C22.1414506,32.4406911 32.6583756,21.9694918 45.5858363,21.9694918 L45.5858363,13.7306695 C28.0959909,13.7306695 13.8671789,27.8981428 13.8671789,45.3119454 Z M30.4162502,107.10101 L60.7559503,107.10101 L60.7559503,115.339306 L30.4162502,115.339306 L30.4162502,107.10101 Z M30.4162502,118.085755 L60.7559503,118.085755 L60.7559503,126.324052 L30.4162502,126.324052 L30.4162502,118.085755 Z" id="Combined-Shape" fill="url(#linearGradient-2)"></path>
            </g>
        </g>
    </g>
</svg>