<?xml version="1.0" encoding="UTF-8"?>
<svg width="222px" height="260px" viewBox="0 0 222 260" version="1.1" xmlns="http://www.w3.org/2000/svg" xmlns:xlink="http://www.w3.org/1999/xlink">
    <!-- Generator: Sketch 49.2 (51160) - http://www.bohemiancoding.com/sketch -->
    <title>Group</title>
    <desc>Created with Sketch.</desc>
    <defs>
        <linearGradient x1="100%" y1="1.11022302e-14%" x2="1.11022302e-14%" y2="100%" id="linearGradient-1">
            <stop stop-color="#0097FF" offset="0%"></stop>
            <stop stop-color="#00FFFF" offset="100%"></stop>
        </linearGradient>
        <path d="M85.146228,63 L24,63 C23.4477153,63 23,63.4477153 23,64 L23,122.893286 C23,123.445571 23.4477153,123.893286 24,123.893286 L85.146228,123.893286 L85.146228,63 Z M98.8794906,63 L98.8794906,123.893286 L159.332626,123.893286 C159.884911,123.893286 160.332626,123.445571 160.332626,122.893286 L160.332626,64 C160.332626,63.4477153 159.884911,63 159.332626,63 L98.8794906,63 Z M1,0 L181.652392,0 C182.204677,-1.01453063e-16 182.652392,0.44771525 182.652392,1 L182.652392,139.010612 C182.652392,139.562897 182.204677,140.010612 181.652392,140.010612 L1,140.010612 C0.44771525,140.010612 6.76353751e-17,139.562897 0,139.010612 L0,1 C-6.76353751e-17,0.44771525 0.44771525,1.01453063e-16 1,0 Z M111.552764,86.2311558 L120.60804,86.2311558 C121.160325,86.2311558 121.60804,86.678871 121.60804,87.2311558 L121.60804,102.919598 C121.60804,103.471883 121.160325,103.919598 120.60804,103.919598 L111.552764,103.919598 C111.000479,103.919598 110.552764,103.471883 110.552764,102.919598 L110.552764,87.2311558 C110.552764,86.678871 111.000479,86.2311558 111.552764,86.2311558 Z M61.8040201,86.2311558 L70.8592965,86.2311558 C71.4115812,86.2311558 71.8592965,86.678871 71.8592965,87.2311558 L71.8592965,102.919598 C71.8592965,103.471883 71.4115812,103.919598 70.8592965,103.919598 L61.8040201,103.919598 C61.2517354,103.919598 60.8040201,103.471883 60.8040201,102.919598 L60.8040201,87.2311558 C60.8040201,86.678871 61.2517354,86.2311558 61.8040201,86.2311558 Z" id="path-2"></path>
    </defs>
    <g id="Page-1" stroke="none" stroke-width="1" fill="none" fill-rule="evenodd">
        <g id="7大产业icon" transform="translate(-840.000000, -3013.000000)">
            <g id="Group" transform="translate(841.000000, 3013.000000)">
                <g id="Rectangle" transform="translate(19.226568, 119.911982)">
                    <mask id="mask-3" fill="white">
                        <use xlink:href="#path-2"></use>
                    </mask>
                    <use id="Mask" fill="url(#linearGradient-1)" xlink:href="#path-2"></use>
                    <rect fill="#000000" opacity="0.15" mask="url(#mask-3)" x="-1.37332626" y="38.4531352" width="189.519024" height="32.9598302" rx="1"></rect>
                </g>
                <path d="M47.4276561,103.432067 L169.557893,103.432067 L113.026352,73.5748544 C111.902698,72.9813949 110.563908,72.9571504 109.419503,73.5095372 L47.4276561,103.432067 Z M190.579454,114.418677 L27.7500478,114.418677 C23.8840545,114.418677 20.7500478,111.28467 20.7500478,107.418677 C20.7500478,104.71479 22.3072995,102.252683 24.7503356,101.093985 L109.48235,60.9067856 C110.591659,60.3806563 111.88114,60.3931106 112.980079,60.9405679 L193.700767,101.153104 C197.161148,102.876958 198.56888,107.07961 196.845027,110.539991 C195.661112,112.916524 193.234555,114.418677 190.579454,114.418677 Z" id="Triangle" fill="url(#linearGradient-1)" fill-rule="nonzero"></path>
                <path d="M144.172399,50.0412252 C143.460376,67.9946291 128.680779,82.3309092 110.552764,82.3309092 C91.9703187,82.3309092 76.9062705,67.266861 76.9062705,48.6844159 C76.9062705,33.1925394 87.3762066,20.1460474 101.626143,16.2348757 L101.626143,0 L118.106058,0 L118.106058,15.5336541 C118.119632,15.5377661 118.133245,15.5419045 118.146897,15.5460693 L118.146897,23.9237044 C118.146897,28.1178284 114.746888,31.5178376 110.552764,31.5178376 C101.071924,31.5178376 93.3861856,39.2035765 93.3861856,48.6844159 C93.3861856,58.1652552 101.071924,65.8509941 110.552764,65.8509941 C120.033603,65.8509941 127.719342,58.1652552 127.719342,48.6844159 L127.747546,48.6844159 C128.096474,44.4548934 131.639733,41.1311214 135.9593,41.1311214 C140.278866,41.1311214 143.822125,44.4548934 144.171053,48.6844159 L144.199257,48.6844159 C144.199257,48.8378016 144.198231,48.9909477 144.196185,49.1438475 C144.198229,49.2193423 144.199257,49.2950905 144.199257,49.371079 C144.199257,49.5966929 144.19019,49.820189 144.1724,50.0412227 Z" id="Combined-Shape" fill="url(#linearGradient-1)"></path>
                <path d="M26.7692226,93.8187834 L192.967826,93.8187834 C193.728103,93.8187834 194.422634,94.249849 194.760059,94.9311455 L219.985632,145.864196 C220.475861,146.854019 220.07086,148.053838 219.081037,148.544067 C218.805097,148.680731 218.501328,148.751834 218.193399,148.751834 L1.54364927,148.751834 C0.43907977,148.751834 -0.45635073,147.856403 -0.45635073,146.751834 C-0.45635073,146.443905 -0.385248137,146.140136 -0.2485837,145.864196 L24.9769896,94.9311455 C25.3144148,94.249849 26.0089459,93.8187834 26.7692226,93.8187834 Z" id="Combined-Shape" fill="url(#linearGradient-1)"></path>
                <rect id="Rectangle-48" fill="url(#linearGradient-1)" x="0" y="144.631855" width="219.732201" height="23.3465464" rx="2"></rect>
                <rect id="Rectangle-48" fill="#000000" opacity="0.05" x="0" y="144.631855" width="219.732201" height="23.3465464" rx="1"></rect>
            </g>
        </g>
    </g>
</svg>