<?xml version="1.0" encoding="UTF-8"?>
<svg width="220px" height="182px" viewBox="0 0 220 182" version="1.1" xmlns="http://www.w3.org/2000/svg" xmlns:xlink="http://www.w3.org/1999/xlink">
    <!-- Generator: Sketch 49.2 (51160) - http://www.bohemiancoding.com/sketch -->
    <title>时尚行业</title>
    <desc>Created with Sketch.</desc>
    <defs>
        <linearGradient x1="100%" y1="1.11022302e-14%" x2="1.11022302e-14%" y2="100%" id="linearGradient-1">
            <stop stop-color="#0097FF" offset="0%"></stop>
            <stop stop-color="#00FFFF" offset="100%"></stop>
        </linearGradient>
    </defs>
    <g id="Page-1" stroke="none" stroke-width="1" fill="none" fill-rule="evenodd">
        <g id="7大产业icon" transform="translate(-829.000000, -2662.000000)" fill="url(#linearGradient-1)" fill-rule="nonzero">
            <g id="时尚行业" transform="translate(829.000000, 2662.000000)">
                <path d="M196.796875,2.86981132 C192.401786,-1.3245283 185.404018,-0.809433962 181.622768,3.9490566 L84.6852679,136.941509 C81.9352679,140.4 76.7053571,140.375472 73.9553571,136.916981 L63.5446429,125.830189 C61.2366071,122.911321 57.0379464,122.34717 54.0669643,124.579245 L4.78794643,161.518868 C-3.87946429,168.018868 0.6875,181.877358 11.4665179,181.877358 L103.272321,181.877358 C103.272321,181.877358 123.872768,183.643396 133.571429,156.367925 C138.899554,141.381132 146.78125,126.590566 165.294643,109.984906 C172.439732,103.558491 182.555804,98.7018868 192.205357,92.0792453 L192.205357,175.009434 C192.205357,178.762264 195.421875,181.803774 199.375,181.803774 C203.082589,181.803774 206.176339,179.130189 206.520089,175.622642 L218.723214,56.1698113 C224.223214,34.4867925 207.232143,12.8528302 196.796875,2.86981132 Z" id="Shape"></path>
            </g>
        </g>
    </g>
</svg>