<?xml version="1.0" encoding="UTF-8"?>
<svg width="212px" height="212px" viewBox="0 0 212 212" version="1.1" xmlns="http://www.w3.org/2000/svg" xmlns:xlink="http://www.w3.org/1999/xlink">
    <!-- Generator: Sketch 49.2 (51160) - http://www.bohemiancoding.com/sketch -->
    <title>生物健康</title>
    <desc>Created with Sketch.</desc>
    <defs>
        <linearGradient x1="100%" y1="100%" x2="0%" y2="0%" id="linearGradient-1">
            <stop stop-color="#0097FF" offset="0%"></stop>
            <stop stop-color="#00FFFF" offset="100%"></stop>
        </linearGradient>
        <linearGradient x1="100%" y1="-1.11022302e-14%" x2="2.22044605e-14%" y2="100%" id="linearGradient-2">
            <stop stop-color="#28D0FF" offset="0%"></stop>
            <stop stop-color="#00FFFF" offset="100%"></stop>
        </linearGradient>
        <linearGradient x1="100%" y1="1.11022302e-14%" x2="1.11022302e-14%" y2="100%" id="linearGradient-3">
            <stop stop-color="#0097FF" offset="0%"></stop>
            <stop stop-color="#00FFFF" offset="100%"></stop>
        </linearGradient>
    </defs>
    <g id="Page-1" stroke="none" stroke-width="1" fill="none" fill-rule="evenodd">
        <g id="7大产业icon" transform="translate(-829.000000, -1447.000000)" fill-rule="nonzero">
            <g id="生物健康" transform="translate(829.000000, 1447.000000)">
                <path d="M99.2342187,47.5107969 L99.2342187,85.7022422 L99.2342187,154.489617 C99.2342187,169.437687 91.1572396,181.55357 81.1915833,181.55357 C61.2608229,181.55357 45.1063125,169.438102 45.1063125,154.489617 L45.1063125,47.5107969 L99.2342187,47.5107969 Z" id="Shape" fill="url(#linearGradient-1)" opacity="0.300000012"></path>
                <path d="M72.1702656,45.7022422 L85.7022422,45.7022422 L85.7022422,154.489617 C85.7022422,161.950195 79.6308438,168.021594 72.1702656,168.021594 C64.7096875,168.021594 58.6382891,161.950195 58.6382891,154.489617 L58.6382891,45.7022422 L72.1702656,45.7022422 Z" id="Combined-Shape" fill="url(#linearGradient-1)"></path>
                <rect id="Rectangle-path" fill="url(#linearGradient-1)" opacity="0.300000012" x="45.1063125" y="12.4040703" width="54.1279063" height="31.5743359"></rect>
                <path d="M99.2342187,3.38289062 L45.1063125,3.38289062 C41.3714687,3.38289062 38.3405312,6.41424219 38.3405312,10.1486719 C38.3405312,13.8831016 41.3718828,16.9144531 45.1063125,16.9144531 L99.2342187,16.9144531 C102.969063,16.9144531 106,13.8831016 106,10.1486719 C106,6.41424219 102.968648,3.38289062 99.2342187,3.38289062 Z" id="Shape" fill="url(#linearGradient-2)"></path>
                <path d="M167.127906,44 L167.127906,75.2669784 L167.127906,151.558681 C167.127906,168.137504 159.050927,181.575164 149.085271,181.575164 C129.15451,181.575164 113,168.137964 113,151.558681 L113,44 L167.127906,44 Z" id="Shape" fill="url(#linearGradient-1)" opacity="0.300000012"></path>
                <path d="M139.829734,168.021594 C132.369156,168.021594 126.297758,161.950195 126.297758,154.489617 L126.297758,45.7022422 L139.829734,45.7022422 L153.361711,45.7022422 L153.361711,154.489617 C153.361711,161.950195 147.290313,168.021594 139.829734,168.021594 Z" id="Combined-Shape" fill="url(#linearGradient-1)"></path>
                <rect id="Rectangle-path" fill="url(#linearGradient-1)" opacity="0.300000012" x="112.765781" y="12.4040703" width="54.1279063" height="31.5743359"></rect>
                <path d="M166.893687,3.38289062 L112.765781,3.38289062 C109.030938,3.38289062 106,6.41424219 106,10.1486719 C106,13.8831016 109.031352,16.9144531 112.765781,16.9144531 L166.893273,16.9144531 C170.628117,16.9144531 173.659055,13.8831016 173.659055,10.1486719 C173.659055,6.41424219 170.628531,3.38289062 166.893687,3.38289062 Z" id="Shape" fill="url(#linearGradient-2)"></path>
                <path d="M208.617109,40.5959297 L170.276578,40.5959297 L170.276578,19.7180703 C174.214312,18.3218516 177.042359,14.5592656 177.042359,10.1486719 C177.042359,4.55261719 172.490156,0 166.893687,0 L112.765781,0 C110.168367,0 107.797031,0.98215625 106,2.59244531 C104.202969,0.98215625 101.831219,0 99.2342187,0 L45.1063125,0 C39.5098437,0 34.9576406,4.55261719 34.9576406,10.1490859 C34.9576406,14.5596797 37.7856875,18.3222656 41.7234219,19.7184844 L41.7234219,40.5959297 L3.38289062,40.5959297 C1.51464062,40.5959297 0,42.1105703 0,43.9788203 L0,208.617109 C0,210.485359 1.51464062,212 3.38289062,212 L16.9148672,212 C18.7831172,212 20.2977578,210.485359 20.2977578,208.617109 L20.2977578,198.468023 L191.701828,198.468023 L191.701828,208.617109 C191.701828,210.485359 193.216469,212 195.084719,212 L208.616695,212 C210.484945,212 211.999586,210.485359 211.999586,208.617109 L211.999586,43.9788203 C212,42.1105703 210.485359,40.5959297 208.617109,40.5959297 Z M112.765781,6.76578125 L166.893273,6.76578125 C168.759039,6.76578125 170.276164,8.28332031 170.276164,10.1486719 C170.276164,12.0140234 168.758625,13.5315625 166.893273,13.5315625 C165.025023,13.5315625 163.510383,15.0462031 163.510383,16.9144531 L163.510383,40.5951016 L116.149086,40.5951016 L116.149086,16.9148672 C116.149086,15.0466172 114.634445,13.5319766 112.766195,13.5319766 C110.90043,13.5319766 109.383305,12.0144375 109.383305,10.1490859 C109.383305,8.28373437 110.90043,6.76578125 112.765781,6.76578125 Z M102.617109,19.7180703 C103.878344,19.2708828 105.023227,18.5789844 106,17.7032422 C106.977187,18.5793984 108.121656,19.2712969 109.382891,19.7180703 L109.382891,40.5955156 L102.617109,40.5955156 L102.617109,19.7180703 Z M45.1063125,13.5319766 C43.2405469,13.5319766 41.7234219,12.0144375 41.7234219,10.1490859 C41.7234219,8.28373437 43.2409609,6.76619531 45.1063125,6.76619531 L99.2342188,6.76619531 C101.099984,6.76619531 102.617109,8.28373437 102.617109,10.1490859 C102.617109,12.0144375 101.09957,13.5319766 99.2342188,13.5319766 C97.3659688,13.5319766 95.8513281,15.0466172 95.8513281,16.9148672 L95.8513281,40.5955156 L48.4892031,40.5955156 L48.4892031,16.9148672 C48.4892031,15.0466172 46.9745625,13.5319766 45.1063125,13.5319766 Z M20.2977578,191.702242 L20.2977578,47.3617109 L95.8509141,47.3617109 L95.8509141,154.489203 C95.8509141,167.547078 85.2277266,178.169852 72.1702656,178.169852 C59.1128047,178.169852 48.4896172,167.546664 48.4896172,154.489203 L48.4896172,47.5107969 C48.4896172,45.6425469 46.9749766,44.1279062 45.1067266,44.1279062 C43.2384766,44.1279062 41.7238359,45.6425469 41.7238359,47.5107969 L41.7238359,154.489617 C41.7238359,171.278195 55.3821016,184.936461 72.1706797,184.936461 C88.9592578,184.936461 102.617523,171.278195 102.617523,154.489617 L102.617523,47.3617109 L163.511211,47.3617109 L163.511211,154.489203 C163.511211,167.547078 152.888023,178.169852 139.830563,178.169852 C126.773102,178.169852 116.149914,167.546664 116.149914,154.489203 L116.149914,47.5107969 C116.149914,45.6425469 114.635273,44.1279062 112.767023,44.1279062 C110.898773,44.1279062 109.384133,45.6425469 109.384133,47.5107969 L109.384133,154.489617 C109.384133,171.278195 123.042398,184.936461 139.830977,184.936461 C156.619555,184.936461 170.27782,171.278195 170.27782,154.489617 L170.27782,47.3617109 L191.703484,47.3617109 L191.703484,191.702242 L20.2977578,191.702242 Z" id="Shape" fill="url(#linearGradient-3)"></path>
            </g>
        </g>
    </g>
</svg>