<?xml version="1.0" encoding="UTF-8"?>
<svg width="212px" height="212px" viewBox="0 0 212 212" version="1.1" xmlns="http://www.w3.org/2000/svg" xmlns:xlink="http://www.w3.org/1999/xlink">
    <!-- Generator: Sketch 49.2 (51160) - http://www.bohemiancoding.com/sketch -->
    <title>高端制造</title>
    <desc>Created with Sketch.</desc>
    <defs>
        <linearGradient x1="100%" y1="1.11022302e-14%" x2="1.11022302e-14%" y2="100%" id="linearGradient-1">
            <stop stop-color="#0097FF" offset="0%"></stop>
            <stop stop-color="#00FFFF" offset="100%"></stop>
        </linearGradient>
        <linearGradient x1="100%" y1="100%" x2="0%" y2="0%" id="linearGradient-2">
            <stop stop-color="#0097FF" offset="0%"></stop>
            <stop stop-color="#00FFFF" offset="100%"></stop>
        </linearGradient>
        <linearGradient x1="100%" y1="24.5896875%" x2="-6.39640082%" y2="129.519284%" id="linearGradient-3">
            <stop stop-color="#0097FF" offset="0%"></stop>
            <stop stop-color="#00FFFF" offset="100%"></stop>
        </linearGradient>
    </defs>
    <g id="Page-1" stroke="none" stroke-width="1" fill="none" fill-rule="evenodd">
        <g id="7大产业icon" transform="translate(-829.000000, -218.000000)" fill-rule="nonzero">
            <g id="高端制造" transform="translate(829.000000, 218.000000)">
                <polygon id="Shape" fill="url(#linearGradient-1)" points="182.78023 48.9616752 160.340629 26.5665423 193.999667 0.43816132 208.959643 15.3689758"></polygon>
                <polygon id="Shape" fill="url(#linearGradient-2)" points="149.121193 75.0893303 134.161944 60.1592417 160.340629 26.5665423 182.78023 48.9616752"></polygon>
                <rect id="Rectangle-path" fill="url(#linearGradient-2)" transform="translate(106.113913, 103.078566) rotate(-135.000000) translate(-106.113913, -103.078566) " x="95.5375172" y="52.9324453" width="21.1527919" height="100.292242"></rect>
                <path d="M16.9309759,204.435523 L4.56384889,192.092503 C-0.282924495,187.255178 -0.282924495,179.411945 4.56384889,174.575346 L50.5892861,128.639627 C55.4360595,123.802301 63.2946109,123.802301 68.1406569,128.639627 L80.507784,140.982646 C85.3545574,145.819972 85.3545574,153.663204 80.507784,158.499804 L34.4823468,204.435523 C29.6363007,209.272123 21.7777493,209.272123 16.9309759,204.435523 Z" id="Shape" fill="url(#linearGradient-3)"></path>
                <path d="M13.8450126,187.745153 L62.4625717,139.222365 C66.5936751,135.099315 73.2914446,135.099315 77.4218207,139.222365 L84.2061397,145.993459 C83.6919337,144.639676 82.8969872,143.366466 81.8038449,142.276181 L66.844596,127.346092 C62.7142199,123.223042 56.0157231,123.223042 51.885347,127.346092 L3.26778794,175.86888 C-0.862588119,179.991931 -0.862588119,186.676644 3.26778794,190.798969 L11.4434451,198.957963 C10.0121051,195.192776 10.8070516,190.777192 13.8450126,187.745153 Z" id="Shape" fill="#000000" opacity="0.100000001"></path>
                <path d="M153.111926,130.399182 L81.4285546,58.8555447 C87.9517704,43.4833896 84.9472655,25.0414491 72.3917659,12.5111501 C59.8362664,-0.0191488623 41.3590338,-3.01852295 25.956855,3.49197709 L55.2491416,32.7271638 L32.8102682,55.1222967 L3.51798152,25.88711 C-3.00523434,41.2592652 -0.000729405941,59.7012056 12.5547701,72.2315046 C25.1102697,84.7618036 43.5875023,87.7611777 58.9896811,81.2506777 L130.673052,152.794315 C124.149836,168.16647 127.154341,186.608411 139.709841,199.13871 C152.264613,211.669009 170.742573,214.668383 186.144752,208.157883 L156.225527,178.29698 L178.6644,155.901847 L208.583625,185.76275 C215.106841,170.390595 212.102336,151.948654 199.546837,139.418355 C186.991337,126.888056 168.514105,123.888682 153.111926,130.399182 Z" id="Shape" fill="url(#linearGradient-2)"></path>
                <path d="M150.082692,188.786078 C137.52792,176.255779 134.522688,157.813839 141.045904,142.441684 L69.3625326,70.8980462 C53.9603537,77.4085462 35.4823938,74.409898 22.9276216,61.8788732 C14.8930619,53.8599754 10.7765047,43.4202372 10.5583126,32.9137173 L3.51798152,25.88711 C-3.00523434,41.2592652 -0.000729405941,59.7012056 12.5547701,72.2315046 C25.1095424,84.7618036 43.5875023,87.7611777 58.9896811,81.2506777 L130.673052,152.794315 C124.149836,168.16647 127.154341,186.608411 139.709841,199.13871 C152.264613,211.669009 170.742573,214.668383 186.144752,208.157157 L179.104421,201.13055 C168.576653,200.913509 158.116525,196.804976 150.082692,188.786078 Z" id="Shape" fill="#000000" opacity="0.100000001"></path>
            </g>
        </g>
    </g>
</svg>