<?xml version="1.0" encoding="UTF-8"?>
<svg width="203px" height="102px" viewBox="0 0 203 102" version="1.1" xmlns="http://www.w3.org/2000/svg" xmlns:xlink="http://www.w3.org/1999/xlink">
    <!-- Generator: Sketch 50 (54983) - http://www.bohemiancoding.com/sketch -->
    <title>选中态</title>
    <desc>Created with Sketch.</desc>
    <defs>
        <filter x="-10.0%" y="-27.4%" width="120.0%" height="156.2%" filterUnits="objectBoundingBox" id="filter-1">
            <feOffset dx="0" dy="0" in="SourceAlpha" result="shadowOffsetOuter1"></feOffset>
            <feGaussianBlur stdDeviation="6" in="shadowOffsetOuter1" result="shadowBlurOuter1"></feGaussianBlur>
            <feColorMatrix values="0 0 0 0 0.2   0 0 0 0 0.733333333   0 0 0 0 1  0 0 0 1 0" type="matrix" in="shadowBlurOuter1" result="shadowMatrixOuter1"></feColorMatrix>
            <feMerge>
                <feMergeNode in="shadowMatrixOuter1"></feMergeNode>
                <feMergeNode in="SourceGraphic"></feMergeNode>
            </feMerge>
        </filter>
        <linearGradient x1="50%" y1="100%" x2="50%" y2="3.061617e-15%" id="linearGradient-2">
            <stop stop-color="#ABF2FF" offset="0%"></stop>
            <stop stop-color="#ABF2FF" offset="100%"></stop>
        </linearGradient>
    </defs>
    <g id="大屏-0727" stroke="none" stroke-width="1" fill="none" fill-rule="evenodd">
        <g id="五常街道产业大脑" transform="translate(-6014.000000, -255.000000)" stroke="#ABF2FF">
            <g id="Group-22" transform="translate(4386.000000, 167.000000)">
                <g id="黄色选中-copy" transform="translate(1640.000000, 102.000000)">
                    <g id="Group">
                        <g id="选中态" filter="url(#filter-1)">
                            <path d="M11.648099,0.56175 L0.588540388,35.982657 L11.6478879,71.34225 L168.112534,71.34225 L179.171459,36.1047415 L168.111483,0.56175 L11.648099,0.56175 Z" id="Combined-Shape" stroke-width="1.1235" fill-opacity="0.05" fill="url(#linearGradient-2)"></path>
                            <polyline id="Path-16" stroke-width="5" stroke-linecap="round" points="28 1 12 1 8 14"></polyline>
                            <polyline id="Path-16" stroke-width="5" stroke-linecap="round" transform="translate(18.000000, 66.500000) scale(1, -1) translate(-18.000000, -66.500000) " points="28 60 12 60 8 73"></polyline>
                            <polyline id="Path-16" stroke-width="5" stroke-linecap="round" transform="translate(162.000000, 7.500000) scale(-1, 1) translate(-162.000000, -7.500000) " points="172 1 156 1 152 14"></polyline>
                            <polyline id="Path-16" stroke-width="5" stroke-linecap="round" transform="translate(162.000000, 66.500000) scale(-1, -1) translate(-162.000000, -66.500000) " points="172 60 156 60 152 73"></polyline>
                        </g>
                    </g>
                </g>
            </g>
        </g>
    </g>
</svg>