<?xml version="1.0" encoding="UTF-8"?>
<svg width="1551px" height="835px" viewBox="0 0 1551 835" version="1.1" xmlns="http://www.w3.org/2000/svg" xmlns:xlink="http://www.w3.org/1999/xlink">
    <!-- Generator: Sketch 50 (54983) - http://www.bohemiancoding.com/sketch -->
    <title>经济等级分析循环</title>
    <desc>Created with Sketch.</desc>
    <defs>
        <path d="M764.209337,529.849738 L765.802701,531.605201 C767.277331,533.22985 770.87733,533.993271 774.091816,533.363003 L776.269668,532.935988 C780.516134,532.103378 785.273173,532.42527 788.977204,533.79586 L793.097398,535.320442 C795.046078,536.041506 795.731437,537.390254 794.72526,538.523987 C793.462064,539.947322 793.653567,540.957509 794.72526,541.722294 C795.799278,542.488738 796.004131,543.498757 795.261553,544.366464 L791.490208,548.773301 C790.362928,550.090533 790.018513,551.55522 790.501834,552.976542 L796.087901,569.403703 C796.317132,570.077812 795.787016,570.760984 794.72526,571.15977 C793.575642,571.591556 792.579654,572.125863 791.782708,572.73833 C790.364048,573.828595 788.688136,574.292805 786.896445,574.292805 C784.557468,574.292805 783.056932,575.079463 783.056932,576.049855 L783.056932,577.164754 C783.056932,578.888478 780.997519,580.427571 777.905913,581.014344 L745.67155,587.132288 C743.066099,587.626791 741.580987,589.066366 742.217782,590.480154 C742.913158,592.023999 745.071036,593.272772 747.933079,593.78762 C749.362167,594.044697 750.059853,594.792594 749.610272,595.479479 C749.493722,595.657547 748.118389,596.257182 745.484273,597.278383 C744.08429,597.782065 742.426154,598.051655 740.728209,598.051655 C739.651788,598.051655 738.779177,598.509123 738.779177,599.073437 C738.779177,599.138662 739.711971,600.846152 741.577559,604.195909 C742.634531,606.074992 741.356012,608.100657 738.369717,609.278364 L736.758311,609.913855 C734.572485,610.775881 732.928507,611.96099 732.037788,613.316783 L730.074903,616.304553 C729.171275,617.679993 727.492737,618.879292 725.261165,619.743918 L723.603864,620.386042 C720.808513,621.469106 717.332758,621.955054 713.879882,621.74556 L706.048473,621.27041 C702.13313,621.032856 698.212179,621.690278 695.286443,623.074867 L692.999249,624.157269 C691.042007,625.083524 688.498984,625.596256 685.862239,625.596256 C682.931749,625.596256 680.734913,625.881586 678.76237,626.42749 L674.298277,627.662933 C672.995898,628.023368 671.81281,628.491467 670.794505,629.04923 L669.352796,629.838908 C667.526228,630.839386 664.77991,631.214632 662.254212,630.808829 C659.412202,630.352205 657.972796,628.988401 658.649706,627.668464 L662.62101,619.924646 C662.948516,619.286029 662.226505,618.629141 661.008354,618.457446 C658.770015,618.416384 657.436205,617.717132 657.436205,616.854562 C657.436205,614.614996 655.94337,613.276144 653.530654,612.563907 L647.486692,610.779721 C644.767382,609.976977 641.607014,609.684666 638.52789,609.951099 L629.101594,610.766743 C625.617316,611.068232 622.045512,610.653194 619.130542,609.608123 L615.934806,608.462392 C614.007131,607.771284 611.474423,607.758427 609.52158,608.429834 C607.415698,609.153858 605.757948,610.183932 604.751088,611.394067 L603.864447,612.459714 C601.158022,611.873569 599.785005,611.615554 598.634599,611.900377 C598.575849,611.914923 594.281366,613.348093 585.751147,616.199889 C584.720893,616.54463 583.607325,616.815593 582.440054,617.005574 L576.088681,618.039299 C574.556006,618.288751 573.118783,618.677351 571.842479,619.187399 C569.359774,620.17956 567.490068,620.047341 566.492424,619.361225 C566.385295,619.287548 566.068967,618.927068 565.543441,618.279785 C564.750442,617.253371 563.515725,616.336912 561.935657,615.601935 L559.652497,614.539912 C558.527104,614.01643 557.883021,613.265417 557.883021,612.476671 C557.883021,611.79175 556.823913,611.236511 555.517437,611.236511 C553.862532,611.236511 552.439832,610.809275 551.661841,610.113824 L549.139647,607.859218 C546.876741,605.836391 546.897516,603.327684 549.19384,601.315233 L550.97348,599.755594 C552.245844,598.640521 552.917775,597.36547 552.917775,596.066113 L552.917775,594.07009 C552.917775,591.629434 555.545146,589.397752 559.706654,588.303635 L571.434653,585.220183 C572.867304,584.843519 573.771808,584.075235 573.771808,583.23501 C573.771808,582.328335 574.396747,581.535697 575.509644,580.950505 C576.641327,580.355435 577.400612,579.59384 577.686506,578.76702 L581.050699,569.037602 C581.475121,567.810153 580.906795,566.545455 579.481841,565.546415 C578.031315,564.529447 577.247481,563.293702 577.247481,562.023862 L577.247481,558.08797 C577.247481,555.610376 573.838278,553.494162 569.178956,553.079546 L564.41487,552.655609 C562.541695,552.488922 560.734073,553.096614 560.241513,554.05862 C559.873485,554.777405 558.463667,555.203688 557.092596,555.010749 C554.047945,554.140384 551.619354,553.869946 549.209892,554.004321 L544.725119,554.254434 C540.376212,554.496971 536.475686,552.845346 536.013052,550.565426 C536.005678,550.529087 535.799629,548.920261 535.394905,545.738948 C535.193901,544.15355 537.279447,542.738445 540.256397,542.440281 C544.02754,542.062572 546.029933,541.206454 546.959479,540.025233 C547.876838,538.8595 547.498392,537.523804 545.974319,536.548187 C543.771605,535.138147 542.94565,533.629669 543.310334,532.133931 C543.689211,530.579985 542.165474,529.547025 540.010384,529.402612 C536.498961,529.385968 533.834765,529.81206 531.572886,530.6098 L518.343046,535.275821 C515.995396,536.103811 513.129337,536.425576 510.340789,536.174211 C507.830638,535.947941 505.996199,534.806762 505.996199,533.471501 L505.996199,525.728412 C505.996199,525.297127 506.663104,524.947501 507.485773,524.947501 C508.610286,524.303353 508.595807,524.248998 508.567264,524.196467 L507.348554,521.953559 C506.504561,520.400277 507.20941,518.728606 509.223609,517.506543 C511.61311,516.056775 512.451019,514.876524 512.451019,513.655521 C512.451019,512.285672 511.839658,511.349326 510.713183,510.587757 C509.61692,509.846613 509.236225,508.881307 509.681991,507.973022 C510.485628,506.335547 509.275256,505.261372 507.264955,504.990212 C507.217581,504.983822 502.559781,504.504782 493.291555,503.553093 C492.405219,503.462154 491.827322,503.01175 492.000785,502.547088 C493.465424,501.450268 494.079608,500.550699 494.079608,499.622391 L494.079608,497.663987 C494.079608,495.545815 492.044382,493.570134 488.665756,492.408528 L477.630299,488.614425 C475.811039,487.988944 474.715148,486.925116 474.715148,485.784562 C474.715148,484.507288 475.478494,483.579181 476.825378,482.912613 C477.843675,482.408662 477.866731,481.989006 477.387228,481.722715 C475.451347,481.329409 474.233736,480.902141 473.335233,480.317194 L471.929721,479.402171 C470.671318,478.58292 468.384356,478.453593 466.821648,479.113313 C464.618054,480.166057 462.738805,480.36153 461.060722,480.040664 C459.153975,479.676075 457.528598,479.705742 456.095476,480.040664 C454.810654,480.340928 453.30013,480.103977 452.541061,479.483094 L449.111722,476.678053 C448.213226,475.943124 448.621285,474.965496 450.023149,474.494458 C452.676842,473.897753 453.861115,472.973359 453.861115,471.94699 C453.861115,471.117834 452.975002,470.653288 451.881927,470.653288 C449.6797,470.98283 447.943141,470.728882 446.868342,470.065434 C444.007645,468.299596 441.29471,467.735051 438.554313,467.89516 L431.263746,468.321113 C430.407704,468.371128 429.636406,468.047864 429.541005,467.599083 C429.531409,467.099284 428.898593,466.767529 428.117975,466.767529 C428.052552,466.767529 426.493934,466.934622 423.442122,467.268809 C421.581254,467.474808 420.372785,468.420897 420.718097,469.401399 C421.063762,470.382904 419.857981,471.33058 417.996642,471.540311 C412.806534,472.125119 409.591479,471.594804 407.436064,470.380472 L405.537051,469.310594 C404.49333,468.722576 403.268968,468.230442 401.914865,467.854651 L380.788715,461.991721 C374.09722,460.134697 371.544246,455.785467 375.086486,452.277443 C375.139821,452.224623 376.619229,450.880044 379.52471,448.243704 C381.486878,446.464804 384.807684,445.211316 388.648045,444.799963 C393.103975,444.322675 395.671568,442.463088 395.223167,440.448227 L393.673504,433.484917 C393.452082,432.489971 391.844287,431.739705 389.933571,431.739705 C387.641138,431.739705 386.58203,431.184467 386.58203,430.499546 C386.58203,429.76386 385.659626,429.115675 384.314464,428.906098 C381.712668,428.500736 381.172262,427.977831 381.454147,427.480574 C383.140979,426.392571 383.851145,425.451719 383.851145,424.474171 L383.851145,422.00384 C383.851145,420.622109 385.409859,419.371156 387.823342,418.815935 C390.329813,418.239323 392.18862,417.088695 392.860812,415.697671 L398.368143,404.300883 C399.068977,402.850586 398.324156,401.312848 396.388391,400.213539 C394.520288,399.152655 394.097517,397.596837 395.326213,396.304674 L397.784592,393.719307 C398.901303,392.544913 399.383385,391.232647 399.178559,389.924822 L397.967828,382.194245 C397.82644,381.291477 397.3608,380.410857 396.595433,379.598769 L384.705619,366.983145 C384.138762,366.381684 383.735333,365.741576 383.507082,365.081463 L380.552764,356.537425 C380.152107,355.378706 381.237636,354.218267 383.230489,353.674913 C385.397486,353.084078 387.88839,352.905725 390.278235,353.170282 C394.638097,353.652921 397.330471,353.540501 399.80073,353.042578 L404.555884,352.084095 C407.888257,351.412398 411.628337,352.284103 412.909588,354.031104 C414.280497,356.221324 417.880522,357.591207 421.941651,357.591207 L426.458929,357.591207 C428.36868,357.591207 430.142089,358.109926 431.145114,358.961909 C431.794993,359.513925 433.175417,359.685231 434.228377,359.344531 C436.411095,358.092067 438.484259,357.591207 440.666793,357.591207 L448.503964,357.591207 C450.239032,357.591207 451.958328,357.418533 453.57055,357.082356 L460.114908,355.717741 C463.014698,355.113084 466.300438,355.855292 467.453812,357.375511 C468.895411,359.45599 468.884647,361.207168 467.760196,362.801018 L465.698168,365.723836 C464.474469,367.458366 464.573285,369.373438 465.974066,371.070748 L466.646624,371.88568 C468.377208,373.98261 467.54639,376.418891 464.537117,378.071576 C461.917222,379.510416 461.994315,381.249529 464.08793,382.297253 C464.622036,382.56454 465.257852,382.76964 465.953711,382.899113 L486.490383,386.720208 C489.166561,387.218143 491.481741,388.13948 493.116083,389.356938 C495.450873,391.096175 498.493256,391.92405 501.738608,391.92405 L509.958119,391.92405 C511.606536,391.92405 513.24144,391.768191 514.784327,391.463956 L522.777659,389.887789 C527.436643,388.969106 532.67943,389.446542 536.47453,391.135099 L545.852905,395.307828 C548.330361,396.410125 551.474142,397.015232 554.723568,397.015232 L560.321821,397.015232 C564.002211,397.015232 567.52803,397.791041 570.105947,399.168097 L579.274358,404.065624 C580.839412,404.901634 581.716202,406.026228 581.716202,407.197597 C581.716202,408.277367 583.091203,409.224291 585.076516,409.511751 L593.589575,410.744382 C595.346888,410.998829 596.378016,411.951939 595.892663,412.873213 C592.776234,414.910115 591.864454,416.712097 592.639743,418.424306 C593.38026,420.059718 596.041809,421.260394 599.236876,421.400398 L621.338773,422.36888 C622.883424,422.436565 624.394993,422.641094 625.809185,422.973766 L628.389515,423.58076 C631.326775,424.271716 634.73417,424.126752 637.420479,423.196546 C641.157024,421.902668 645.086075,422.112633 647.591676,423.430147 L660.058535,429.985563 C662.825393,431.440453 667.214186,431.604037 670.345845,430.369003 L672.526008,429.50921 C674.279288,428.817768 676.769792,429.002369 678.088706,429.921528 C679.805622,431.202465 680.641826,432.393098 680.864741,433.635575 L681.233169,435.689112 C681.568683,437.559186 683.558159,439.238438 686.607026,440.225009 C690.104434,441.356722 692.974323,441.579098 695.6686,441.204082 C698.410664,440.822416 700.849241,439.992411 702.630144,438.834621 L709.428065,434.415198 C712.030533,432.723297 715.953692,431.739705 720.099549,431.739705 L728.77881,431.739705 C731.779477,431.739705 734.697268,432.255841 737.084511,433.208922 L742.569275,435.398656 C745.297336,436.487805 748.704932,437.001422 752.119826,436.838181 L760.408551,436.441959 C762.247843,436.354037 764.102059,436.461862 765.859886,436.758963 L770.881475,437.607692 C774.480521,438.215988 776.732725,440.087794 776.229718,442.052613 C775.902871,443.329325 777.612115,444.503211 780.047421,444.674561 C780.415918,444.700488 787.280498,443.869555 800.641161,442.18176 C802.242145,441.974992 803.22027,441.126972 802.825863,440.287655 C802.228563,439.206006 802.828996,438.341547 804.159227,437.875233 C805.591674,437.373086 806.592663,436.597129 806.948266,435.713194 L808.160341,432.700304 C808.785444,431.146467 808.411288,429.527843 807.096317,428.097261 L802.98452,423.62396 C802.283597,422.861412 801.845141,422.039945 801.689365,421.197427 L800.441774,414.449821 C800.273492,413.539663 800.438068,412.62103 800.926671,411.743216 L807.980307,399.070815 C808.576583,397.99956 810.716464,397.384547 812.759866,397.697145 C815.913002,398.281863 817.641961,398.187273 819.054966,397.73322 C820.516031,397.263723 822.196329,397.015232 823.910019,397.015232 L838.950471,397.015232 C840.884562,397.015232 842.789683,397.261631 844.501852,397.73322 C846.015459,398.150117 846.752714,399.071101 846.259934,399.929426 L844.710548,402.628153 C844.064316,403.753762 845.280994,404.94089 847.428074,405.279678 C847.681097,405.319603 849.073816,405.349708 851.606231,405.369993 C853.126193,405.369993 854.53233,405.792255 855.301262,406.479609 C856.163933,407.250756 856.039929,407.879961 855.301262,408.307213 C854.714472,408.646619 854.763614,409.171141 855.411024,409.478766 C855.451406,409.497954 856.200983,409.760152 857.659754,410.26536 C859.387056,410.860429 861.707477,410.608742 862.842561,409.703202 C862.906604,409.65211 863.585797,408.91317 864.880141,407.486382 C865.397965,406.911556 866.501781,406.544881 867.714378,406.544881 C868.81127,406.544881 869.700476,407.011049 869.700476,407.586095 C869.700476,408.469962 870.759584,409.0252 872.066059,409.0252 C874.391009,409.0252 875.891878,408.894195 877.321619,408.637483 L892.773844,405.863024 C894.44523,405.562925 896.296953,405.804206 897.505854,406.479609 C898.781787,407.192462 899.491953,408.133315 899.491953,409.110862 L899.491953,411.516453 C899.491953,412.53178 900.052395,413.525416 901.105658,414.377469 C902.042208,415.135105 903.873053,415.437355 905.468682,415.097749 L929.733435,409.933362 C932.127877,409.423742 933.346723,408.02266 932.510839,406.740696 C932.264825,406.363393 932.648822,405.952975 933.368521,405.824001 C933.661099,405.77157 934.886811,406.133128 937.045657,406.908674 C938.717397,405.757476 938.292553,405.052917 937.500794,404.461999 L934.646458,402.331706 C933.367304,401.377027 933.806583,400.059481 935.627616,399.388883 C935.94668,399.271387 937.316737,399.075454 939.737785,398.801086 C940.573633,398.721974 941.128889,398.302614 940.977984,397.864419 C940.929155,397.722629 940.296996,397.399416 939.081509,396.894782 C937.988487,396.503958 937.533448,395.77664 937.97261,395.122357 C938.447497,394.41485 939.463369,393.843118 940.775899,393.544668 L945.415346,392.489728 C947.023751,392.124001 948.824516,392.06248 950.509856,392.31568 C951.992184,392.538379 953.556212,392.139054 954.135737,391.389926 L956.765456,387.990596 C957.411954,387.154894 959.228307,386.752179 960.822394,387.091107 C961.436096,387.221589 961.954493,387.451224 962.302316,387.74667 C964.287154,389.432619 967.890059,390.403453 971.660367,390.268281 L982.203825,389.890278 C985.438844,389.774297 988.353382,388.824516 989.983563,387.355041 C991.193017,386.264816 993.85931,385.89502 995.938894,386.529078 C996.084054,386.573337 997.672622,387.260078 1000.7046,388.589302 C1003.4592,389.805995 1007.01653,390.405458 1010.6075,390.258084 L1052.11096,388.554774 C1054.48968,388.457151 1056.63553,387.768506 1057.8833,386.702325 C1059.17385,385.599589 1061.09988,384.740575 1063.38295,384.24946 L1066.24819,383.633114 C1069.06823,383.026492 1071.07559,381.689449 1071.53773,380.109897 C1071.96617,378.645549 1074.36909,377.564306 1077.19498,377.564306 L1082.70953,377.564306 C1088.83451,377.564306 1094.17043,379.75356 1095.64239,382.87048 L1102.00179,396.336641 C1102.21493,396.78797 1102.34403,397.249078 1102.38726,397.713481 L1103.72069,412.037086 C1103.82436,413.150652 1105.63032,414.009319 1107.75443,413.954972 C1108.23659,413.942636 1109.42193,413.634567 1111.31046,413.030766 C1113.1284,412.365775 1115.63043,412.5993 1116.89889,413.552359 C1117.01859,413.642301 1117.54734,414.294318 1118.48511,415.50841 C1118.86196,416.010403 1118.39121,416.577503 1117.43367,416.775064 C1116.18633,416.995101 1115.31662,417.499696 1115.04896,418.122993 L1114.46067,419.492913 C1113.9884,420.592679 1114.01622,421.735265 1114.5419,422.828351 L1118.78814,431.658019 C1119.06438,432.232445 1119.20409,432.822574 1119.20409,433.414975 L1119.20409,438.40171 C1119.20409,439.192399 1117.98143,439.83338 1116.47321,439.83338 C1114.96498,439.83338 1113.74232,440.47436 1113.74232,441.265049 C1113.74232,442.411194 1112.75941,443.173153 1111.2597,443.488587 C1109.75999,443.804022 1108.77708,444.56598 1108.77708,445.41312 L1108.77708,449.929169 C1108.77708,451.399271 1107.60735,452.802738 1105.54967,453.801495 C1103.03661,455.021282 1101.9319,455.83555 1101.1756,456.741379 L1099.72903,458.473968 C1098.51311,459.930295 1096.41047,461.134174 1093.7502,461.897179 L1083.98043,464.699294 C1082.43147,465.143559 1081.46822,465.995452 1081.46822,466.921079 C1081.46822,467.6198 1082.54867,468.186225 1083.88147,468.186225 C1088.25053,467.810955 1090.59123,468.627589 1091.14584,469.891304 L1093.65351,475.60525 C1094.7208,478.037157 1098.11799,480.004755 1102.62787,480.803055 L1116.89816,483.329055 C1119.14698,483.727123 1120.94521,484.625928 1121.81085,485.784562 C1122.62683,486.876734 1122.02253,488.120082 1120.30911,488.874378 L1114.16522,491.579089 C1113.16964,492.017371 1111.75293,492.075702 1110.63904,491.724274 C1109.67397,491.419798 1108.42081,491.583116 1107.84003,492.089055 C1107.8252,492.101974 1106.96024,492.975063 1105.24516,494.708322 C1103.39119,496.583074 1100.05829,497.935494 1096.13165,498.406399 L1078.02554,500.577784 C1075.68209,500.858823 1074.02035,501.95178 1074.02035,503.21207 L1074.02035,504.37187 C1074.02035,504.989811 1073.40968,505.563638 1072.40665,505.888204 C1071.37798,506.221065 1070.66148,506.764155 1070.43032,507.386193 L1067.11814,516.299272 C1066.75823,517.267797 1066.7826,518.264802 1067.18973,519.228174 L1067.56553,520.117406 C1068.69136,520.373435 1069.63707,519.8638 1070.40267,518.588501 C1070.632,518.106143 1071.45841,517.767629 1072.40665,517.767629 C1073.21109,517.767629 1073.86321,518.109507 1073.86321,518.531234 C1073.86321,518.548593 1073.48229,520.507396 1072.72044,524.407643 C1072.53921,525.333374 1070.96082,526.006805 1069.195,525.911795 C1068.99241,525.900895 1068.10368,525.735454 1066.52882,525.415473 C1065.20415,525.132499 1064.33812,524.457243 1064.33812,523.707342 C1064.33812,522.986145 1063.36755,522.365111 1062.01875,522.223264 L1049.50404,520.907148 C1047.42993,520.689023 1046.08582,519.630722 1046.50189,518.543366 C1046.66485,518.117477 1047.08684,517.730774 1047.70455,517.441271 C1051.32808,515.743024 1052.59036,513.362971 1051.30435,511.175201 C1050.38721,509.61496 1047.2311,508.739909 1044.25496,509.22072 C1043.97041,509.266691 1042.2122,509.782416 1038.98033,510.767896 C1037.08218,511.359364 1036.14023,512.530035 1036.65688,513.655521 C1037.06644,514.547723 1036.16129,515.323031 1034.69086,515.508546 C1031.92975,515.548396 1030.0013,514.904541 1029.1046,513.897226 L1025.81987,510.207302 C1025.39959,509.735175 1025.61629,509.174539 1026.35399,508.825425 C1026.30647,508.421967 1022.59147,508.053849 1015.20899,507.721071 C1013.06943,507.631782 1010.99975,507.28037 1009.16658,506.695127 L1007.32534,506.107308 C1005.79233,505.617889 1004.09091,505.291058 1002.31765,505.145366 C999.899337,504.946676 999.125556,504.390242 999.302947,503.796843 C999.347422,503.648069 1001.52774,502.381705 1005.84391,499.997751 C1007.85165,498.920037 1008.97563,497.47336 1008.97563,495.966926 L1008.97563,494.634922 C1008.97563,493.989906 1009.52118,493.378094 1010.4652,492.964434 C1011.40922,492.550774 1011.95478,491.938962 1011.95478,491.293947 L1011.95478,489.475902 C1011.95478,488.388658 1010.5067,487.449 1008.4791,487.220536 C1006.44437,486.991268 1005.83467,486.49662 1006.04057,485.994387 C1006.88677,485.145383 1006.51978,484.407287 1005.42506,484.070706 C1005.39618,484.061826 1004.34534,483.784581 1002.27255,483.238971 C999.404459,482.484911 998.245432,480.654718 999.683788,479.151119 C999.686054,479.14875 1000.25268,478.562151 1001.38366,477.391321 C1003.41236,475.291169 1001.94796,472.725964 998.052088,471.555361 C993.398188,470.15699 988.961401,470.284798 985.638973,471.555361 L981.823837,473.014344 C980.848129,473.387475 979.519693,473.3781 978.563497,472.991335 C977.401961,472.521514 976.426093,472.21918 975.390599,471.983015 L958.969897,468.237949 C957.375331,467.874277 956.344021,467.049453 956.344021,466.137821 C956.344021,465.42152 955.236391,464.840844 953.87006,464.840844 C953.789901,464.840844 952.617622,464.926419 950.353224,465.097569 C948.606803,465.231956 947.398856,466.083109 947.655198,466.998672 C948.986806,468.705043 948.777705,470.168721 947.347583,471.33181 L933.069665,482.943752 C932.13622,483.702904 930.20562,483.921614 928.75755,483.432254 C926.869662,482.525875 925.832638,482.537703 925.206936,482.880318 C924.384783,484.030203 922.92769,484.542939 921.368045,484.451816 L916.085994,484.143211 C913.989061,484.020697 911.974366,483.646089 910.198797,483.048557 C907.860908,482.261788 906.69156,481.139799 906.69156,479.935019 C906.69156,479.346877 905.921535,478.943191 904.971661,478.943191 C904.688567,478.943191 903.754236,479.280015 902.168667,479.953665 C900.445379,480.766077 898.209728,481.215552 895.892149,481.215552 C893.426148,481.215552 891.643463,480.728123 890.55451,479.910121 C889.419895,479.057818 887.841953,478.394419 886.008575,477.998915 L883.975559,477.560345 C882.493618,477.240654 880.797924,477.611303 880.18812,478.388213 C880.05017,478.563966 882.641524,487.025257 887.962181,503.772088 C888.245051,504.645462 887.123845,505.473689 885.457899,505.621983 C880.86326,505.016336 877.472962,505.10646 874.481881,505.814216 L869.798028,506.922521 C866.337361,507.741392 862.317455,507.572697 859.149328,506.475648 C856.022901,505.39304 852.005962,505.314578 848.734534,506.272218 L841.082964,508.512052 C834.820068,510.345381 826.920215,509.337681 822.964101,506.200821 L817.657824,501.993398 C815.542082,500.315796 812.182332,499.179688 808.394607,498.861017 L805.3957,498.608712 C803.118645,498.417138 800.7862,498.529814 798.614267,498.936311 L791.280683,500.308856 C788.787795,500.775423 786.012886,500.540955 783.92585,499.687405 C781.814829,498.824047 779.054065,498.529197 776.467035,498.890805 L768.736207,499.971396 C764.298123,500.591737 761.441033,502.850862 762.078767,505.235489 L762.40803,506.466676 C762.873265,508.206291 761.060818,509.89403 757.982439,510.587757 C755.483528,511.150898 754.328557,512.669425 755.402739,513.979482 C755.463808,514.053962 756.712135,515.144548 759.14772,517.251242 C760.334048,518.272012 760.961586,519.444266 760.961586,520.639578 C760.961586,521.852157 759.894141,522.722315 758.230701,523.119898 C757.182557,523.370417 756.720252,524.018953 757.198114,524.568444 C757.266772,524.647394 757.968861,525.048965 759.304381,525.773158 C760.275048,526.283561 760.447342,527.077208 759.720275,527.688907 C759.339702,528.009092 759.526295,528.430393 760.137043,528.629909 C762.278135,528.733252 763.59031,529.167735 764.209337,529.849738 Z" id="path-1"></path>
        <filter x="-112.6%" y="-302.0%" width="325.2%" height="704.1%" filterUnits="objectBoundingBox" id="filter-2">
            <feGaussianBlur stdDeviation="839.5" in="SourceAlpha" result="shadowBlurInner1"></feGaussianBlur>
            <feOffset dx="0" dy="7" in="shadowBlurInner1" result="shadowOffsetInner1"></feOffset>
            <feComposite in="shadowOffsetInner1" in2="SourceAlpha" operator="arithmetic" k2="-1" k3="1" result="shadowInnerInner1"></feComposite>
            <feColorMatrix values="0 0 0 0 0.435294118   0 0 0 0 0.760784314   0 0 0 0 0.941176471  0 0 0 0.3 0" type="matrix" in="shadowInnerInner1"></feColorMatrix>
        </filter>
        <linearGradient x1="50%" y1="100%" x2="50%" y2="3.061617e-15%" id="linearGradient-3">
            <stop stop-color="#1AD3FD" offset="0%"></stop>
            <stop stop-color="#06547E" stop-opacity="0.481714221" offset="100%"></stop>
        </linearGradient>
        <linearGradient x1="50%" y1="100%" x2="50%" y2="2.79941228%" id="linearGradient-4">
            <stop stop-color="#0575E8" stop-opacity="0.99048913" offset="0%"></stop>
            <stop stop-color="#81BAF3" stop-opacity="0.157693614" offset="36.2942558%"></stop>
            <stop stop-color="#FFFFFF" stop-opacity="0" offset="100%"></stop>
        </linearGradient>
        <linearGradient x1="50%" y1="100%" x2="50%" y2="2.79941228%" id="linearGradient-5">
            <stop stop-color="#0575E8" stop-opacity="0.780457428" offset="0%"></stop>
            <stop stop-color="#81BAF3" stop-opacity="0.157693614" offset="28.1927384%"></stop>
            <stop stop-color="#FFFFFF" stop-opacity="0" offset="100%"></stop>
        </linearGradient>
        <ellipse id="path-6" cx="475.351974" cy="456.233178" rx="475.351974" ry="150.199249"></ellipse>
        <filter x="-2.9%" y="-9.2%" width="105.8%" height="118.3%" filterUnits="objectBoundingBox" id="filter-7">
            <feGaussianBlur stdDeviation="25" in="SourceAlpha" result="shadowBlurInner1"></feGaussianBlur>
            <feOffset dx="0" dy="0" in="shadowBlurInner1" result="shadowOffsetInner1"></feOffset>
            <feComposite in="shadowOffsetInner1" in2="SourceAlpha" operator="arithmetic" k2="-1" k3="1" result="shadowInnerInner1"></feComposite>
            <feColorMatrix values="0 0 0 0 0.0466493507   0 0 0 0 0.572430692   0 0 0 0 0.996864371  0 0 0 0.5 0" type="matrix" in="shadowInnerInner1"></feColorMatrix>
        </filter>
        <linearGradient x1="29.8611639%" y1="7.15281746%" x2="63.7372446%" y2="100%" id="linearGradient-8">
            <stop stop-color="#81B1FD" offset="0%"></stop>
            <stop stop-color="#0053E4" offset="100%"></stop>
        </linearGradient>
        <radialGradient cx="50%" cy="37.5911947%" fx="50%" fy="37.5911947%" r="62.4088053%" gradientTransform="translate(0.500000,0.375912),scale(0.654972,1.000000),rotate(90.000000),scale(1.000000,1.404258),translate(-0.500000,-0.375912)" id="radialGradient-9">
            <stop stop-color="#FFFFFF" offset="0%"></stop>
            <stop stop-color="#FFFFFF" stop-opacity="0.0366564764" offset="100%"></stop>
        </radialGradient>
        <filter x="-59.5%" y="-90.8%" width="219.0%" height="281.7%" filterUnits="objectBoundingBox" id="filter-10">
            <feGaussianBlur stdDeviation="23.3111106" in="SourceGraphic"></feGaussianBlur>
        </filter>
        <path d="M170.617405,341.130498 C264.846796,341.130498 341.23481,264.765835 341.23481,170.565249 C341.23481,76.3646632 264.846796,0 170.617405,0 C76.3880141,0 0,76.3646632 0,170.565249 C0,264.765835 76.3880141,341.130498 170.617405,341.130498 Z" id="path-11"></path>
        <filter x="-24.2%" y="-24.2%" width="148.4%" height="148.5%" filterUnits="objectBoundingBox" id="filter-12">
            <feMorphology radius="7.64242776" operator="dilate" in="SourceAlpha" result="shadowSpreadOuter1"></feMorphology>
            <feOffset dx="0" dy="0" in="shadowSpreadOuter1" result="shadowOffsetOuter1"></feOffset>
            <feMorphology radius="7.64242776" operator="erode" in="SourceAlpha" result="shadowInner"></feMorphology>
            <feOffset dx="0" dy="0" in="shadowInner" result="shadowInner"></feOffset>
            <feComposite in="shadowOffsetOuter1" in2="shadowInner" operator="out" result="shadowOffsetOuter1"></feComposite>
            <feGaussianBlur stdDeviation="25" in="shadowOffsetOuter1" result="shadowBlurOuter1"></feGaussianBlur>
            <feColorMatrix values="0 0 0 0 0   0 0 0 0 0.562160326   0 0 0 0 1  0 0 0 0.5 0" type="matrix" in="shadowBlurOuter1"></feColorMatrix>
        </filter>
        <linearGradient x1="29.8611639%" y1="7.15281746%" x2="69.6974003%" y2="91.2552596%" id="linearGradient-13">
            <stop stop-color="#FFF483" offset="0%"></stop>
            <stop stop-color="#FFE66B" offset="100%"></stop>
        </linearGradient>
        <radialGradient cx="50%" cy="37.5911947%" fx="50%" fy="37.5911947%" r="62.4088053%" gradientTransform="translate(0.500000,0.375912),scale(0.654972,1.000000),rotate(90.000000),scale(1.000000,1.404258),translate(-0.500000,-0.375912)" id="radialGradient-14">
            <stop stop-color="#FFFFFF" offset="0%"></stop>
            <stop stop-color="#FFFFFF" stop-opacity="0.0366564764" offset="100%"></stop>
        </radialGradient>
        <filter x="-59.6%" y="-91.0%" width="219.2%" height="282.0%" filterUnits="objectBoundingBox" id="filter-15">
            <feGaussianBlur stdDeviation="12.4325923" in="SourceGraphic"></feGaussianBlur>
        </filter>
        <path d="M90.8261807,181.596832 C140.988095,181.596832 181.652361,140.944997 181.652361,90.7984162 C181.652361,40.6518356 140.988095,0 90.8261807,0 C40.6642662,0 0,40.6518356 0,90.7984162 C0,140.944997 40.6642662,181.596832 90.8261807,181.596832 Z" id="path-16"></path>
        <filter x="-23.7%" y="-23.7%" width="147.4%" height="147.4%" filterUnits="objectBoundingBox" id="filter-17">
            <feMorphology radius="4.07596147" operator="dilate" in="SourceAlpha" result="shadowSpreadOuter1"></feMorphology>
            <feOffset dx="0" dy="0" in="shadowSpreadOuter1" result="shadowOffsetOuter1"></feOffset>
            <feMorphology radius="4.07596147" operator="erode" in="SourceAlpha" result="shadowInner"></feMorphology>
            <feOffset dx="0" dy="0" in="shadowInner" result="shadowInner"></feOffset>
            <feComposite in="shadowOffsetOuter1" in2="shadowInner" operator="out" result="shadowOffsetOuter1"></feComposite>
            <feGaussianBlur stdDeviation="13" in="shadowOffsetOuter1" result="shadowBlurOuter1"></feGaussianBlur>
            <feColorMatrix values="0 0 0 0 0   0 0 0 0 0.562160326   0 0 0 0 1  0 0 0 0.5 0" type="matrix" in="shadowBlurOuter1"></feColorMatrix>
        </filter>
        <linearGradient x1="29.8611639%" y1="7.15281746%" x2="63.7372446%" y2="100%" id="linearGradient-18">
            <stop stop-color="#DC89F8" offset="0%"></stop>
            <stop stop-color="#C389F4" offset="100%"></stop>
        </linearGradient>
        <radialGradient cx="50%" cy="37.5911947%" fx="50%" fy="37.5911947%" r="62.4088053%" gradientTransform="translate(0.500000,0.375912),scale(0.654972,1.000000),rotate(90.000000),scale(1.000000,1.404258),translate(-0.500000,-0.375912)" id="radialGradient-19">
            <stop stop-color="#FFFFFF" offset="0%"></stop>
            <stop stop-color="#FFFFFF" stop-opacity="0.0366564764" offset="100%"></stop>
        </radialGradient>
        <filter x="-59.4%" y="-90.7%" width="218.8%" height="281.4%" filterUnits="objectBoundingBox" id="filter-20">
            <feGaussianBlur stdDeviation="18.6488885" in="SourceGraphic"></feGaussianBlur>
        </filter>
        <path d="M136.663693,273.243832 C212.140966,273.243832 273.327385,212.076117 273.327385,136.621916 C273.327385,61.1677153 212.140966,0 136.663693,0 C61.1864193,0 0,61.1677153 0,136.621916 C0,212.076117 61.1864193,273.243832 136.663693,273.243832 Z" id="path-21"></path>
        <filter x="-25.3%" y="-25.3%" width="150.6%" height="150.6%" filterUnits="objectBoundingBox" id="filter-22">
            <feMorphology radius="6.11394221" operator="dilate" in="SourceAlpha" result="shadowSpreadOuter1"></feMorphology>
            <feOffset dx="0" dy="0" in="shadowSpreadOuter1" result="shadowOffsetOuter1"></feOffset>
            <feMorphology radius="6.11394221" operator="erode" in="SourceAlpha" result="shadowInner"></feMorphology>
            <feOffset dx="0" dy="0" in="shadowInner" result="shadowInner"></feOffset>
            <feComposite in="shadowOffsetOuter1" in2="shadowInner" operator="out" result="shadowOffsetOuter1"></feComposite>
            <feGaussianBlur stdDeviation="21" in="shadowOffsetOuter1" result="shadowBlurOuter1"></feGaussianBlur>
            <feColorMatrix values="0 0 0 0 0   0 0 0 0 0.562160326   0 0 0 0 1  0 0 0 0.5 0" type="matrix" in="shadowBlurOuter1"></feColorMatrix>
        </filter>
        <linearGradient x1="29.8611639%" y1="7.15281746%" x2="63.7372446%" y2="100%" id="linearGradient-23">
            <stop stop-color="#B6FE93" offset="0%"></stop>
            <stop stop-color="#6BAB09" offset="100%"></stop>
        </linearGradient>
        <filter x="-59.6%" y="-91.0%" width="219.2%" height="282.0%" filterUnits="objectBoundingBox" id="filter-24">
            <feGaussianBlur stdDeviation="12.4325923" in="SourceGraphic"></feGaussianBlur>
        </filter>
        <path d="M90.8261807,181.596832 C140.988095,181.596832 181.652361,140.944997 181.652361,90.7984162 C181.652361,40.6518356 140.988095,0 90.8261807,0 C40.6642662,0 0,40.6518356 0,90.7984162 C0,140.944997 40.6642662,181.596832 90.8261807,181.596832 Z" id="path-25"></path>
        <filter x="-23.7%" y="-23.7%" width="147.4%" height="147.4%" filterUnits="objectBoundingBox" id="filter-26">
            <feMorphology radius="4.07596147" operator="dilate" in="SourceAlpha" result="shadowSpreadOuter1"></feMorphology>
            <feOffset dx="0" dy="0" in="shadowSpreadOuter1" result="shadowOffsetOuter1"></feOffset>
            <feMorphology radius="4.07596147" operator="erode" in="SourceAlpha" result="shadowInner"></feMorphology>
            <feOffset dx="0" dy="0" in="shadowInner" result="shadowInner"></feOffset>
            <feComposite in="shadowOffsetOuter1" in2="shadowInner" operator="out" result="shadowOffsetOuter1"></feComposite>
            <feGaussianBlur stdDeviation="13" in="shadowOffsetOuter1" result="shadowBlurOuter1"></feGaussianBlur>
            <feColorMatrix values="0 0 0 0 0   0 0 0 0 0.562160326   0 0 0 0 1  0 0 0 0.5 0" type="matrix" in="shadowBlurOuter1"></feColorMatrix>
        </filter>
        <linearGradient x1="29.8611639%" y1="7.15281746%" x2="72.4446844%" y2="89.8590317%" id="linearGradient-27">
            <stop stop-color="#F7A18C" offset="0%"></stop>
            <stop stop-color="#EE3C7E" offset="100%"></stop>
        </linearGradient>
        <filter x="-59.4%" y="-90.7%" width="218.8%" height="281.4%" filterUnits="objectBoundingBox" id="filter-28">
            <feGaussianBlur stdDeviation="18.6488885" in="SourceGraphic"></feGaussianBlur>
        </filter>
        <path d="M136.663693,273.243832 C212.140966,273.243832 273.327385,212.076117 273.327385,136.621916 C273.327385,61.1677153 212.140966,0 136.663693,0 C61.1864193,0 0,61.1677153 0,136.621916 C0,212.076117 61.1864193,273.243832 136.663693,273.243832 Z" id="path-29"></path>
        <filter x="-25.3%" y="-25.3%" width="150.6%" height="150.6%" filterUnits="objectBoundingBox" id="filter-30">
            <feMorphology radius="6.11394221" operator="dilate" in="SourceAlpha" result="shadowSpreadOuter1"></feMorphology>
            <feOffset dx="0" dy="0" in="shadowSpreadOuter1" result="shadowOffsetOuter1"></feOffset>
            <feMorphology radius="6.11394221" operator="erode" in="SourceAlpha" result="shadowInner"></feMorphology>
            <feOffset dx="0" dy="0" in="shadowInner" result="shadowInner"></feOffset>
            <feComposite in="shadowOffsetOuter1" in2="shadowInner" operator="out" result="shadowOffsetOuter1"></feComposite>
            <feGaussianBlur stdDeviation="21" in="shadowOffsetOuter1" result="shadowBlurOuter1"></feGaussianBlur>
            <feColorMatrix values="0 0 0 0 1   0 0 0 0 0.515625   0 0 0 0 0  0 0 0 0.5 0" type="matrix" in="shadowBlurOuter1"></feColorMatrix>
        </filter>
    </defs>
    <g id="大屏-0727" stroke="none" stroke-width="1" fill="none" fill-rule="evenodd">
        <g id="五常街道产业大脑" transform="translate(-4641.000000, -1205.000000)">
            <g id="经济等级分析循环" transform="translate(4685.000000, 1190.000000)">
                <g id="Path-20" opacity="0.2">
                    <use fill="#009CFF" fill-rule="evenodd" xlink:href="#path-1"></use>
                    <use fill="black" fill-opacity="1" filter="url(#filter-2)" xlink:href="#path-1"></use>
                </g>
                <ellipse id="Oval-5" stroke="url(#linearGradient-3)" stroke-width="5.09495184" cx="733.400188" cy="459.627511" rx="624.748309" ry="207.902916"></ellipse>
                <g id="Group-4" opacity="0.5" transform="translate(261.443586, 0.000000)">
                    <ellipse id="Oval-5" stroke="#0BA7FB" stroke-width="5.09495184" cx="476.200817" cy="455.384595" rx="355.665138" ry="101.83"></ellipse>
                    <ellipse id="Oval-5" stroke="#0BA7FB" stroke-width="5.09495184" opacity="0.3" cx="477.04966" cy="440.958678" rx="212.210703" ry="60.2494164"></ellipse>
                    <path d="M227.414678,0.727273312 L726.684642,0.727273312 L638.046134,458.251504 C593.425388,482.363453 539.759897,494.419428 477.04966,494.419428 C414.339423,494.419428 361.276914,482.363453 317.862135,458.251504 L227.414678,0.727273312 Z" id="Rectangle" fill="url(#linearGradient-4)"></path>
                    <path d="M308.817389,141.782175 L645.28193,141.782175 L585.547283,450.113722 C555.476781,466.363079 519.310906,474.487757 477.04966,474.487757 C434.788413,474.487757 399.028896,466.363079 369.77111,450.113722 L308.817389,141.782175 Z" id="Rectangle" fill="url(#linearGradient-5)"></path>
                    <g id="Oval-5">
                        <use fill="black" fill-opacity="1" filter="url(#filter-7)" xlink:href="#path-6"></use>
                        <use stroke="#0BA7FB" stroke-width="5.09495184" xlink:href="#path-6"></use>
                    </g>
                    <path d="M476.200817,585.217844 L476.200817,603.886677" id="Line" stroke="#0BA7FB" stroke-width="1.69831728" stroke-linecap="square"></path>
                    <path d="M473.654288,306.033929 L473.654288,324.702762" id="Line" stroke="#0BA7FB" stroke-width="1.69831728" stroke-linecap="square"></path>
                    <path d="M21.2210703,457.081761 L0,457.081761" id="Line" stroke="#0BA7FB" stroke-width="1.69831728" stroke-linecap="square"></path>
                    <path d="M949.855105,455.384595 L928.634035,455.384595" id="Line" stroke="#0BA7FB" stroke-width="1.69831728" stroke-linecap="square"></path>
                    <path d="M260.594743,580.126344 L255.501686,586.915011" id="Line" stroke="#0BA7FB" stroke-width="1.69831728" stroke-linecap="square"></path>
                    <path d="M114.593779,542.788678 L107.53098,547.495771" id="Line" stroke="#0BA7FB" stroke-width="1.69831728" stroke-linecap="square"></path>
                    <path d="M819.133312,549.577344 L814.040255,556.366011" id="Line" stroke="#0BA7FB" stroke-width="1.69831728" stroke-linecap="square" transform="translate(816.586784, 552.971678) scale(-1, 1) translate(-816.586784, -552.971678) "></path>
                    <path d="M666.613663,585.217844 L659.550864,589.924937" id="Line" stroke="#0BA7FB" stroke-width="1.69831728" stroke-linecap="square" transform="translate(663.082263, 587.571391) scale(-1, 1) translate(-663.082263, -587.571391) "></path>
                    <path d="M136.663693,362.889012 L132.294007,355.025982" id="Line" stroke="#0BA7FB" stroke-width="1.69831728" stroke-linecap="square"></path>
                    <path d="M270.780857,332.340012 L266.411171,324.476982" id="Line" stroke="#0BA7FB" stroke-width="1.69831728" stroke-linecap="square"></path>
                    <path d="M670.711292,330.642845 L666.341606,322.779815" id="Line" stroke="#0BA7FB" stroke-width="1.69831728" stroke-linecap="square" transform="translate(668.526449, 326.711330) scale(-1, 1) translate(-668.526449, -326.711330) "></path>
                    <path d="M811.619199,361.191845 L807.249513,353.328815" id="Line" stroke="#0BA7FB" stroke-width="1.69831728" stroke-linecap="square" transform="translate(809.434356, 357.260330) scale(-1, 1) translate(-809.434356, -357.260330) "></path>
                </g>
                <g id="Group-3" transform="translate(567.026998, 455.384595)">
                    <g id="Group-2" transform="translate(71.302796, 68.735250)">
                        <g id="Group">
                            <ellipse id="Oval-8" fill="url(#linearGradient-circle8)" cx="99.3146089" cy="99.2842495" rx="99.3146089" ry="99.2842495"></ellipse>
                            <ellipse id="Oval-4" fill="url(#radialGradient-circle9)" filter="url(#filter-10)" cx="74.9926638" cy="60.7862752" rx="58.7780338" ry="38.4979743"></ellipse>
                        </g>
                    </g>
                    <path d="M171.890669,25.4574999 C138.47067,25.4574999 107.711976,36.8484226 83.2875376,55.9584423 M28.0118128,169.292374 C28.0118128,219.318544 53.5587522,263.379731 92.3219911,289.149064 M171.890669,313.127249 C251.352767,313.127249 315.769526,248.730182 315.769526,169.292374 C315.769526,144.184807 309.33445,120.579773 298.023162,100.035658" id="Oval-3" stroke="#00B9FF" stroke-width="2.54747592"></path>
                    <g id="Oval-3" stroke-dasharray="2.547475862503052,12.7373797416687">
                        <use fill="black" fill-opacity="1" filter="url(#filter-12)" xlink:href="#path-11"></use>
                        <use stroke="#00B9FF" stroke-width="15.2848555" xlink:href="#path-11"></use>
                    </g>
                    <path d="M45.8375118,168.019499 C45.8375118,201.302423 58.8763731,231.540888 80.1261432,253.908418 M151.425526,291.294905 C157.681546,292.260348 164.090962,292.761249 170.617405,292.761249 M208.567413,286.887274 C224.150555,281.919449 238.404018,273.974005 250.658521,263.720016 C273.187027,244.869228 288.959726,218.216338 293.818309,187.918385 M295.397298,168.019499 C295.397298,158.744824 294.3848,149.706558 292.464275,141.009141 C280.118999,85.1015025 230.253926,43.2777498 170.617405,43.2777498 M86.0425987,76.3017898 C66.1706447,94.6241504 52.2671034,119.318963 47.5774852,147.14171" id="Oval-3" stroke="#00B9FF" stroke-width="15.2848555"></path>
                </g>
                <g id="Group-3-Copy" transform="translate(884.494209, 142.480933)">
                    <g id="Group-2" transform="translate(37.957210, 36.590407)">
                        <g id="Group">
                            <ellipse id="Oval-8" fill="url(#linearGradient-13)" cx="52.8689709" cy="52.8528094" rx="52.8689709" ry="52.8528094"></ellipse>
                            <ellipse id="Oval-4" fill="url(#radialGradient-14)" filter="url(#filter-15)" cx="39.9214678" cy="32.3588629" rx="31.2897991" ry="20.4939465"></ellipse>
                        </g>
                    </g>
                    <path d="M91.5039881,13.5520024 C73.7132421,13.5520024 57.3392113,19.6158269 44.3371469,29.7888225 M14.911761,90.1208161 C14.911761,116.751663 28.5113756,140.207121 49.1465326,153.925123 M91.5039881,166.68963 C133.804707,166.68963 168.096215,132.408604 168.096215,90.1208161 C168.096215,76.7550964 164.670578,64.1892326 158.649146,53.2528129" id="Oval-3" stroke="#FFE66B" stroke-width="1.35865382"></path>
                    <g id="Oval-3" stroke-dasharray="1.35865387916565,6.793269395828247">
                        <use fill="black" fill-opacity="1" filter="url(#filter-17)" xlink:href="#path-16"></use>
                        <use stroke="#FFE66B" stroke-width="8.15192294" xlink:href="#path-16"></use>
                    </g>
                    <path d="M24.4010635,89.443216 C24.4010635,107.160991 31.3421489,123.258085 42.6542155,135.165178 M80.6096085,155.067437 C83.9399274,155.581379 87.351905,155.848028 90.8261807,155.848028 M111.028424,152.721086 C119.323927,150.076522 126.911591,145.846858 133.435133,140.388267 C145.42792,130.353271 153.824332,116.164916 156.410742,100.036155 M157.251298,89.443216 C157.251298,84.5059512 156.712307,79.6945361 155.689938,75.0645675 C149.118074,45.3027899 122.572985,23.0384041 90.8261807,23.0384041 M45.8037715,40.6183657 C35.2251691,50.3720602 27.8237814,63.5180551 25.327318,78.3291693" id="Oval-3" stroke="#FFE66B" stroke-width="8.15192294"></path>
                </g>
                <g id="Group-3-Copy" transform="translate(1190.077621, 317.914095)">
                    <g id="Group-2" transform="translate(57.113185, 55.056593)">
                        <g id="Group">
                            <ellipse id="Oval-8" fill="url(#linearGradient-18)" cx="79.5505076" cy="79.5261899" rx="79.5505076" ry="79.5261899"></ellipse>
                            <ellipse id="Oval-4" fill="url(#radialGradient-19)" filter="url(#filter-20)" cx="60.0687506" cy="48.689504" rx="47.0809127" ry="30.8366859"></ellipse>
                        </g>
                    </g>
                    <path d="M137.683571,20.3913307 C110.914318,20.3913307 86.2767573,29.5154031 66.7129033,44.8224339 M22.4373227,135.602349 C22.4373227,175.673063 42.9002941,210.965854 73.9494555,231.606962 M137.683571,250.813368 C201.332316,250.813368 252.929819,199.231638 252.929819,135.602349 C252.929819,115.491313 247.775356,96.5837985 238.71507,80.1280643" id="Oval-3" stroke="#C389F4" stroke-width="2.03798074"></path>
                    <g id="Oval-3" stroke-dasharray="2.037980818748474,10.18990345001221">
                        <use fill="black" fill-opacity="1" filter="url(#filter-22)" xlink:href="#path-21"></use>
                        <use stroke="#C389F4" stroke-width="12.2278844" xlink:href="#path-21"></use>
                    </g>
                    <path d="M36.7156189,134.582783 C36.7156189,161.242239 47.1596819,185.463099 64.1806421,203.37938 M121.291093,233.325769 C126.302134,234.099085 131.436044,234.500304 136.663693,234.500304 M167.06146,229.795279 C179.543479,225.816076 190.960432,219.451815 200.776228,211.23842 C218.821449,196.139033 231.455303,174.790201 235.347004,150.521691 M236.611766,134.582783 C236.611766,127.153814 235.80076,119.914209 234.262429,112.94762 C224.373925,68.1658801 184.432249,34.6652623 136.663693,34.6652623 M68.9196935,61.117354 C53.0023572,75.7934737 41.8656898,95.573896 38.1093289,117.859778" id="Oval-3" stroke="#C389F4" stroke-width="12.2278844"></path>
                </g>
                <g id="Group-3-Copy" transform="translate(373.490837, 138.014429)">
                    <g id="Group-2" transform="translate(37.957210, 36.590407)">
                        <g id="Group">
                            <ellipse id="Oval-8" fill="url(#linearGradient-23)" cx="52.8689709" cy="52.8528094" rx="52.8689709" ry="52.8528094"></ellipse>
                            <ellipse id="Oval-4" fill="url(#radialGradient-14)" filter="url(#filter-24)" cx="39.9214678" cy="32.3588629" rx="31.2897991" ry="20.4939465"></ellipse>
                        </g>
                    </g>
                    <path d="M91.5039881,13.5520024 C73.7132421,13.5520024 57.3392113,19.6158269 44.3371469,29.7888225 M14.911761,90.1208161 C14.911761,116.751663 28.5113756,140.207121 49.1465326,153.925123 M91.5039881,166.68963 C133.804707,166.68963 168.096215,132.408604 168.096215,90.1208161 C168.096215,76.7550964 164.670578,64.1892326 158.649146,53.2528129" id="Oval-3" stroke="#6BAB09" stroke-width="1.35865382"></path>
                    <g id="Oval-3" stroke-dasharray="1.35865387916565,6.793269395828247">
                        <use fill="black" fill-opacity="1" filter="url(#filter-26)" xlink:href="#path-25"></use>
                        <use stroke="#6BAB09" stroke-width="8.15192294" xlink:href="#path-25"></use>
                    </g>
                    <path d="M24.4010635,89.443216 C24.4010635,107.160991 31.3421489,123.258085 42.6542155,135.165178 M80.6096085,155.067437 C83.9399274,155.581379 87.351905,155.848028 90.8261807,155.848028 M111.028424,152.721086 C119.323927,150.076522 126.911591,145.846858 133.435133,140.388267 C145.42792,130.353271 153.824332,116.164916 156.410742,100.036155 M157.251298,89.443216 C157.251298,84.5059512 156.712307,79.6945361 155.689938,75.0645675 C149.118074,45.3027899 122.572985,23.0384041 90.8261807,23.0384041 M45.8037715,40.6183657 C35.2251691,50.3720602 27.8237814,63.5180551 25.327318,78.3291693" id="Oval-3" stroke="#6BAB09" stroke-width="8.15192294"></path>
                </g>
                <g id="Group-3" transform="translate(0.000000, 323.005595)">
                    <g id="Group-2" transform="translate(57.113185, 55.056593)">
                        <g id="Group">
                            <ellipse id="Oval-8" fill="url(#linearGradient-27)" cx="79.5505076" cy="79.5261899" rx="79.5505076" ry="79.5261899"></ellipse>
                            <ellipse id="Oval-4" fill="url(#radialGradient-19)" filter="url(#filter-28)" cx="60.0687506" cy="48.689504" rx="47.0809127" ry="30.8366859"></ellipse>
                        </g>
                    </g>
                    <path d="M137.683571,20.3913307 C110.914318,20.3913307 86.2767573,29.5154031 66.7129033,44.8224339 M22.4373227,135.602349 C22.4373227,175.673063 42.9002941,210.965854 73.9494555,231.606962 M137.683571,250.813368 C201.332316,250.813368 252.929819,199.231638 252.929819,135.602349 C252.929819,115.491313 247.775356,96.5837985 238.71507,80.1280643" id="Oval-3" stroke="#EE3C7E" stroke-width="2.03798074"></path>
                    <g id="Oval-3" stroke-dasharray="2.037980818748474,10.18990345001221">
                        <use fill="black" fill-opacity="1" filter="url(#filter-30)" xlink:href="#path-29"></use>
                        <use stroke="#EE3C7E" stroke-width="12.2278844" xlink:href="#path-29"></use>
                    </g>
                    <path d="M36.7156189,134.582783 C36.7156189,161.242239 47.1596819,185.463099 64.1806421,203.37938 M121.291093,233.325769 C126.302134,234.099085 131.436044,234.500304 136.663693,234.500304 M167.06146,229.795279 C179.543479,225.816076 190.960432,219.451815 200.776228,211.23842 C218.821449,196.139033 231.455303,174.790201 235.347004,150.521691 M236.611766,134.582783 C236.611766,127.153814 235.80076,119.914209 234.262429,112.94762 C224.373925,68.1658801 184.432249,34.6652623 136.663693,34.6652623 M68.9196935,61.117354 C53.0023572,75.7934737 41.8656898,95.573896 38.1093289,117.859778" id="Oval-3" stroke="#EE3C7E" stroke-width="12.2278844"></path>
                </g>
            </g>
        </g>
    </g>
</svg>