<?xml version="1.0" encoding="UTF-8"?>
<svg width="240px" height="133px" viewBox="0 0 240 133" version="1.1" xmlns="http://www.w3.org/2000/svg" xmlns:xlink="http://www.w3.org/1999/xlink">
    <!-- Generator: Sketch 50.2 (55047) - http://www.bohemiancoding.com/sketch -->
    <title>Group 28</title>
    <desc>Created with Sketch.</desc>
    <defs>
        <linearGradient x1="123.711131%" y1="-19.8771722%" x2="3.45105763%" y2="96.6558949%" id="linearGradient-1">
            <stop stop-color="#5FE5FB" offset="0%"></stop>
            <stop stop-color="#31C6F5" offset="100%"></stop>
        </linearGradient>
        <linearGradient x1="109.851475%" y1="598.945325%" x2="92.3753964%" y2="760.996233%" id="linearGradient-2">
            <stop stop-color="#56DEF9" offset="0%"></stop>
            <stop stop-color="#254B57" offset="100%"></stop>
        </linearGradient>
    </defs>
    <g id="二期设计终稿" stroke="none" stroke-width="1" fill="none" fill-rule="evenodd">
        <g id="一图看懂经济" transform="translate(-335.000000, -6624.000000)">
            <g id="Group-28" transform="translate(335.000000, 6618.000000)">
                <rect id="Rectangle-path" fill="#000000" fill-rule="nonzero" opacity="0" x="32" y="0" width="98" height="98"></rect>
                <path d="M53.1875,6 L108.3125,6 C113.38668,6 117.5,10.1133203 117.5,15.1875 L117.5,82.5625 C117.5,87.6366797 113.38668,91.75 108.3125,91.75 L53.1875,91.75 C48.1133203,91.75 44,87.6366797 44,82.5625 L44,15.1875 C44,10.1133203 48.1133203,6 53.1875,6 Z M56.25,18.25 L56.25,25.6 L99.125,25.6 L99.125,18.25 L56.25,18.25 Z M56.25,36.625 L56.25,43.975 L87.7696328,43.975 L87.7696328,36.625 L56.25,36.625 Z M91.0465078,77.4098437 C91.7063753,76.9250509 92.604656,76.9250509 93.2645234,77.4098437 L99.3523906,81.8822422 C99.8413531,82.2412723 100.473911,82.3412775 101.049781,82.1505937 C102.032078,81.8259687 102.078016,79.2948125 102.239945,79.7840469 L99.8676562,72.6120547 C99.6105445,71.8347592 99.8880483,70.9805437 100.552891,70.5027578 L106.687844,66.0946719 C107.349962,65.6190839 107.628444,64.7698612 107.376532,63.9945388 C107.12462,63.2192163 106.40017,62.6958592 105.584961,62.7002734 L98.0309219,62.7404687 C97.212007,62.7448876 96.4851597,62.216807 96.2362969,61.4366094 L93.9401875,54.2397344 C93.692008,53.4635705 92.9705833,52.9368402 92.155707,52.9368402 C91.3408307,52.9368402 90.6194061,53.4635705 90.3712266,54.2397344 L88.0743516,61.4366094 C87.825531,62.2166716 87.0988833,62.7447198 86.2801094,62.7404687 L78.7260703,62.7002734 C77.9109326,62.6960275 77.1866362,63.2194426 76.9348254,63.9947225 C76.6830147,64.7700024 76.9615111,65.6191246 77.6235703,66.0946719 L83.7581406,70.5027578 C84.4229829,70.9805437 84.7004867,71.8347592 84.443375,72.6120547 L82.0710859,79.7840469 C81.8155116,80.5579241 82.0895499,81.4082493 82.7489013,81.887269 C83.4082527,82.3662887 84.3016425,82.3641016 84.9586406,81.8818594 L91.0465078,77.4094609 L91.0465078,77.4098437 Z" id="Shape" fill="url(#linearGradient-1)" fill-rule="nonzero"></path>
                <text id="全区发明专利申请量" font-family="PingFangSC-Regular, PingFang SC" font-size="20" font-weight="normal" fill="#000000" fill-opacity="0.65">
                    <tspan x="0" y="136">全区发明专利申请量</tspan>
                </text>
                <g id="Group-8" transform="translate(185.000000, 54.000000)" fill="url(#linearGradient-2)">
                    <polygon id="Triangle-2" transform="translate(50.000000, 13.500000) rotate(90.000000) translate(-50.000000, -13.500000) " points="50 9 63 18 37 18"></polygon>
                    <rect id="Rectangle-33" x="0" y="7" width="8" height="13"></rect>
                    <rect id="Rectangle-33-Copy-2" x="23" y="7" width="8" height="13"></rect>
                    <rect id="Rectangle-33-Copy" x="11" y="7" width="8" height="13"></rect>
                    <rect id="Rectangle-33-Copy-3" x="34" y="7" width="8" height="13"></rect>
                </g>
            </g>
        </g>
    </g>
</svg>