<?xml version="1.0" encoding="UTF-8"?>
<svg width="371px" height="144px" viewBox="0 0 371 144" version="1.1" xmlns="http://www.w3.org/2000/svg" xmlns:xlink="http://www.w3.org/1999/xlink">
    <!-- Generator: Sketch 50.2 (55047) - http://www.bohemiancoding.com/sketch -->
    <title>Group 34</title>
    <desc>Created with Sketch.</desc>
    <defs>
        <linearGradient x1="50%" y1="50%" x2="0%" y2="50%" id="linearGradient-1">
            <stop stop-color="#62A3F8" offset="0%"></stop>
            <stop stop-color="#336AEE" offset="100%"></stop>
        </linearGradient>
        <linearGradient x1="8.09668616%" y1="50%" x2="50%" y2="50%" id="linearGradient-2">
            <stop stop-color="#00C9E0" offset="0%"></stop>
            <stop stop-color="#00F4C1" offset="100%"></stop>
        </linearGradient>
    </defs>
    <g id="二期设计终稿" stroke="none" stroke-width="1" fill="none" fill-rule="evenodd">
        <g id="一图看懂经济" transform="translate(-550.000000, -9944.000000)">
            <g id="Group-34" transform="translate(545.000000, 9938.000000)">
                <g id="Group-34-Copy-4" transform="translate(45.631337, 42.098177) rotate(38.000000) translate(-45.631337, -42.098177) translate(4.131337, 21.098177)" fill="url(#linearGradient-1)">
                    <path d="M44.5045938,7.80009789 L44.5045938,0.0827285157 L82.7716427,20.8668951 L44.5045938,41.6510617 L44.5045938,33.467021 L0,33.467021 L0,7.80009789 L44.5045938,7.80009789 Z" id="Combined-Shape"></path>
                </g>
                <g id="Group-34-Copy-6" transform="translate(342.631337, 50.098177) rotate(-38.000000) translate(-342.631337, -50.098177) translate(301.131337, 29.098177)" fill="url(#linearGradient-2)">
                    <path d="M44.5045938,7.80009789 L44.5045938,0.0827285157 L82.7716427,20.8668951 L44.5045938,41.6510617 L44.5045938,33.467021 L0,33.467021 L0,7.80009789 L44.5045938,7.80009789 Z" id="Combined-Shape"></path>
                </g>
                <g id="金币" transform="translate(110.000000, 35.000000)" fill-rule="nonzero">
                    <rect id="Rectangle-path" fill="#000000" opacity="0" x="0" y="0" width="115.137034" height="115.137034"></rect>
                    <path d="M8.08783438,75.9994474 C8.08783438,88.8024563 32.4577563,99.1905756 62.541553,99.1905756 C92.6253497,99.1905756 117.011644,88.8106425 117.01983,76.0076335 C117.01983,63.2046245 92.6335358,52.8165052 62.5579252,52.8165052 C32.4823145,52.8165052 8.08783438,63.1964384 8.08783438,75.9994474 Z" id="Shape" fill="#FFB600"></path>
                    <path d="M8.08783438,76.9490312 C8.08783438,89.7520401 32.4577563,100.140159 62.541553,100.140159 C92.6253497,100.140159 117.011644,89.727482 117.011644,76.9490312 C117.011644,64.1460222 92.6253497,53.7579029 62.5497391,53.7579029 C32.4741285,53.7579029 8.08783438,64.1050919 8.08783438,76.9490312 Z" id="Shape" fill="#FFB600"></path>
                    <path d="M8.08783438,77.8167543 C8.08783438,90.6197633 32.4577563,101.007883 62.541553,101.007883 C92.6253497,101.007882 117.011644,90.6279494 117.01983,77.8249403 C117.01983,65.0219314 92.6335358,54.6338121 62.5579252,54.6338122 C32.4823145,54.6338123 8.08783438,65.0137453 8.08783438,77.8167543 Z" id="Shape" fill="#FF8F3B"></path>
                    <path d="M8.08783438,75.1726546 C8.08783438,87.9756636 32.4577563,98.3637829 62.541553,98.3637829 C92.6253497,98.3637829 117.011644,87.9838498 117.01983,75.1808407 C117.01983,62.3778317 92.6335358,51.9897124 62.5579252,51.9897124 C32.4823145,51.9897124 8.08783438,62.3696457 8.08783438,75.1726546 Z" id="Shape" fill="#FCDC06"></path>
                    <path d="M14.8577119,69.3196166 C14.8577119,82.1226256 39.2276338,92.5107448 69.3114305,92.5107448 C99.3952272,92.5107448 123.781521,82.1308117 123.789707,69.3278027 C123.789707,56.5247937 99.4034133,46.1366744 69.3278027,46.1366744 C39.252192,46.1366744 14.8577119,56.4838633 14.8577119,69.3196166 Z" id="Shape" fill="#FFB600"></path>
                    <path d="M14.8577119,70.2282701 C14.8577119,83.031279 39.2276338,93.4193983 69.3114305,93.4193983 C99.3952272,93.4193983 123.781521,83.0394652 123.789707,70.2364562 C123.789707,57.4334472 99.4034133,47.0453279 69.3278027,47.0453279 C39.252192,47.0453279 14.8577119,57.417075 14.8577119,70.2282701 Z" id="Shape" fill="#FFB600"></path>
                    <path d="M14.8577119,71.1369236 C14.8577119,83.9399325 39.2276338,94.3280518 69.3114305,94.3280517 C99.3952272,94.3280516 123.781521,83.9481186 123.789707,71.1451095 C123.789707,58.3421006 99.4034133,47.9539813 69.3278027,47.9539814 C39.252192,47.9539815 14.8577119,58.3257284 14.8577119,71.1369236 Z" id="Shape" fill="#FF8F3B"></path>
                    <path d="M14.8577119,68.4109632 C14.8577119,81.2139722 39.2276338,91.6020915 69.3114305,91.6020914 C99.3952272,91.6020912 123.781521,81.2221583 123.789707,68.4191492 C123.789707,55.6161402 99.4034133,45.2280209 69.3278027,45.228021 C39.252192,45.2280211 14.8577119,55.599768 14.8577119,68.4109632 Z" id="Shape" fill="#FCDC06"></path>
                    <path d="M9.48765178,61.6410856 C9.48765178,74.4440946 33.8739459,84.8322139 63.9495566,84.8322139 C94.0251673,84.8322139 118.411461,74.4522808 118.411461,61.6410856 C118.411461,48.8298904 94.0333533,38.4745156 63.9577426,38.4745156 C33.8821318,38.4745156 9.48765178,48.8380766 9.48765178,61.6410856 Z" id="Shape" fill="#FFB600"></path>
                    <path d="M9.48765178,62.5497391 C9.48765178,75.3527481 33.8739459,85.7408674 63.9495566,85.7408674 C94.0251673,85.7408674 118.411461,75.3609343 118.411461,62.5497391 C118.411461,49.7385439 94.0333533,39.3586108 63.9577426,39.3586108 C33.8821318,39.3586108 9.48765178,49.74673 9.48765178,62.5497391 Z" id="Shape" fill="#FFB600"></path>
                    <path d="M9.48765178,63.4583926 C9.48765178,76.2614015 33.8739459,86.6495208 63.9495566,86.6495207 C94.0251673,86.6495206 118.411461,76.2695876 118.411461,63.4583926 C118.411461,50.6471975 94.0333533,40.2672643 63.9577426,40.2672643 C33.8821318,40.2672643 9.48765178,50.6553835 9.48765178,63.4583926 Z" id="Shape" fill="#FF8F3B"></path>
                    <path d="M9.48765178,60.8142928 C9.48765178,73.6173018 33.8739459,84.0054211 63.9495566,84.0054211 C94.0251673,84.0054211 118.411461,73.625488 118.411461,60.8142928 C118.411461,48.0030977 94.0333533,37.6559089 63.9577426,37.6559089 C33.8821318,37.6559089 9.48765178,48.0112838 9.48765178,60.8142928 Z" id="Shape" fill="#FCDC06"></path>
                    <path d="M8.5789984,49.1164029 C8.5789984,61.9194118 32.9652925,72.3075311 63.0409031,72.3075311 C93.1165137,72.3075311 117.510994,61.9030398 117.510994,49.1164029 C117.510994,36.329766 93.1246999,25.9089025 63.032717,25.9089025 C32.9407341,25.9089025 8.5789984,36.2970217 8.5789984,49.1164029 Z" id="Shape" fill="#FFB600"></path>
                    <path d="M8.5789984,50.0086842 C8.5789984,62.8116932 32.9652925,73.1998125 63.0409031,73.1998125 C93.1165137,73.1998125 117.502808,62.8198794 117.502808,50.0086842 C117.502808,37.197489 93.1246999,26.8175559 63.032717,26.8175559 C32.9407341,26.8175559 8.5789984,37.1974891 8.5789984,50.0086842 Z" id="Shape" fill="#FFB600"></path>
                    <path d="M8.5789984,50.9173377 C8.5789984,63.7203466 32.9652925,74.1084659 63.0409031,74.1084659 C93.1165137,74.1084659 117.502808,63.7285328 117.502808,50.9173377 C117.502808,38.1061425 93.1246999,27.7262094 63.032717,27.7262094 C32.9407341,27.7262094 8.5789984,38.1061426 8.5789984,50.9173377 Z" id="Shape" fill="#FFB600"></path>
                    <path d="M8.5789984,48.1913773 C8.5789984,61.0025724 32.9652924,71.3825056 63.032717,71.3825056 C93.1001417,71.3825056 117.494622,61.0025725 117.494622,48.1913773 C117.494622,35.3801822 93.1246999,25.0002491 63.032717,25.0002491 C32.9407341,25.0002491 8.5789984,35.3883682 8.5789984,48.1913773 Z" id="Shape" fill="#FCDC06"></path>
                    <path d="M4.53508115,38.7855862 C4.53508115,51.5722231 28.9131891,61.9767144 58.996986,61.9767143 C89.0807828,61.9767142 113.458891,51.5722231 113.467077,38.7937723 C113.467077,25.9907633 89.0807827,15.602644 59.0051719,15.602644 C28.9295612,15.602644 4.53508115,25.974391 4.53508115,38.7855862 Z" id="Shape" fill="#FFB600"></path>
                    <path d="M4.53508115,39.6942396 C4.53508115,52.4972485 28.9131891,62.8853678 58.9887999,62.8853678 C89.0644106,62.8853678 113.458891,52.5054347 113.467077,39.7024256 C113.467077,26.8994167 89.0807827,16.5112974 59.0051719,16.5112975 C28.9295612,16.5112976 4.53508115,26.8830445 4.53508115,39.6942396 Z" id="Shape" fill="#FFB600"></path>
                    <path d="M4.53508115,40.602893 C4.53508115,53.405902 28.9131891,63.7940213 58.9887999,63.7940213 C89.0644106,63.7940213 113.458891,53.4140882 113.467077,40.602893 C113.467077,27.7998841 89.0807827,17.4117648 59.0051719,17.4117648 C28.9295612,17.4117648 4.53508115,27.8326283 4.53508115,40.602893 Z" id="Shape" fill="#FFB600"></path>
                    <path d="M4.53508115,37.8769327 C4.53508115,50.6799416 28.9131891,61.0680609 58.9887999,61.0680609 C89.0644106,61.0680609 113.458891,50.6881278 113.458891,37.8851188 C113.458891,25.0821097 89.0725966,14.6939905 58.996986,14.6939905 C28.9213753,14.6939905 4.53508115,25.0739237 4.53508115,37.8769327 Z" id="Shape" fill="#FCDC06"></path>
                    <path d="M8.5789984,49.1164029 C8.5789984,61.9194118 32.9652925,72.3075311 63.0409031,72.3075311 C93.1165137,72.3075311 117.510994,61.9030398 117.510994,49.1164029 C117.510994,36.329766 93.1246999,25.9089025 63.032717,25.9089025 C32.9407341,25.9089025 8.5789984,36.2970217 8.5789984,49.1164029 Z" id="Shape" fill="#FFB600"></path>
                    <path d="M8.5789984,50.0086842 C8.5789984,62.8116932 32.9652925,73.1998125 63.0409031,73.1998125 C93.1165137,73.1998125 117.502808,62.8198794 117.502808,50.0086842 C117.502808,37.197489 93.1246999,26.8175559 63.032717,26.8175559 C32.9407341,26.8175559 8.5789984,37.1974891 8.5789984,50.0086842 Z" id="Shape" fill="#FFB600"></path>
                    <path d="M8.5789984,50.9173377 C8.5789984,63.7203466 32.9652925,74.1084659 63.0409031,74.1084659 C93.1165137,74.1084659 117.502808,63.7285328 117.502808,50.9173377 C117.502808,38.1061425 93.1246999,27.7262094 63.032717,27.7262094 C32.9407341,27.7262094 8.5789984,38.1061426 8.5789984,50.9173377 Z" id="Shape" fill="#FF8F3B"></path>
                    <path d="M8.5789984,48.1913773 C8.5789984,61.0025724 32.9652924,71.3825056 63.032717,71.3825056 C93.1001417,71.3825056 117.494622,61.0025725 117.494622,48.1913773 C117.494622,35.3801822 93.1246999,25.0002491 63.032717,25.0002491 C32.9407341,25.0002491 8.5789984,35.3883682 8.5789984,48.1913773 Z" id="Shape" fill="#FCDC06"></path>
                    <path d="M0,40.602893 C0,53.405902 24.3862941,63.7858352 54.4619047,63.7858352 C84.5375153,63.7858352 108.923809,53.4059021 108.923809,40.594707 C108.923809,27.7835118 84.5457014,17.4117648 54.4619047,17.4117648 C24.378108,17.4117648 0,27.8326283 0,40.602893 Z" id="Shape" fill="#FFB600"></path>
                    <path d="M0,41.5115465 C0,54.3145555 24.3862941,64.6699305 54.4619047,64.6699305 C84.5375153,64.6699305 108.923809,54.2899974 108.923809,41.4788022 C108.923809,28.667607 84.5457014,18.3204183 54.4619047,18.3204183 C24.378108,18.3204183 0,28.7003514 0,41.5115465 Z" id="Shape" fill="#FFB600"></path>
                    <path d="M0,42.4120139 C0,55.223209 24.3862941,65.6031422 54.4619047,65.6031421 C84.5375153,65.603142 108.923809,55.223209 108.923809,42.4120139 C108.923809,29.6008189 84.5457014,19.2290718 54.4619047,19.2290718 C24.378108,19.2290718 0,29.6090049 0,42.4120139 Z" id="Shape" fill="#FF8F3B"></path>
                    <path d="M0,39.6942396 C0,52.4972485 24.3862941,62.8771817 54.4619047,62.8771817 C84.5375153,62.8771817 108.923809,52.4972486 108.923809,39.6860536 C108.923809,26.8748585 84.5457014,16.5031114 54.4619047,16.5031114 C24.378108,16.5031114 0,26.8830445 0,39.6942396 Z" id="Shape" fill="#FCDC06"></path>
                    <path d="M15.2670153,27.1531848 C15.2670153,39.9561937 39.6533093,50.344313 69.72892,50.3443129 C99.8045306,50.3443128 124.190825,39.9643798 124.190825,27.1531848 C124.190825,14.3419897 99.8127167,3.9620565 69.72892,3.9620565 C39.6451233,3.9620565 15.2670153,14.3419896 15.2670153,27.1531848 Z" id="Shape" fill="#FFB600"></path>
                    <path d="M15.2670153,28.0536522 C15.2670153,40.8566611 39.6533093,51.2447804 69.72892,51.2447803 C99.8045306,51.2447802 124.190825,40.8648472 124.190825,28.0536522 C124.190825,15.2424571 99.8127167,4.87070999 69.72892,4.87070999 C39.6451233,4.87070999 15.2670153,15.2506431 15.2670153,28.0536522 Z" id="Shape" fill="#FFB600"></path>
                    <path d="M15.2670153,28.8804449 C15.2670153,41.6834539 39.6533093,52.0715732 69.72892,52.0715732 C99.8045306,52.0715732 124.190825,41.6916401 124.190825,28.8804449 C124.190825,16.0692498 99.8127167,5.73024697 69.72892,5.73024697 C39.6451233,5.73024697 15.2670153,16.0774358 15.2670153,28.8804449 Z" id="Shape" fill="#FF8F3B"></path>
                    <path d="M15.2670153,26.2445313 C15.2670153,39.0475402 39.6533093,49.4356595 69.72892,49.4356595 C99.8045306,49.4356595 124.190825,39.0557264 124.190825,26.2445313 C124.190825,13.4333361 99.8127167,3.05340301 69.72892,3.05340301 C39.6451233,3.05340301 15.2670153,13.4333362 15.2670153,26.2445313 Z" id="Shape" fill="#FCDC06"></path>
                    <path d="M54.2981834,18.4841396 L61.2317823,22.5280568 C62.7444545,23.4503658 64.3169382,24.2707921 65.9387708,24.9838769 L65.9387708,25.0657376 C63.7940212,25.7288091 58.8414506,27.7098374 51.334827,30.7959846 L50.1805917,35.5029732 L66.6018423,28.5693743 L66.0206316,36.7554415 L70.2282701,37.5003736 L70.4738521,27.5952324 L76.2040991,28.0863964 L76.6134024,38.7282837 L81.8606715,39.6942396 L80.7882967,28.4711415 L91.2664626,29.379795 L90.1940879,24.263503 L80.3708073,23.772339 L79.6258751,16.0119474 L75.6638186,16.2575294 L75.9912613,23.6822923 L70.5475266,23.4367103 L70.711248,16.33939 L67.4368211,16.4212507 L67.0275178,22.2006141 L55.0431154,15.4307365 L54.2981834,18.4841396 Z" id="Shape" fill="#FF8F3B"></path>
                    <path d="M61.313643,69.5815708 C61.6477081,94.500765 81.9435803,114.526376 106.865014,114.526376 C131.786447,114.526376 152.082319,94.500765 152.416384,69.5815708 C152.082319,44.6623766 131.786447,24.6367659 106.865014,24.6367659 C81.9435803,24.6367659 61.6477081,44.6623766 61.313643,69.5815708 Z" id="Shape" fill="#FCDC06"></path>
                    <path d="M117.756576,45.3835563 L110.577395,58.5876826 C108.596367,62.2222964 107.605853,64.7763493 107.114689,65.6031421 L107.032828,65.6031421 C105.712142,63.1254924 102.080257,56.5247936 96.1371726,45.8010457 L89.2854344,45.8010457 L102.080257,67.2567277 L91.3565093,67.2567277 L91.3565093,72.168368 L104.560636,72.168368 L104.560636,77.9477314 L91.3483233,77.9477314 L91.3483233,83.7270948 L104.55245,83.7270948 L104.55245,93.632236 L109.46409,93.632236 L109.46409,83.7270948 L121.841423,83.7270948 L121.841423,77.9804756 L109.50502,77.9804756 L109.50502,72.2092983 L121.882354,72.2092983 L121.882354,67.297658 L111.64977,67.297658 L124.608314,45.841976 L117.756576,45.841976 L117.756576,45.3835563 Z" id="Shape" fill="#FE881F"></path>
                    <path d="M145.646507,3.21712439 L141.275147,7.67034491 C140.118183,8.9091697 139.375979,9.72777643 139.048537,10.1261651 L138.966676,10.1261651 C138.802955,8.80820835 138.148069,5.6729446 137.067508,0.720373858 L134.341548,0 L136.797368,10.0688626 L132.704335,8.91462713 L132.123124,10.8137947 L136.911973,12.2136121 L136.167041,14.8577119 L131.378192,13.4578944 L130.796981,15.357062 L135.58583,16.7568795 L134.513455,20.5552146 L136.903787,21.2182861 L137.976162,17.4199509 L142.60129,18.7379077 L143.182501,16.8387401 L138.549186,15.5535276 L139.294119,12.9094279 L143.919247,14.2273847 L144.500457,12.3282171 L140.538401,11.1739816 L148.126885,3.99480073 L145.646507,3.21712439 Z" id="Shape" fill="#FF8F3B"></path>
                    <path d="M155.960951,31.5245445 L155.551648,34.9053903 C155.469787,35.8140438 155.387927,36.3870684 155.387927,36.7226972 C154.896763,36.2315332 153.57062,35.0854837 151.42587,33.3418515 L150.026053,33.9230623 L154.479273,37.3857687 L152.334524,38.2944222 L152.743827,39.2849363 L155.306066,38.2944222 L155.887277,39.6942396 L153.325038,40.6847537 L153.734341,41.6752678 L156.29658,40.6847537 L157.115187,42.6657819 L158.351283,42.1746179 L157.532676,40.1935897 L159.988496,39.2030755 L159.579193,38.2125614 L157.123373,39.2030755 L156.542162,37.8032581 L158.997982,36.812744 L158.588679,35.8222299 L156.52579,36.6408365 L157.344397,31.0333805 L155.944579,31.5245445 L155.960951,31.5245445 Z" id="Shape" fill="#FCDC06"></path>
                </g>
            </g>
        </g>
    </g>
</svg>