<?xml version="1.0" encoding="UTF-8"?>
<svg width="389px" height="338px" viewBox="0 0 389 338" version="1.1" xmlns="http://www.w3.org/2000/svg" xmlns:xlink="http://www.w3.org/1999/xlink">
    <!-- Generator: Sketch 50.2 (55047) - http://www.bohemiancoding.com/sketch -->
    <title>Group 38</title>
    <desc>Created with Sketch.</desc>
    <defs>
        <linearGradient x1="-8.04061311e-15%" y1="100%" x2="100%" y2="11.6505169%" id="linearGradient-1">
            <stop stop-color="#367BEC" offset="0%"></stop>
            <stop stop-color="#00CEFB" offset="100%"></stop>
        </linearGradient>
        <linearGradient x1="0%" y1="107.073901%" x2="96.3678539%" y2="50%" id="linearGradient-2">
            <stop stop-color="#3A51FF" offset="0%"></stop>
            <stop stop-color="#3C53FE" offset="2.60776114%"></stop>
            <stop stop-color="#808DEF" offset="100%"></stop>
            <stop stop-color="#8591EE" offset="100%"></stop>
        </linearGradient>
    </defs>
    <g id="二期设计终稿" stroke="none" stroke-width="1" fill="none" fill-rule="evenodd">
        <g id="一图看懂经济" transform="translate(-328.000000, -6113.000000)">
            <g id="Group-38" transform="translate(328.000000, 6113.000000)">
                <path d="M-4.54747351e-13,0 L386,0 L323.513806,171.36524 L323.128841,172 L62.7176515,172 L-4.51194637e-13,0 Z" id="Combined-Shape" fill="url(#linearGradient-1)" opacity="0.745033482"></path>
                <path d="M66,186 L318.0762,186 L317.61402,188.627229 L294.7211,249.593318 L261.235203,338 L123.076381,338 L66,186 Z" id="Combined-Shape" fill="url(#linearGradient-2)" opacity="0.75"></path>
                <text id="专利申请量" font-family="PingFangSC-Regular, PingFang SC" font-size="30" font-weight="normal" fill="#FFFFFF">
                    <tspan x="118" y="91">专利申请量</tspan>
                </text>
                <text id="专利授权量" font-family="PingFangSC-Regular, PingFang SC" font-size="30" font-weight="normal" fill="#FFFFFF">
                    <tspan x="117" y="279">专利授权量</tspan>
                </text>
                <polyline id="Path-20" stroke="#979797" points="352 93 358 93 358 93 384 93 384 282 281 282"></polyline>
                <polygon id="Triangle-16" fill="#979797" transform="translate(384.000000, 184.500000) rotate(180.000000) translate(-384.000000, -184.500000) " points="384 181 389 188 379 188"></polygon>
            </g>
        </g>
    </g>
</svg>