<?xml version="1.0" encoding="UTF-8"?>
<svg width="219px" height="111px" viewBox="0 0 219 111" version="1.1" xmlns="http://www.w3.org/2000/svg" xmlns:xlink="http://www.w3.org/1999/xlink">
    <!-- Generator: Sketch 50.2 (55047) - http://www.bohemiancoding.com/sketch -->
    <title>Group 27</title>
    <desc>Created with Sketch.</desc>
    <defs></defs>
    <g id="二期设计终稿" stroke="none" stroke-width="1" fill="none" fill-rule="evenodd">
        <g id="一图看懂经济" transform="translate(-599.000000, -5313.000000)">
            <g id="Group-27" transform="translate(599.000000, 5303.000000)">
                <rect id="Rectangle-2" fill="#07C2FC" transform="translate(206.666193, 74.279614) rotate(30.000000) translate(-206.666193, -74.279614) " x="193.276193" y="72.9596143" width="26.7800007" height="2.6400001" rx="1.32000005"></rect>
                <rect id="Rectangle-2-Copy" fill="#07C2FC" transform="translate(206.666193, 41.279614) rotate(330.000000) translate(-206.666193, -41.279614) " x="193.276193" y="39.9596143" width="26.7800007" height="2.6400001" rx="1.32000005"></rect>
                <g id="Group-10" transform="translate(78.000000, 0.000000)">
                    <g id="经济PHD-01-Copy" fill-rule="nonzero">
                        <rect id="Rectangle-path" fill="#000000" opacity="0" x="0" y="0" width="96" height="96"></rect>
                        <path d="M22.6411613,10.5205479 C17.8519567,10.5205479 14.0205929,14.4013217 14.0205929,19.1444896 C14.0205929,23.8876575 17.8998487,27.7684312 22.6411613,27.7684312 C27.430366,27.7684312 31.2617297,23.8876575 31.2617297,19.1444896 C31.2617297,14.3534109 27.3824739,10.5205479 22.6411613,10.5205479 Z M41.7021959,48.0826048 L49.5085995,45.35169 L50.1311961,45.1600468 L50.7059006,45.4954223 L56.5966224,49.1845529 L61.4816111,35.2425139 L62.2478839,33.1344393 L63.7804294,34.7634061 L68.2343897,39.506574 L74.747708,28.2954499 L77.0944183,29.6848627 L69.6711511,42.4770427 L68.7612022,44.0580987 L67.516009,42.7165967 L63.3494009,38.2608935 L58.6559804,51.7238246 L58.0812758,53.3527914 L56.6445144,52.4424864 L49.8438438,48.1784264 L42.6600368,50.6697873 L41.7021959,48.0826048 Z M43.1389573,82.0992634 L69.527475,82.0992634 L69.527475,86.7466098 L43.1389573,86.7466098 L43.1389573,82.0992634 Z M59.7574974,67.0552764 L88.109589,67.0552764 L88.109589,12.9160873 L35.71569,12.9160873 L35.71569,18.4258278 L82.6498957,18.4258278 L82.6498957,61.5934467 L37.9666162,61.5934467 L37.9666162,67.1031872 L52.2384461,67.1031872 L52.2384461,80.7098506 L59.7574974,80.7098506 L59.7574974,67.0552764 Z M7.89041096,52.4424864 L13.3501043,56.5628141 L11.5780985,86.7945205 L19.4802862,86.7945205 L20.8212635,61.0185172 L24.1737068,61.0185172 L25.8020364,86.7945205 L33.2253036,86.7945205 L32.0758945,56.5628141 L31.4532979,38.1171611 L49.5085995,37.8296964 L53.3878552,30.9784539 L33.0816275,30.0202382 L23.9342466,30.0202382 L24.6047352,31.1700971 L23.6947863,32.990707 L25.6583603,46.8848351 L22.6411613,49.9990363 L22.6411613,50.2385902 L22.5453772,50.0948579 L22.4017011,50.2385902 L22.4017011,49.9990363 L19.3366101,46.8369243 L21.300184,32.9427962 L20.3902351,31.1221863 L21.0607238,29.9723274 L12.057019,29.9723274 L7.89041096,52.4424864 Z" id="Shape" fill="#07C2FC"></path>
                    </g>
                    <text id="数字经济-copy" font-family="PingFangSC-Regular, PingFang SC" font-size="18" font-weight="normal" fill="#07C2FC">
                        <tspan x="10" y="119">数字经济</tspan>
                    </text>
                </g>
                <g id="Group-8" transform="translate(0.000000, 45.000000)" fill="#07C2FC">
                    <polygon id="Triangle-2" transform="translate(50.416667, 13.500000) rotate(90.000000) translate(-50.416667, -13.500000) " points="50.4166667 9.25714286 63.4027778 17.7428571 37.4305556 17.7428571"></polygon>
                    <rect id="Rectangle-33" x="0" y="7.71428571" width="7.63888889" height="12.3428571"></rect>
                    <rect id="Rectangle-33-Copy-2" x="22.9166667" y="7.71428571" width="7.63888889" height="12.3428571"></rect>
                    <rect id="Rectangle-33-Copy" x="11.4583333" y="7.71428571" width="7.63888889" height="12.3428571"></rect>
                    <rect id="Rectangle-33-Copy-3" x="34.375" y="7.71428571" width="7.63888889" height="12.3428571"></rect>
                </g>
            </g>
        </g>
    </g>
</svg>