<?xml version="1.0" encoding="UTF-8"?>
<svg width="239px" height="133px" viewBox="0 0 239 133" version="1.1" xmlns="http://www.w3.org/2000/svg" xmlns:xlink="http://www.w3.org/1999/xlink">
    <!-- Generator: Sketch 50.2 (55047) - http://www.bohemiancoding.com/sketch -->
    <title>Group 31</title>
    <desc>Created with Sketch.</desc>
    <defs>
        <linearGradient x1="100%" y1="-13.7146691%" x2="14.9349306%" y2="100%" id="linearGradient-1">
            <stop stop-color="#B2ADFF" offset="0%"></stop>
            <stop stop-color="#7B74FF" offset="100%"></stop>
        </linearGradient>
    </defs>
    <g id="二期设计终稿" stroke="none" stroke-width="1" fill="none" fill-rule="evenodd">
        <g id="一图看懂经济" transform="translate(-336.000000, -6907.000000)">
            <g id="Group-31" transform="translate(336.000000, 6901.000000)">
                <g id="发明作品-copy" transform="translate(32.000000, 0.000000)" fill-rule="nonzero">
                    <rect id="Rectangle-path" fill="#000000" opacity="0" x="0" y="0" width="98" height="98"></rect>
                    <path d="M21.4375,6.125 L76.5625,6.125 C81.6366797,6.125 85.75,10.2383203 85.75,15.3125 L85.75,82.6875 C85.75,87.7616797 81.6366797,91.875 76.5625,91.875 L21.4375,91.875 C16.3633203,91.875 12.25,87.7616797 12.25,82.6875 L12.25,15.3125 C12.25,10.2383203 16.3633203,6.125 21.4375,6.125 Z M24.5,18.375 L24.5,25.725 L67.375,25.725 L67.375,18.375 L24.5,18.375 Z M24.5,36.75 L24.5,44.1 L56.0196328,44.1 L56.0196328,36.75 L24.5,36.75 Z M59.2965078,77.5348437 C59.9563753,77.0500509 60.854656,77.0500509 61.5145234,77.5348437 L67.6023906,82.0072422 C68.0913531,82.3662723 68.7239109,82.4662775 69.2997812,82.2755937 C70.2820781,81.9509687 70.3280156,79.4198125 70.4899453,79.9090469 L68.1176562,72.7370547 C67.8605445,71.9597592 68.1380483,71.1055437 68.8028906,70.6277578 L74.9378437,66.2196719 C75.5999621,65.7440839 75.8784445,64.8948612 75.6265324,64.1195388 C75.3746204,63.3442163 74.6501696,62.8208592 73.8349609,62.8252734 L66.2809219,62.8654687 C65.462007,62.8698876 64.7351597,62.341807 64.4862969,61.5616094 L62.1901875,54.3647344 C61.942008,53.5885705 61.2205833,53.0618402 60.405707,53.0618402 C59.5908307,53.0618402 58.8694061,53.5885705 58.6212266,54.3647344 L56.3243516,61.5616094 C56.075531,62.3416716 55.3488833,62.8697198 54.5301094,62.8654687 L46.9760703,62.8252734 C46.1609326,62.8210275 45.4366362,63.3444426 45.1848254,64.1197225 C44.9330147,64.8950024 45.2115111,65.7441246 45.8735703,66.2196719 L52.0081406,70.6277578 C52.6729829,71.1055437 52.9504867,71.9597592 52.693375,72.7370547 L50.3210859,79.9090469 C50.0655116,80.6829241 50.3395499,81.5332493 50.9989013,82.012269 C51.6582527,82.4912887 52.5516425,82.4891016 53.2086406,82.0068594 L59.2965078,77.5344609 L59.2965078,77.5348437 Z" id="Shape" fill="url(#linearGradient-1)"></path>
                </g>
                <text id="全区发明专利授权量" font-family="PingFangSC-Regular, PingFang SC" font-size="20" font-weight="normal" fill="#000000" fill-opacity="0.65">
                    <tspan x="0" y="136">全区发明专利授权量</tspan>
                </text>
                <g id="Group-8-Copy" transform="translate(184.000000, 43.000000)" fill="#7B74FF">
                    <polygon id="Triangle-2" transform="translate(50.416667, 13.500000) rotate(90.000000) translate(-50.416667, -13.500000) " points="50.4166667 9.25714286 63.4027778 17.7428571 37.4305556 17.7428571"></polygon>
                    <rect id="Rectangle-33" x="0" y="7.71428571" width="7.63888889" height="12.3428571"></rect>
                    <rect id="Rectangle-33-Copy-2" x="22.9166667" y="7.71428571" width="7.63888889" height="12.3428571"></rect>
                    <rect id="Rectangle-33-Copy" x="11.4583333" y="7.71428571" width="7.63888889" height="12.3428571"></rect>
                    <rect id="Rectangle-33-Copy-3" x="34.375" y="7.71428571" width="7.63888889" height="12.3428571"></rect>
                </g>
            </g>
        </g>
    </g>
</svg>