<?xml version="1.0" encoding="UTF-8"?>
<svg width="32px" height="32px" viewBox="0 0 32 32" version="1.1" xmlns="http://www.w3.org/2000/svg" xmlns:xlink="http://www.w3.org/1999/xlink">
    <!-- Generator: Sketch 50.2 (55047) - http://www.bohemiancoding.com/sketch -->
    <title>头像 (1)</title>
    <desc>Created with Sketch.</desc>
    <defs></defs>
    <g id="Symbols" stroke="none" stroke-width="1" fill="none" fill-rule="evenodd">
        <g id="导航-首页" transform="translate(-1214.000000, -14.000000)" fill-rule="nonzero">
            <g id="头像-(1)" transform="translate(1214.000000, 14.000000)">
                <path d="M0.0226854687,16 C0.0224329526,21.7111594 3.0691552,26.9885964 8.01512225,29.844249 C12.9610893,32.6999016 19.0548449,32.6999016 24.000812,29.844249 C28.946779,26.9885964 31.9935013,21.7111594 31.9932487,16 C31.9935013,10.2888406 28.946779,5.01140362 24.000812,2.15575102 C19.0548449,-0.699901589 12.9610893,-0.699901589 8.01512225,2.15575102 C3.0691552,5.01140362 0.0224329526,10.2888406 0.0226854687,16 Z" id="Shape" fill="#DBDBDB"></path>
                <path d="M23.4266882,26.4763307 C22.679028,26.1849073 21.8000544,25.9382469 20.8248996,25.7471323 L20.8248676,25.7471323 C20.2789767,25.6401363 19.7034252,25.5502584 19.1025005,25.4805702 C18.2228551,25.7170237 17.1569584,25.8556002 16.0079991,25.8556002 C14.8577279,25.8556002 13.7907434,25.7167038 12.910522,25.4797703 C12.2630426,25.5546739 11.6451917,25.6530309 11.062089,25.7710337 C11.1138592,25.7887917 11.1668453,25.803606 11.2194154,25.8195082 C11.2369495,25.8247876 11.2544195,25.830195 11.2717616,25.8358904 C11.2544195,25.830227 11.2369175,25.8248196 11.2194154,25.8195082 C11.1668453,25.803606 11.1138592,25.7888237 11.062089,25.7710337 C10.1420001,25.9572528 9.30990128,26.1931944 8.59670116,26.4698034 C8.58284672,26.4295199 6.866079,27.3861488 5.8794695,28.3699426 C8.63628075,30.6287936 12.161006,31.9852497 16.0031037,31.9852497 C19.8496808,31.9852497 23.3783096,30.6258499 26.1365607,28.3622634 C25.1505272,27.384293 23.4411826,26.4343833 23.4266882,26.4763307 Z" id="Shape" fill="#1296DB"></path>
                <path d="M23.0217416,13.8789576 C22.8186923,13.8022622 22.5934055,13.839058 22.3709664,13.9625962 C22.3906442,12.6460077 22.1957541,11.4545251 21.8072536,10.509031 L10.1988257,10.509031 C9.79496694,11.4919929 9.59895691,12.7399811 9.63728862,14.1189627 C9.41417762,13.9944646 9.18809094,13.9572208 8.98433775,14.0341722 C8.40680244,14.2523557 8.22835841,15.2899995 8.58579041,16.3518646 C8.94315837,17.4134737 9.70083353,18.0973011 10.2783048,17.8796295 C10.7980546,19.5658406 11.5695202,21.0190858 12.455469,22.1060041 C12.6110676,22.2968947 12.7701217,22.4767466 12.9320556,22.6442798 L12.9320556,25.4772106 C12.9248244,25.4780425 12.9176892,25.4789704 12.910458,25.4798022 C13.7906794,25.7167357 14.8576639,25.8556322 16.0079351,25.8556322 C17.1568944,25.8556322 18.2227911,25.7170557 19.1024365,25.4806022 C19.0929336,25.4795143 19.0835587,25.4782984 19.0740237,25.4772106 L19.0740237,22.6455597 C19.2370455,22.4770026 19.3971875,22.2960308 19.55381,22.1038284 C20.4379029,21.0188939 21.2078327,19.5691042 21.7270386,17.8872126 C21.7424608,17.8372982 23.1015406,17.8872126 23.4202569,16.196618 C23.7777529,15.1347529 23.5993089,14.0970771 23.0217416,13.8789576 Z" id="Shape" fill="#EED5A1"></path>
                <path d="M21.8072856,10.5637768 C21.8072856,10.5637768 21.7371814,12.0409554 22.3709984,14.1661254 C22.3709984,14.1661254 25.1396483,6.1205305 19.9359752,6.1205305 C19.9359752,6.1205305 6.4598205,1.43494328 9.63732062,14.3292111 C9.63732062,14.3292111 9.72649462,14.6883709 9.88446094,14.9813941 C12.0192618,11.8236358 19.0909178,12.8465932 21.8072856,10.5637768 Z" id="Shape" fill="#5C4948"></path>
                <polygon id="Shape" fill="#B9C9C2" points="10.0418833 29.178332 12.9314797 29.178332 12.9314797 29.678332 10.0418833 29.678332"></polygon>
                <path d="M15.9928648,25.8552482 C15.9928648,25.8552482 16.6548067,26.9699074 18.3005103,27.2960788 C18.3005103,27.2960788 19.1477754,26.169965 19.0873662,25.4802182 L15.9928648,25.8552482 Z" id="Shape" fill="#B9C9C2"></path>
                <path d="M15.991361,25.8557282 C15.991361,25.8557282 15.3294191,26.9703873 13.6837154,27.2965588 C13.6837154,27.2965588 12.8364503,26.1704449 12.8968276,25.4806982 L15.991361,25.8557282 Z" id="Shape" fill="#B9C9C2"></path>
                <path d="M15.7018254,26.6796999 C15.7017913,26.7837124 15.7572618,26.8798385 15.8473336,26.9318546 C15.9374054,26.9838707 16.0483882,26.9838707 16.13846,26.9318546 C16.2285318,26.8798385 16.2840023,26.7837124 16.2839682,26.6796999 C16.2840023,26.5756874 16.2285318,26.4795613 16.13846,26.4275452 C16.0483882,26.3755291 15.9374054,26.3755291 15.8473336,26.4275452 C15.7572618,26.4795613 15.7017913,26.5756874 15.7018254,26.6796999 Z" id="Shape" fill="#56A57E"></path>
                <path d="M15.7002896,27.7965988 C15.7002896,27.9005886 15.7557674,27.9966791 15.8458253,28.048674 C15.9358831,28.1006689 16.0468389,28.1006689 16.1368967,28.048674 C16.2269545,27.9966791 16.2824324,27.9005886 16.2824324,27.7965988 C16.2824324,27.6358445 16.1521153,27.5055274 15.991361,27.5055274 C15.8306067,27.5055274 15.7002896,27.6358445 15.7002896,27.7965988 Z" id="Shape" fill="#56A57E"></path>
                <path d="M15.7002896,28.9332395 C15.7002896,29.0372293 15.7557674,29.1333198 15.8458253,29.1853147 C15.9358831,29.2373096 16.0468389,29.2373096 16.1368967,29.1853147 C16.2269545,29.1333198 16.2824324,29.0372293 16.2824324,28.9332395 C16.2824324,28.7724852 16.1521153,28.6421681 15.991361,28.6421681 C15.8306067,28.6421681 15.7002896,28.7724852 15.7002896,28.9332395 Z" id="Shape" fill="#56A57E"></path>
            </g>
        </g>
    </g>
</svg>