<?xml version="1.0" encoding="UTF-8"?>
<svg width="44px" height="44px" viewBox="0 0 44 44" version="1.1" xmlns="http://www.w3.org/2000/svg" xmlns:xlink="http://www.w3.org/1999/xlink">
    <!-- Generator: Sketch 50.2 (55047) - http://www.bohemiancoding.com/sketch -->
    <title>Group 11</title>
    <desc>Created with Sketch.</desc>
    <defs>
        <linearGradient x1="87.534674%" y1="83.0983497%" x2="11.3593747%" y2="21.4555226%" id="linearGradient-1">
            <stop stop-color="#367BEC" offset="0%"></stop>
            <stop stop-color="#00CEFB" offset="100%"></stop>
        </linearGradient>
    </defs>
    <g id="二期设计终稿" stroke="none" stroke-width="1" fill="none" fill-rule="evenodd">
        <g id="人才分析-就业人才分析" transform="translate(-760.000000, -153.000000)">
            <g id="Group-3-Copy-4" transform="translate(740.000000, 132.000000)">
                <g id="面积使用率" transform="translate(20.000000, 21.000000)">
                    <g id="Group-3">
                        <g id="Group-11">
                            <circle id="Oval-2-Copy-17" fill="url(#linearGradient-1)" cx="22" cy="22" r="22"></circle>
                            <g id="流失会员" transform="translate(12.000000, 13.000000)" fill-rule="nonzero">
                                <rect id="Rectangle-path" fill="#000000" opacity="0" x="0" y="0" width="19" height="19"></rect>
                                <path d="M13.8203242,10.4483115 C15.1828877,9.78461035 16.1236104,8.38966895 16.1236104,6.7730918 C16.1236104,4.51415137 14.2923555,2.68282227 12.0333408,2.68282227 C9.77445605,2.68282227 7.9431084,4.51416992 7.9431084,6.7730918 C7.9431084,8.38966895 8.88383105,9.78461035 10.2464873,10.4483115 C7.8750127,11.1693467 6.11957227,13.2877354 5.9245625,15.8458516 C5.90823437,15.8868574 5.8980293,15.9293477 5.8980293,15.976291 C5.8980293,16.1644355 6.05054883,16.3171406 6.23887891,16.3171406 C6.42720898,16.3171406 6.57991406,16.1653633 6.57991406,15.976291 L6.59679883,15.976291 C6.77399609,13.1240645 9.13712109,10.8633799 12.0334521,10.8633799 L13.8203242,10.4483115 Z M15.4420039,6.7730918 C15.4420039,8.6562998 13.9157881,10.1826084 12.033415,10.1826084 C10.1518398,10.1826084 8.6257168,8.6562998 8.6257168,6.7730918 C8.6257168,4.89155371 10.1518398,3.3645957 12.033415,3.3645957 C13.9157881,3.36461426 15.4420039,4.89155371 15.4420039,6.7730918 Z M2.85671191,15.8449238 C2.84056934,15.8859297 2.83036426,15.9293477 2.83110645,15.976291 C2.83110645,16.1646211 2.98288379,16.3171406 3.17195605,16.3171406 C3.3593584,16.3171406 3.51280566,16.1653633 3.51280566,15.976291 L3.52987598,15.976291 C3.68072559,13.528 5.44546191,11.5204014 7.7735,10.9997568 C8.04625391,10.7815537 8.33682031,10.5898838 8.63851953,10.4152842 C8.63499414,10.3946885 8.6257168,10.3752061 8.6257168,10.3521982 C8.6257168,10.2855869 8.63926172,10.2217588 8.66319727,10.1646104 C6.92221094,10.0111631 5.55621484,8.55332129 5.55621484,6.7730918 C5.55621484,4.98794531 6.93148828,3.5238877 8.68100977,3.37990332 C8.93149805,3.13108496 9.21445703,2.91288184 9.51615625,2.72464453 C9.33636133,2.69987402 9.15322656,2.68280371 8.96489648,2.68280371 C6.70586328,2.68280371 4.87546191,4.51489355 4.87546191,6.77307324 C4.87546191,8.38965039 5.81618457,9.7845918 7.17791309,10.448293 C4.80736621,11.1693467 3.05190723,13.2877168 2.85671191,15.8449238 Z M17.541374,13.7811787 C17.361208,13.7811787 17.2150898,13.9272041 17.2150898,14.1074629 L17.2150898,14.6247676 L15.5929463,13.002624 L14.9442744,12.3539521 C14.8851777,12.2949482 14.8035371,12.2583955 14.7135469,12.2583955 C14.6234639,12.2583955 14.5418232,12.2949482 14.4828193,12.3540449 L12.97321,13.8635615 L11.4636934,12.3540449 C11.4046895,12.2949482 11.3230488,12.2583955 11.2329658,12.2583955 C11.052707,12.2583955 10.9066816,12.4044209 10.9066816,12.5846797 C10.9066816,12.6746699 10.9432344,12.7564961 11.0023311,12.8154072 L12.7425752,14.5556514 C12.8016719,14.614748 12.8832197,14.651208 12.97321,14.651208 C13.063293,14.651208 13.1448408,14.614748 13.2039375,14.5556514 L14.7135469,13.0462275 L15.1314912,13.4642646 L15.1638691,13.4966426 L15.3530342,13.6856221 L16.7536348,15.0863154 L16.2362373,15.0863154 C16.0560713,15.0863154 15.9098604,15.2323408 15.9098604,15.4125996 C15.9098604,15.5928584 16.0560713,15.7388838 16.2362373,15.7388838 L17.541374,15.7388838 C17.7216328,15.7388838 17.867751,15.5928584 17.867751,15.4125996 L17.867751,14.1074629 C17.867751,13.9272041 17.7216328,13.7811787 17.541374,13.7811787 Z" id="Shape" fill="#FFFFFF"></path>
                            </g>
                        </g>
                    </g>
                </g>
            </g>
        </g>
    </g>
</svg>