<?xml version="1.0" standalone="no"?><!DOCTYPE svg PUBLIC "-//W3C//DTD SVG 1.1//EN" "http://www.w3.org/Graphics/SVG/1.1/DTD/svg11.dtd"><svg t="1534417195927" class="icon" style="" viewBox="0 0 1024 1024" version="1.1" xmlns="http://www.w3.org/2000/svg" p-id="4233" xmlns:xlink="http://www.w3.org/1999/xlink" width="200" height="200"><defs><style type="text/css"></style></defs><path d="M512 1003.52512c-271.0272 0-491.52512-220.4928-491.52512-491.52512C20.47488 240.9728 240.9728 20.47488 512 20.47488c271.03232 0 491.52512 220.49792 491.52512 491.52512 0 271.03232-220.4928 491.52512-491.52512 491.52512z m0-911.37024c-231.5008 0-419.84512 188.34432-419.84512 419.84512 0 231.50592 188.34432 419.84512 419.84512 419.84512 231.50592 0 419.84512-188.3392 419.84512-419.84512 0-231.5008-188.3392-419.84512-419.84512-419.84512z" p-id="4234" fill="#1889F2"></path><path d="M280.57088 304.64H373.1456v92.57472H280.57088V304.64zM419.4304 304.64h323.99872v92.57472H419.4304V304.64zM280.57088 465.7152H373.1456v92.5696H280.57088V465.7152zM419.4304 465.7152h323.99872v92.5696H419.4304V465.7152zM280.57088 626.7904H373.1456v92.5696H280.57088v-92.5696zM419.4304 626.7904h323.99872v92.5696H419.4304v-92.5696z" p-id="4235" fill="#1889F2"></path></svg>