<?xml version="1.0" standalone="no"?><!DOCTYPE svg PUBLIC "-//W3C//DTD SVG 1.1//EN" "http://www.w3.org/Graphics/SVG/1.1/DTD/svg11.dtd"><svg t="1534417163877" class="icon" style="" viewBox="0 0 1024 1024" version="1.1" xmlns="http://www.w3.org/2000/svg" p-id="4063" xmlns:xlink="http://www.w3.org/1999/xlink" width="200" height="200"><defs><style type="text/css"></style></defs><path d="M925.22496 230.26176h-93.14304V103.64928c0-19.072-15.14496-34.21696-34.69312-34.21696H226.35008c-19.0464 0-34.46784 15.14496-34.46784 34.21696v126.61248H98.51904c-18.82112 0-34.21696 15.39072-34.21696 34.21696v190.18752a199.68 199.68 0 0 0 57.92256 140.8h0.25088c31.5392 31.5392 73.56416 53.0432 120.4992 58.17344 51.84 80.17408 138.60352 135.41888 234.67008 145.70496v86.28224H327.808c-18.82112 0-34.46784 15.39584-34.46784 34.46784 0 18.57024 15.64672 34.46784 34.46784 34.46784h368.384c18.82624 0 34.69312-15.89248 34.69312-34.46784 0-19.07712-15.872-34.46784-34.69312-34.46784h-149.61152v-86.28224c95.8208-10.28608 182.85568-65.53088 234.67008-145.70496 45.70624-5.13536 87.02976-25.9072 118.3232-56.4736l1.95072-1.69984c35.92192-36.1728 58.17344-86.28224 58.17344-140.8V264.47872c0-18.82624-15.39584-34.21696-34.47296-34.21696z m-753.6128 316.79488c-23.95136-24.42752-38.3744-56.44288-38.3744-92.3904V298.94656h58.6496V486.4512a339.03616 339.03616 0 0 0 13.21984 85.53472c-12.71808-6.33344-23.95648-14.88896-33.49504-24.92928z m591.5648-62.80192v2.42688c-0.74752 38.3744-10.76224 76.5184-28.35968 110.26432l-0.50176 1.45408c-43.50464 80.9216-129.5616 133.71392-222.45376 133.71392-92.86656 0-178.92352-52.79232-221.952-133.71392l-0.9728-1.45408c-18.0736-34.9696-27.38688-72.86784-27.86304-112.6912V138.368h502.10304v345.88672z m127.58528-29.58848c0 35.94752-14.6688 67.96288-38.12352 92.3904l-1.47456 1.47456c-9.76384 9.28768-20.52608 17.59744-32.26624 23.45472 8.30976-28.1088 12.4672-56.44288 13.19424-85.53472V298.94656h58.6752v155.71968h-0.00512z m-337.84832-78.59712l-28.65664-88.7296a13.24544 13.24544 0 0 0-8.2176-8.29952c-6.7584-2.19648-14.05952 1.73056-16.33792 8.29952l-28.66688 88.7296-93.18912-0.09216c-4.0192 0-8.0384 1.82272-10.40384 5.38624-4.29056 5.57056-2.92352 13.59872 2.72896 17.79712l75.76576 54.77376-29.0304 88.6272c-1.4592 3.82976-0.72704 8.12544 1.7408 11.68384 4.1984 5.57056 12.31872 6.9376 17.98144 2.64704l75.392-54.8608 74.84928 54.58944c3.29216 2.64192 7.85408 3.46624 12.04736 2.18624 6.7584-2.18624 10.58816-9.48736 8.2176-16.24576l-29.02016-88.6272 75.20768-54.41024a13.01504 13.01504 0 0 0 5.75488-10.76736 12.77952 12.77952 0 0 0-12.87168-12.77952l-93.29152 0.09216z m2.56512 62.52032a12.96384 12.96384 0 0 0-4.57216 14.33088l19.5328 60.06272-50.93376-37.15584a12.45696 12.45696 0 0 0-15.15008 0l-50.84672 37.15584 19.53792-60.06272c1.91488-5.4784-0.36352-11.4944-5.0176-14.59712l-50.56512-36.60288 62.98112 0.1792c5.93408 0 11.14112-4.1984 12.41088-9.76896l19.16928-59.14624 19.35872 59.97056c1.82272 5.57056 6.74816 8.85248 12.22656 8.85248v0.09216l62.89408-0.1792-51.02592 36.86912z" p-id="4064" fill="#8F4DBF"></path></svg>