<?xml version="1.0" standalone="no"?><!DOCTYPE svg PUBLIC "-//W3C//DTD SVG 1.1//EN" "http://www.w3.org/Graphics/SVG/1.1/DTD/svg11.dtd"><svg t="1534053938013" class="icon" style="" viewBox="0 0 1024 1024" version="1.1" xmlns="http://www.w3.org/2000/svg" p-id="2461" xmlns:xlink="http://www.w3.org/1999/xlink" width="200" height="200"><defs><style type="text/css"></style></defs><path d="M285.216356 441.478571l199.164852 199.329005V105.03466a29.371715 29.371715 0 0 1 29.418616-29.430341 29.430341 29.430341 0 0 1 29.453791 29.430341v535.772916l199.106226-199.329005a29.38344 29.38344 0 0 1 41.612861 0 29.313089 29.313089 0 0 1 0 41.612861l-249.454387 249.466112a29.371715 29.371715 0 0 1-20.718491 8.535972 29.207562 29.207562 0 0 1-20.741942-8.535972l-249.407486-249.466112a29.277913 29.277913 0 0 1 0-41.612861 29.313089 29.313089 0 0 1 41.56596 0z" p-id="2462" fill="#ffffff"></path><path d="M925.250066 650.316742a29.430341 29.430341 0 0 0-29.465517 29.430341v186.571949h-763.96945v-186.571949a29.430341 29.430341 0 0 0-29.465518-29.430341 29.38344 29.38344 0 0 0-29.430341 29.430341v215.873312a29.38344 29.38344 0 0 0 29.430341 29.430342h822.900485a29.38344 29.38344 0 0 0 29.418616-29.430342v-215.873312c0-16.298077-13.143989-29.430341-29.418616-29.430341z" p-id="2463" fill="#ffffff"></path></svg>