<?xml version="1.0" standalone="no"?><!DOCTYPE svg PUBLIC "-//W3C//DTD SVG 1.1//EN" "http://www.w3.org/Graphics/SVG/1.1/DTD/svg11.dtd"><svg t="1534053915722" class="icon" style="" viewBox="0 0 1024 1024" version="1.1" xmlns="http://www.w3.org/2000/svg" p-id="2288" xmlns:xlink="http://www.w3.org/1999/xlink" width="200" height="200"><defs><style type="text/css"></style></defs><path d="M960.1 907c0 14.5-11.9 26.3-26.3 26.3h-844c-14.5 0-26.3-11.9-26.3-26.3 0-14.5 11.9-26.3 26.3-26.3h843.9c14.5-0.1 26.4 11.7 26.4 26.3zM160.4 799.1l56.9-205.5 487.3-487.2c22.6-22.6 51.9-22.4 74.3 0l111.4 111.4c22.4 22.4 22.6 51.6 0 74.3l-487 487.4-205.7 56.9c-28.3 6-43.1-8.7-37.2-37.3z m488.5-562.5l111.4 111.3 74.3-74.3c19.3-19.1 18-18.9 0-37.1l-74.3-74.2c-17.6-18.9-19.3-18.9-37.1 0l-74.3 74.3zM295.8 589.7l111.4 111.4 316-316-111.4-111.4-316 316z m-79.2 190.5l153.4-42-111.4-111.4-42 153.4z m0 0" p-id="2289" fill="#ffffff"></path></svg>