<?xml version="1.0" standalone="no"?><!DOCTYPE svg PUBLIC "-//W3C//DTD SVG 1.1//EN" "http://www.w3.org/Graphics/SVG/1.1/DTD/svg11.dtd"><svg t="1534403279177" class="icon" style="" viewBox="0 0 1024 1024" version="1.1" xmlns="http://www.w3.org/2000/svg" p-id="3550" xmlns:xlink="http://www.w3.org/1999/xlink" width="200" height="200"><defs><style type="text/css"></style></defs><path d="M917.3 418.6l-62.4-150.8c-13-31.1-48.1-54.7-81.9-54.7H246.6c-33.8 0-69 23.6-81.9 54.8l-62.4 151c-12.4 29.9-6.2 71.3 14.3 96.2L460 931.4c12.7 15.4 30.9 24.2 49.8 24.2 19 0 37.1-8.9 49.8-24.2L903 514.8c20.9-25.3 26.9-65.8 14.3-96.2z m-48.6 51.2l-358.9 431L150 470c-4.1-4.9-6-18.4-3.5-24.4l83.4-161.1c2.1-5 11.2-11.1 16.6-11.1h526.7c5.3 0 14.6 6.2 16.6 11.1l82.4 160.9c2.6 6.3 0.7 19.2-3.5 24.4z" p-id="3551" fill="#1889F2"></path><path d="M633 432.3H387.6c-20.8 0-32.6 9-31.1 29.8 1.3 18.2 11.5 24.6 30.1 24.6H632c20.8 0 32.6-9 31.1-29.8-1.3-18.3-11.5-24.6-30.1-24.6z" p-id="3552" fill="#1889F2"></path></svg>