<?xml version="1.0" standalone="no"?><!DOCTYPE svg PUBLIC "-//W3C//DTD SVG 1.1//EN" "http://www.w3.org/Graphics/SVG/1.1/DTD/svg11.dtd"><svg t="1534403208965" class="icon" style="" viewBox="0 0 1024 1024" version="1.1" xmlns="http://www.w3.org/2000/svg" p-id="3270" id="mx_n_1534403208969" xmlns:xlink="http://www.w3.org/1999/xlink" width="200" height="200"><defs><style type="text/css"></style></defs><path d="M512 106.5c54.8 0 107.9 10.7 157.8 31.8 48.3 20.4 91.6 49.7 128.9 86.9s66.5 80.6 86.9 128.9c21.1 50 31.8 103.1 31.8 157.8s-10.7 107.9-31.8 157.8c-20.4 48.3-49.7 91.6-86.9 128.9s-80.6 66.5-128.9 86.9c-50 21.1-103.1 31.8-157.8 31.8-54.8 0-107.9-10.7-157.8-31.8-48.3-20.4-91.6-49.7-128.9-86.9-37.3-37.3-66.5-80.6-86.9-128.9-21.1-50-31.8-103.1-31.8-157.8s10.7-107.9 31.8-157.8c20.4-48.3 49.7-91.6 86.9-128.9 37.3-37.3 80.6-66.5 128.9-86.9 49.9-21.1 103-31.8 157.8-31.8m0-42.5C264.6 64 64 264.6 64 512s200.6 448 448 448 448-200.6 448-448S759.4 64 512 64z" p-id="3271" fill="#FA8F32"></path><path d="M737 729H287c-9.4 0-17-7.6-17-17V312c0-9.4 7.6-17 17-17h450c9.4 0 17 7.6 17 17v82.3c0 9.4-7.6 17-17 17s-17-7.6-17-17V329H304v366h416V562.5c0-9.4 7.6-17 17-17s17 7.6 17 17V712c0 9.4-7.6 17-17 17z" p-id="3272" fill="#FA8F32"></path><path d="M451.6 489.1c-9.5 0-17.1-7.7-17-17.1l0.2-43.9c0-9.4 7.7-16.9 17-16.9h0.1c9.4 0 17 7.7 16.9 17.1l-0.2 43.9c0 9.3-7.6 16.9-17 16.9zM572.1 489.7c-9.5 0-17.1-7.7-17-17.1l0.2-43.9c0-9.4 7.7-16.9 17-16.9h0.1c9.4 0 17 7.7 16.9 17.1l-0.2 43.9c0 9.3-7.6 16.9-17 16.9z" p-id="3273" fill="#FA8F32"></path><path d="M615.9 639.3c-5.9 0-11.6-3-14.7-8.5-18.4-31.7-52.6-51.3-89.2-51.3s-70.8 19.7-89.2 51.3c-4.7 8.1-15.1 10.9-23.3 6.1-8.1-4.7-10.9-15.1-6.1-23.3 24.5-42.1 70-68.2 118.6-68.2 48.7 0 94.1 26.2 118.6 68.2 4.7 8.1 2 18.5-6.1 23.3-2.7 1.6-5.7 2.4-8.6 2.4z" p-id="3274" fill="#FA8F32"></path></svg>