<?xml version="1.0" standalone="no"?><!DOCTYPE svg PUBLIC "-//W3C//DTD SVG 1.1//EN" "http://www.w3.org/Graphics/SVG/1.1/DTD/svg11.dtd"><svg t="1534137307779" class="icon" style="" viewBox="0 0 1024 1024" version="1.1" xmlns="http://www.w3.org/2000/svg" p-id="1631" xmlns:xlink="http://www.w3.org/1999/xlink" width="200" height="200"><defs><style type="text/css"></style></defs><path d="M891.459072 0s-124.16 94.3104-139.6736 153.4464c-7.8848 40.6016 13.0048 71.3728 54.8864 82.6368 20.7872 5.5808 75.008 1.2288 86.4256-75.264 11.6736-73.728-1.6384-160.8192-1.6384-160.8192z m-135.4752 316.8768s-5.12-61.44 108.4928-64.1024c103.1168-5.888 141.2608-13.824 159.5392-38.912-4.5568 17.0496-67.0208 106.2912-151.2448 143.6672-47.9232 17.664-115.9168 17.1008-116.7872-40.6528z m-79.2064 120.4736s18.5344-45.568 106.5984-46.336c83.1488 2.9184 158.72-16.384 171.3152-30.976-2.9696 16.896-88.2176 123.8016-137.728 148.224-60.5184 33.28-96.6656 32.4096-118.3744 14.08-11.6736-13.312-37.7344-35.5328-21.8112-84.992z m-75.4688 160.1024s11.776-50.176 85.6576-50.0224c66.5088-1.536 145.3568-4.4032 191.8976-35.4304-25.1904 84.992-122.368 149.5552-171.7248 165.7856-52.992 20.1216-91.5456 17.408-106.1888-8.448-12.0832-29.952 0.3584-71.8848 0.3584-71.8848z m-55.7056 134.4c13.568-10.0352 39.0656-20.7872 75.6736-19.3024 63.744 0 141.8752-22.016 162.0992-30.8736 19.968-25.088-46.7968 79.872-88.064 108.1344-39.936 33.9456-94.8224 60.1088-141.4144 37.9392-46.592-22.1184-38.2464-73.728-8.2944-95.8976zM651.996672 36.864s28.3136 131.328 79.8208 165.2736c51.5584 33.9456 16.64 92.9792 1.6896 101.8368-15.0016 8.8064-91.4432 30.976-119.7056-35.4304-28.3136-66.4064-6.656-197.7344 38.1952-231.68z m-79.8208 175.616s15.1552 94.4128 78.2336 186.9824c18.4832 39.5776-33.4336 64.1024-35.5328 64.6656-45.9264 12.6464-95.5392 0.6144-100.5568-68.7616-4.9664-69.3248 0.512-122.2656 57.856-182.8864zM480.783872 373.248s13.7216 52.736 44.3904 94.5152c22.0672 30.1568 57.1904 67.84 62.0544 79.6672 12.4928 30.5664-2.4064 55.6544-22.4768 64.8704-24.9344 10.3424-73.984 19.2-93.952-10.2912-19.968-29.5424-53.248-129.8432 9.984-228.7104z m-88.1152 149.0944s59.8528 94.8224 106.496 152.1152c37.7344 62.1056 9.8816 98.7136-28.3648 103.1168-44.544 3.328-72.8064 10.9568-88.3712-49.3056-2.1504-17.5616-24.3712-73.4208 10.24-205.9264z m44.9024 274.432s69.8368 36.864 81.408 33.9456c11.7248-2.9696-128 193.28-128 193.28l-43.2128-4.4544s88.1152-162.304 89.8048-222.72zM130.012672 230.656s-28.7232 67.8912-14.336 141.2096c7.5264 40.5504 63.3344 31.4368 72.0384 26.112 8.704-5.3248 42.8032-27.5456 16.128-74.5472-26.624-46.9504-73.8304-92.7744-73.8304-92.7744z m59.904 232.2432s-23.4496-34.6112 33.7408-74.8032c48.9984-34.9184 58.624-50.3296 75.4176-75.7248 2.4064 27.392 3.2256 103.3216-22.016 135.68-27.136 33.8944-68.9152 38.656-87.1424 14.848z m9.728 92.6208s-1.28-35.328 38.5536-57.2928C287.811072 470.3232 326.159872 431.616 323.599872 419.1744c3.584 17.408 7.68 97.1776-22.3744 150.1696-16.9472 32.4096-39.3728 38.3488-54.528 37.3248-40.2944-3.1744-45.7728-32.512-47.0528-51.2z m25.0368 124.5696s-2.9184-32 28.3648-56.6784c37.9392-24.576 76.2368-49.5104 89.1904-84.1216 9.216 14.7456 13.056 109.1584-21.9136 158.9248-21.6064 30.3616-30.4128 31.232-60.5184 21.76-34.2016-12.288-35.1232-39.936-35.1232-39.936z m29.8496 100.864c3.328-10.752 17.664-28.672 39.5776-40.8064 21.9136-12.2368 62.8736-45.4656 75.776-73.1648 4.096 23.04 1.5872 57.4464-6.1952 91.392-7.8336 33.8944-23.808 71.4752-60.928 75.264-37.0176 3.7376-55.6032-29.184-48.2304-52.736zM1.551872 339.456S77.430272 405.6576 122.742272 407.04c45.2608 1.3312 49.5104 38.5024 42.2912 57.6-4.6592 10.496-34.304 51.5072-80.7424 23.04C37.801472 459.1616-9.200128 375.296 1.551872 339.5072z m33.1776 130.4064S87.567872 532.48 164.367872 541.4912c36.6592 3.3792 28.928 47.8208 16.0768 60.5696-20.5824 24.064-60.416 18.944-86.3744-1.28-42.4448-37.9392-56.832-66.2528-59.2896-130.8672z m19.7632 125.952s42.0864 39.1168 135.936 61.952c35.0208 10.496 27.2896 38.912 19.2 52.3264-9.8304 14.8992-27.8016 31.0784-57.344 22.016-42.0864-10.3936-89.7024-56.32-97.792-136.2944z m16.384 117.9648s53.9136 25.6 141.1072 54.4768c49.3568 19.968 41.8304 56.9856 21.6064 73.216-21.3504 19.6608-47.3088 25.5488-81.152-2.9696a467.8656 467.8656 0 0 1-81.6128-124.7232zM221.199872 857.088s57.2416-3.4816 62.6688-9.3696c5.4272-5.8368 13.2096 157.9008 13.2096 157.9008l-27.136 12.8s-22.3232-125.6448-48.7424-161.3312z" p-id="1632" fill="#00D3D1"></path></svg>