<?xml version="1.0" standalone="no"?><!DOCTYPE svg PUBLIC "-//W3C//DTD SVG 1.1//EN" "http://www.w3.org/Graphics/SVG/1.1/DTD/svg11.dtd"><svg t="1534137375725" class="icon" style="" viewBox="0 0 1024 1024" version="1.1" xmlns="http://www.w3.org/2000/svg" p-id="2127" xmlns:xlink="http://www.w3.org/1999/xlink" width="200" height="200"><defs><style type="text/css"></style></defs><path d="M1019.8016 721.92c-7.8336-42.5984-44.5952-72.3456-89.6-72.3456l-265.728 2.3552h-0.6144a108.6464 108.6464 0 0 0-58.5216-69.4272 19.0464 19.0464 0 0 0-8.1408-1.8432H436.224a21.7088 21.7088 0 0 1-17.0496-8.3456 207.0016 207.0016 0 0 0-162.816-80.0256H21.8112a19.0976 19.0976 0 0 0 0 38.144h234.5472A168.6016 168.6016 0 0 1 389.12 595.5584a60.0576 60.0576 0 0 0 47.2576 23.1936h156.416a70.9632 70.9632 0 0 1 1.0752 124.1088l-1.5872 0.8704H437.0432a19.0976 19.0976 0 0 0 0 38.144h160.1536a19.0464 19.0464 0 0 0 9.3696-2.4576l5.9392-3.3792a108.5952 108.5952 0 0 0 54.9376-86.1184l262.912-2.3552a50.4832 50.4832 0 0 1 51.9168 40.96c3.2768 17.7664-3.3792 40.6528-31.3344 51.2l-403.4048 138.7008a243.0464 243.0464 0 0 1-221.5936-33.6896L32.4096 689.0496a19.0976 19.0976 0 0 0-21.1968 31.744L304.0768 916.48a280.7808 280.7808 0 0 0 256 38.4512l404.0704-138.9056c41.3184-16.0256 63.232-53.1456 55.6544-94.1056zM434.432 331.4176L411.648 464.1792a19.0976 19.0976 0 0 0 27.6992 20.1216l119.2448-62.6688 119.1936 62.6688a19.0976 19.0976 0 0 0 27.6992-20.1216l-22.784-132.7616 96.4608-94.0032A19.0976 19.0976 0 0 0 768.512 204.8l-133.12-19.3536-59.7504-120.7296a19.0976 19.0976 0 0 0-34.2016 0L481.8432 185.4976 348.5184 204.8A19.0976 19.0976 0 0 0 337.92 237.4144z m62.8224-109.568a19.0976 19.0976 0 0 0 14.336-10.24l46.9504-95.1296 46.9504 95.1296a19.0976 19.0976 0 0 0 14.3872 10.24l104.96 15.36-75.9808 73.8816a19.0976 19.0976 0 0 0-5.4784 16.896l17.92 104.5504-93.8496-49.3568a19.0976 19.0976 0 0 0-17.7664 0L455.68 432.5376l17.92-104.5504a19.0976 19.0976 0 0 0-5.4784-16.896L392.2944 237.056z" fill="#eB5252" p-id="2128"></path></svg>