<?xml version="1.0" standalone="no"?><!DOCTYPE svg PUBLIC "-//W3C//DTD SVG 1.1//EN" "http://www.w3.org/Graphics/SVG/1.1/DTD/svg11.dtd"><svg t="1534137342497" class="icon" style="" viewBox="0 0 1024 1024" version="1.1" xmlns="http://www.w3.org/2000/svg" p-id="1814" xmlns:xlink="http://www.w3.org/1999/xlink" width="200" height="200"><defs><style type="text/css"></style></defs><path d="M-0.016 960L0 928h16l0.32-281.104 224.816-106.864L272 176h160l29.888 411.2 99.024-47.056L592 48l158.816-0.016 31.488 539.024 225.36-107.12v450.32L1024 928v32H-0.016zM432 928h544v-32H432v32zM144 928h256v-96H144v96z m-96 0h64v-32H48v32z m352-720h-96l-4.496 37.728h104.368L400 208z m6.176 67.504h-109.392l-2.848 31.072h114.672l-2.432-31.072z m4.752 60.848h-119.712l-17.2 188.048 93.632-44.512V632l63.952-30.384-20.672-265.264zM720 80h-96v32h96V80z m4.736 58.608H618.72l-2.064 31.072h109.888l-1.808-31.072z m3.552 60.848h-113.584l-21.376 325.28 94.336-44.848V632l64.112-30.48-23.488-402.064z m-71.952 480.736v-152.112L336.32 680.192v-152.112L47.648 665.296 48 864h64v-64h320v64h544l0.336-335.92-320 152.112zM880 752h32v80h-32v-80z m-96 0h32v80h-32v-80z m-96 0h32v80h-32v-80z m-96 0h32v80h-32v-80z m-96 0h32v80h-32v-80zM112 736h320v32H112v-32z" fill="#FA8F32" p-id="1815"></path></svg>