<?xml version="1.0" encoding="UTF-8"?>
<svg width="24px" height="24px" viewBox="0 0 24 24" version="1.1" xmlns="http://www.w3.org/2000/svg" xmlns:xlink="http://www.w3.org/1999/xlink">
    <!-- Generator: Sketch 50.2 (55047) - http://www.bohemiancoding.com/sketch -->
    <title>Group 2</title>
    <desc>Created with Sketch.</desc>
    <defs></defs>
    <g id="Symbols" stroke="none" stroke-width="1" fill="none" fill-rule="evenodd">
        <g id="导航-产业分析-概览" transform="translate(-20.000000, -19.000000)">
            <g id="Group-2" transform="translate(20.000000, 19.000000)">
                <rect id="Rectangle" stroke="#979797" fill="#D8D8D8" x="6.43814433" y="19.25" width="1" height="1"></rect>
                <ellipse id="Oval-5" fill="#234978" cx="12" cy="11.875" rx="11.7525773" ry="11.875"></ellipse>
                <polygon id="Rectangle-15" fill="#F74608" points="6.43298969 12.75 8.90721649 13.5 14.5979381 13.5 17.814433 12.75 18.3092784 16 15.0927835 17.25 15.0927835 15.5 8.90721649 15.5 8.90721649 17.25 5.93814433 16"></polygon>
                <g id="国徽" transform="translate(4.701031, 0.500000)" fill-rule="nonzero">
                    <path d="M0.00936565354,7.50347565 C0.00936565354,11.6403849 3.32841973,14.9940124 7.42268041,14.9940124 C11.5169411,14.9940124 14.8359952,11.6403849 14.8359952,7.50347565 C14.8359952,3.36656641 11.5169411,0.0129388601 7.42268041,0.0129388601 C3.32841973,0.0129388601 0.00936565354,3.36656641 0.00936565354,7.50347565 Z" id="Shape" fill="#F2B60F"></path>
                    <path d="M1.25808664,7.44025492 C1.25808661,9.68814486 2.44495835,11.7652808 4.37161875,12.8892258 C6.29827916,14.0131708 8.67202268,14.0131708 10.5986831,12.8892258 C12.5253435,11.7652808 13.7122152,9.68814486 13.7122152,7.44025492 C13.7122152,3.96531819 10.9242636,1.14832539 7.48515092,1.14832539 C4.04603828,1.14832539 1.25808664,3.96531819 1.25808664,7.44025492 Z" id="Shape" fill="#F74608"></path>
                    <path d="M7.93937896,3.39706321 L7.47117013,3.14870674 L7.00320744,3.39746114 L7.09226114,2.87090363 L6.71335215,2.49794611 L7.23659804,2.42104663 L7.47057939,1.94164352 L7.70480688,2.42069845 L8.228102,2.49715026 L7.84958684,2.87040622 L7.93937896,3.39706321 Z M4.69027253,4.10726425 L4.31835393,3.90999171 L3.94673071,4.10766218 L4.01742232,3.68934093 L3.71644147,3.39288497 L4.13202543,3.33195233 L4.31800934,2.95103627 L4.50399325,3.33160415 L4.91977411,3.39248705 L4.61908864,3.68889326 L4.69027253,4.10726425 Z M11.1835134,4.10726425 L10.8115948,3.90999171 L10.4399715,4.10766218 L10.5106631,3.68934093 L10.2096823,3.39288497 L10.6253155,3.33195233 L10.8111517,2.95103627 L10.997431,3.33160415 L11.4130642,3.39248705 L11.1122802,3.68889326 L11.1835134,4.10726425 Z M9.18563854,5.6213285 L8.81357227,5.42395648 L8.44194904,5.6215772 L8.51278833,5.20320622 L8.21170903,4.9070487 L8.62734221,4.84606632 L8.81312921,4.46515026 L8.99955618,4.84566839 L9.41514013,4.9065513 L9.11445466,5.20295751 L9.18563854,5.6213285 Z M6.43851145,5.6213285 L6.0664944,5.42395648 L5.69487117,5.6215772 L5.76566124,5.20320622 L5.46468039,4.9070487 L5.88031357,4.84606632 L6.0661498,4.46515026 L6.2522814,4.84566839 L6.66801303,4.9065513 L6.36732756,5.20295751 L6.43851145,5.6213285 Z" id="Shape" fill="#F7BC16"></path>
                    <polyline id="Shape" fill="#EA9F07" points="2.59832274 11.176943 12.4963294 11.176943 12.1632026 9.88367876 3.09060413 9.88367876"></polyline>
                    <polygon id="Shape" fill="#EFBB14" points="4.33770059 9.89372642 4.91977411 8.44119171 10.248671 8.44119171 10.8112994 9.94535751"></polygon>
                </g>
                <polygon id="Path-34" fill="#F74608" points="9.40206186 16.5 9.40206186 17 14.3505155 17 14.3505155 16 9.40206186 16"></polygon>
                <path d="M12.9976677,16 C12.8154777,16.3704296 12.4371614,16.625 12,16.625 C11.5628386,16.625 11.1845223,16.3704296 11.0023323,16 L10.6391753,16 L8.90721649,17 L8.90721649,15.5 L15.0927835,15.5 L15.0927835,17 L13.3608247,16 L12.9976677,16 Z" id="Combined-Shape" fill="#F2B60F"></path>
                <rect id="Rectangle" fill="#F2B60F" x="5.93814433" y="19.25" width="1.73195876" height="1.5"></rect>
                <rect id="Rectangle-2" fill="#F2B60F" x="5.93814433" y="19" width="1" height="1"></rect>
                <rect id="Rectangle-2" fill="#F2B60F" x="6.43298969" y="19" width="1" height="1"></rect>
                <rect id="Rectangle-2" fill="#F2B60F" x="6.92783505" y="19" width="1" height="1"></rect>
                <rect id="Rectangle-2" fill="#F2B60F" x="7.42268041" y="19" width="1" height="1"></rect>
                <rect id="Rectangle" fill="#F2B60F" x="10.1443299" y="18.5" width="3.71134021" height="2.5"></rect>
                <rect id="Rectangle-2" fill="#F2B60F" x="11.8762887" y="18.25" width="1" height="1"></rect>
                <rect id="Rectangle-2" fill="#F2B60F" x="12.371134" y="18.25" width="1" height="1"></rect>
                <rect id="Rectangle-2" fill="#F2B60F" x="12.8659794" y="18.25" width="1" height="1"></rect>
                <rect id="Rectangle-2" fill="#F2B60F" x="13.3608247" y="18.25" width="1" height="1"></rect>
                <rect id="Rectangle-2" fill="#F2B60F" x="10.3917526" y="18.25" width="1" height="1"></rect>
                <rect id="Rectangle-2" fill="#F2B60F" x="10.8865979" y="18.25" width="1" height="1"></rect>
                <rect id="Rectangle-2" fill="#F2B60F" x="11.3814433" y="18.25" width="1" height="1"></rect>
                <rect id="Rectangle" fill="#F2B60F" x="16.0824742" y="19.5" width="1.73195876" height="1"></rect>
                <rect id="Rectangle-2" fill="#F2B60F" x="16.3298969" y="19.25" width="1" height="1"></rect>
                <rect id="Rectangle-2" fill="#F2B60F" x="16.8247423" y="19.25" width="1" height="1"></rect>
                <rect id="Rectangle-2" fill="#F2B60F" x="17.3195876" y="19.25" width="1" height="1"></rect>
                <path d="M0.742268041,8.5 C-0.742268041,13.5 0.742268041,17.9166667 5.19587629,21.75 C10.6391753,25.5 17.0721649,23.5 19.2989691,21.75 C21.5257732,20 25.2371134,14.25 23.257732,8.5 C22.9360587,9.36673079 22.7628866,14.5 21.7731959,16.5 C21.1134021,17.8333333 20.0412371,19.0833333 18.556701,20.25 C13.2767714,20.0833333 10.1427508,20 9.15463918,20 C8.85491001,20 8.90721649,20.5 8.65979381,20.5 C8.41237113,20.5 8.41237113,20 8.16494845,20 C7.91752577,20 7.91752577,20.5 7.42268041,20.5 C6.73977577,20.5 6.21925704,20.25 5.93814433,20.25 C5.69072165,20.25 5.69072165,19.75 5.44329897,19.75 C5.27835052,19.75 5.11340206,19.9166667 4.94845361,20.25 C3.6835124,18.8312094 2.7762959,17.5812094 2.22680412,16.5 C1.67731235,15.4187906 1.18246699,12.7521239 0.742268041,8.5 Z" id="Path-35" fill="#F2B60F"></path>
            </g>
        </g>
    </g>
</svg>