<?xml version="1.0" encoding="UTF-8"?>
<svg width="44px" height="44px" viewBox="0 0 44 44" version="1.1" xmlns="http://www.w3.org/2000/svg" xmlns:xlink="http://www.w3.org/1999/xlink">
    <!-- Generator: Sketch 50.2 (55047) - http://www.bohemiancoding.com/sketch -->
    <title>Group 7</title>
    <desc>Created with Sketch.</desc>
    <defs>
        <linearGradient x1="21.8199027%" y1="9.9273055%" x2="65.4252197%" y2="72.6330552%" id="linearGradient-1">
            <stop stop-color="#FEE12C" offset="0%"></stop>
            <stop stop-color="#FEB92C" offset="100%"></stop>
        </linearGradient>
    </defs>
    <g id="二期设计终稿" stroke="none" stroke-width="1" fill="none" fill-rule="evenodd">
        <g id="人才分析-就业人才分析" transform="translate(-220.000000, -153.000000)">
            <g id="Group-3" transform="translate(200.000000, 132.000000)">
                <g id="面积使用率" transform="translate(20.000000, 21.000000)">
                    <g id="Group-3">
                        <g id="Group-7">
                            <circle id="Oval-2-Copy-17" fill="url(#linearGradient-1)" cx="22" cy="22" r="22"></circle>
                            <g id="参与人数" transform="translate(10.000000, 13.000000)" fill-rule="nonzero">
                                <rect id="Rectangle-path" fill="#000000" opacity="0" x="0" y="0" width="17.4744027" height="17.4744027"></rect>
                                <path d="M8.88054607,9.13139932 C8.88054607,9.13139932 8.87542662,9.13139932 8.88054607,9.13139932 C8.87542662,9.13139932 8.88054607,9.13139932 8.88054607,9.13139932 C8.88054607,8.91126281 8.70136518,8.73720137 8.48122866,8.73720137 C7.02730374,8.73720137 5.83959044,7.50341297 5.83959044,5.98293516 C5.83959044,4.46757679 7.0221843,3.22866895 8.48122866,3.22866894 C8.70136518,3.22866894 8.88054607,3.05460751 8.88054607,2.83959044 C8.88054607,2.62457338 8.70136518,2.45051195 8.48122866,2.45051195 C6.58191125,2.45051195 5.03583618,4.03754266 5.03583618,5.98805461 C5.03583618,7.28839591 5.72696246,8.42491468 6.74573378,9.03924915 C4.57508532,9.78668943 3.00853242,11.8959044 3.00853242,14.3788396 C3.00853242,14.5938567 3.18771332,14.7679181 3.40784983,14.7679181 C3.62798634,14.7679181 3.80716724,14.5938567 3.80716724,14.3788396 C3.80716724,11.7064846 5.90102389,9.53071671 8.47610922,9.53071673 C8.70136519,9.52559728 8.88054607,9.35153584 8.88054607,9.13139932 Z" id="Shape" fill="#FFFFFF"></path>
                                <path d="M15.1416382,9.30546075 C16.4419795,8.60921502 17.327645,7.26279863 17.327645,5.7116041 C17.327645,3.44880547 15.443686,1.6109215 13.1245734,1.6109215 C10.8054608,1.6109215 8.92150171,3.44880547 8.92150171,5.7116041 C8.92150171,7.27303755 9.8225256,8.63481228 11.1433447,9.32593856 C8.38907851,10.1552901 6.38737201,12.6587031 6.38737201,15.612628 C6.38737201,15.8276451 6.56655291,16.0068259 6.78668942,16.0068259 C7.00682593,16.0068259 7.18600683,15.8327645 7.18600683,15.612628 C7.18600683,12.4180887 9.84812286,9.8225256 13.0938567,9.81740614 C13.1194539,9.82252559 13.1450512,9.81228669 13.1706485,9.81228669 C13.2064846,9.81740614 13.2423208,9.8225256 13.2832765,9.81740614 C16.5290102,9.81740614 19.1962457,12.4180887 19.1962457,15.612628 C19.1962457,15.8276451 19.3754266,16.0068259 19.5955631,16.0068259 C19.8156997,16.0068259 19.9948805,15.8327645 19.9948805,15.612628 C20,12.6279864 17.9419795,10.1040956 15.1416382,9.30546075 Z M13.1245734,9.03412969 C11.2508532,9.03412969 9.72525598,7.5443686 9.72525597,5.71672354 C9.72525597,3.88395904 11.2508532,2.3993174 13.1245734,2.3993174 C14.9982935,2.3993174 16.5238908,3.88907849 16.5238908,5.71672354 C16.5238908,7.5443686 14.9982935,9.03412969 13.1245734,9.03412969 Z" id="Shape" fill="#FFFFFF"></path>
                            </g>
                        </g>
                    </g>
                </g>
            </g>
        </g>
    </g>
</svg>