<?xml version="1.0" encoding="UTF-8"?>
<svg width="44px" height="44px" viewBox="0 0 44 44" version="1.1" xmlns="http://www.w3.org/2000/svg" xmlns:xlink="http://www.w3.org/1999/xlink">
    <!-- Generator: Sketch 50.2 (55047) - http://www.bohemiancoding.com/sketch -->
    <title>Group 12</title>
    <desc>Created with Sketch.</desc>
    <defs>
        <linearGradient x1="21.8199027%" y1="9.9273055%" x2="65.3478744%" y2="72.5218304%" id="linearGradient-1">
            <stop stop-color="#A994E3" offset="0%"></stop>
            <stop stop-color="#5E2DE3" offset="100%"></stop>
        </linearGradient>
    </defs>
    <g id="二期设计终稿" stroke="none" stroke-width="1" fill="none" fill-rule="evenodd">
        <g id="人才分析-就业人才分析" transform="translate(-1030.000000, -153.000000)">
            <g id="Group-3-Copy-5" transform="translate(1010.000000, 132.000000)">
                <g id="面积使用率" transform="translate(20.000000, 21.000000)">
                    <g id="Group-3">
                        <g id="Group-12">
                            <circle id="Oval-2-Copy-17" fill="url(#linearGradient-1)" cx="22" cy="22" r="22"></circle>
                            <g id="Group-51" transform="translate(13.000000, 13.000000)">
                                <path d="M13.9555167,9.22910649 C15.6349055,8.44031471 16.7943665,6.78246269 16.7943665,4.86120229 C16.7943665,2.17650963 14.5373054,2.20517693e-05 11.7530212,2.20517693e-05 C8.96889707,2.20517693e-05 6.71172165,2.17653168 6.71172165,4.86120229 C6.71172165,6.78246269 7.87118258,8.44031471 9.55068575,9.22910649 C6.62779223,10.0860382 4.4641741,12.6036888 4.22382036,15.6439441 C4.2036956,15.6926785 4.19111762,15.7431771 4.19111762,15.7989681 C4.19111762,16.022573 4.37910123,16.2040591 4.6112221,16.2040591 C4.84334298,16.2040591 5.03155528,16.0236756 5.03155528,15.7989681 L5.05236611,15.7989681 C5.27076556,12.4091701 8.18336801,9.72240457 11.7531584,9.72240457 L13.9555167,9.22910649 Z M15.9542718,4.86120229 C15.9542718,7.09934661 14.073178,8.91332516 11.7531127,8.91332516 C9.43403071,8.91332516 7.5530512,7.09934661 7.5530512,4.86120229 C7.5530512,2.62504262 9.43403071,0.810292263 11.7531127,0.810292263 C14.073178,0.810314315 15.9542718,2.62504262 15.9542718,4.86120229 Z M0.442628457,15.6428415 C0.422732382,15.691576 0.410154403,15.7431771 0.411069165,15.7989681 C0.411069165,16.0227935 0.598138009,16.2040591 0.831173648,16.2040591 C1.06215107,16.2040591 1.25127813,16.0236756 1.25127813,15.7989681 L1.27231766,15.7989681 C1.45824305,12.8892371 3.63331857,10.5032577 6.50267564,9.88448508 C6.83885071,9.62515627 7.19698006,9.39736149 7.56883084,9.18985434 C7.56448572,9.16537688 7.5530512,9.14222252 7.5530512,9.11487833 C7.5530512,9.03571248 7.56974561,8.95985439 7.59924668,8.89193494 C5.45344354,8.70956681 3.76982395,6.97695929 3.76982395,4.86120229 C3.76982395,2.73960156 5.46487807,0.999606703 7.62120097,0.828484973 C7.92993317,0.532770747 8.27868621,0.273441939 8.650537,0.0497267398 C8.42893588,0.0202876278 8.20321834,0 7.97109747,0 C5.1867904,0 2.9307813,2.1773917 2.9307813,4.86118023 C2.9307813,6.78244064 4.09024223,8.44029265 5.76860195,9.22908444 C2.84685188,10.0860382 0.683210882,12.6036667 0.442628457,15.6428415 Z" id="Shape" fill="#FFFFFF" fill-rule="nonzero"></path>
                                <polygon id="Star" stroke="#FFFFFF" stroke-width="0.5" points="14.9308049 14.5868281 13.5758842 15.2736954 13.8346511 13.8188872 12.7384972 12.7885863 14.2533446 12.5763326 14.9308049 11.2527043 15.6082652 12.5763326 17.1231126 12.7885863 16.0269588 13.8188872 16.2857256 15.2736954"></polygon>
                            </g>
                        </g>
                    </g>
                </g>
            </g>
        </g>
    </g>
</svg>