<?xml version="1.0" encoding="UTF-8"?>
<svg width="44px" height="44px" viewBox="0 0 44 44" version="1.1" xmlns="http://www.w3.org/2000/svg" xmlns:xlink="http://www.w3.org/1999/xlink">
    <!-- Generator: Sketch 50.2 (55047) - http://www.bohemiancoding.com/sketch -->
    <title>Group 10</title>
    <desc>Created with Sketch.</desc>
    <defs>
        <linearGradient x1="14.3745095%" y1="18.5530964%" x2="85.2711832%" y2="82.3677476%" id="linearGradient-1">
            <stop stop-color="#FD7D4B" offset="0%"></stop>
            <stop stop-color="#FD4B5C" offset="100%"></stop>
        </linearGradient>
    </defs>
    <g id="二期设计终稿" stroke="none" stroke-width="1" fill="none" fill-rule="evenodd">
        <g id="人才分析-就业人才分析" transform="translate(-490.000000, -153.000000)">
            <g id="Group-3-Copy-3" transform="translate(470.000000, 132.000000)">
                <g id="面积使用率" transform="translate(20.000000, 21.000000)">
                    <g id="Group-3">
                        <g id="Group-10">
                            <circle id="Oval-2-Copy-17" fill="url(#linearGradient-1)" cx="22" cy="22" r="22"></circle>
                            <g id="新增" transform="translate(12.000000, 13.000000)" fill-rule="nonzero">
                                <rect id="Rectangle-path" fill="#000000" opacity="0" x="0" y="0" width="19" height="19"></rect>
                                <path d="M12.8203242,10.4483115 C14.1828877,9.78461035 15.1236104,8.38966895 15.1236104,6.7730918 C15.1236104,4.51415137 13.2923555,2.68282227 11.0333408,2.68282227 C8.77445605,2.68282227 6.9431084,4.51416992 6.9431084,6.7730918 C6.9431084,8.38966895 7.88383105,9.78461035 9.2464873,10.4483115 C6.8750127,11.1693467 5.11957227,13.2877354 4.9245625,15.8458516 C4.90823437,15.8868574 4.8980293,15.9293477 4.8980293,15.976291 C4.8980293,16.1644355 5.05054883,16.3171406 5.23887891,16.3171406 C5.42720898,16.3171406 5.57991406,16.1653633 5.57991406,15.976291 L5.59679883,15.976291 C5.77399609,13.1240645 8.13712109,10.8633799 11.0334521,10.8633799 L12.8203242,10.4483115 Z M14.4420039,6.7730918 C14.4420039,8.6562998 12.9157881,10.1826084 11.033415,10.1826084 C9.15183984,10.1826084 7.6257168,8.6562998 7.6257168,6.7730918 C7.6257168,4.89155371 9.15183984,3.3645957 11.033415,3.3645957 C12.9157881,3.36461426 14.4420039,4.89155371 14.4420039,6.7730918 Z M1.85671191,15.8449238 C1.84056934,15.8859297 1.83036426,15.9293477 1.83110645,15.976291 C1.83110645,16.1646211 1.98288379,16.3171406 2.17195605,16.3171406 C2.3593584,16.3171406 2.51280566,16.1653633 2.51280566,15.976291 L2.52987598,15.976291 C2.68072559,13.528 4.44546191,11.5204014 6.7735,10.9997568 C7.04625391,10.7815537 7.33682031,10.5898838 7.63851953,10.4152842 C7.63499414,10.3946885 7.6257168,10.3752061 7.6257168,10.3521982 C7.6257168,10.2855869 7.63926172,10.2217588 7.66319727,10.1646104 C5.92221094,10.0111631 4.55621484,8.55332129 4.55621484,6.7730918 C4.55621484,4.98794531 5.93148828,3.5238877 7.68100977,3.37990332 C7.93149805,3.13108496 8.21445703,2.91288184 8.51615625,2.72464453 C8.33636133,2.69987402 8.15322656,2.68280371 7.96489648,2.68280371 C5.70586328,2.68280371 3.87546191,4.51489355 3.87546191,6.77307324 C3.87546191,8.38965039 4.81618457,9.7845918 6.17791309,10.448293 C3.80736621,11.1693467 2.05190723,13.2877168 1.85671191,15.8449238 Z M11.9480684,13.5819941 C11.8435127,13.5819941 11.7587178,13.6668818 11.7587178,13.7715303 L11.7587178,14.0129268 C11.7587178,14.1173896 11.8435127,14.2024629 11.9480684,14.2024629 L15.9124443,14.2024629 C16.017,14.2024629 16.1017949,14.1175752 16.1017949,14.0129268 L16.1017949,13.7715303 C16.1017949,13.6669746 16.017,13.5819941 15.9124443,13.5819941 L11.9480684,13.5819941 Z M14.2475508,11.9100498 C14.2475508,11.8054941 14.1625703,11.7206992 14.0580146,11.7206992 L13.8167109,11.7206992 C13.7120625,11.7206992 13.627082,11.8054941 13.627082,11.9100498 L13.627082,15.8744258 C13.627082,15.9789814 13.7119697,16.0637764 13.8167109,16.0637764 L14.0580146,16.0637764 C14.1625703,16.0637764 14.2475508,15.9789814 14.2475508,15.8744258 L14.2475508,11.9100498 Z" id="Shape" fill="#FFFFFF"></path>
                            </g>
                        </g>
                    </g>
                </g>
            </g>
        </g>
    </g>
</svg>