<?xml version="1.0" standalone="no"?><!DOCTYPE svg PUBLIC "-//W3C//DTD SVG 1.1//EN" "http://www.w3.org/Graphics/SVG/1.1/DTD/svg11.dtd"><svg t="1534053944189" class="icon" style="" viewBox="0 0 1024 1024" version="1.1" xmlns="http://www.w3.org/2000/svg" p-id="2636" xmlns:xlink="http://www.w3.org/1999/xlink" width="200" height="200"><defs><style type="text/css"></style></defs><path d="M940.895232 517.407744c-17.23904 0-31.213568 13.978624-31.213568 31.217664l0 295.104512c0 37.866496-30.809088 68.677632-68.677632 68.677632l-658.69824 0c-37.86752 0-68.672512-30.811136-68.672512-68.677632L113.63328 224.055296c0-37.868544 30.804992-68.66944 68.672512-68.66944l214.706176 0c17.234944 0 31.209472-13.980672 31.209472-31.224832 0-17.23392-13.973504-31.212544-31.209472-31.212544L182.304768 92.94848C110.016512 92.94848 51.2 151.760896 51.2 224.055296l0 619.674624c0 72.293376 58.816512 131.104768 131.104768 131.104768l658.69824 0c72.298496 0 131.104768-58.812416 131.104768-131.104768L972.107776 548.626432C972.107776 531.387392 958.138368 517.407744 940.895232 517.407744L940.895232 517.407744 940.895232 517.407744zM285.83936 700.324864c-3.10272 16.960512 8.128512 33.224704 25.083904 36.327424 1.89952 0.352256 3.790848 0.518144 5.6576 0.518144 14.779392 0 27.90912-10.540032 30.669824-25.595904 0.237568-1.312768 25.004032-132.596736 111.204352-263.113728 50.158592-75.953152 110.943232-136.349696 180.658176-179.518464 66.545664-41.20576 141.75744-66.854912 224.356352-76.635136l-101.624832 104.845312c-11.999232 12.379136-11.68896 32.14336 0.6912 44.140544 6.057984 5.873664 13.889536 8.802304 21.716992 8.802304 8.155136 0 16.300032-3.175424 22.416384-9.493504l157.331456-162.31936c0.115712-0.116736 0.22016-0.241664 0.335872-0.36864 0.161792-0.164864 0.319488-0.336896 0.47616-0.510976 0.171008-0.18944 0.342016-0.386048 0.512-0.584704 0.022528-0.0256 0.045056-0.058368 0.07168-0.079872 0.152576-0.192512 0.310272-0.376832 0.462848-0.565248 0.165888-0.202752 0.335872-0.41472 0.489472-0.62464 0.152576-0.192512 0.295936-0.390144 0.448512-0.587776 0.171008-0.237568 0.340992-0.480256 0.512-0.717824 0.10752-0.162816 0.22016-0.32768 0.32768-0.490496 0.10752-0.160768 0.22016-0.321536 0.319488-0.489472 0.03584-0.053248 0.07168-0.115712 0.115712-0.180224 0.022528-0.038912 0.050176-0.089088 0.0768-0.134144 0.099328-0.157696 0.192512-0.318464 0.29184-0.47616 0.156672-0.282624 0.319488-0.556032 0.47616-0.832512 0.090112-0.159744 0.169984-0.31744 0.256-0.47616 0.03072-0.058368 0.063488-0.119808 0.094208-0.178176 0.111616-0.22528 0.233472-0.454656 0.346112-0.678912 0.089088-0.188416 0.1792-0.380928 0.269312-0.569344 0.125952-0.265216 0.242688-0.521216 0.359424-0.792576 0.095232-0.208896 0.176128-0.42496 0.265216-0.644096 0.104448-0.247808 0.197632-0.490496 0.292864-0.733184 0.089088-0.246784 0.1792-0.490496 0.264192-0.736256 0.077824-0.22528 0.152576-0.448512 0.22528-0.668672 0.090112-0.270336 0.169984-0.54272 0.25088-0.813056 0.059392-0.216064 0.116736-0.422912 0.175104-0.636928 0.080896-0.278528 0.152576-0.566272 0.216064-0.852992 0.039936-0.172032 0.084992-0.342016 0.125952-0.519168 0.013312-0.047104 0.018432-0.101376 0.03072-0.146432 0.058368-0.27136 0.111616-0.54272 0.165888-0.817152 0.026624-0.157696 0.059392-0.316416 0.090112-0.474112 0.018432-0.124928 0.03584-0.239616 0.058368-0.366592 0.031744-0.21504 0.059392-0.427008 0.095232-0.641024 0.018432-0.142336 0.039936-0.284672 0.058368-0.422912 0.026624-0.205824 0.049152-0.39936 0.07168-0.607232 0.013312-0.11776 0.021504-0.236544 0.03072-0.350208 0.014336-0.106496 0.022528-0.2048 0.031744-0.313344 0.004096-0.064512 0.009216-0.123904 0.018432-0.180224 0.018432-0.275456 0.03584-0.54272 0.054272-0.817152 0-0.039936 0-0.084992 0.004096-0.126976 0.00512-0.164864 0.013312-0.331776 0.018432-0.49664 0 0 0-0.01536 0.00512-0.019456 0.008192-0.3328 0.013312-0.659456 0.013312-0.996352l0-0.01024 0-0.021504c0-0.51712-0.013312-1.01888-0.03584-1.53088-0.004096-0.045056-0.004096-0.086016-0.013312-0.126976-0.00512-0.098304-0.00512-0.192512-0.009216-0.282624l0-0.021504c-0.021504-0.364544-0.054272-0.715776-0.090112-1.069056-0.014336-0.104448-0.026624-0.211968-0.03584-0.315392l0-0.003072c-0.009216-0.054272-0.009216-0.10752-0.014336-0.161792-0.039936-0.32256-0.079872-0.643072-0.130048-0.966656-0.018432-0.13824-0.03584-0.277504-0.058368-0.415744-0.009216-0.059392-0.018432-0.113664-0.031744-0.172032-0.039936-0.274432-0.094208-0.541696-0.14336-0.813056-0.03584-0.17408-0.07168-0.35328-0.10752-0.530432 0-0.024576-0.009216-0.052224-0.018432-0.074752-0.009216-0.059392-0.021504-0.11264-0.031744-0.166912-0.043008-0.200704-0.094208-0.39936-0.139264-0.595968-0.075776-0.32768-0.159744-0.656384-0.25088-0.986112-0.03584-0.124928-0.07168-0.248832-0.10752-0.371712-0.10752-0.380928-0.224256-0.76288-0.350208-1.139712-0.022528-0.070656-0.049152-0.14336-0.07168-0.21504-0.090112-0.264192-0.171008-0.533504-0.274432-0.80384-0.009216-0.0256-0.021504-0.058368-0.03584-0.090112-0.039936-0.115712-0.090112-0.228352-0.135168-0.342016-0.013312-0.044032-0.03072-0.078848-0.049152-0.119808-0.10752-0.277504-0.216064-0.561152-0.32768-0.835584-0.06656-0.1536-0.144384-0.309248-0.210944-0.4608-0.004096-0.01536-0.009216-0.026624-0.009216-0.026624-0.129024-0.29184-0.25088-0.572416-0.385024-0.84992l-0.01024-0.017408c-0.29184-0.612352-0.611328-1.204224-0.943104-1.79712l0-0.00512c-0.242688-0.420864-0.493568-0.837632-0.749568-1.257472-0.026624-0.04096-0.058368-0.086016-0.080896-0.124928-0.14848-0.233472-0.295936-0.47104-0.452608-0.700416l-0.031744-0.045056c-0.075776-0.11264-0.151552-0.226304-0.237568-0.346112-0.080896-0.11776-0.175104-0.242688-0.265216-0.367616-0.06656-0.09216-0.134144-0.185344-0.196608-0.275456-0.067584-0.090112-0.125952-0.1792-0.192512-0.260096-0.063488-0.089088-0.131072-0.180224-0.201728-0.270336-0.157696-0.21504-0.3328-0.421888-0.498688-0.631808-0.090112-0.10752-0.175104-0.210944-0.265216-0.320512-0.045056-0.065536-0.098304-0.124928-0.144384-0.192512-0.21504-0.242688-0.4352-0.490496-0.651264-0.731136-0.058368-0.06656-0.111616-0.131072-0.175104-0.192512-0.295936-0.334848-0.606208-0.652288-0.919552-0.969728-0.026624-0.027648-0.054272-0.054272-0.086016-0.082944-0.331776-0.334848-0.672768-0.663552-1.021952-0.980992-0.019456-0.01536-0.032768-0.024576-0.041984-0.03584-0.359424-0.323584-0.713728-0.632832-1.087488-0.934912-0.018432-0.017408-0.039936-0.034816-0.058368-0.054272-0.349184-0.287744-0.709632-0.571392-1.073152-0.838656-0.050176-0.03584-0.095232-0.080896-0.14848-0.11776-0.32768-0.241664-0.661504-0.47616-1.002496-0.704512-0.094208-0.07168-0.192512-0.139264-0.29184-0.206848-0.165888-0.111616-0.331776-0.224256-0.50688-0.3328-0.130048-0.090112-0.270336-0.164864-0.40448-0.249856-0.152576-0.094208-0.306176-0.18944-0.457728-0.279552-0.140288-0.079872-0.270336-0.164864-0.40448-0.244736-0.152576-0.08192-0.301056-0.157696-0.449536-0.242688-0.1792-0.099328-0.362496-0.197632-0.54272-0.29184-0.260096-0.144384-0.521216-0.275456-0.786432-0.405504-0.201728-0.103424-0.40448-0.192512-0.606208-0.28672-0.25088-0.115712-0.502784-0.233472-0.749568-0.336896-0.229376-0.104448-0.461824-0.197632-0.6912-0.287744-0.22528-0.094208-0.457728-0.192512-0.692224-0.272384-0.256-0.104448-0.512-0.18944-0.777216-0.282624-0.205824-0.077824-0.421888-0.149504-0.628736-0.212992-0.139264-0.049152-0.269312-0.089088-0.407552-0.129024L721.668096 50.760704c-16.36864-5.430272-34.034688 3.443712-39.45472 19.802112-5.424128 16.36864 3.444736 34.030592 19.80416 39.45472l92.158976 30.554112C726.43584 155.209728 663.5776 180.36736 606.242816 215.8592c-77.457408 47.96928-144.71168 114.643968-199.886848 198.189056C313.208832 555.091968 286.912512 694.460416 285.83936 700.324864L285.83936 700.324864 285.83936 700.324864zM285.83936 700.324864" p-id="2637" fill="#ffffff"></path></svg>