<?xml version="1.0" encoding="UTF-8"?>
<svg width="160px" height="160px" viewBox="0 0 160 160" version="1.1" xmlns="http://www.w3.org/2000/svg" xmlns:xlink="http://www.w3.org/1999/xlink">
    <!-- Generator: Sketch 50 (54983) - http://www.bohemiancoding.com/sketch -->
    <title>效益</title>
    <desc>Created with Sketch.</desc>
    <defs>
        <radialGradient cx="50%" cy="50%" fx="50%" fy="50%" r="102.322593%" id="radialGradient-1">
            <stop stop-color="#0E1547" offset="0%"></stop>
            <stop stop-color="#00AAFF" offset="100%"></stop>
        </radialGradient>
        <linearGradient x1="50%" y1="0%" x2="50%" y2="100%" id="linearGradient-2">
            <stop stop-color="#00F8FC" offset="0%"></stop>
            <stop stop-color="#00CCF7" offset="100%"></stop>
        </linearGradient>
    </defs>
    <g id="大屏-0727" stroke="none" stroke-width="1" fill="none" fill-rule="evenodd">
        <g id="五常街道产业大脑" transform="translate(-4525.000000, -2498.000000)">
            <g id="Group-24" transform="translate(4386.000000, 2180.000000)">
                <g id="Group-13" transform="translate(144.000000, 323.000000)">
                    <g id="效益">
                        <g id="Oval-10">
                            <g id="path-3-link" fill="url(#radialGradient-1)">
                                <circle id="path-3" cx="75" cy="75" r="75"></circle>
                            </g>
                            <g id="path-3-link" style="mix-blend-mode: screen;" fill="#000000">
                                <circle id="path-3" cx="75" cy="75" r="75"></circle>
                            </g>
                            <g id="path-3-link" stroke="url(#linearGradient-2)" stroke-width="10">
                                <circle id="path-3" cx="75" cy="75" r="75"></circle>
                            </g>
                        </g>
                        <circle id="Oval-9" stroke="url(#linearGradient-2)" stroke-width="2" opacity="0.400000006" cx="75" cy="75" r="60"></circle>
                        <path d="M15.1292887,71.0294247 C15.0435441,72.3418837 15,73.6658567 15,75 C15,76.4080446 15.0485017,77.8047611 15.1439257,79.1885697 M71.1282314,134.877085 C72.4083245,134.958613 73.6993291,135 75,135 C76.3214433,135 77.632909,134.957281 78.9330915,134.873149 M134.86289,79.0885207 C134.953807,77.7374481 135,76.3741185 135,75 C135,73.6710178 134.956792,72.3521273 134.871705,71.0446567 M78.8206594,15.1196812 C77.5573144,15.0402924 76.2833626,15 75,15 C73.7098412,15 72.4291931,15.0407203 71.1592708,15.1209458" id="Oval-9" stroke="url(#linearGradient-2)" stroke-width="2"></path>
                        <g id="Combined-Shape" transform="translate(47.000000, 42.000000)">
                            <g id="path-6-link" fill="#000000" fill-rule="nonzero">
                                <polygon id="path-6" points="32.5 29.6625735 32.5 40.5316055 55 40.5316055 55 49.5316055 32.5 49.5316055 32.5 68.031605 23.5 68.031605 23.5 49.5316055 1 49.5316055 1 40.5316055 23.5 40.5316055 23.5 29.5316055 1 29.5316055 1 20.5316055 14.7824907 20.5316055 0.6399725 6.3890873 7.0039336 0.0251263 27.0104128 20.0316055 29.403046 20.0316055 49.4095252 0.0251263 55.773486 6.3890873 41.630968 20.5316055 55 20.5316055 55 29.5316055 32.630968 29.5316055"></polygon>
                            </g>
                            <g id="path-6-link" fill="#FFFFFF">
                                <polygon id="path-6" points="32.5 29.6625735 32.5 40.5316055 55 40.5316055 55 49.5316055 32.5 49.5316055 32.5 68.031605 23.5 68.031605 23.5 49.5316055 1 49.5316055 1 40.5316055 23.5 40.5316055 23.5 29.5316055 1 29.5316055 1 20.5316055 14.7824907 20.5316055 0.6399725 6.3890873 7.0039336 0.0251263 27.0104128 20.0316055 29.403046 20.0316055 49.4095252 0.0251263 55.773486 6.3890873 41.630968 20.5316055 55 20.5316055 55 29.5316055 32.630968 29.5316055"></polygon>
                            </g>
                            <g id="path-6-link" fill="#FFFFFF" fill-rule="nonzero">
                                <polygon id="path-6" points="32.5 29.6625735 32.5 40.5316055 55 40.5316055 55 49.5316055 32.5 49.5316055 32.5 68.031605 23.5 68.031605 23.5 49.5316055 1 49.5316055 1 40.5316055 23.5 40.5316055 23.5 29.5316055 1 29.5316055 1 20.5316055 14.7824907 20.5316055 0.6399725 6.3890873 7.0039336 0.0251263 27.0104128 20.0316055 29.403046 20.0316055 49.4095252 0.0251263 55.773486 6.3890873 41.630968 20.5316055 55 20.5316055 55 29.5316055 32.630968 29.5316055"></polygon>
                            </g>
                        </g>
                    </g>
                </g>
            </g>
        </g>
    </g>
</svg>